<svg xmlns="http://www.w3.org/2000/svg" width="20" height="20" viewBox="0 0 20 20">
  <path fill-rule="evenodd" d="M4.63603897,4.63603897 L15.363961,15.363961 C15.7544853,15.7544853 15.7544853,16.3876503 15.363961,16.7781746 C14.9734367,17.1686989 14.3402718,17.1686989 13.9497475,16.7781746 L12.5859819,15.4156642 C12.0912949,15.6523031 11.5591279,15.8231591 11.0008069,15.9169061 L11,17 C11,17.5522847 10.5522847,18 10,18 C9.44771525,18 9,17.5522847 9,17 L9.00019152,15.9170737 C6.48775905,15.4956512 4.50474513,13.5128262 4.08304057,11.0004894 L3,11 C2.44771525,11 2,10.5522847 2,10 C2,9.44771525 2.44771525,9 3,9 L4.08287175,9.00051689 C4.17658295,8.44164137 4.34755382,7.90895904 4.58442713,7.4138271 L3.22182541,6.05025253 C2.83130112,5.65972824 2.83130112,5.02656326 3.22182541,4.63603897 C3.6123497,4.24551468 4.24551468,4.24551468 4.63603897,4.63603897 Z M6,10 C6,12.209139 7.790861,14 10,14 C10.3579355,14 10.7048904,13.9529862 11.0350263,13.8647968 L6.13520315,8.96497367 C6.04701381,9.2951096 6,9.64206447 6,10 Z M10,2 C10.5522847,2 11,2.44771525 11,3 L11.0008069,4.08309386 C13.5128044,4.50488047 15.495371,6.4875668 15.9169786,8.99962505 L17,9 C17.5522847,9 18,9.44771525 18,10 C18,10.5522847 17.5522847,11 17,11 L15.9169786,11.0003749 C15.8232184,11.559025 15.6522592,12.0914944 15.4154461,12.5864379 L13.8645726,11.0358653 C13.9529065,10.7054782 14,10.3582388 14,10 C14,7.790861 12.209139,6 10,6 C9.64176124,6 9.29452176,6.0470935 8.96413467,6.13542737 L7.41358676,4.58454212 C7.90869057,4.34765512 8.4413442,4.17666447 9.00019152,4.08292631 L9,3 C9,2.44771525 9.44771525,2 10,2 Z"/>
</svg>
