<svg xmlns="http://www.w3.org/2000/svg" width="20" height="20" viewBox="0 0 20 20">
  <path fill-rule="evenodd" d="M3,2 L6,2 C7.59768088,2 8.90366088,3.24891996 8.99490731,4.82372721 L9,5 L9,8 C9,8.39130037 8.77237182,8.74269036 8.42419139,8.90561006 L8.31622777,8.9486833 L6.07515909,9.69570619 L6.31438206,10.0522112 C7.29342625,11.4642968 8.53570319,12.7065738 9.94778879,13.6856179 L10.3042938,13.9248409 L11.0513167,11.6837722 C11.1750567,11.3125521 11.5021231,11.0511766 11.8839558,11.0067218 L12,11 L15,11 C16.5976809,11 17.9036609,12.24892 17.9949073,13.8237272 L18,14 L18,17 C18,17.5522847 17.5522847,18 17,18 C9.14528356,18 2,10.8547164 2,3 C2,2.48716416 2.38604019,2.06449284 2.88337887,2.00672773 L3,2 Z M15,13 L12.7207592,13 L12.0866159,14.9024299 L12.503038,15.0827655 C13.4812741,15.4862663 14.504536,15.7677259 15.5504363,15.9047573 L16,15.9545772 L16,14 C16,13.4477153 15.5522847,13 15,13 Z M13,6 C13.5522847,6 14,6.44771525 14,7 C14,7.55228475 13.5522847,8 13,8 C12.4477153,8 12,7.55228475 12,7 C12,6.44771525 12.4477153,6 13,6 Z M13,2 C15.7614237,2 18,4.23857625 18,7 C18,7.55228475 17.5522847,8 17,8 C16.4871642,8 16.0644928,7.61395981 16.0067277,7.11662113 L15.9949073,6.82372721 C15.9036609,5.24891996 14.5976809,4 13,4 C12.4477153,4 12,3.55228475 12,3 C12,2.44771525 12.4477153,2 13,2 Z M6,4 L4.04542281,4 C4.15434764,5.20218464 4.45609077,6.37897785 4.91723455,7.49696198 L5.0975701,7.91338408 L7,7.27924078 L7,5 C7,4.44771525 6.55228475,4 6,4 Z"/>
</svg>
