<svg xmlns="http://www.w3.org/2000/svg" width="20" height="20" viewBox="0 0 20 20">
  <path fill-rule="evenodd" d="M10,5 L10,15 C10,15.8240453 9.05923625,16.2944272 8.4,15.8 L4.66666667,13 L3,13 C2.44771525,13 2,12.5522847 2,12 L2,8 C2,7.44771525 2.44771525,7 3,7 L4.66666667,7 L8.4,4.2 C9.05923625,3.70557281 10,4.17595468 10,5 Z M12.0922902,6.58040151 C12.324028,6.07908722 12.9182842,5.86055234 13.4195985,6.09229019 C14.9789865,6.81313383 16,8.31405787 16,10 C16,11.6859421 14.9789865,13.1868662 13.4195985,13.9077098 C12.9182842,14.1394477 12.324028,13.9209128 12.0922902,13.4195985 C11.8605523,12.9182842 12.0790872,12.324028 12.5804015,12.0922902 C13.4512784,11.6897181 14,10.8830789 14,10 C14,9.11692105 13.4512784,8.31028188 12.5804015,7.90770981 C12.0790872,7.67597196 11.8605523,7.08171579 12.0922902,6.58040151 Z M8,7 L5.6,8.8 C5.42690383,8.92982213 5.21637021,9 5,9 L4,9 L4,11 L5,11 C5.21637021,11 5.42690383,11.0701779 5.6,11.2 L8,13 L8,7 Z"/>
</svg>
