<svg xmlns="http://www.w3.org/2000/svg" width="20" height="20" viewBox="0 0 20 20">
  <path fill-rule="evenodd" d="M12,2 C12.5522847,2 13,2.44771525 13,3 L13,5 L14,5 C15.6568542,5 17,6.34314575 17,8 L17,10 C17,13.3137085 14.3137085,16 11,16 L11,17 C11,17.5522847 10.5522847,18 10,18 C9.44771525,18 9,17.5522847 9,17 L9,16 C5.6862915,16 3,13.3137085 3,10 L3,8 C3,6.34314575 4.34314575,5 6,5 L7,5 L7,3 C7,2.44771525 7.44771525,2 8,2 C8.55228475,2 9,2.44771525 9,3 L9,5 L11,5 L11,3 C11,2.44771525 11.4477153,2 12,2 Z M14,7 L6,7 C5.44771525,7 5,7.44771525 5,8 L5,10 C5,12.209139 6.790861,14 9,14 L11,14 C13.209139,14 15,12.209139 15,10 L15,8 C15,7.44771525 14.5522847,7 14,7 Z"/>
</svg>
