<svg xmlns="http://www.w3.org/2000/svg" width="20" height="20" viewBox="0 0 20 20">
  <path fill-rule="evenodd" d="M13,2 C14.6568542,2 16,3.34301602 16,4.99971023 L16,16.9981648 C16,17.8152933 15.0831283,18.2724812 14.4357112,17.8241484 L10,14.3156949 L5.65079137,17.7573481 C5.00211805,18.3133001 4,17.8524355 4,16.9981648 L4,4.99971023 C4,3.34301602 5.34314575,2 7,2 L13,2 Z M13,3.99980682 L7,3.99980682 C6.44771525,3.99980682 6,4.44747883 6,4.99971023 L6,14.8241542 L9.34920863,12.2395611 C9.72369836,11.9186009 10.2763016,11.9186009 10.6507914,12.2395611 L14,14.8241542 L14,4.99971023 C14,4.44747883 13.5522847,3.99980682 13,3.99980682 Z M10,4.99961365 C10.5522847,4.99961365 11,5.4473289 11,5.99961365 L11,6.999 L12.0000966,6.99942047 C12.552328,6.99942047 13,7.44709248 13,7.99932388 C13,8.55155529 12.552328,8.99922729 12.0000966,8.99922729 L11,8.999 L11,9.99903411 C11,10.5513189 10.5522847,10.9990341 10,10.9990341 C9.44771525,10.9990341 9,10.5513189 9,9.99903411 L9,8.999 L7.99990341,8.99922729 C7.44767201,8.99922729 7,8.55155529 7,7.99932388 C7,7.44709248 7.44767201,6.99942047 7.99990341,6.99942047 L9,6.999 L9,5.99961365 C9,5.4473289 9.44771525,4.99961365 10,4.99961365 Z"/>
</svg>
