<svg xmlns="http://www.w3.org/2000/svg" width="20" height="20" viewBox="0 0 20 20">
  <path fill-rule="evenodd" d="M5.65079137,17.7573481 C5.00211805,18.3133001 4,17.8524355 4,16.9981648 L4,4.99971023 C4,3.34301602 5.34314575,2 7,2 L13,2 C14.6568542,2 16,3.34301602 16,4.99971023 L16,16.9981648 C16,17.8524355 14.9978819,18.3133001 14.3492086,17.7573481 L10,14.3156949 L5.65079137,17.7573481 Z M14,14.8241542 L14,4.99971023 C14,4.44747883 13.5522847,3.99980682 13,3.99980682 L7,3.99980682 C6.44771525,3.99980682 6,4.44747883 6,4.99971023 L6,14.8241542 L9.34920863,12.2395611 C9.72369836,11.9186009 10.2763016,11.9186009 10.6507914,12.2395611 L14,14.8241542 Z"/>
</svg>
