<svg xmlns="http://www.w3.org/2000/svg" width="20" height="20" viewBox="0 0 20 20">
  <path fill-rule="evenodd" d="M9,10 C9,11.3062521 8.1651499,12.4175144 6.99991107,12.8293257 L7,17 C7,17.5522847 6.55228475,18 6,18 C5.44771525,18 5,17.5522847 5,17 L4.99909928,12.8289758 C3.83437743,12.4168852 3,11.3058822 3,10 C3,8.69411778 3.83437743,7.58311485 4.99909928,7.17102423 L5,3 C5,2.44771525 5.44771525,2 6,2 C6.55228475,2 7,2.44771525 7,3 L6.99991107,7.17067428 C8.1651499,7.58248558 9,8.69374794 9,10 Z M7,10 C7,9.44771525 6.55228475,9 6,9 C5.44771525,9 5,9.44771525 5,10 C5,10.5522847 5.44771525,11 6,11 C6.55228475,11 7,10.5522847 7,10 Z M17,15 C17,16.6568542 15.6568542,18 14,18 C12.3431458,18 11,16.6568542 11,15 C11,13.6941178 11.8343774,12.5831148 12.9990993,12.1710242 L13,3 C13,2.44771525 13.4477153,2 14,2 C14.5522847,2 15,2.44771525 15,3 L14.9999111,12.1706743 C16.1651499,12.5824856 17,13.6937479 17,15 Z M15,15 C15,14.4477153 14.5522847,14 14,14 C13.4477153,14 13,14.4477153 13,15 C13,15.5522847 13.4477153,16 14,16 C14.5522847,16 15,15.5522847 15,15 Z"/>
</svg>
