<svg xmlns="http://www.w3.org/2000/svg" width="20" height="20" viewBox="0 0 20 20">
  <path fill-rule="evenodd" d="M14.2097046,3.38710056 L14.2928932,3.29289322 C14.6533772,2.93240926 15.2206082,2.90467972 15.6128994,3.20970461 L15.7071068,3.29289322 L17.7071068,5.29289322 L17.7485042,5.336853 L17.7485042,5.336853 L17.8036654,5.40469339 L17.8036654,5.40469339 L17.8753288,5.5159379 L17.8753288,5.5159379 L17.9287745,5.62866398 L17.9287745,5.62866398 L17.9641549,5.73400703 L17.9641549,5.73400703 L17.9889822,5.85153313 L17.9889822,5.85153313 L17.9982534,5.94073988 L17.9982534,5.94073988 L17.9972642,6.07414757 L17.9972642,6.07414757 L17.9797599,6.20072576 L17.9797599,6.20072576 L17.9502619,6.31214252 L17.9502619,6.31214252 L17.9063266,6.42322155 L17.9063266,6.42322155 L17.8540045,6.52070875 L17.8540045,6.52070875 L17.787214,6.61675008 L17.7071068,6.70710678 L15.7071068,8.70710678 C15.3165825,9.09763107 14.6834175,9.09763107 14.2928932,8.70710678 C13.9324093,8.34662282 13.9046797,7.77939176 14.2097046,7.38710056 L14.2928932,7.29289322 L14.584,7 L13.1111111,7 C10.7169614,7 9.49594944,7.73635241 7.92774191,10.000274 C9.49631575,12.2638685 10.7173205,13 13.1111111,13 L14.585,13 L14.2928932,12.7071068 C13.9324093,12.3466228 13.9046797,11.7793918 14.2097046,11.3871006 L14.2928932,11.2928932 C14.6533772,10.9324093 15.2206082,10.9046797 15.6128994,11.2097046 L15.7071068,11.2928932 L17.7071068,13.2928932 L17.7485042,13.336853 L17.7485042,13.336853 L17.8036654,13.4046934 L17.8036654,13.4046934 L17.8736902,13.51299 L17.8736902,13.51299 L17.9063462,13.5769009 L17.9063462,13.5769009 L17.9392265,13.6559173 L17.9392265,13.6559173 L17.9721024,13.7645073 L17.9721024,13.7645073 L17.9930928,13.8819045 L17.9930928,13.8819045 L18,14 L18,14 L17.9972121,14.0752385 L17.9972121,14.0752385 L17.9797599,14.2007258 L17.9797599,14.2007258 L17.9502619,14.3121425 L17.9502619,14.3121425 L17.9063266,14.4232215 L17.9063266,14.4232215 L17.8540045,14.5207088 L17.8540045,14.5207088 L17.8036865,14.5951593 L17.8036865,14.5951593 C17.774687,14.6343256 17.7425008,14.6717127 17.7071068,14.7071068 L17.7894939,14.6138331 L17.7303555,14.6830723 L17.7303555,14.6830723 L15.7071068,16.7071068 C15.3165825,17.0976311 14.6834175,17.0976311 14.2928932,16.7071068 C13.9324093,16.3466228 13.9046797,15.7793918 14.2097046,15.3871006 L14.2928932,15.2928932 L14.584,15 L13.1111111,15 C10.1786171,15 8.51448364,14.0994685 6.77018151,11.8073946 L6.48047667,12.2756544 L6.24126887,12.6480886 L6.01922141,12.9805773 L5.79768417,13.2977542 C5.02016294,14.3868564 4.11998357,15 3,15 C2.44771525,15 2,14.5522847 2,14 C2,13.4871642 2.38604019,13.0644928 2.88337887,13.0067277 L3.09118001,12.9947258 C3.42600336,12.9558057 3.76789796,12.6988209 4.16992822,12.1356825 L4.4041073,11.798863 C4.52129659,11.6257342 4.64169822,11.4409653 4.77909446,11.2240287 L5.53835686,9.99955246 L5.53835686,9.99955246 L4.92266602,9.00439089 C4.62215135,8.52306551 4.40799143,8.19778128 4.16992822,7.8643175 C3.76789796,7.30117914 3.42600336,7.04419432 3.09118001,7.0052742 L3,7 C2.44771525,7 2,6.55228475 2,6 C2,5.44771525 2.44771525,5 3,5 C4.11998357,5 5.02016294,5.61314364 5.79768417,6.70224583 L6.01922141,7.01942268 L6.24126887,7.35191145 L6.48047667,7.72434562 L6.48047667,7.72434562 L6.77018151,8.19260536 C8.45433529,5.97956851 10.063754,5.06376025 12.8122188,5.00323249 L13.1111111,5 L14.585,5 L14.2928932,4.70710678 C13.9324093,4.34662282 13.9046797,3.77939176 14.2097046,3.38710056 L14.2928932,3.29289322 L14.2097046,3.38710056 Z"/>
</svg>
