<svg xmlns="http://www.w3.org/2000/svg" width="20" height="20" viewBox="0 0 20 20">
  <path fill-rule="evenodd" d="M5.52999894,4.1520017 L13.5299989,9.1520017 C14.156667,9.54366925 14.156667,10.4563308 13.5299989,10.8479983 L5.52999894,15.8479983 C4.86395093,16.2642783 4,15.7854355 4,15 L4,5 C4,4.21456446 4.86395093,3.73572169 5.52999894,4.1520017 Z M15,4 C15.5522847,4 16,4.44771525 16,5 L16,15 C16,15.5522847 15.5522847,16 15,16 C14.4477153,16 14,15.5522847 14,15 L14,5 C14,4.44771525 14.4477153,4 15,4 Z M6,6.80424764 L6,13.1957524 L11.1132038,10 L6,6.80424764 Z"/>
</svg>
