<svg xmlns="http://www.w3.org/2000/svg" width="20" height="20" viewBox="0 0 20 20">
  <path fill-rule="evenodd" d="M11,2 C11.2652165,2 11.5195704,2.10535684 11.7071068,2.29289322 L15.7071068,6.29289322 C15.8946432,6.4804296 16,6.73478351 16,7 C16,7.55228475 15.5522847,8 15,8 L11,8 C10.4871642,8 10.0644928,7.61395981 10.0067277,7.11662113 L10,7 L9.999,4 L7,4 C6.44771525,4 6,4.44771525 6,5 L6,15 C6,15.5128358 6.38604019,15.9355072 6.88337887,15.9932723 L7,16 C7.55228475,16 8,16.4477153 8,17 C8,17.5128358 7.61395981,17.9355072 7.11662113,17.9932723 L7,18 C5.34314575,18 4,16.6568542 4,15 L4,5 C4,3.34314575 5.34314575,2 7,2 L11,2 Z M14,10 C14.5522847,10 15,10.4477153 15,11 L15,13 L17,13 C17.5522847,13 18,13.4477153 18,14 C18,14.5522847 17.5522847,15 17,15 L15,15 L15,17 C15,17.5522847 14.5522847,18 14,18 C13.4477153,18 13,17.5522847 13,17 L13,15 L11,15 C10.4477153,15 10,14.5522847 10,14 C10,13.4477153 10.4477153,13 11,13 L13,13 L13,11 C13,10.4477153 13.4477153,10 14,10 Z"/>
</svg>
