<svg xmlns="http://www.w3.org/2000/svg" width="20" height="20" viewBox="0 0 20 20">
  <path d="M10,2 C14.3349143,2 17.8645429,5.44783777 17.9961932,9.75082067 L18,10 L18,11 C18,12.6568542 16.6568542,14 15,14 C14.0825761,14 13.2613351,13.5881922 12.7110431,12.9393426 C12.0003277,13.5976192 11.0471544,14 10,14 C7.790861,14 6,12.209139 6,10 C6,7.790861 7.790861,6 10,6 C12.1421954,6 13.8910789,7.68396847 13.9951047,9.80035966 L14,10 L14,11 C14,11.5522847 14.4477153,12 15,12 C15.5128358,12 15.9355072,11.6139598 15.9932723,11.1166211 L16,11 L16,10 C16,6.6862915 13.3137085,4 10,4 C6.6862915,4 4,6.6862915 4,10 C4,13.3137085 6.6862915,16 10,16 C10.8725791,16 11.7170044,15.8142437 12.4917728,15.4599938 C12.9940446,15.2303385 13.5873887,15.4513378 13.817044,15.9536095 C14.0466993,16.4558813 13.8257,17.0492253 13.3234283,17.2788807 C12.2889402,17.7518829 11.1610306,18 10,18 C5.581722,18 2,14.418278 2,10 C2,5.581722 5.581722,2 10,2 Z M10,8 C8.8954305,8 8,8.8954305 8,10 C8,11.1045695 8.8954305,12 10,12 C11.1045695,12 12,11.1045695 12,10 C12,8.8954305 11.1045695,8 10,8 Z"/>
</svg>
