<svg xmlns="http://www.w3.org/2000/svg" width="20" height="20" viewBox="0 0 20 20">
  <path fill-rule="evenodd" d="M5,16 C3.34314575,16 2,14.6568542 2,13 L2,5 C2,3.34314575 3.34314575,2 5,2 L15,2 C16.6568542,2 18,3.34314575 18,5 L18,13 C18,14.6568542 16.6568542,16 15,16 L13,16 L13,17 C13,17.5522847 12.5522847,18 12,18 L8,18 C7.44771525,18 7,17.5522847 7,17 L7,16 L5,16 Z M15,4 L5,4 C4.44771525,4 4,4.44771525 4,5 L4,13 C4,13.5522847 4.44771525,14 5,14 L15,14 C15.5522847,14 16,13.5522847 16,13 L16,5 C16,4.44771525 15.5522847,4 15,4 Z"/>
</svg>
