<svg xmlns="http://www.w3.org/2000/svg" width="20" height="20" viewBox="0 0 20 20">
  <path fill-rule="evenodd" d="M10,2 C12.7614237,2 15,4.1490332 15,6.8 L15,13.2 C15,15.8509668 12.7614237,18 10,18 C7.23857625,18 5,15.8509668 5,13.2 L5,6.8 C5,4.1490332 7.23857625,2 10,2 Z M10,4 C8.34314575,4 7,5.34314575 7,7 L7,13 C7,14.6568542 8.34314575,16 10,16 C11.6568542,16 13,14.6568542 13,13 L13,7 C13,5.34314575 11.6568542,4 10,4 Z M10,6 C10.5522847,6 11,6.44771525 11,7 L11,9 C11,9.55228475 10.5522847,10 10,10 C9.44771525,10 9,9.55228475 9,9 L9,7 C9,6.44771525 9.44771525,6 10,6 Z"/>
</svg>
