<svg xmlns="http://www.w3.org/2000/svg" width="20" height="20" viewBox="0 0 20 20">
  <path d="M5,2 C5.51283584,2 5.93550716,2.38604019 5.99327227,2.88337887 L6,3 L6,14 L17,14 C17.5128358,14 17.9355072,14.3860402 17.9932723,14.8833789 L18,15 C18,15.5128358 17.6139598,15.9355072 17.1166211,15.9932723 L17,16 L16,16 L16,17 C16,17.5522847 15.5522847,18 15,18 C14.4477153,18 14,17.5522847 14,17 L14,16 L5,16 C4.48716416,16 4.06449284,15.6139598 4.00672773,15.1166211 L4,15 L4,6 L3,6 C2.44771525,6 2,5.55228475 2,5 C2,4.44771525 2.44771525,4 3,4 L4,4 L4,3 C4,2.44771525 4.44771525,2 5,2 Z M15,4 C15.5522847,4 16,4.44771525 16,5 L16,11 C16,11.5522847 15.5522847,12 15,12 C14.4477153,12 14,11.5522847 14,11 L14,6 L9,6 C8.44771525,6 8,5.55228475 8,5 C8,4.44771525 8.44771525,4 9,4 L15,4 Z"/>
</svg>
