<svg xmlns="http://www.w3.org/2000/svg" width="20" height="20" viewBox="0 0 20 20">
  <path fill-rule="evenodd" d="M8.29289322,4.29289322 L10.2928932,2.29289322 C10.6834175,1.90236893 11.3165825,1.90236893 11.7071068,2.29289322 C12.0675907,2.65337718 12.0953203,3.22060824 11.7902954,3.61289944 L11.7071068,3.70710678 L11.2949889,4.11954776 C14.5422983,4.72694215 17,7.57645758 17,11 C17,14.8659932 13.8659932,18 10,18 C6.13400675,18 3,14.8659932 3,11 C3,9.9493266 3.23231751,8.92963391 3.67401058,7.99974629 C3.91097057,7.50087917 4.5074763,7.28856148 5.00634343,7.52552146 C5.50521055,7.76248144 5.71752825,8.35898717 5.48056826,8.8578543 C5.16557585,9.52100154 5,10.2477504 5,11 C5,13.7614237 7.23857625,16 10,16 C12.7614237,16 15,13.7614237 15,11 C15,8.84176699 13.6325784,7.0029124 11.7168493,6.30255046 C12.0976001,6.69467731 12.0941527,7.32006084 11.7071068,7.70710678 C11.3466228,8.06759074 10.7793918,8.09532028 10.3871006,7.79029539 L10.2928932,7.70710678 L8.29289322,5.70710678 C7.93240926,5.34662282 7.90467972,4.77939176 8.20970461,4.38710056 L8.29289322,4.29289322 L10.2928932,2.29289322 L8.29289322,4.29289322 Z"/>
</svg>
