<svg xmlns="http://www.w3.org/2000/svg" width="20" height="20" viewBox="0 0 20 20">
  <path fill-rule="evenodd" d="M6,7.5 C6,5.83345288 7.29774258,4.48999063 9.00653841,4.10875206 L9.00157364,4.05511928 L9.00157364,4.05511928 L9,3 C9,2.44771525 9.44771525,2 10,2 C10.5522847,2 11,2.44771525 11,3 L11,4 L10.9934616,4.10875206 C12.7022574,4.48999063 14,5.83345288 14,7.5 C14,8.05228475 13.5522847,8.5 13,8.5 C12.4871642,8.5 12.0644928,8.11395981 12.0067277,7.61662113 L12,7.5 C12,6.71601028 11.1407877,6 10,6 C8.85921233,6 8,6.71601028 8,7.5 C8,8.24479024 8.77543913,8.92822902 9.83106587,8.99471093 L10,9 C12.1729208,9 14,10.522566 14,12.5 C14,14.164292 12.7057672,15.5063729 11.0003963,15.889695 L11,17 C11,17.5522847 10.5522847,18 10,18 C9.44771525,18 9,17.5522847 9,17 L9.00059414,15.8899175 C7.29473391,15.5068925 6,14.1646141 6,12.5 C6,11.9477153 6.44771525,11.5 7,11.5 C7.51283584,11.5 7.93550716,11.8860402 7.99327227,12.3833789 L8,12.5 C8,13.2839897 8.85921233,14 10,14 C11.1407877,14 12,13.2839897 12,12.5 C12,11.7552098 11.2245609,11.071771 10.1689341,11.0052891 L10,11 C7.82707917,11 6,9.47743402 6,7.5 Z"/>
</svg>
