<svg xmlns="http://www.w3.org/2000/svg" width="20" height="20" viewBox="0 0 20 20">
  <path fill-rule="evenodd" d="M17,4 C17.5522847,4 18,3.55228475 18,3 C18,2.44771525 17.5522847,2 17,2 L3,2 C2.44771525,2 2,2.44771525 2,3 C2,3.55228475 2.44771525,4 3,4 L17,4 Z M10,13 C10.5522847,13 11,12.5522847 11,12 L11,11 L12,11 C12.5522847,11 13,10.5522847 13,10 C13,9.44771525 12.5522847,9 12,9 L11,9 L11,8 C11,7.44771525 10.5522847,7 10,7 C9.44771525,7 9,7.44771525 9,8 L9,9 L8,9 C7.44771525,9 7,9.44771525 7,10 C7,10.5522847 7.44771525,11 8,11 L9,11 L9,12 C9,12.5522847 9.44771525,13 10,13 Z M3,12 C3.55228475,12 4,11.5522847 4,11 L4,9 C4,8.44771525 3.55228475,8 3,8 C2.44771525,8 2,8.44771525 2,9 L2,11 C2,11.5522847 2.44771525,12 3,12 Z M17,12 C17.5522847,12 18,11.5522847 18,11 L18,9 C18,8.44771525 17.5522847,8 17,8 C16.4477153,8 16,8.44771525 16,9 L16,11 C16,11.5522847 16.4477153,12 17,12 Z M17,18 L17.1166211,17.9932723 C17.575703,17.9399506 17.9399506,17.575703 17.9932723,17.1166211 L18,17 L18,15 L17.9932723,14.8833789 C17.9399506,14.424297 17.575703,14.0600494 17.1166211,14.0067277 L17,14 L16.8833789,14.0067277 C16.424297,14.0600494 16.0600494,14.424297 16.0067277,14.8833789 L16,15 L16,16 L15,16 L14.8833789,16.0067277 C14.3860402,16.0644928 14,16.4871642 14,17 C14,17.5128358 14.3860402,17.9355072 14.8833789,17.9932723 L15,18 L17,18 Z M5,18 L5.11662113,17.9932723 C5.61395981,17.9355072 6,17.5128358 6,17 C6,16.5266131 5.67106635,16.1300527 5.22929083,16.0264107 L5.11662113,16.0067277 L5,16 L4,16 L4,15 L3.99327227,14.8833789 C3.9443941,14.4625538 3.63425172,14.1214159 3.22929083,14.0264107 L3.11662113,14.0067277 L3,14 L2.88337887,14.0067277 C2.46255383,14.0556059 2.12141588,14.3657483 2.02641071,14.7707092 L2.00672773,14.8833789 L2,15 L2,17 L2.00672773,17.1166211 C2.0556059,17.5374462 2.36574828,17.8785841 2.77070917,17.9735893 L2.88337887,17.9932723 L3,18 L5,18 Z M11,18 C11.5522847,18 12,17.5522847 12,17 C12,16.4477153 11.5522847,16 11,16 L9,16 C8.44771525,16 8,16.4477153 8,17 C8,17.5522847 8.44771525,18 9,18 L11,18 Z"/>
</svg>
