<svg xmlns="http://www.w3.org/2000/svg" width="20" height="20" viewBox="0 0 20 20">
  <path fill-rule="evenodd" d="M13,2 C14.6568542,2 16,3.34314575 16,5 L16,15 C16,16.6568542 14.6568542,18 13,18 L7,18 C5.34314575,18 4,16.6568542 4,15 L4,5 C4,3.34314575 5.34314575,2 7,2 L13,2 Z M13,4 L7,4 C6.44771525,4 6,4.44771525 6,5 L6,15 C6,15.5522847 6.44771525,16 7,16 L13,16 C13.5522847,16 14,15.5522847 14,15 L14,5 C14,4.44771525 13.5522847,4 13,4 Z M10,12 C10.5522847,12 11,12.4477153 11,13 C11,13.5522847 10.5522847,14 10,14 C9.44771525,14 9,13.5522847 9,13 C9,12.4477153 9.44771525,12 10,12 Z"/>
</svg>
