<svg xmlns="http://www.w3.org/2000/svg" width="20" height="20" viewBox="0 0 20 20">
  <path fill-rule="evenodd" d="M9.55472427,15.9826693 L6.09222028,17.8849507 C5.62451981,18.1419029 5.04604475,17.9539919 4.80016007,17.4652399 C4.70224749,17.2706162 4.66846029,17.0476903 4.70402912,16.8309737 L5.36530854,12.8018769 C5.41853995,12.4775443 5.31564329,12.1466067 5.0901514,11.916913 L2.28892682,9.06349082 C1.9105492,8.67806256 1.90280691,8.04506911 2.27163394,7.64966038 C2.41850279,7.49220654 2.61094514,7.38973876 2.81916866,7.35812023 L6.69036582,6.77028293 C7.00198795,6.72296343 7.27137491,6.51843277 7.41073656,6.22334515 L9.14198856,2.55755179 C9.37583879,2.06239185 9.94952886,1.85909133 10.4233612,2.10346737 C10.6120437,2.20077919 10.7647668,2.3603765 10.8578872,2.55755179 L12.5891392,6.22334515 C12.7285009,6.51843277 12.9978878,6.72296343 13.3095099,6.77028293 L17.1807071,7.35812023 C17.7036121,7.43752282 18.0659144,7.94486964 17.9899318,8.49131108 C17.9596752,8.70890692 17.8616209,8.91001127 17.7109489,9.06349082 L14.9097244,11.916913 C14.6842325,12.1466067 14.5813358,12.4775443 14.6345672,12.8018769 L15.2958466,16.8309737 C15.3851695,17.3752072 15.0353945,17.8920653 14.5146024,17.9854086 C14.3072202,18.0225784 14.0938963,17.9872704 13.9076555,17.8849507 L10.4451515,15.9826693 C10.1664282,15.8295401 9.83344758,15.8295401 9.55472427,15.9826693 Z"/>
</svg>
