<svg xmlns="http://www.w3.org/2000/svg" width="20" height="20" viewBox="0 0 20 20">
  <path fill-rule="evenodd" d="M9.70742659,5.29272418 L9.79062121,5.3869303 C10.0702476,5.74652593 10.0702476,6.25311772 9.79062121,6.61271334 L9.70742659,6.70691946 L9.61321244,6.79010699 C9.25358616,7.06970953 8.74695118,7.06970953 8.3873249,6.79010699 L8.29311075,6.70691946 L6.99976243,5.41469255 L7.00012403,14.9996926 C7.00012403,15.5125284 6.61408384,15.9351997 6.11674515,15.9929648 L6.00012403,15.9996926 L5.88335826,15.9929648 C5.4242764,15.9396432 5.06002876,15.5753955 5.00670712,15.1163137 L4.99997939,14.9996926 L4.99976243,5.41469255 L3.70699267,6.70691946 L3.61277852,6.79010699 C3.22045894,7.09512794 2.65318686,7.06739876 2.29267683,6.70691946 C1.9321668,6.34644016 1.90443526,5.77921644 2.20948221,5.3869303 L2.29267683,5.29272418 L5.29287261,2.29276675 L5.41333992,2.18993664 L5.49589072,2.13596282 L5.49589072,2.13596282 L5.61375287,2.07718758 L5.61375287,2.07718758 L5.71243634,2.04190678 L5.71243634,2.04190678 L5.85101817,2.01089287 L5.94623757,2.00105326 L6.05421664,2.00133221 L6.05421664,2.00133221 L6.14852931,2.01089119 L6.28793679,2.04199238 L6.28793679,2.04199238 L6.41457657,2.0895343 L6.41457657,2.0895343 L6.51964183,2.14524399 L6.51964183,2.14524399 L6.60178676,2.20099522 L6.66557394,2.25341744 L6.66557394,2.25341744 L6.70723081,2.29276675 L9.70742659,5.29272418 L9.79062121,5.3869303 L9.70742659,5.29272418 Z M17.7905178,14.6130697 L17.7073232,14.7072758 L14.7071274,17.7072333 L14.6216131,17.7835173 L14.6216131,17.7835173 L14.5512304,17.8346373 L14.5512304,17.8346373 L14.4541154,17.8913281 L14.4541154,17.8913281 L14.3812332,17.9248787 L14.3137313,17.9499304 L14.3137313,17.9499304 L14.2622273,17.9653001 L14.1484259,17.9891088 L14.1484259,17.9891088 L14.0541132,17.9986678 L14.0541132,17.9986678 L13.9252376,17.9970533 L13.8509148,17.9891071 L13.7123329,17.9580932 L13.7123329,17.9580932 L13.5868254,17.9111139 L13.5868254,17.9111139 L13.4957873,17.8640372 L13.4957873,17.8640372 L13.4132365,17.8100634 L13.4132365,17.8100634 L13.3702376,17.7760533 L13.2927904,17.707237 L10.2925734,14.7072758 C9.90202088,14.3167566 9.90202088,13.6835998 10.2925734,13.2930805 C10.6530834,12.9326012 11.2203555,12.9048721 11.6126751,13.209893 L11.7068893,13.2930805 L12.999659,14.5853074 L12.999876,5.00030745 C12.999876,4.48747161 13.3859162,4.06480029 13.8832548,4.00703518 L14.0000206,4.00030745 C14.5523054,4.00030745 15.0000206,4.4480227 15.0000206,5.00030745 L14.999659,14.5853074 L16.2930073,13.2930805 C16.6535174,12.9326012 17.2207894,12.9048721 17.613109,13.209893 L17.7073232,13.2930805 C18.0678332,13.6535598 18.0955647,14.2207836 17.7905178,14.6130697 Z"/>
</svg>
