<svg xmlns="http://www.w3.org/2000/svg" width="20" height="20" viewBox="0 0 20 20">
  <path fill-rule="evenodd" d="M13,4 L5,4 C3.34314575,4 2,5.34314575 2,7 L2,13 C2,14.6568542 3.34314575,16 5,16 L13,16 L13.1762728,15.9949073 C14.4011229,15.9239379 15.4288313,15.1181296 15.8251041,14.0117763 L15.873,13.864 L16.0293472,13.8125294 C17.1929785,13.3847436 18,12.2822516 18,11 L18,9 L17.9949073,8.82372721 C17.9239379,7.59887713 17.1181296,6.57116874 16.0117763,6.17489588 L15.864,6.126 L15.8125294,5.97065284 C15.3847436,4.80702148 14.2822516,4 13,4 Z M5,6 L13,6 C13.5243235,6 13.958946,6.40547321 13.9972247,6.92431496 L14.0006747,7.03672752 C14.0190224,7.53595494 14.4010777,7.9386225 14.8863103,7.99359936 L15,8 C15.5522847,8 16,8.44771525 16,9 L16,11 C16,11.5243235 15.5945268,11.958946 15.075685,11.9972247 L14.9632725,12.0006747 C14.4640451,12.0190224 14.0613775,12.4010777 14.0064006,12.8863103 L14,13 C14,13.5522847 13.5522847,14 13,14 L5,14 C4.44771525,14 4,13.5522847 4,13 L4,7 C4,6.44771525 4.44771525,6 5,6 Z"/>
</svg>
