<svg xmlns="http://www.w3.org/2000/svg" width="20" height="20" viewBox="0 0 20 20">
  <path fill-rule="evenodd" d="M17,12 C17.5128358,12 17.9355072,12.3860402 17.9932723,12.8833789 L18,13 L18,15 C18,16.5976809 16.75108,17.9036609 15.1762728,17.9949073 L15,18 L5,18 C3.40231912,18 2.09633912,16.75108 2.00509269,15.1762728 L2,15 L2,13 C2,12.4477153 2.44771525,12 3,12 C3.51283584,12 3.93550716,12.3860402 3.99327227,12.8833789 L4,13 L4,15 C4,15.5128358 4.38604019,15.9355072 4.88337887,15.9932723 L5,16 L15,16 C15.5128358,16 15.9355072,15.6139598 15.9932723,15.1166211 L16,15 L16,13 C16,12.4477153 16.4477153,12 17,12 Z M10.7071068,2.29289322 L13.7071068,5.29289322 C14.0976311,5.68341751 14.0976311,6.31658249 13.7071068,6.70710678 C13.3165825,7.09763107 12.6834175,7.09763107 12.2928932,6.70710678 L11,5.414 L11,13 C11,13.5522847 10.5522847,14 10,14 C9.48716416,14 9.06449284,13.6139598 9.00672773,13.1166211 L9,13 L9,5.414 L7.70710678,6.70710678 C7.31658249,7.09763107 6.68341751,7.09763107 6.29289322,6.70710678 C5.90236893,6.31658249 5.90236893,5.68341751 6.29289322,5.29289322 L9.29289322,2.29289322 C9.68341751,1.90236893 10.3165825,1.90236893 10.7071068,2.29289322 Z"/>
</svg>
