<svg xmlns="http://www.w3.org/2000/svg" width="20" height="20" viewBox="0 0 20 20">
  <path fill-rule="evenodd" d="M6.5,15 C7.32842712,15 8,15.6715729 8,16.5 C8,17.3284271 7.32842712,18 6.5,18 C5.67157288,18 5,17.3284271 5,16.5 C5,15.6715729 5.67157288,15 6.5,15 Z M13.5,15 C14.3284271,15 15,15.6715729 15,16.5 C15,17.3284271 14.3284271,18 13.5,18 C12.6715729,18 12,17.3284271 12,16.5 C12,15.6715729 12.6715729,15 13.5,15 Z M3,2 L5,2 C5.51283584,2 5.93550716,2.38604019 5.99327227,2.88337887 L6,3 L6,4 L17,4 C17.6252978,4 18.0869727,4.56329294 17.9869565,5.16214792 L17.9615239,5.27472113 L16.375969,10.8241634 C16.0247223,12.0535269 14.9361807,12.9184525 13.6729816,12.9945421 L13.4913972,13 L7,13 C5.40231912,13 4.09633912,11.75108 4.00509269,10.1762728 L4,10 L4,4 L3,4 C2.44771525,4 2,3.55228475 2,3 C2,2.48716416 2.38604019,2.06449284 2.88337887,2.00672773 L3,2 L5,2 L3,2 Z M15.67427,6 L6,6 L6,10 C6,10.5128358 6.38604019,10.9355072 6.88337887,10.9932723 L7,11 L13.4913972,11 C13.8972884,11 14.2584736,10.7553906 14.4129436,10.3883756 L14.4529211,10.2747211 L15.67427,6 Z"/>
</svg>
