<svg xmlns="http://www.w3.org/2000/svg" width="20" height="20" viewBox="0 0 20 20">
  <path d="M15,2 C16.5976809,2 17.9036609,3.24891996 17.9949073,4.82372721 L18,5 L18,13 C18,14.5976809 16.75108,15.9036609 15.1762728,15.9949073 L15,16 L13,16 L13,14 L15,14 C15.5128358,14 15.9355072,13.6139598 15.9932723,13.1166211 L16,13 L16,6 L4,6 L4,13 C4,13.5128358 4.38604019,13.9355072 4.88337887,13.9932723 L5,14 L7,14 L7,16 L5,16 C3.40231912,16 2.09633912,14.75108 2.00509269,13.1762728 L2,13 L2,5 C2,3.40231912 3.24891996,2.09633912 4.82372721,2.00509269 L5,2 L15,2 Z M9.96675322,7.00054939 L10.082,7.003 L10.2007258,7.02024007 L10.2007258,7.02024007 L10.3121425,7.04973809 L10.3121425,7.04973809 L10.4232215,7.09367336 L10.5207088,7.14599545 L10.5207088,7.14599545 L10.5951593,7.19631351 L10.5951593,7.19631351 L10.7071068,7.29289322 L13.7071068,10.2928932 C14.0976311,10.6834175 14.0976311,11.3165825 13.7071068,11.7071068 C13.3466228,12.0675907 12.7793918,12.0953203 12.3871006,11.7902954 L12.2928932,11.7071068 L11,10.414 L11,17 C11,17.5522847 10.5522847,18 10,18 C9.44771525,18 9,17.5522847 9,17 L9,10.416 L7.70710678,11.7071068 C7.34662282,12.0675907 6.77939176,12.0953203 6.38710056,11.7902954 L6.29289322,11.7071068 C5.93240926,11.3466228 5.90467972,10.7793918 6.20970461,10.3871006 L6.29289322,10.2928932 L9.29289322,7.29289322 L9.336853,7.2514958 L9.336853,7.2514958 L9.40469339,7.19633458 L9.40469339,7.19633458 L9.5159379,7.12467117 L9.57690085,7.09365378 L9.57690085,7.09365378 L9.65834962,7.05988586 L9.65834962,7.05988586 L9.73400703,7.03584514 L9.73400703,7.03584514 L9.88252582,7.00683422 L9.88252582,7.00683422 L9.96675322,7.00054939 L9.96675322,7.00054939 Z"/>
</svg>
