<svg xmlns="http://www.w3.org/2000/svg" width="20" height="20" viewBox="0 0 20 20">
  <path fill-rule="evenodd" d="M8,12 C8.55228475,12 9,12.4477153 9,13 L9,17 C9,17.5522847 8.55228475,18 8,18 L3,18 C2.44771525,18 2,17.5522847 2,17 L2,13 C2,12.4477153 2.44771525,12 3,12 L8,12 Z M17,7 C17.5522847,7 18,7.44771525 18,8 L18,17 C18,17.5522847 17.5522847,18 17,18 L12,18 C11.4477153,18 11,17.5522847 11,17 L11,8 C11,7.44771525 11.4477153,7 12,7 L17,7 Z M8,2 C8.55228475,2 9,2.44771525 9,3 L9,9 C9,9.55228475 8.55228475,10 8,10 L3,10 C2.44771525,10 2,9.55228475 2,9 L2,3 C2,2.44771525 2.44771525,2 3,2 L8,2 Z M17,2 C17.5522847,2 18,2.44771525 18,3 L18,4 C18,4.55228475 17.5522847,5 17,5 L12,5 C11.4477153,5 11,4.55228475 11,4 L11,3 C11,2.44771525 11.4477153,2 12,2 L17,2 Z"/>
</svg>
