<svg xmlns="http://www.w3.org/2000/svg" width="20" height="20" viewBox="0 0 20 20">
  <path d="M3,14 L3.11662113,14.0067277 C3.57570299,14.0600494 3.93995063,14.424297 3.99327227,14.8833789 L4,15 L4,16 L5,16 L5.11662113,16.0067277 C5.61395981,16.0644928 6,16.4871642 6,17 C6,17.5128358 5.61395981,17.9355072 5.11662113,17.9932723 L5,18 L3,18 L2.88337887,17.9932723 C2.42429701,17.9399506 2.06004937,17.575703 2.00672773,17.1166211 L2,17 L2,15 L2.00672773,14.8833789 C2.06004937,14.424297 2.42429701,14.0600494 2.88337887,14.0067277 L3,14 Z M17,14 L17.1166211,14.0067277 C17.5374462,14.0556059 17.8785841,14.3657483 17.9735893,14.7707092 L17.9932723,14.8833789 L18,15 L18,17 L17.9932723,17.1166211 C17.9443941,17.5374462 17.6342517,17.8785841 17.2292908,17.9735893 L17.1166211,17.9932723 L17,18 L15,18 L14.8833789,17.9932723 C14.3860402,17.9355072 14,17.5128358 14,17 C14,16.5266131 14.3289337,16.1300527 14.7707092,16.0264107 L14.8833789,16.0067277 L15,16 L16,16 L16,15 L16.0067277,14.8833789 C16.0556059,14.4625538 16.3657483,14.1214159 16.7707092,14.0264107 L16.8833789,14.0067277 L17,14 Z M11,16 C11.5522847,16 12,16.4477153 12,17 C12,17.5522847 11.5522847,18 11,18 L9,18 C8.44771525,18 8,17.5522847 8,17 C8,16.4477153 8.44771525,16 9,16 L11,16 Z M12,6 C13.0543618,6 13.9181651,6.81587779 13.9945143,7.85073766 L14,8 L14,12 C14,13.0543618 13.1841222,13.9181651 12.1492623,13.9945143 L12,14 L8,14 C6.9456382,14 6.08183488,13.1841222 6.00548574,12.1492623 L6,12 L6,8 C6,6.9456382 6.81587779,6.08183488 7.85073766,6.00548574 L8,6 L12,6 Z M3,8 C3.55228475,8 4,8.44771525 4,9 L4,11 C4,11.5522847 3.55228475,12 3,12 C2.44771525,12 2,11.5522847 2,11 L2,9 C2,8.44771525 2.44771525,8 3,8 Z M17,8 C17.5522847,8 18,8.44771525 18,9 L18,11 C18,11.5522847 17.5522847,12 17,12 C16.4477153,12 16,11.5522847 16,11 L16,9 C16,8.44771525 16.4477153,8 17,8 Z M12,8 L8,8 L8,12 L12,12 L12,8 Z M17,2 L17.1166211,2.00672773 C17.575703,2.06004937 17.9399506,2.42429701 17.9932723,2.88337887 L18,3 L18,5 L17.9932723,5.11662113 C17.9399506,5.57570299 17.575703,5.93995063 17.1166211,5.99327227 L17,6 L16.8833789,5.99327227 C16.424297,5.93995063 16.0600494,5.57570299 16.0067277,5.11662113 L16,5 L16,4 L15,4 L14.8833789,3.99327227 C14.3860402,3.93550716 14,3.51283584 14,3 C14,2.48716416 14.3860402,2.06449284 14.8833789,2.00672773 L15,2 L17,2 Z M5,2 L5.11662113,2.00672773 C5.61395981,2.06449284 6,2.48716416 6,3 C6,3.47338693 5.67106635,3.86994729 5.22929083,3.97358929 L5.11662113,3.99327227 L5,4 L4,4 L4,5 L3.99327227,5.11662113 C3.9443941,5.53744617 3.63425172,5.87858412 3.22929083,5.97358929 L3.11662113,5.99327227 L3,6 L2.88337887,5.99327227 C2.46255383,5.9443941 2.12141588,5.63425172 2.02641071,5.22929083 L2.00672773,5.11662113 L2,5 L2,3 L2.00672773,2.88337887 C2.0556059,2.46255383 2.36574828,2.12141588 2.77070917,2.02641071 L2.88337887,2.00672773 L3,2 L5,2 Z M11,2 C11.5522847,2 12,2.44771525 12,3 C12,3.55228475 11.5522847,4 11,4 L9,4 C8.44771525,4 8,3.55228475 8,3 C8,2.44771525 8.44771525,2 9,2 L11,2 Z"/>
</svg>
