<svg xmlns="http://www.w3.org/2000/svg" width="20" height="20" viewBox="0 0 20 20">
  <path fill-rule="evenodd" d="M9.06007282,2 L10.9391146,2 C12.2793279,2.00303317 12.5870479,2.01483649 13.2981586,2.0472824 C14.1497128,2.08612222 14.7312939,2.22137879 15.2401813,2.41916652 C15.7662814,2.62359164 16.2124471,2.89715354 16.6572471,3.34192186 C17.1020155,3.78672195 17.3755774,4.23288763 17.5800343,4.75898774 C17.7777902,5.26787512 17.9130468,5.84945615 17.9518866,6.70101045 C17.9895239,7.52589877 17.9993844,7.80798478 18,9.78856231 L18,10.2106354 C17.9993844,12.1911842 17.9895239,12.4732702 17.9518866,13.2981586 C17.9130468,14.1497128 17.7777902,14.7312939 17.5800343,15.2401813 C17.3755774,15.7662814 17.1020155,16.2124471 16.6572471,16.6572471 C16.2124471,17.1020155 15.7662814,17.3755774 15.2401813,17.5800343 C14.7312939,17.7777902 14.1497128,17.9130468 13.2981586,17.9518866 C12.4732702,17.9895239 12.1911842,17.9993844 10.2106354,18 L9.78856231,18 C7.80798478,17.9993844 7.52589877,17.9895239 6.70101045,17.9518866 C5.84945615,17.9130468 5.26787512,17.7777902 4.75898774,17.5800343 C4.23288763,17.3755774 3.78672195,17.1020155 3.34192186,16.6572471 C2.89715354,16.2124471 2.62359164,15.7662814 2.41916652,15.2401813 C2.22137879,14.7312939 2.08612222,14.1497128 2.0472824,13.2981586 C2.01483649,12.5870479 2.00303317,12.2793279 2,10.9391146 L2,9.06007282 C2.00303317,7.71984115 2.01483649,7.41212107 2.0472824,6.70101045 C2.08612222,5.84945615 2.22137879,5.26787512 2.41916652,4.75898774 C2.62359164,4.23288763 2.89715354,3.78672195 3.34192186,3.34192186 C3.78672195,2.89715354 4.23288763,2.62359164 4.75898774,2.41916652 C5.26787512,2.22137879 5.84945615,2.08612222 6.70101045,2.0472824 C7.41212107,2.01483649 7.71984115,2.00303317 9.06007282,2 L10.9391146,2 L9.06007282,2 Z M10.5864368,3.44092396 L9.41275539,3.44092396 C7.80686362,3.44259258 7.52597075,3.45266775 6.76671739,3.48730919 C5.98668171,3.52287795 5.56306409,3.65321206 5.28114988,3.76277655 C4.90770963,3.90790981 4.64119797,4.08127577 4.36125275,4.36125275 C4.08127577,4.64119797 3.90790981,4.90770963 3.76277655,5.28114988 C3.65321206,5.56306409 3.52287795,5.98668171 3.48730919,6.76671739 C3.45266775,7.52597075 3.44259258,7.80686362 3.44092396,9.41275539 L3.44092396,10.5864368 C3.44259258,12.1923054 3.45266775,12.4731982 3.48730919,13.2324516 C3.52287795,14.0124873 3.65321206,14.4361049 3.76277655,14.7180191 C3.90790981,15.0914594 4.08130753,15.3579711 4.36125275,15.6379162 C4.64119797,15.9178932 4.90770963,16.0912592 5.28114988,16.2363925 C5.56306409,16.3459569 5.98668171,16.4762911 6.76671739,16.5118598 C7.61023696,16.5503503 7.86321979,16.5585121 9.99960037,16.5585121 C12.1359492,16.5585121 12.3889638,16.5503503 13.2324516,16.5118598 C14.0124873,16.4762911 14.4361049,16.3459569 14.7180191,16.2363925 C15.0914594,16.0912592 15.3579711,15.9178932 15.6379162,15.6379162 C15.9178932,15.3579711 16.0912592,15.0914594 16.2363925,14.7180191 C16.3459569,14.4361049 16.4762911,14.0124873 16.5118598,13.2324516 C16.5503503,12.3888368 16.5585121,12.1357904 16.5585121,9.99960037 C16.5585121,7.86337858 16.5503503,7.61033224 16.5118598,6.76671739 C16.4762911,5.98668171 16.3459569,5.56306409 16.2363925,5.28114988 C16.0912592,4.90770963 15.9178932,4.64119797 15.6379162,4.36125275 C15.3579711,4.08127577 15.0914594,3.90790981 14.7180191,3.76277655 C14.4361049,3.65321206 14.0124873,3.52287795 13.2324516,3.48730919 C12.4731982,3.45266775 12.1923054,3.44259258 10.5864368,3.44092396 Z M9.99959997,5.99936102 C12.2088611,5.99936102 13.999808,7.79030787 13.999808,9.99959997 C13.999808,12.2088611 12.2088611,13.999808 9.99959997,13.999808 C7.79030787,13.999808 5.99936102,12.2088611 5.99936102,9.99959997 C5.99936102,7.79030787 7.79030787,5.99936102 9.99959997,5.99936102 Z M9.99959997,7.40294658 C8.56549429,7.40294658 7.40294658,8.56549429 7.40294658,9.99959997 C7.40294658,11.4336748 8.56549429,12.5962224 9.99959997,12.5962224 C11.4336748,12.5962224 12.5962224,11.4336748 12.5962224,9.99959997 C12.5962224,8.56549429 11.4336748,7.40294658 9.99959997,7.40294658 Z M14.3331434,4.66595319 C14.8854641,4.66595319 15.3332158,5.11370484 15.3332158,5.66602561 C15.3332158,6.21834637 14.8854641,6.66606494 14.3331434,6.66606494 C13.7808558,6.66606494 13.3331041,6.21834637 13.3331041,5.66602561 C13.3331041,5.11370484 13.7808558,4.66595319 14.3331434,4.66595319 Z"/>
</svg>
