<svg xmlns="http://www.w3.org/2000/svg" width="20" height="20" viewBox="0 0 20 20">
  <path fill-rule="evenodd" d="M16,2 C16.5522847,2 17,2.44771525 17,3 C17,3.55228475 16.5522847,4 16,4 L8,4 L8,7.999 L16,8 C16.5522847,8 17,8.44771525 17,9 C17,9.55228475 16.5522847,10 16,10 L8,9.999 L8,13 L10,13 C10.5522847,13 11,13.4477153 11,14 C11,14.5522847 10.5522847,15 10,15 L8,15 L8,17 C8,17.5522847 7.55228475,18 7,18 C6.44771525,18 6,17.5522847 6,17 L6,15 L4,15 C3.44771525,15 3,14.5522847 3,14 C3,13.4477153 3.44771525,13 4,13 L6,13 L6,3 C6,2.44771525 6.44771525,2 7,2 L16,2 Z"/>
</svg>
