<svg xmlns="http://www.w3.org/2000/svg" width="20" height="20" viewBox="0 0 20 20">
  <path fill-rule="evenodd" d="M14.9988365,2 C16.6556907,2 17.9988365,3.34314575 17.9988365,5 L17.9988365,9 C17.9988365,10.6568542 16.6556907,12 14.9988365,12 L13.6468365,12 L12.4460501,16.3416408 C11.9677667,17.2982075 11.0194592,17.9231744 9.96219435,17.99339 L9.7627685,18 L9.49883648,18 C8.17335308,18 7.08879781,16.9684641 7.00415416,15.6643757 L6.99883648,15.5 L6.99883648,12 L5.00057848,12 C4.80302252,12 4.60595003,11.9804859 4.41223048,11.941742 C2.84557548,11.628411 1.80988974,10.1476205 2.02926034,8.58550004 L2.05883648,8.41165159 L3.25883648,4.41165159 C3.52760539,3.06780703 4.66958239,2.08479702 6.0229129,2.00521259 L6.20057848,2 L14.9988365,2 Z M13.9988365,10 L14.9988365,10 C15.5511212,10 15.9988365,9.55228475 15.9988365,9 L15.9988365,5 C15.9988365,4.44771525 15.5511212,4 14.9988365,4 L13.9988365,4 L13.9988365,10 Z M9.49883648,16 L9.7627685,16 C10.0520379,16 10.3223468,15.8751847 10.5093926,15.6652952 L10.5842699,15.5702498 L11.7543955,11.3366954 C11.7888752,11.2119468 11.8353827,11.0908397 11.8932637,10.9750776 C11.9453345,10.8709361 11.9786838,10.7587746 11.992104,10.6437086 L11.9988365,10.527864 L11.9988365,4 L6.14057851,4 C5.7036209,4 5.32234532,4.28271958 5.18982669,4.68987516 L5.11448905,4.98634737 L3.94874169,8.87217191 L3.94038567,8.99077512 C3.93556757,9.46182813 4.26560614,9.88480943 4.74446237,9.98058068 L4.84204089,9.99513333 L4.84204089,9.99513333 L4.94057851,10 L6.99883648,10 C8.05319827,10 8.9170016,10.8158778 8.99335074,11.8507377 L8.99883648,12 L8.99883648,15.5 C8.99883648,15.7454599 9.17571164,15.9496084 9.40896085,15.9919443 L9.49883648,16 Z"/>
</svg>
