<svg xmlns="http://www.w3.org/2000/svg" width="20" height="20" viewBox="0 0 20 20">
  <path d="M12.8996798,2 C14.1505179,2 15.3616265,2.29540574 16.4551439,2.85436546 C16.9469081,3.10573448 17.1417869,3.70816301 16.8904179,4.19992724 C16.6390489,4.69169148 16.0366204,4.8865703 15.5448561,4.63520128 C14.7313595,4.2193763 13.8319575,4 12.8996798,4 C10.7175214,4 8.80969833,5.20584876 7.78910471,7.00012149 L12,7 C12.5522847,7 13,7.44771525 13,8 C13,8.55228475 12.5522847,9 12,9 L7.08146766,9.00039484 C7.02789024,9.32543266 7,9.65937416 7,10 C7,10.3409748 7.02794742,10.6752516 7.08163242,11.0006042 L12,11 C12.5522847,11 13,11.4477153 13,12 C13,12.5522847 12.5522847,13 12,13 L7.78967201,13.0008756 C8.8104052,14.794598 10.7179257,16 12.8996798,16 C13.8317061,16 14.7308752,15.7807423 15.5442028,15.3651326 C16.0359986,15.1138255 16.6384026,15.30878 16.8897098,15.8005758 C17.141017,16.2923717 16.9460624,16.8947757 16.4542666,17.1460829 C15.3609748,17.704754 14.1501802,18 12.8996798,18 C9.58267015,18 6.74619647,15.9309043 5.57458189,13.0006312 L4,13 C3.44771525,13 3,12.5522847 3,12 C3,11.4477153 3.44771525,11 4,11 L5.06118216,11.0003262 C5.02080068,10.6726003 5,10.3387435 5,10 C5,9.66160212 5.02075825,9.32808103 5.06105861,9.00067711 L4,9 C3.44771525,9 3,8.55228475 3,8 C3,7.44771525 3.44771525,7 4,7 L5.57418336,7.00036574 C6.74555314,4.06956504 9.58229398,2 12.8996798,2 Z"/>
</svg>
