<svg xmlns="http://www.w3.org/2000/svg" width="20" height="20" viewBox="0 0 20 20">
  <path fill-rule="evenodd" d="M10.4775757,6 L15,6 C16.6568542,6 18,7.34314575 18,9 L18,13 C18,14.6568542 16.6568542,16 15,16 L5,16 C3.34314575,16 2,14.6568542 2,13 L2,7 C2,5.34314575 3.34314575,4 5,4 L8.38366699,4 C8.68571212,4 8.97157429,4.13652083 9.16142786,4.37143972 L10.4775757,6 Z M7.90609126,6 L5,6 C4.44771525,6 4,6.44771525 4,7 L4,13 C4,13.5522847 4.44771525,14 5,14 L15,14 C15.5522847,14 16,13.5522847 16,13 L16,9 C16,8.44771525 15.5522847,8 15,8 L10,8 C9.69795487,8 9.4120927,7.86347917 9.22223913,7.62856028 L7.90609126,6 Z"/>
</svg>
