<svg xmlns="http://www.w3.org/2000/svg" width="20" height="20" viewBox="0 0 20 20">
  <path d="M12.7071068,2.29289322 C13.0976311,2.68341751 13.0976311,3.31658249 12.7071068,3.70710678 C11.86931,4.54490355 11.3129097,5.61149471 11.0987361,6.76002305 C11.4238289,6.71166423 11.736771,6.63376322 12.0939195,6.51717094 L12.3709502,6.42232916 L12.6660606,6.31672094 L12.8729677,6.24604297 C13.4132046,6.0689245 13.8265399,6 14.375,6 C16.7658434,6 18,7.46577207 18,10.3333333 C18,14.304262 16.5329439,18 14.375,18 C13.6370887,18 13.0777706,17.9285033 12.4289608,17.7461671 L12.1446388,17.6611222 L11.467995,17.4321546 L11.2172535,17.3526037 C10.9201567,17.2638183 10.6697147,17.2114052 10.4242674,17.1863323 L10.2404675,17.1725128 L10,17.1666667 C9.57689879,17.1666667 9.23166561,17.2183343 8.78372835,17.3522127 L8.55036506,17.4261441 L7.83611804,17.6674119 C7.07838984,17.9066166 6.46832722,18 5.625,18 C3.46705609,18 2,14.304262 2,10.3333333 C2,7.46577207 3.23415664,6 5.625,6 C6.16494055,6 6.56747485,6.06504776 7.10711535,6.23977151 L7.34758443,6.32149809 L7.62771214,6.42185102 C8.16935807,6.61502041 8.59918611,6.72788908 9.07184495,6.78512657 C9.29858971,5.09118145 10.074022,3.51176441 11.2928932,2.29289322 C11.6834175,1.90236893 12.3165825,1.90236893 12.7071068,2.29289322 Z M14.375,8 C14.1093896,8 13.9259373,8.02173281 13.6935875,8.08598407 L13.508109,8.14246949 L13.3269136,8.20432904 L13.0441105,8.30563825 C12.1729189,8.61633485 11.4849434,8.76846158 10.6304995,8.81647925 L10.3015969,8.82971213 L10,8.83333333 C8.95159926,8.83333333 8.19431125,8.71607241 7.26961365,8.41311678 L6.95455178,8.30516011 L6.67651158,8.20554905 C6.214653,8.04198699 5.99839046,8 5.625,8 C4.42222915,8 4,8.50146932 4,10.3333333 C4,13.2879528 5.07657127,16 5.625,16 C6.17335049,16 6.55069943,15.9542295 6.98930659,15.8333278 L7.2147903,15.76648 L7.9142996,15.5299906 C8.57093516,15.3114564 9.10358501,15.2006204 9.71183694,15.1735821 L10.0231871,15.1669355 L10.311355,15.17392 C10.7119876,15.1930521 11.0847692,15.2499731 11.4923349,15.3540734 L11.8055099,15.4411415 L12.0902059,15.531502 L12.7659665,15.7601903 C13.3282676,15.9377013 13.7352578,16 14.375,16 C14.9234287,16 16,13.2879528 16,10.3333333 C16,8.50146932 15.5777708,8 14.375,8 Z"/>
</svg>
