<svg xmlns="http://www.w3.org/2000/svg" width="20" height="20" viewBox="0 0 20 20">
  <path fill-rule="evenodd" d="M13,16 C13.5522847,16 14,16.4477153 14,17 C14,17.5522847 13.5522847,18 13,18 L11,18 C10.4477153,18 10,17.5522847 10,17 C10,16.4477153 10.4477153,16 11,16 L13,16 Z M3,14 L3.11662113,14.0067277 C3.57570299,14.0600494 3.93995063,14.424297 3.99327227,14.8833789 L4,15 L4,16 L5,16 L5.11662113,16.0067277 C5.61395981,16.0644928 6,16.4871642 6,17 C6,17.5128358 5.61395981,17.9355072 5.11662113,17.9932723 L5,18 L3,18 L2.88337887,17.9932723 C2.42429701,17.9399506 2.06004937,17.575703 2.00672773,17.1166211 L2,17 L2,15 L2.00672773,14.8833789 C2.06004937,14.424297 2.42429701,14.0600494 2.88337887,14.0067277 L3,14 Z M18,13 L17.9932723,13.1166211 C17.9443941,13.5374462 17.6342517,13.8785841 17.2292908,13.9735893 L17.1166211,13.9932723 L17,14 L7,14 L6.88337887,13.9932723 C6.42429701,13.9399506 6.06004937,13.575703 6.00672773,13.1166211 L6,13 L6,3 L6.00672773,2.88337887 C6.0556059,2.46255383 6.36574828,2.12141588 6.77070917,2.02641071 L6.88337887,2.00672773 L7,2 L17,2 L17.1166211,2.00672773 C17.575703,2.06004937 17.9399506,2.42429701 17.9932723,2.88337887 L18,3 L18,13 Z M16,12 L16,4 L8,4 L8,12 L16,12 Z M3,6 C3.55228475,6 4,6.44771525 4,7 L4,9 C4,9.55228475 3.55228475,10 3,10 C2.44771525,10 2,9.55228475 2,9 L2,7 C2,6.44771525 2.44771525,6 3,6 Z"/>
</svg>
