<svg xmlns="http://www.w3.org/2000/svg" width="20" height="20" viewBox="0 0 20 20">
  <path d="M17,12 C17.5522847,12 18,12.4477153 18,13 C18,13.5128358 17.6139598,13.9355072 17.1166211,13.9932723 L17,14 L14,14 L14,17 C14,17.5128358 13.6139598,17.9355072 13.1166211,17.9932723 L13,18 C12.4871642,18 12.0644928,17.6139598 12.0067277,17.1166211 L12,17 L12,13 C12,12.4871642 12.3860402,12.0644928 12.8833789,12.0067277 L13,12 L17,12 Z M7,12 L7.11662113,12.0067277 C7.57570299,12.0600494 7.93995063,12.424297 7.99327227,12.8833789 L8,13 L8,17 L7.99327227,17.1166211 C7.93995063,17.575703 7.57570299,17.9399506 7.11662113,17.9932723 L7,18 L6.88337887,17.9932723 C6.42429701,17.9399506 6.06004937,17.575703 6.00672773,17.1166211 L6,17 L6,14 L3,14 L2.88337887,13.9932723 C2.38604019,13.9355072 2,13.5128358 2,13 C2,12.4871642 2.38604019,12.0644928 2.88337887,12.0067277 L3,12 L7,12 Z M7,2 C7.51283584,2 7.93550716,2.38604019 7.99327227,2.88337887 L8,3 L8,7 C8,7.51283584 7.61395981,7.93550716 7.11662113,7.99327227 L7,8 L3,8 C2.44771525,8 2,7.55228475 2,7 C2,6.48716416 2.38604019,6.06449284 2.88337887,6.00672773 L3,6 L6,6 L6,3 C6,2.48716416 6.38604019,2.06449284 6.88337887,2.00672773 L7,2 Z M13,2 L13.1166211,2.00672773 C13.575703,2.06004937 13.9399506,2.42429701 13.9932723,2.88337887 L14,3 L14,6 L17,6 L17.1166211,6.00672773 C17.6139598,6.06449284 18,6.48716416 18,7 C18,7.51283584 17.6139598,7.93550716 17.1166211,7.99327227 L17,8 L13,8 L12.8833789,7.99327227 C12.424297,7.93995063 12.0600494,7.57570299 12.0067277,7.11662113 L12,7 L12,3 L12.0067277,2.88337887 C12.0600494,2.42429701 12.424297,2.06004937 12.8833789,2.00672773 L13,2 Z"/>
</svg>
