<svg xmlns="http://www.w3.org/2000/svg" width="20" height="20" viewBox="0 0 20 20">
  <path fill-rule="evenodd" d="M7,10.3204651 L2.18626653,3.58123819 C1.71350333,2.91936972 2.18662744,2 3,2 L17,2 C17.8133726,2 18.2864967,2.91936972 17.8137335,3.58123819 L13,10.3204651 L13,15 C13,15.3787721 12.7859976,15.7250352 12.4472136,15.8944272 L8.4472136,17.8944272 C7.7823125,18.2268777 7,17.743382 7,17 L7,10.3204651 Z M4.94318932,4 L8.81373347,9.41876181 C8.93487687,9.58836256 9,9.79157702 9,10 L9,15.381966 L11,14.381966 L11,10 C11,9.79157702 11.0651231,9.58836256 11.1862665,9.41876181 L15.0568107,4 L4.94318932,4 Z"/>
</svg>
