<svg xmlns="http://www.w3.org/2000/svg" width="20" height="20" viewBox="0 0 20 20">
  <path d="M13,14 C12.1478301,14 11.7025662,13.0144864 12.2167748,12.3774732 L12.2928932,12.2928932 L13.5683203,11.0168829 C12.573592,10.4077639 11.1360607,10 9.5,10 C6.4805138,10 4.13725385,11.3889163 4.00581817,12.8691841 L4,13 C4,13.5522847 3.55228475,14 3,14 C2.44771525,14 2,13.5522847 2,13 C2,10.1099033 5.42859287,8 9.5,8 C11.6540645,8 13.6281948,8.59059654 15.0098289,9.57486527 L16.2928932,8.29289322 C16.8954683,7.69031813 17.9071808,8.07233231 17.9940167,8.88636906 L18,9 L18,13 C18,13.5128358 17.6139598,13.9355072 17.1166211,13.9932723 L17,14 L13,14 Z"/>
</svg>
