<svg xmlns="http://www.w3.org/2000/svg" width="20" height="20" viewBox="0 0 20 20">
  <path fill-rule="evenodd" d="M2.00491976,6.08761815 L2.46284203,10.2091839 C2.70591127,12.3969479 3.93628451,14.3533407 5.80280137,15.5199888 L9.57600227,17.8783912 C9.83541763,18.0405363 10.1645824,18.0405363 10.4239977,17.8783912 L14.1971986,15.5199888 C16.0637155,14.3533407 17.2940887,12.3969479 17.537158,10.2091839 L17.9950802,6.08761815 C18.033572,5.7411699 17.843335,5.40967264 17.5248028,5.26813687 L10.3248269,2.06891817 C10.1180226,1.97702728 9.88197743,1.97702728 9.67517312,2.06891817 L2.47519721,5.26813687 C2.15666502,5.40967264 1.96642799,5.7411699 2.00491976,6.08761815 Z M4.0896338,6.73933043 L10,4.11313357 L15.9103662,6.73933043 L15.5493889,9.98833487 C15.3738323,11.5684466 14.4852054,12.9814351 13.1371517,13.8240229 L10,15.7848689 L6.86284833,13.8240229 C5.5147946,12.9814351 4.62616773,11.5684466 4.45061106,9.98833487 L4.0896338,6.73933043 Z"/>
</svg>
