<svg xmlns="http://www.w3.org/2000/svg" width="20" height="20" viewBox="0 0 20 20">
  <path fill-rule="evenodd" d="M3,14 C3.47338693,14 3.86994729,14.3289337 3.97358929,14.7707092 L3.99327227,14.8833789 L4,15 L4,16 L5,16 L5.11662113,16.0067277 C5.53744617,16.0556059 5.87858412,16.3657483 5.97358929,16.7707092 L5.99327227,16.8833789 L6,17 L5.99327227,17.1166211 C5.9443941,17.5374462 5.63425172,17.8785841 5.22929083,17.9735893 L5.11662113,17.9932723 L5,18 L3,18 L2.88337887,17.9932723 C2.46255383,17.9443941 2.12141588,17.6342517 2.02641071,17.2292908 L2.00672773,17.1166211 L2,17 L2,15 L2.00672773,14.8833789 C2.06449284,14.3860402 2.48716416,14 3,14 Z M17,14 C17.4733869,14 17.8699473,14.3289337 17.9735893,14.7707092 L17.9932723,14.8833789 L18,15 L18,17 L17.9932723,17.1166211 L17.9735893,17.2292908 C17.8880846,17.5937556 17.6032124,17.8814174 17.2403116,17.9709373 L17.1166211,17.9932723 L17,18 L15,18 L14.8833789,17.9932723 L14.7707092,17.9735893 C14.4062444,17.8880846 14.1185826,17.6032124 14.0290627,17.2403116 L14.0067277,17.1166211 L14,17 L14.0067277,16.8833789 L14.0264107,16.7707092 C14.1119154,16.4062444 14.3967876,16.1185826 14.7596884,16.0290627 L14.8833789,16.0067277 L15,16 L16,16 L16,15 L16.0067277,14.8833789 L16.0264107,14.7707092 C16.1300527,14.3289337 16.5266131,14 17,14 Z M10,2 C10.5522847,2 11,2.44771525 11,3 L11,17 C11,17.5522847 10.5522847,18 10,18 C9.44771525,18 9,17.5522847 9,17 L9,3 C9,2.44771525 9.44771525,2 10,2 Z M3,8 C3.55228475,8 4,8.44771525 4,9 L4,11 C4,11.5522847 3.55228475,12 3,12 C2.44771525,12 2,11.5522847 2,11 L2,9 C2,8.44771525 2.44771525,8 3,8 Z M17,8 C17.5522847,8 18,8.44771525 18,9 L18,11 C18,11.5522847 17.5522847,12 17,12 C16.4477153,12 16,11.5522847 16,11 L16,9 C16,8.44771525 16.4477153,8 17,8 Z M5,2 L5.11662113,2.00672773 C5.57570299,2.06004937 5.93995063,2.42429701 5.99327227,2.88337887 L6,3 L5.99327227,3.11662113 C5.93995063,3.57570299 5.57570299,3.93995063 5.11662113,3.99327227 L5,4 L4,4 L4,5 L3.99327227,5.11662113 C3.93550716,5.61395981 3.51283584,6 3,6 C2.48716416,6 2.06449284,5.61395981 2.00672773,5.11662113 L2,5 L2,3 L2.00672773,2.88337887 C2.06004937,2.42429701 2.42429701,2.06004937 2.88337887,2.00672773 L3,2 L5,2 Z M17,2 L17.1166211,2.00672773 C17.5374462,2.0556059 17.8785841,2.36574828 17.9735893,2.77070917 L17.9932723,2.88337887 L18,3 L18,5 L17.9932723,5.11662113 C17.9355072,5.61395981 17.5128358,6 17,6 C16.5266131,6 16.1300527,5.67106635 16.0264107,5.22929083 L16.0067277,5.11662113 L16,5 L16,4 L15,4 L14.8833789,3.99327227 C14.4625538,3.9443941 14.1214159,3.63425172 14.0264107,3.22929083 L14.0067277,3.11662113 L14,3 L14.0067277,2.88337887 C14.0556059,2.46255383 14.3657483,2.12141588 14.7707092,2.02641071 L14.8833789,2.00672773 L15,2 L17,2 Z"/>
</svg>
