<svg xmlns="http://www.w3.org/2000/svg" width="20" height="20" viewBox="0 0 20 20">
  <path fill-rule="evenodd" d="M3.89733333,6.44811841 C3.91733333,6.26232089 3.842,6.07904267 3.69533333,5.9543379 L2.202,4.2538183 L2.202,4 L6.84066667,4 L10.426,11.4287514 L13.578,4 L18,4 L18,4.2538183 L16.7226667,5.41080145 C16.6126667,5.49015903 16.558,5.6205322 16.5806667,5.74964573 L16.5806667,14.2509841 C16.558,14.3794678 16.6126667,14.509841 16.7226667,14.5891986 L17.97,15.7461817 L17.97,16 L11.6953333,16 L11.6953333,15.7461817 L12.988,14.5608566 C13.1146667,14.4411904 13.1146667,14.4059203 13.1146667,14.2226421 L13.1146667,7.35128326 L9.522,15.9722878 L9.03666667,15.9722878 L4.85333333,7.35128326 L4.85333333,13.129271 C4.81866667,13.3717525 4.904,13.6167533 5.08466667,13.7918438 L6.76533333,15.7178397 L6.76533333,15.9722878 L2,15.9722878 L2,15.7178397 L3.68066667,13.7918438 C3.86066667,13.6161234 3.94066667,13.369863 3.89733333,13.129271 L3.89733333,6.44811841 L3.89733333,6.44811841 Z"/>
</svg>
