<svg xmlns="http://www.w3.org/2000/svg" width="20" height="20" viewBox="0 0 20 20">
  <path fill-rule="evenodd" d="M10,2 C14.418278,2 18,5.581722 18,10 C18,14.418278 14.418278,18 10,18 C5.581722,18 2,14.418278 2,10 C2,5.581722 5.581722,2 10,2 Z M10,4 C6.6862915,4 4,6.6862915 4,10 C4,13.3137085 6.6862915,16 10,16 C13.3137085,16 16,13.3137085 16,10 C16,6.6862915 13.3137085,4 10,4 Z M9.50387103,6.1362211 L13.503871,9.1362211 C14.1264642,9.49940048 14.1630874,10.3674256 13.6137404,10.7899986 L9.50387103,13.8637789 C8.83721439,14.2526619 8,13.7717908 8,13 L8,7 C8,6.22820917 8.83721439,5.74733806 9.50387103,6.1362211 Z"/>
</svg>
