<svg xmlns="http://www.w3.org/2000/svg" width="20" height="20" viewBox="0 0 20 20">
  <path fill-rule="evenodd" d="M16,13 L14,13 L14,14 C14,14.5522847 13.5522847,15 13,15 L5,15 C4.44771525,15 4,14.5522847 4,14 L4,6 C4,5.44771525 4.44771525,5 5,5 L13,5 C13.5522847,5 14,5.44771525 14,6 L14,7 L16,7 L16,6 C16,4.34314575 14.6568542,3 13,3 L5,3 C3.34314575,3 2,4.34314575 2,6 L2,14 C2,15.6568542 3.34314575,17 5,17 L13,17 C14.6568542,17 16,15.6568542 16,14 L16,13 Z M13,7 L16,7 C17.1045695,7 18,7.8954305 18,9 L18,11 C18,12.1045695 17.1045695,13 16,13 L13,13 C11.8954305,13 11,12.1045695 11,11 L11,9 C11,7.8954305 11.8954305,7 13,7 Z M14,11 C14.5522847,11 15,10.5522847 15,10 C15,9.44771525 14.5522847,9 14,9 C13.4477153,9 13,9.44771525 13,10 C13,10.5522847 13.4477153,11 14,11 Z"/>
</svg>
