<svg xmlns="http://www.w3.org/2000/svg" width="20" height="20" viewBox="0 0 20 20">
  <path fill-rule="evenodd" d="M10,2 C14.418278,2 18,5.581722 18,10 C18,14.418278 14.418278,18 10,18 C5.581722,18 2,14.418278 2,10 C2,5.581722 5.581722,2 10,2 Z M10,4 C13.3137085,4 16,6.6862915 16,10 C16,13.3137085 13.3137085,16 10,16 C6.6862915,16 4,13.3137085 4,10 C4,6.6862915 6.6862915,4 10,4 Z M10,13 C9.44771525,13 9,13.4477153 9,14 C9,14.5522847 9.44771525,15 10,15 C10.5522847,15 11,14.5522847 11,14 C11,13.4477153 10.5522847,13 10,13 Z M10,5 C9.48716416,5 9.06449284,5.38604019 9.00672773,5.88337887 L9,6 L9,11 C9,11.5522847 9.44771525,12 10,12 C10.5128358,12 10.9355072,11.6139598 10.9932723,11.1166211 L11,11 L11,6 C11,5.44771525 10.5522847,5 10,5 Z"/>
</svg>
