<svg xmlns="http://www.w3.org/2000/svg" width="20" height="20" viewBox="0 0 20 20">
  <path fill-rule="evenodd" d="M17,16 C17.5522847,16 18,16.4477153 18,17 C18,17.5522847 17.5522847,18 17,18 L3,18 C2.44771525,18 2,17.5522847 2,17 C2,16.4477153 2.44771525,16 3,16 L17,16 Z M6.29289322,9.29289322 L13.2928932,2.29289322 C13.6533772,1.93240926 14.2206082,1.90467972 14.6128994,2.20970461 L14.7071068,2.29289322 L17.7071068,5.29289322 C18.0675907,5.65337718 18.0953203,6.22060824 17.7902954,6.61289944 L17.7071068,6.70710678 L10.7071068,13.7071068 C10.5508265,13.8633871 10.3481451,13.9625983 10.131444,13.9913276 L10,14 L7,14 C6.48716416,14 6.06449284,13.6139598 6.00672773,13.1166211 L6,13 L6,10 C6,9.77898626 6.07316447,9.56551597 6.20608063,9.39197049 L6.29289322,9.29289322 L13.2928932,2.29289322 L6.29289322,9.29289322 Z M14,4.41421356 L8,10.4142136 L8,12 L9.58578644,12 L15.5857864,6 L14,4.41421356 Z"/>
</svg>
