<svg xmlns="http://www.w3.org/2000/svg" width="20" height="20" viewBox="0 0 20 20">
  <path fill-rule="evenodd" d="M16,8 C16.5522847,8 17,8.44771525 17,9 C17,12.5261219 14.3928118,15.4433024 11.0010101,15.9289666 L11,17 C11,17.5522847 10.5522847,18 10,18 C9.44771525,18 9,17.5522847 9,17 L9,15.92911 C5.60770164,15.4438768 3,12.5264691 3,9 C3,8.44771525 3.44771525,8 4,8 C4.55228475,8 5,8.44771525 5,9 C5,11.7614237 7.23857625,14 10,14 C12.7614237,14 15,11.7614237 15,9 C15,8.44771525 15.4477153,8 16,8 Z M10,2 C11.6568542,2 13,3.34314575 13,5 L13,9 C13,10.6568542 11.6568542,12 10,12 C8.34314575,12 7,10.6568542 7,9 L7,5 C7,3.34314575 8.34314575,2 10,2 Z M10,4 C9.44771525,4 9,4.44771525 9,5 L9,9 C9,9.55228475 9.44771525,10 10,10 C10.5522847,10 11,9.55228475 11,9 L11,5 C11,4.44771525 10.5522847,4 10,4 Z"/>
</svg>
