<svg xmlns="http://www.w3.org/2000/svg" width="20" height="20" viewBox="0 0 20 20">
  <path fill-rule="evenodd" d="M6,14.585 L6.29289322,14.2928932 C6.65337718,13.9324093 7.22060824,13.9046797 7.61289944,14.2097046 L7.70710678,14.2928932 C8.06759074,14.6533772 8.09532028,15.2206082 7.79029539,15.6128994 L7.70710678,15.7071068 L5.70710678,17.7071068 L5.663147,17.7485042 L5.59530661,17.8036654 L5.4840621,17.8753288 L5.42309915,17.9063462 L5.34165038,17.9401141 L5.26599297,17.9641549 L5.11747418,17.9931658 L5,18 L4.918,17.996 L4.79927424,17.9797599 L4.68785748,17.9502619 L4.57677845,17.9063266 L4.47929125,17.8540045 L4.4048407,17.8036865 L4.29289322,17.7071068 L2.29289322,15.7071068 C1.90236893,15.3165825 1.90236893,14.6834175 2.29289322,14.2928932 C2.65337718,13.9324093 3.22060824,13.9046797 3.61289944,14.2097046 L3.70710678,14.2928932 L4,14.585 L4,5.415 L3.70710678,5.70710678 L3.61289944,5.79029539 C3.22060824,6.09532028 2.65337718,6.06759074 2.29289322,5.70710678 C1.93240926,5.34662282 1.90467972,4.77939176 2.20970461,4.38710056 L2.29289322,4.29289322 L4.29289322,2.29289322 L4.4048407,2.19631351 L4.47929125,2.14599545 L4.57677845,2.09367336 L4.68785748,2.04973809 L4.79927424,2.02024007 L4.918,2.004 L5,2 L5.11747418,2.00683422 L5.26599297,2.03584514 L5.34165038,2.05988586 L5.42309915,2.09365378 L5.4840621,2.12467117 L5.59530661,2.19633458 L5.663147,2.2514958 L5.70710678,2.29289322 L7.70710678,4.29289322 L7.79029539,4.38710056 C8.06990154,4.74670083 8.06990154,5.25329917 7.79029539,5.61289944 L7.70710678,5.70710678 L7.61289944,5.79029539 C7.25329917,6.06990154 6.74670083,6.06990154 6.38710056,5.79029539 L6.29289322,5.70710678 L6,5.415 L6,14.585 Z M17,15 C17.5522847,15 18,15.4477153 18,16 C18,16.5522847 17.5522847,17 17,17 L11,17 C10.4477153,17 10,16.5522847 10,16 C10,15.4477153 10.4477153,15 11,15 L17,15 Z M17,9 C17.5522847,9 18,9.44771525 18,10 C18,10.5522847 17.5522847,11 17,11 L11,11 C10.4477153,11 10,10.5522847 10,10 C10,9.44771525 10.4477153,9 11,9 L17,9 Z M17,3 C17.5522847,3 18,3.44771525 18,4 C18,4.55228475 17.5522847,5 17,5 L11,5 C10.4477153,5 10,4.55228475 10,4 C10,3.44771525 10.4477153,3 11,3 L17,3 Z"/>
</svg>
