<svg xmlns="http://www.w3.org/2000/svg" width="20" height="20" viewBox="0 0 20 20">
  <path fill-rule="evenodd" d="M17,16 C17.5522847,16 18,16.4477153 18,17 C18,17.5522847 17.5522847,18 17,18 L3,18 C2.44771525,18 2,17.5522847 2,17 C2,16.4477153 2.44771525,16 3,16 L17,16 Z M10,14 L9.918,13.996 L9.79927424,13.9797599 L9.68785748,13.9502619 L9.57677845,13.9063266 L9.47929125,13.8540045 L9.4048407,13.8036865 L9.29289322,13.7071068 L6.29289322,10.7071068 C5.90236893,10.3165825 5.90236893,9.68341751 6.29289322,9.29289322 C6.65337718,8.93240926 7.22060824,8.90467972 7.61289944,9.20970461 L7.70710678,9.29289322 L9,10.585 L9,3 C9,2.44771525 9.44771525,2 10,2 C10.5522847,2 11,2.44771525 11,3 L11,10.585 L12.2928932,9.29289322 C12.6533772,8.93240926 13.2206082,8.90467972 13.6128994,9.20970461 L13.7071068,9.29289322 C14.0675907,9.65337718 14.0953203,10.2206082 13.7902954,10.6128994 L13.7071068,10.7071068 L10.7071068,13.7071068 L10.663147,13.7485042 L10.5953066,13.8036654 L10.4840621,13.8753288 L10.4230991,13.9063462 L10.3416504,13.9401141 L10.265993,13.9641549 L10.1174742,13.9931658 L10,14 Z"/>
</svg>
