<svg xmlns="http://www.w3.org/2000/svg" width="20" height="20" viewBox="0 0 20 20">
  <path fill-rule="evenodd" d="M10,2 C12.1421954,2 13.8910789,3.68396847 13.9951047,5.80035966 L14,6 L14.0009007,8.17102423 C15.1656226,8.58311485 16,9.69411778 16,11 L16,15 C16,16.6568542 14.6568542,18 13,18 L7,18 C5.34314575,18 4,16.6568542 4,15 L4,11 C4,9.34314575 5.34314575,8 7,8 L12,8 L12,6 C12,4.9456382 11.1841222,4.08183488 10.1492623,4.00548574 L10,4 C8.8954305,4 8,4.8954305 8,6 C8,6.55228475 7.55228475,7 7,7 C6.44771525,7 6,6.55228475 6,6 C6,3.790861 7.790861,2 10,2 Z M13,10 L7,10 C6.44771525,10 6,10.4477153 6,11 L6,15 C6,15.5522847 6.44771525,16 7,16 L13,16 C13.5522847,16 14,15.5522847 14,15 L14,11 C14,10.4477153 13.5522847,10 13,10 Z"/>
</svg>
