<svg xmlns="http://www.w3.org/2000/svg" width="20" height="20" viewBox="0 0 20 20">
  <path fill-rule="evenodd" d="M13,4 C14.2181391,4 15.274045,4.72833689 15.7433631,5.79883901 L15.8125294,5.97065284 L15.864,6.126 L16.0117763,6.17489588 C17.0566655,6.54915358 17.833476,7.48663618 17.9763495,8.62148539 L17.9949073,8.82372721 L18,9 L18,11 C18,12.2181391 17.2716631,13.274045 16.201161,13.7433631 L16.0293472,13.8125294 L15.873,13.864 L15.8251041,14.0117763 C15.4508464,15.0566655 14.5133638,15.833476 13.3785146,15.9763495 L13.1762728,15.9949073 L13,16 L5,16 C3.40231912,16 2.09633912,14.75108 2.00509269,13.1762728 L2,13 L2,7 C2,5.40231912 3.24891996,4.09633912 4.82372721,4.00509269 L5,4 L13,4 Z M13,6 L5,6 C4.48716416,6 4.06449284,6.38604019 4.00672773,6.88337887 L4,7 L4,13 C4,13.5128358 4.38604019,13.9355072 4.88337887,13.9932723 L5,14 L13,14 C13.5128358,14 13.9355072,13.6139598 13.9932723,13.1166211 L14.0064006,12.8863103 C14.0571485,12.4384032 14.4041535,12.0784107 14.8498945,12.0112465 L14.9632725,12.0006747 L15.075685,11.9972247 C15.5546159,11.9618905 15.9369487,11.5888432 15.9929352,11.1192658 L16,11 L16,9 C16,8.48716416 15.6139598,8.06449284 15.1166211,8.00672773 L14.8863103,7.99359936 C14.4384032,7.94285149 14.0784107,7.59584645 14.0112465,7.15010546 L14.0006747,7.03672752 L13.9972247,6.92431496 C13.9618905,6.44538412 13.5888432,6.06305131 13.1192658,6.00706479 L13,6 Z M9.56239412,6.53414777 L9.56239412,8.5336953 L11.4367589,8.5336953 C11.8708095,8.5336953 12.1412486,8.98013388 11.922543,9.33562376 L9.48578418,13.7345378 C9.19653449,14.2046921 8.43760588,14.0101515 8.43760588,13.4658522 L8.43760588,11.4663047 L6.56324113,11.4663047 C6.1291905,11.4663047 5.85875142,11.0198661 6.07745695,10.6643762 L8.51421582,6.26546215 C8.80346551,5.7953079 9.56239412,5.98984847 9.56239412,6.53414777 Z"/>
</svg>
