<svg xmlns="http://www.w3.org/2000/svg" width="20" height="20" viewBox="0 0 20 20">
  <path fill-rule="evenodd" d="M3.5361074,9.38853828 L5.37067122,7.55397446 C5.76143225,7.16321343 6.39498106,7.16321343 6.78574209,7.55397446 C7.14859161,7.91682399 7.17450944,8.48901604 6.86349556,8.88177164 L6.78574209,8.96904532 L4.95117826,10.8036091 C3.77889518,11.9758922 3.77889518,13.8765386 4.95117826,15.0488217 C6.0815941,16.1792376 7.88927634,16.2196096 9.06806835,15.1699377 L9.19639085,15.0488217 L11.0309547,13.2142579 C11.4217157,12.8234969 12.0552645,12.8234969 12.4460255,13.2142579 C12.8088751,13.5771074 12.8347929,14.1492995 12.523779,14.5420551 L12.4460255,14.6293288 L10.6114617,16.4638926 C8.65765657,18.4176977 5.48991254,18.4176977 3.5361074,16.4638926 C1.63371818,14.5615034 1.58365531,11.5082261 3.38591878,9.54526385 L3.5361074,9.38853828 Z M3.69955779,3.62880425 L16.3711958,16.3004422 C16.7599931,16.6892396 16.7599931,17.3196046 16.3711958,17.708402 C15.9823984,18.0971993 15.3520333,18.0971993 14.963236,17.708402 L2.29159802,5.03676402 C1.90280066,4.64796667 1.90280066,4.0176016 2.29159802,3.62880425 C2.68039537,3.24000689 3.31076043,3.24000689 3.69955779,3.62880425 Z M16.5346461,3.46535386 C18.4884513,5.419159 18.4884513,8.58690303 16.5346461,10.5407082 L15.6956602,11.3796941 C15.3048992,11.7704551 14.6713504,11.7704551 14.2805894,11.3796941 C13.8898283,10.9889331 13.8898283,10.3553843 14.2805894,9.96462323 L15.1195753,9.12563731 C16.2918584,7.95335422 16.2918584,6.05270781 15.1195753,4.88042472 C13.9472922,3.70814163 12.0466458,3.70814163 10.8743627,4.88042472 L10.0353768,5.71941064 C9.64461574,6.11017167 9.01106694,6.11017167 8.62030591,5.71941064 C8.22954488,5.32864961 8.22954488,4.69510081 8.62030591,4.30433978 L9.45929183,3.46535386 C11.413097,1.51154871 14.580841,1.51154871 16.5346461,3.46535386 Z"/>
</svg>
