<svg xmlns="http://www.w3.org/2000/svg" width="20" height="20" viewBox="0 0 20 20">
  <path fill-rule="evenodd" d="M5,4 L12.0801302,4 C12.9559048,4 13.7879534,4.38268819 14.3579,5.04762588 L17.7592566,9.34920863 C18.0802478,9.72369836 18.0802478,10.2763016 17.7592566,10.6507914 L14.3579,14.9523741 C13.7879534,15.6173118 12.9559048,16 12.0801302,16 L5,16 C3.34314575,16 2,14.6568542 2,13 L2,7 C2,5.34314575 3.34314575,4 5,4 Z M15.6829222,10 L12.8393868,6.34920863 C12.6494046,6.12756273 12.372055,6 12.0801302,6 L5,6 C4.44771525,6 4,6.44771525 4,7 L4,13 C4,13.5522847 4.44771525,14 5,14 L12.0801302,14 C12.372055,14 12.6494046,13.8724373 12.8393868,13.6507914 L15.6829222,10 Z"/>
</svg>
