<svg xmlns="http://www.w3.org/2000/svg" width="20" height="20" viewBox="0 0 20 20">
  <path fill-rule="evenodd" d="M15,2 C16.6568542,2 18,3.34314575 18,5 L18,13 C18,14.6568542 16.6568542,16 15,16 L12.4142136,16 L10.7071068,17.7071068 C10.3165825,18.0976311 9.68341751,18.0976311 9.29289322,17.7071068 L7.58578644,16 L5,16 C3.34314575,16 2,14.6568542 2,13 L2,5 C2,3.34314575 3.34314575,2 5,2 L15,2 Z M15,4 L5,4 C4.44771525,4 4,4.44771525 4,5 L4,13 C4,13.5522847 4.44771525,14 5,14 L8,14 C8.26521649,14 8.5195704,14.1053568 8.70710678,14.2928932 L10,15.5857864 L11.2928932,14.2928932 C11.4804296,14.1053568 11.7347835,14 12,14 L15,14 C15.5522847,14 16,13.5522847 16,13 L16,5 C16,4.44771525 15.5522847,4 15,4 Z M10,6 C10.5522847,6 11,6.44771525 11,7 L11,8 L12,8 C12.5522847,8 13,8.44771525 13,9 C13,9.55228475 12.5522847,10 12,10 L11,10 L11,11 C11,11.5522847 10.5522847,12 10,12 C9.44771525,12 9,11.5522847 9,11 L9,10 L8,10 C7.44771525,10 7,9.55228475 7,9 C7,8.44771525 7.44771525,8 8,8 L9,8 L9,7 C9,6.44771525 9.44771525,6 10,6 Z"/>
</svg>
