<svg xmlns="http://www.w3.org/2000/svg" width="20" height="20" viewBox="0 0 20 20">
  <path fill-rule="evenodd" d="M10,2 C14.418278,2 18,5.581722 18,10 C18,14.418278 14.418278,18 10,18 C5.581722,18 2,14.418278 2,10 C2,5.581722 5.581722,2 10,2 Z M10,9 C9.48716416,9 9.06449284,9.38604019 9.00672773,9.88337887 L9,10 L9,14 C9,14.5522847 9.44771525,15 10,15 C10.5128358,15 10.9355072,14.6139598 10.9932723,14.1166211 L11,14 L11,10 C11,9.44771525 10.5522847,9 10,9 Z M10,5 C9.44771525,5 9,5.44771525 9,6 C9,6.55228475 9.44771525,7 10,7 C10.5522847,7 11,6.55228475 11,6 C11,5.44771525 10.5522847,5 10,5 Z"/>
</svg>
