<svg xmlns="http://www.w3.org/2000/svg" width="20" height="20" viewBox="0 0 20 20">
  <path fill-rule="evenodd" d="M8,10 L7.99316578,10.1174742 L7.96415486,10.265993 L7.94011414,10.3416504 L7.90634622,10.4230991 L7.87532883,10.4840621 L7.80366542,10.5953066 L7.7485042,10.663147 L7.70710678,10.7071068 L5.70710678,12.7071068 L5.61289944,12.7902954 C5.25329917,13.0699015 4.74670083,13.0699015 4.38710056,12.7902954 L4.29289322,12.7071068 L4.20970461,12.6128994 C3.93009846,12.2532992 3.93009846,11.7467008 4.20970461,11.3871006 L4.29289322,11.2928932 L4.585,11 L3,11 C2.44771525,11 2,10.5522847 2,10 C2,9.48716416 2.38604019,9.06449284 2.88337887,9.00672773 L3,9 L4.585,9 L4.29289322,8.70710678 L4.20970461,8.61289944 C3.90467972,8.22060824 3.93240926,7.65337718 4.29289322,7.29289322 C4.65337718,6.93240926 5.22060824,6.90467972 5.61289944,7.20970461 L5.70710678,7.29289322 L7.70710678,9.29289322 L7.80368649,9.4048407 L7.85400455,9.47929125 L7.90632664,9.57677845 L7.95026191,9.68785748 L7.97975993,9.79927424 L7.996,9.918 L8,10 Z M11,17 C11,17.5522847 10.5522847,18 10,18 C9.48716416,18 9.06449284,17.6139598 9.00672773,17.1166211 L9,17 L9,3 C9,2.44771525 9.44771525,2 10,2 C10.5128358,2 10.9355072,2.38604019 10.9932723,2.88337887 L11,3 L11,17 Z M18,10 C18,10.5522847 17.5522847,11 17,11 L15.415,11 L15.7071068,11.2928932 C16.0675907,11.6533772 16.0953203,12.2206082 15.7902954,12.6128994 L15.7071068,12.7071068 C15.3466228,13.0675907 14.7793918,13.0953203 14.3871006,12.7902954 L14.2928932,12.7071068 L12.2928932,10.7071068 L12.2514958,10.663147 L12.1963346,10.5953066 L12.1246712,10.4840621 L12.0936538,10.4230991 L12.0598859,10.3416504 L12.0358451,10.265993 L12.0068342,10.1174742 L12,10 L12.004,9.918 L12.0202401,9.79927424 L12.0497381,9.68785748 L12.0936734,9.57677845 L12.1459955,9.47929125 L12.1963135,9.4048407 L12.2928932,9.29289322 L14.2928932,7.29289322 C14.6834175,6.90236893 15.3165825,6.90236893 15.7071068,7.29289322 C16.0675907,7.65337718 16.0953203,8.22060824 15.7902954,8.61289944 L15.7071068,8.70710678 L15.415,9 L17,9 C17.5522847,9 18,9.44771525 18,10 Z"/>
</svg>
