<svg xmlns="http://www.w3.org/2000/svg" width="20" height="20" viewBox="0 0 20 20">
  <path fill-rule="evenodd" d="M17,16 C17.5522847,16 18,16.4477153 18,17 C18,17.5522847 17.5522847,18 17,18 L3,18 C2.44771525,18 2,17.5522847 2,17 C2,16.4477153 2.44771525,16 3,16 L17,16 Z M10,7 C10.5522847,7 11,7.44771525 11,8 L11,9 L12,9 C12.5522847,9 13,9.44771525 13,10 C13,10.5522847 12.5522847,11 12,11 L11,11 L11,12 C11,12.5522847 10.5522847,13 10,13 C9.44771525,13 9,12.5522847 9,12 L9,11 L8,11 C7.44771525,11 7,10.5522847 7,10 C7,9.44771525 7.44771525,9 8,9 L9,9 L9,8 C9,7.44771525 9.44771525,7 10,7 Z M3,8 C3.55228475,8 4,8.44771525 4,9 L4,11 C4,11.5522847 3.55228475,12 3,12 C2.44771525,12 2,11.5522847 2,11 L2,9 C2,8.44771525 2.44771525,8 3,8 Z M17,8 C17.5522847,8 18,8.44771525 18,9 L18,11 C18,11.5522847 17.5522847,12 17,12 C16.4477153,12 16,11.5522847 16,11 L16,9 C16,8.44771525 16.4477153,8 17,8 Z M17,2 L17.1166211,2.00672773 C17.575703,2.06004937 17.9399506,2.42429701 17.9932723,2.88337887 L18,3 L18,5 L17.9932723,5.11662113 C17.9399506,5.57570299 17.575703,5.93995063 17.1166211,5.99327227 L17,6 L16.8833789,5.99327227 C16.424297,5.93995063 16.0600494,5.57570299 16.0067277,5.11662113 L16,5 L16,4 L15,4 L14.8833789,3.99327227 C14.3860402,3.93550716 14,3.51283584 14,3 C14,2.48716416 14.3860402,2.06449284 14.8833789,2.00672773 L15,2 L17,2 Z M5,2 L5.11662113,2.00672773 C5.61395981,2.06449284 6,2.48716416 6,3 C6,3.47338693 5.67106635,3.86994729 5.22929083,3.97358929 L5.11662113,3.99327227 L5,4 L4,4 L4,5 L3.99327227,5.11662113 C3.9443941,5.53744617 3.63425172,5.87858412 3.22929083,5.97358929 L3.11662113,5.99327227 L3,6 L2.88337887,5.99327227 C2.46255383,5.9443941 2.12141588,5.63425172 2.02641071,5.22929083 L2.00672773,5.11662113 L2,5 L2,3 L2.00672773,2.88337887 C2.0556059,2.46255383 2.36574828,2.12141588 2.77070917,2.02641071 L2.88337887,2.00672773 L3,2 L5,2 Z M11,2 C11.5522847,2 12,2.44771525 12,3 C12,3.55228475 11.5522847,4 11,4 L9,4 C8.44771525,4 8,3.55228475 8,3 C8,2.44771525 8.44771525,2 9,2 L11,2 Z"/>
</svg>
