<svg xmlns="http://www.w3.org/2000/svg" width="20" height="20" viewBox="0 0 20 20">
  <path fill-rule="evenodd" d="M15,3 C16.6568542,3 18,4.34314575 18,6 L18,8 C18,8.76830698 17.7111821,9.46915694 17.2361945,9.99990166 C17.7108261,10.5299794 18,11.2312196 18,12 L18,14 C18,15.6568542 16.6568542,17 15,17 L5,17 C3.34314575,17 2,15.6568542 2,14 L2,12 C2,11.231693 2.28881789,10.5308431 2.76380548,10.0000983 C2.28917391,9.47002056 2,8.76878037 2,8 L2,6 C2,4.34314575 3.34314575,3 5,3 L15,3 Z M15,11 L5,11 C4.44771525,11 4,11.4477153 4,12 L4,14 C4,14.5522847 4.44771525,15 5,15 L15,15 C15.5522847,15 16,14.5522847 16,14 L16,12 C16,11.4477153 15.5522847,11 15,11 Z M6,12 C6.55228475,12 7,12.4477153 7,13 C7,13.5522847 6.55228475,14 6,14 C5.44771525,14 5,13.5522847 5,13 C5,12.4477153 5.44771525,12 6,12 Z M15,5 L5,5 C4.44771525,5 4,5.44771525 4,6 L4,8 C4,8.55228475 4.44771525,9 5,9 L15,9 C15.5522847,9 16,8.55228475 16,8 L16,6 C16,5.44771525 15.5522847,5 15,5 Z M6,6 C6.55228475,6 7,6.44771525 7,7 C7,7.55228475 6.55228475,8 6,8 C5.44771525,8 5,7.55228475 5,7 C5,6.44771525 5.44771525,6 6,6 Z"/>
</svg>
