<svg xmlns="http://www.w3.org/2000/svg" width="20" height="20" viewBox="0 0 20 20">
  <path fill-rule="evenodd" d="M15,2 C16.6568542,2 18,3.34314575 18,5 C18,6.65685425 16.6568542,8 15,8 C14.1893249,8 13.4537517,7.67845022 12.913864,7.15593406 L8,9.58032254 L8,10.4196775 L12.913864,12.8440659 C13.4537517,12.3215498 14.1893249,12 15,12 C16.6568542,12 18,13.3431458 18,15 C18,16.6568542 16.6568542,18 15,18 C13.3431458,18 12,16.6568542 12,15 C12,14.8733482 12.0078483,14.7485295 12.0230852,14.6260037 L7.10379904,12.138699 C6.56234669,12.6713704 5.81955112,13 5,13 C3.34314575,13 2,11.6568542 2,10 C2,8.34314575 3.34314575,7 5,7 C5.81955112,7 6.56234669,7.32862956 7.10379904,7.861301 L12.0230852,5.37399626 C12.0078483,5.25147046 12,5.12665177 12,5 C12,3.34314575 13.3431458,2 15,2 Z"/>
</svg>
