<svg xmlns="http://www.w3.org/2000/svg" width="20" height="20" viewBox="0 0 20 20">
  <path fill-rule="evenodd" d="M10,2 C13.8659932,2 17,5.18857957 17,9.1218918 C17,11.7112336 14.9044619,14.4481947 10.8016325,17.4280621 L10.4450476,17.6840764 L10,18 L9.55495235,17.6840764 C5.21699383,14.604713 3,11.7852148 3,9.1218918 C3,5.18857957 6.13400675,2 10,2 Z M10,4 C7.24637821,4 5,6.28549465 5,9.1218918 C5,10.7705609 6.48662173,12.8514437 9.68511664,15.2970125 L10,15.5348166 L10.3148834,15.2970125 C13.5133783,12.8514437 15,10.7705609 15,9.1218918 C15,6.28549465 12.7536218,4 10,4 Z M10,7 C11.1045695,7 12,7.8954305 12,9 C12,10.1045695 11.1045695,11 10,11 C8.8954305,11 8,10.1045695 8,9 C8,7.8954305 8.8954305,7 10,7 Z"/>
</svg>
