<svg xmlns="http://www.w3.org/2000/svg" width="20" height="20" viewBox="0 0 20 20">
  <path d="M10,2 C14,6.04358507 16,9.24358507 16,11.6 C16,15.1346224 13.3137085,18 10,18 C6.6862915,18 4,15.1346224 4,11.6 C4,9.24358507 6,6.04358507 10,2 Z M10.3010194,5.23888509 L10,4.904 L9.97056748,4.93615199 C7.29784899,7.88568667 6,10.1669644 6,11.6 C6,11.7353582 6.00552203,11.8691522 6.01632187,12.0011438 L13.9836781,12.0011438 C13.994478,11.8691522 14,11.7353582 14,11.6 C14,10.2163794 12.7901146,8.04200756 10.3010194,5.23888509 Z"/>
</svg>
