<svg xmlns="http://www.w3.org/2000/svg" width="20" height="20" viewBox="0 0 20 20">
  <path fill-rule="evenodd" d="M12,5 C13.6568542,5 15,6.34314575 15,8 L15,15 C15,16.6568542 13.6568542,18 12,18 L5,18 C3.34314575,18 2,16.6568542 2,15 L2,8 C2,6.34314575 3.34314575,5 5,5 L12,5 Z M12,7 L5,7 C4.44771525,7 4,7.44771525 4,8 L4,14.697 L6.18626653,11.4187618 C6.50017051,10.9792962 7.09949173,10.8737129 7.54124102,11.158983 L7.6401844,11.2317787 L10.7852568,15.5193391 L13,13 L13,8 C13,7.44771525 12.5522847,7 12,7 Z M15,2 C16.5976809,2 17.9036609,3.24891996 17.9949073,4.82372721 L18,5 L18,12 C18,12.5522847 17.5522847,13 17,13 C16.4871642,13 16.0644928,12.6139598 16.0067277,12.1166211 L16,12 L16,5 C16,4.48716416 15.6139598,4.06449284 15.1166211,4.00672773 L15,4 L8,4 C7.44771525,4 7,3.55228475 7,3 C7,2.48716416 7.38604019,2.06449284 7.88337887,2.00672773 L8,2 L15,2 Z"/>
</svg>
