<svg xmlns="http://www.w3.org/2000/svg" width="20" height="20" viewBox="0 0 20 20">
  <path fill-rule="evenodd" d="M10,12 L10.1174742,12.0068342 L10.265993,12.0358451 L10.3416504,12.0598859 L10.4230991,12.0936538 L10.4840621,12.1246712 L10.5953066,12.1963346 L10.663147,12.2514958 L10.7071068,12.2928932 L12.7071068,14.2928932 L12.7902954,14.3871006 C13.0699015,14.7467008 13.0699015,15.2532992 12.7902954,15.6128994 L12.7071068,15.7071068 L12.6128994,15.7902954 C12.2532992,16.0699015 11.7467008,16.0699015 11.3871006,15.7902954 L11.2928932,15.7071068 L11,15.415 L11,17 C11,17.5522847 10.5522847,18 10,18 C9.48716416,18 9.06449284,17.6139598 9.00672773,17.1166211 L9,17 L9,15.415 L8.70710678,15.7071068 L8.61289944,15.7902954 C8.22060824,16.0953203 7.65337718,16.0675907 7.29289322,15.7071068 C6.93240926,15.3466228 6.90467972,14.7793918 7.20970461,14.3871006 L7.29289322,14.2928932 L9.29289322,12.2928932 L9.4048407,12.1963135 L9.47929125,12.1459955 L9.57677845,12.0936734 L9.68785748,12.0497381 L9.79927424,12.0202401 L9.918,12.004 L10,12 Z M17,9 C17.5522847,9 18,9.44771525 18,10 C18,10.5128358 17.6139598,10.9355072 17.1166211,10.9932723 L17,11 L3,11 C2.44771525,11 2,10.5522847 2,10 C2,9.48716416 2.38604019,9.06449284 2.88337887,9.00672773 L3,9 L17,9 Z M10,2 C10.5522847,2 11,2.44771525 11,3 L11,4.585 L11.2928932,4.29289322 C11.6533772,3.93240926 12.2206082,3.90467972 12.6128994,4.20970461 L12.7071068,4.29289322 C13.0675907,4.65337718 13.0953203,5.22060824 12.7902954,5.61289944 L12.7071068,5.70710678 L10.7071068,7.70710678 L10.663147,7.7485042 L10.5953066,7.80366542 L10.4840621,7.87532883 L10.4230991,7.90634622 L10.3416504,7.94011414 L10.265993,7.96415486 L10.1174742,7.99316578 L10,8 L9.918,7.996 L9.79927424,7.97975993 L9.68785748,7.95026191 L9.57677845,7.90632664 L9.47929125,7.85400455 L9.4048407,7.80368649 L9.29289322,7.70710678 L7.29289322,5.70710678 C6.90236893,5.31658249 6.90236893,4.68341751 7.29289322,4.29289322 C7.65337718,3.93240926 8.22060824,3.90467972 8.61289944,4.20970461 L8.70710678,4.29289322 L9,4.585 L9,3 C9,2.44771525 9.44771525,2 10,2 Z"/>
</svg>
