<svg xmlns="http://www.w3.org/2000/svg" width="20" height="20" viewBox="0 0 20 20">
  <path fill-rule="evenodd" d="M8.38366699,4 C8.68571212,4 8.97157429,4.13652083 9.16142786,4.37143972 L10.4775757,6 L17,6 C17.5522847,6 18,6.44771525 18,7 C18,7.55228475 17.5522847,8 17,8 L10,8 C9.69795487,8 9.4120927,7.86347917 9.22223913,7.62856028 L7.90609126,6 L5,6 C4.44771525,6 4,6.44771525 4,7 L4,13 C4,13.5522847 4.44771525,14 5,14 L9,14 C9.55228475,14 10,14.4477153 10,15 C10,15.5522847 9.55228475,16 9,16 L5,16 C3.34314575,16 2,14.6568542 2,13 L2,7 C2,5.34314575 3.34314575,4 5,4 L8.38366699,4 Z M15,10 C15.5522847,10 16,10.4477153 16,11 L16,12 L17,12 C17.5522847,12 18,12.4477153 18,13 C18,13.5522847 17.5522847,14 17,14 L16,14 L16,15 C16,15.5522847 15.5522847,16 15,16 C14.4477153,16 14,15.5522847 14,15 L14,14 L13,14 C12.4477153,14 12,13.5522847 12,13 C12,12.4477153 12.4477153,12 13,12 L14,12 L14,11 C14,10.4477153 14.4477153,10 15,10 Z"/>
</svg>
