<svg xmlns="http://www.w3.org/2000/svg" width="20" height="20" viewBox="0 0 20 20">
  <path fill-rule="evenodd" d="M9,2 C12.8659932,2 16,5.13400675 16,9 C16,10.5763766 15.478928,12.0310504 14.5996286,13.2011767 L14.6544941,13.2440722 L14.7071068,13.2928932 L17.7071068,16.2928932 C18.0976311,16.6834175 18.0976311,17.3165825 17.7071068,17.7071068 C17.3466228,18.0675907 16.7793918,18.0953203 16.3871006,17.7902954 L16.2928932,17.7071068 L13.2928932,14.7071068 C13.2586889,14.6729024 13.2274804,14.6368368 13.1992676,14.5992358 C12.0310504,15.478928 10.5763766,16 9,16 C5.13400675,16 2,12.8659932 2,9 C2,5.13400675 5.13400675,2 9,2 Z M9,4 C6.23857625,4 4,6.23857625 4,9 C4,11.7614237 6.23857625,14 9,14 C11.7614237,14 14,11.7614237 14,9 C14,6.23857625 11.7614237,4 9,4 Z"/>
</svg>
