<svg xmlns="http://www.w3.org/2000/svg" width="20" height="20" viewBox="0 0 20 20">
  <path fill-rule="evenodd" d="M16,3 C16,2.44771525 16.4477153,2 17,2 C17.5522847,2 18,2.44771525 18,3 L18,17 C18,17.5522847 17.5522847,18 17,18 C16.4477153,18 16,17.5522847 16,17 L16,3 Z M14,10 L13.996,10.082 L13.9797599,10.2007258 L13.9502619,10.3121425 L13.9063266,10.4232215 L13.8540045,10.5207088 L13.8036865,10.5951593 L13.7071068,10.7071068 L10.7071068,13.7071068 C10.3165825,14.0976311 9.68341751,14.0976311 9.29289322,13.7071068 C8.93240926,13.3466228 8.90467972,12.7793918 9.20970461,12.3871006 L9.29289322,12.2928932 L10.585,11 L3,11 C2.44771525,11 2,10.5522847 2,10 C2,9.44771525 2.44771525,9 3,9 L10.585,9 L9.29289322,7.70710678 C8.93240926,7.34662282 8.90467972,6.77939176 9.20970461,6.38710056 L9.29289322,6.29289322 C9.65337718,5.93240926 10.2206082,5.90467972 10.6128994,6.20970461 L10.7071068,6.29289322 L13.7071068,9.29289322 L13.7485042,9.336853 L13.8036654,9.40469339 L13.8753288,9.5159379 L13.9063462,9.57690085 L13.9401141,9.65834962 L13.9641549,9.73400703 L13.9931658,9.88252582 L14,10 Z"/>
</svg>
