<svg xmlns="http://www.w3.org/2000/svg" width="20" height="20" viewBox="0 0 20 20">
  <path fill-rule="evenodd" d="M16.0067277,7.11662113 L16,7 C16,6.44771525 15.5522847,6 15,6 L5,6 C4.44771525,6 4,6.44771525 4,7 L4,8 L7,8 C7.55228475,8 8,8.44771525 8,9 C8,9.55228475 7.55228475,10 7,10 L4,10 L4,15 C4,15.5522847 4.44771525,16 5,16 L7,16 C7.55228475,16 8,16.4477153 8,17 C8,17.5522847 7.55228475,18 7,18 L5,18 C3.34314575,18 2,16.6568542 2,15 L2,7 C2,5.34314575 3.34314575,4 5,4 L5,3 C5,2.44771525 5.44771525,2 6,2 C6.55228475,2 7,2.44771525 7,3 L7,4 L13,4 L13,3 C13,2.44771525 13.4477153,2 14,2 C14.5522847,2 15,2.44771525 15,3 L15,4 C16.6568542,4 18,5.34314575 18,7 C18,7.55228475 17.5522847,8 17,8 C16.4871642,8 16.0644928,7.61395981 16.0067277,7.11662113 L16.0067277,7.11662113 Z M11.7071068,10.2928932 L14,12.585 L16.2928932,10.2928932 C16.6533772,9.93240926 17.2206082,9.90467972 17.6128994,10.2097046 L17.7071068,10.2928932 C18.0675907,10.6533772 18.0953203,11.2206082 17.7902954,11.6128994 L17.7071068,11.7071068 L15.415,14 L17.7071068,16.2928932 C18.0976311,16.6834175 18.0976311,17.3165825 17.7071068,17.7071068 C17.3165825,18.0976311 16.6834175,18.0976311 16.2928932,17.7071068 L14,15.415 L11.7071068,17.7071068 C11.3466228,18.0675907 10.7793918,18.0953203 10.3871006,17.7902954 L10.2928932,17.7071068 C9.93240926,17.3466228 9.90467972,16.7793918 10.2097046,16.3871006 L10.2928932,16.2928932 L12.585,14 L10.2928932,11.7071068 C9.90236893,11.3165825 9.90236893,10.6834175 10.2928932,10.2928932 C10.6834175,9.90236893 11.3165825,9.90236893 11.7071068,10.2928932 Z"/>
</svg>
