<svg xmlns="http://www.w3.org/2000/svg" width="20" height="20" viewBox="0 0 20 20">
  <path fill-rule="evenodd" d="M7,12 L13,12 C15.7614237,12 18,14.2385763 18,17 C18,17.5522847 17.5522847,18 17,18 C16.4871642,18 16.0644928,17.6139598 16.0067277,17.1166211 L15.9949073,16.8237272 C15.9070404,15.3072462 14.6927538,14.0929596 13.1762728,14.0050927 L13,14 L7,14 C5.34314575,14 4,15.3431458 4,17 C4,17.5522847 3.55228475,18 3,18 C2.44771525,18 2,17.5522847 2,17 C2,14.3112453 4.12230671,12.1181819 6.78311038,12.0046195 L7,12 Z M10,2 C10.5522847,2 11,2.44771525 11,3 C11,3.55228475 10.5522847,4 10,4 C8.34314575,4 7,5.34314575 7,7 C7,8.65685425 8.34314575,10 10,10 C10.7415415,10 11.4387178,9.73126895 11.9832766,9.25097929 C12.3974774,8.88566275 13.029401,8.92529125 13.3947176,9.33949202 C13.7600341,9.75369279 13.7204056,10.3856164 13.3062048,10.750933 C12.3997046,11.5504474 11.2334182,12 10,12 C7.23857625,12 5,9.76142375 5,7 C5,4.23857625 7.23857625,2 10,2 Z M15,2 C15.5522847,2 16,2.44771525 16,3 L16,4 L17,4 C17.5522847,4 18,4.44771525 18,5 C18,5.55228475 17.5522847,6 17,6 L16,6 L16,7 C16,7.55228475 15.5522847,8 15,8 C14.4477153,8 14,7.55228475 14,7 L14,6 L13,6 C12.4477153,6 12,5.55228475 12,5 C12,4.44771525 12.4477153,4 13,4 L14,4 L14,3 C14,2.44771525 14.4477153,2 15,2 Z"/>
</svg>
