<svg xmlns="http://www.w3.org/2000/svg" width="20" height="20" viewBox="0 0 20 20">
  <path fill-rule="evenodd" d="M15,2 C16.6568542,2 18,3.34314575 18,5 L18,15 C18,16.6568542 16.6568542,18 15,18 L5,18 C3.34314575,18 2,16.6568542 2,15 L2,5 C2,3.34314575 3.34314575,2 5,2 L15,2 Z M16,8 L4,8 L4,15 C4,15.5522847 4.44771525,16 5,16 L15,16 C15.5522847,16 16,15.5522847 16,15 L16,8 Z M10.1167504,14.9932723 L10.0000776,15 L9.916,14.996 L9.79937247,14.9797599 L9.79937247,14.9797599 L9.68795282,14.9502619 L9.68795282,14.9502619 L9.57687093,14.9063266 L9.57687093,14.9063266 L9.4793812,14.8540045 L9.4793812,14.8540045 L9.40491826,14.8036865 L9.40491826,14.8036865 L9.29297836,14.7071068 L7.29290079,12.7071068 C6.9023664,12.3165825 6.9023664,11.6834175 7.29290079,11.2928932 C7.65339407,10.9324093 8.22063979,10.9046797 8.61294114,11.2097046 L8.70715092,11.2928932 L9,11.585 L9.00007756,10 C9.00007756,9.48716416 9.38611775,9.06449284 9.88345644,9.00672773 L10.0001293,9 C10.552414,9 11.0001293,9.44771525 11.0001293,10 L11,11.585 L11.2930559,11.2928932 C11.6535492,10.9324093 12.2207949,10.9046797 12.6130963,11.2097046 L12.707306,11.2928932 C13.0677993,11.6533772 13.0955296,12.2206082 12.7904968,12.6128994 L12.707306,12.7071068 L10.7072361,14.7071068 L10.6217218,14.7833908 L10.6217218,14.7833908 L10.5518984,14.8341416 L10.5518984,14.8341416 L10.4539624,14.8913373 L10.4539624,14.8913373 L10.3401306,14.9407132 L10.3401306,14.9407132 L10.2661033,14.9641549 L10.1167504,14.9932723 L10.1167504,14.9932723 Z M15,4 L5,4 C4.44771525,4 4,4.44771525 4,5 L4,6 L16,6 L16,5 C16,4.44771525 15.5522847,4 15,4 Z"/>
</svg>
