<svg xmlns="http://www.w3.org/2000/svg" width="20" height="20" viewBox="0 0 20 20">
  <path fill-rule="evenodd" d="M15,2 C16.6568542,2 18,3.34314575 18,5 L18,13 C18,14.6568542 16.6568542,16 15,16 L12.4142136,16 L10.7071068,17.7071068 C10.3165825,18.0976311 9.68341751,18.0976311 9.29289322,17.7071068 L7.58578644,16 L5,16 C3.34314575,16 2,14.6568542 2,13 L2,5 C2,3.34314575 3.34314575,2 5,2 L15,2 Z M15,4 L5,4 C4.44771525,4 4,4.44771525 4,5 L4,13 C4,13.5522847 4.44771525,14 5,14 L8,14 C8.26521649,14 8.5195704,14.1053568 8.70710678,14.2928932 L10,15.5857864 L11.2928932,14.2928932 C11.4804296,14.1053568 11.7347835,14 12,14 L15,14 C15.5522847,14 16,13.5522847 16,13 L16,5 C16,4.44771525 15.5522847,4 15,4 Z M13,10 C13.5522847,10 14,10.4477153 14,11 C14,11.5522847 13.5522847,12 13,12 L7,12 C6.44771525,12 6,11.5522847 6,11 C6,10.4477153 6.44771525,10 7,10 L13,10 Z M13,6 C13.5522847,6 14,6.44771525 14,7 C14,7.55228475 13.5522847,8 13,8 L7,8 C6.44771525,8 6,7.55228475 6,7 C6,6.44771525 6.44771525,6 7,6 L13,6 Z"/>
</svg>
