<svg xmlns="http://www.w3.org/2000/svg" width="20" height="20" viewBox="0 0 20 20">
  <path fill-rule="evenodd" d="M15,2 C16.6568542,2 18,3.34314575 18,5 L18,15 C18,16.6568542 16.6568542,18 15,18 L5,18 C3.34314575,18 2,16.6568542 2,15 L2,5 C2,3.34314575 3.34314575,2 5,2 L15,2 Z M10,6 C9.48716416,6 9.06449284,6.38604019 9.00672773,6.88337887 L9,7 L9,13 C9,13.5522847 9.44771525,14 10,14 C10.5128358,14 10.9355072,13.6139598 10.9932723,13.1166211 L11,13 L11,7 C11,6.44771525 10.5522847,6 10,6 Z M14,8 C13.4871642,8 13.0644928,8.38604019 13.0067277,8.88337887 L13,9 L13,13 C13,13.5522847 13.4477153,14 14,14 C14.5128358,14 14.9355072,13.6139598 14.9932723,13.1166211 L15,13 L15,9 C15,8.44771525 14.5522847,8 14,8 Z M6,10 C5.48716416,10 5.06449284,10.3860402 5.00672773,10.8833789 L5,11 L5,13 C5,13.5522847 5.44771525,14 6,14 C6.51283584,14 6.93550716,13.6139598 6.99327227,13.1166211 L7,13 L7,11 C7,10.4477153 6.55228475,10 6,10 Z"/>
</svg>
