<svg xmlns="http://www.w3.org/2000/svg" width="20" height="20" viewBox="0 0 20 20">
  <path fill-rule="evenodd" d="M5,2 C5.55228475,2 6,2.44771525 6,3 L5.99984002,3.07035011 C7.17656965,2.38961245 8.54278539,2 10,2 C11.4576273,2 12.8242042,2.38983317 14.0011597,3.07092854 L14,3 C14,2.44771525 14.4477153,2 15,2 L17,2 C17.5522847,2 18,2.44771525 18,3 L18,5 C18,5.55228475 17.5522847,6 17,6 L16.9296499,5.99984002 C17.6103875,7.17656965 18,8.54278539 18,10 C18,14.418278 14.418278,18 10,18 C5.581722,18 2,14.418278 2,10 C2,8.54278539 2.38961245,7.17656965 3.07035011,5.99984002 L3,6 C2.44771525,6 2,5.55228475 2,5 L2,3 C2,2.44771525 2.44771525,2 3,2 L5,2 Z M10,4 C6.6862915,4 4,6.6862915 4,10 C4,13.3137085 6.6862915,16 10,16 C13.3137085,16 16,13.3137085 16,10 C16,6.6862915 13.3137085,4 10,4 Z M10,6 C10.5522847,6 11,6.44771525 11,7 L11,9 L13,9 C13.5522847,9 14,9.44771525 14,10 C14,10.5522847 13.5522847,11 13,11 L11,11 L11,13 C11,13.5522847 10.5522847,14 10,14 C9.44771525,14 9,13.5522847 9,13 L9,11 L7,11 C6.44771525,11 6,10.5522847 6,10 C6,9.44771525 6.44771525,9 7,9 L9,9 L9,7 C9,6.44771525 9.44771525,6 10,6 Z"/>
</svg>
