<svg xmlns="http://www.w3.org/2000/svg" width="20" height="20" viewBox="0 0 20 20">
  <path fill-rule="evenodd" d="M7,7 L7,4 C7,2.8954305 7.8954305,2 9,2 L11,2 C12.1045695,2 13,2.8954305 13,4 L13,7 L16,7 C17.1045695,7 18,7.8954305 18,9 L18,11 C18,12.1045695 17.1045695,13 16,13 L13,13 L13,16 C13,17.1045695 12.1045695,18 11,18 L9,18 C7.8954305,18 7,17.1045695 7,16 L7,13 L4,13 C2.8954305,13 2,12.1045695 2,11 L2,9 C2,7.8954305 2.8954305,7 4,7 L7,7 Z M9,4 L9,8 C9,8.55228475 8.55228475,9 8,9 L4,9 L4,11 L8,11 C8.55228475,11 9,11.4477153 9,12 L9,16 L11,16 L11,12 C11,11.4477153 11.4477153,11 12,11 L16,11 L16,9 L12,9 C11.4477153,9 11,8.55228475 11,8 L11,4 L9,4 Z"/>
</svg>
