<svg xmlns="http://www.w3.org/2000/svg" width="20" height="20" viewBox="0 0 20 20">
  <path fill-rule="evenodd" d="M13,3 C15.7614237,3 18,5.23857625 18,8 C18,10.7614237 15.7614237,13 13,13 L9,13 C7.34314575,13 6,11.6568542 6,10 C6,8.34314575 7.34314575,7 9,7 L13,7 C13.5522847,7 14,7.44771525 14,8 C14,8.55228475 13.5522847,9 13,9 L9,9 L8.88337887,9.00672773 C8.38604019,9.06449284 8,9.48716416 8,10 C8,10.5128358 8.38604019,10.9355072 8.88337887,10.9932723 L9,11 L13,11 C14.6568542,11 16,9.65685425 16,8 C16,6.34314575 14.6568542,5 13,5 L9,5 C6.23857625,5 4,7.23857625 4,10 C4,12.6887547 6.12230671,14.8818181 8.78311038,14.9953805 L9,15 L13,15 C13.5522847,15 14,15.4477153 14,16 C14,16.5522847 13.5522847,17 13,17 L9,17 C5.13400675,17 2,13.8659932 2,10 C2,6.13400675 5.13400675,3 9,3 L13,3 Z"/>
</svg>
