<svg xmlns="http://www.w3.org/2000/svg" width="20" height="20" viewBox="0 0 20 20">
  <path fill-rule="evenodd" d="M15,2 C16.6568542,2 18,3.34314575 18,5 L18,15 C18,16.6568542 16.6568542,18 15,18 L5,18 C3.34314575,18 2,16.6568542 2,15 L2,5 C2,3.34314575 3.34314575,2 5,2 L15,2 Z M4,15 C4,15.5522847 4.44771525,16 5,16 L15,16 C15.5522847,16 16,15.5522847 16,15 L16,11 L13.8739825,11 C13.4463858,12.6613299 11.9783077,13.9049545 10.2058261,13.9947959 L10,14 C8.20519166,14 6.68647613,12.8179062 6.17993121,11.1897963 L6.12601749,11 L4,11 L4,15 Z M15,4 L5,4 C4.44771525,4 4,4.44771525 4,5 L4,9 L7,9 C7.51283584,9 7.93550716,9.38604019 7.99327227,9.88337887 L8,10 C8,11.1045695 8.8954305,12 10,12 C11.0543618,12 11.9181651,11.1841222 11.9945143,10.1492623 L12.0067277,9.88337887 C12.0600494,9.42429701 12.424297,9.06004937 12.8833789,9.00672773 L13,9 L16,9 L16,5 C16,4.44771525 15.5522847,4 15,4 Z"/>
</svg>
