<svg xmlns="http://www.w3.org/2000/svg" width="20" height="20" viewBox="0 0 20 20">
  <path fill-rule="evenodd" d="M10,11 C11.3062521,11 12.4175144,11.8348501 12.8293257,13.0000889 L17,13 C17.5522847,13 18,13.4477153 18,14 C18,14.5522847 17.5522847,15 17,15 L12.8289758,15.0009007 C12.4168852,16.1656226 11.3058822,17 10,17 C8.69411778,17 7.58311485,16.1656226 7.17102423,15.0009007 L3,15 C2.44771525,15 2,14.5522847 2,14 C2,13.4477153 2.44771525,13 3,13 L7.17067428,13.0000889 C7.58248558,11.8348501 8.69374794,11 10,11 Z M10,13 C9.44771525,13 9,13.4477153 9,14 C9,14.5522847 9.44771525,15 10,15 C10.5522847,15 11,14.5522847 11,14 C11,13.4477153 10.5522847,13 10,13 Z M15,3 C16.6568542,3 18,4.34314575 18,6 C18,7.65685425 16.6568542,9 15,9 C13.6941178,9 12.5831148,8.16562257 12.1710242,7.00090072 L3,7 C2.44771525,7 2,6.55228475 2,6 C2,5.44771525 2.44771525,5 3,5 L12.1706743,5.00008893 C12.5824856,3.8348501 13.6937479,3 15,3 Z M15,5 C14.4477153,5 14,5.44771525 14,6 C14,6.55228475 14.4477153,7 15,7 C15.5522847,7 16,6.55228475 16,6 C16,5.44771525 15.5522847,5 15,5 Z"/>
</svg>
