<svg xmlns="http://www.w3.org/2000/svg" width="20" height="20" viewBox="0 0 20 20">
  <path d="M3,6 L3.11662113,6.00672773 C3.57570299,6.06004937 3.93995063,6.42429701 3.99327227,6.88337887 L4,7 L4,16 L13,16 L13.1166211,16.0067277 C13.6139598,16.0644928 14,16.4871642 14,17 C14,17.5128358 13.6139598,17.9355072 13.1166211,17.9932723 L13,18 L3,18 L2.88337887,17.9932723 C2.42429701,17.9399506 2.06004937,17.575703 2.00672773,17.1166211 L2,17 L2,7 L2.00672773,6.88337887 C2.06004937,6.42429701 2.42429701,6.06004937 2.88337887,6.00672773 L3,6 Z M7,10 L7.11662113,10.0067277 C7.57570299,10.0600494 7.93995063,10.424297 7.99327227,10.8833789 L8,11 L8,12 L9,12 L9.11662113,12.0067277 C9.61395981,12.0644928 10,12.4871642 10,13 C10,13.5128358 9.61395981,13.9355072 9.11662113,13.9932723 L9,14 L7,14 L6.88337887,13.9932723 C6.42429701,13.9399506 6.06004937,13.575703 6.00672773,13.1166211 L6,13 L6,11 L6.00672773,10.8833789 C6.06004937,10.424297 6.42429701,10.0600494 6.88337887,10.0067277 L7,10 Z M17,10 L17.1166211,10.0067277 C17.5374462,10.0556059 17.8785841,10.3657483 17.9735893,10.7707092 L17.9932723,10.8833789 L18,11 L18,13 L17.9932723,13.1166211 C17.9443941,13.5374462 17.6342517,13.8785841 17.2292908,13.9735893 L17.1166211,13.9932723 L17,14 L15,14 L14.8833789,13.9932723 C14.3860402,13.9355072 14,13.5128358 14,13 C14,12.5266131 14.3289337,12.1300527 14.7707092,12.0264107 L14.8833789,12.0067277 L15,12 L16,12 L16,11 L16.0067277,10.8833789 C16.0556059,10.4625538 16.3657483,10.1214159 16.7707092,10.0264107 L16.8833789,10.0067277 L17,10 Z M17,2 L17.1166211,2.00672773 C17.575703,2.06004937 17.9399506,2.42429701 17.9932723,2.88337887 L18,3 L18,5 L17.9932723,5.11662113 C17.9399506,5.57570299 17.575703,5.93995063 17.1166211,5.99327227 L17,6 L16.8833789,5.99327227 C16.424297,5.93995063 16.0600494,5.57570299 16.0067277,5.11662113 L16,5 L16,4 L15,4 L14.8833789,3.99327227 C14.3860402,3.93550716 14,3.51283584 14,3 C14,2.48716416 14.3860402,2.06449284 14.8833789,2.00672773 L15,2 L17,2 Z M9,2 L9.11662113,2.00672773 C9.61395981,2.06449284 10,2.48716416 10,3 C10,3.47338693 9.67106635,3.86994729 9.22929083,3.97358929 L9.11662113,3.99327227 L9,4 L8,4 L8,5 L7.99327227,5.11662113 C7.9443941,5.53744617 7.63425172,5.87858412 7.22929083,5.97358929 L7.11662113,5.99327227 L7,6 L6.88337887,5.99327227 C6.46255383,5.9443941 6.12141588,5.63425172 6.02641071,5.22929083 L6.00672773,5.11662113 L6,5 L6,3 L6.00672773,2.88337887 C6.0556059,2.46255383 6.36574828,2.12141588 6.77070917,2.02641071 L6.88337887,2.00672773 L7,2 L9,2 Z"/>
</svg>
