<svg xmlns="http://www.w3.org/2000/svg" width="20" height="20" viewBox="0 0 20 20">
  <path fill-rule="evenodd" d="M11,2 C12.5976809,2 13.9036609,3.24891996 13.9949073,4.82372721 L14,5 L14,6 L15,6 C16.5976809,6 17.9036609,7.24891996 17.9949073,8.82372721 L18,9 L18,15 C18,16.5976809 16.75108,17.9036609 15.1762728,17.9949073 L15,18 L9,18 C7.40231912,18 6.09633912,16.75108 6.00509269,15.1762728 L6,15 L6,14 L5,14 C3.40231912,14 2.09633912,12.75108 2.00509269,11.1762728 L2,11 L2,5 C2,3.40231912 3.24891996,2.09633912 4.82372721,2.00509269 L5,2 L11,2 Z M15,8 L14,8 L14,11 C14,12.5976809 12.75108,13.9036609 11.1762728,13.9949073 L11,14 L8,14 L8,15 C8,15.5128358 8.38604019,15.9355072 8.88337887,15.9932723 L9,16 L15,16 C15.5128358,16 15.9355072,15.6139598 15.9932723,15.1166211 L16,15 L16,9 C16,8.48716416 15.6139598,8.06449284 15.1166211,8.00672773 L15,8 Z M11,4 L5,4 C4.48716416,4 4.06449284,4.38604019 4.00672773,4.88337887 L4,5 L4,11 C4,11.5128358 4.38604019,11.9355072 4.88337887,11.9932723 L5,12 L6,12 L6,9 C6,7.40231912 7.24891996,6.09633912 8.82372721,6.00509269 L9,6 L12,6 L12,5 C12,4.48716416 11.6139598,4.06449284 11.1166211,4.00672773 L11,4 Z M12,8 L9,8 C8.48716416,8 8.06449284,8.38604019 8.00672773,8.88337887 L8,9 L8,12 L11,12 C11.5128358,12 11.9355072,11.6139598 11.9932723,11.1166211 L12,11 L12,8 Z"/>
</svg>
