<svg xmlns="http://www.w3.org/2000/svg" width="20" height="20" viewBox="0 0 20 20">
  <path d="M14,12 C14.8909049,12 15.3370716,13.0771419 14.7071068,13.7071068 L10.7071068,17.7071068 C10.3165825,18.0976311 9.68341751,18.0976311 9.29289322,17.7071068 L5.29289322,13.7071068 C4.66292836,13.0771419 5.10909515,12 6,12 L14,12 Z M9.29289322,2.29289322 C9.65337718,1.93240926 10.2206082,1.90467972 10.6128994,2.20970461 L10.7071068,2.29289322 L14.7071068,6.29289322 C15.3096819,6.8954683 14.9276677,7.90718081 14.1136309,7.99401673 L14,8 L6,8 C5.14783014,8 4.70256618,7.01448641 5.21677482,6.37747324 L5.29289322,6.29289322 L9.29289322,2.29289322 Z"/>
</svg>
