<svg xmlns="http://www.w3.org/2000/svg" width="20" height="20" viewBox="0 0 20 20">
  <path d="M5,18 C3.40231912,18 2.09633912,16.75108 2.00509269,15.1762728 L2,15 L2,5 C2,3.40231912 3.24891996,2.09633912 4.82372721,2.00509269 L5,2 L15,2 C16.5976809,2 17.9036609,3.24891996 17.9949073,4.82372721 L18,5 L18,15 C18,16.5976809 16.75108,17.9036609 15.1762728,17.9949073 L15,18 L5,18 Z M9,11 L4,11 L4,15 C4,15.5128358 4.38604019,15.9355072 4.88337887,15.9932723 L5,16 L9,16 L9,11 Z M16,11 L11,11 L11,16 L15,16 C15.5128358,16 15.9355072,15.6139598 15.9932723,15.1166211 L16,15 L16,11 Z M9,4 L5,4 C4.48716416,4 4.06449284,4.38604019 4.00672773,4.88337887 L4,5 L4,9 L9,9 L9,4 Z M15,4 L11,4 L11,9 L16,9 L16,5 C16,4.48716416 15.6139598,4.06449284 15.1166211,4.00672773 L15,4 Z"/>
</svg>
