<svg xmlns="http://www.w3.org/2000/svg" width="20" height="20" viewBox="0 0 20 20">
  <path d="M3.61289944,5.20970461 L3.70710678,5.29289322 L8,9.585 L10.2928932,7.29289322 C10.6533772,6.93240926 11.2206082,6.90467972 11.6128994,7.20970461 L11.7071068,7.29289322 L15,10.585 L16.2928932,9.29289322 C16.8954683,8.69031813 17.9071808,9.07233231 17.9940167,9.88636906 L18,10 L18,14 C18,14.5128358 17.6139598,14.9355072 17.1166211,14.9932723 L17,15 L13,15 C12.1478301,15 11.7025662,14.0144864 12.2167748,13.3774732 L12.2928932,13.2928932 L13.585,12 L11,9.415 L8.70710678,11.7071068 C8.34662282,12.0675907 7.77939176,12.0953203 7.38710056,11.7902954 L7.29289322,11.7071068 L2.29289322,6.70710678 C1.90236893,6.31658249 1.90236893,5.68341751 2.29289322,5.29289322 C2.65337718,4.93240926 3.22060824,4.90467972 3.61289944,5.20970461 Z"/>
</svg>
