<svg xmlns="http://www.w3.org/2000/svg" width="20" height="20" viewBox="0 0 20 20">
  <path fill-rule="evenodd" d="M11,16 C11.5522847,16 12,16.4477153 12,17 C12,17.5128358 11.6139598,17.9355072 11.1166211,17.9932723 L11,18 L9,18 C8.44771525,18 8,17.5522847 8,17 C8,16.4871642 8.38604019,16.0644928 8.88337887,16.0067277 L9,16 L11,16 Z M17,14 C17.4733869,14 17.8699473,14.3289337 17.9735893,14.7707092 L17.9932723,14.8833789 L18,15 L18,17 L17.9932723,17.1166211 L17.9735893,17.2292908 C17.8880846,17.5937556 17.6032124,17.8814174 17.2403116,17.9709373 L17.1166211,17.9932723 L17,18 L15,18 L14.8833789,17.9932723 L14.7707092,17.9735893 C14.4062444,17.8880846 14.1185826,17.6032124 14.0290627,17.2403116 L14.0067277,17.1166211 L14,17 L14.0067277,16.8833789 L14.0264107,16.7707092 C14.1119154,16.4062444 14.3967876,16.1185826 14.7596884,16.0290627 L14.8833789,16.0067277 L15,16 L16,16 L16,15 L16.0067277,14.8833789 L16.0264107,14.7707092 C16.1300527,14.3289337 16.5266131,14 17,14 Z M17,2 C17.5522847,2 18,2.44771525 18,3 C18,3.51283584 17.6139598,3.93550716 17.1166211,3.99327227 L17,4 L5,4 C4.48716416,4 4.06449284,4.38604019 4.00672773,4.88337887 L4,5 L4,17 C4,17.5522847 3.55228475,18 3,18 C2.48716416,18 2.06449284,17.6139598 2.00672773,17.1166211 L2,17 L2,5 C2,3.40231912 3.24891996,2.09633912 4.82372721,2.00509269 L5,2 L17,2 Z M10,7 C10.5128358,7 10.9355072,7.38604019 10.9932723,7.88337887 L11,8 L11,9 L12,9 C12.5522847,9 13,9.44771525 13,10 C13,10.5128358 12.6139598,10.9355072 12.1166211,10.9932723 L12,11 L11,11 L11,12 C11,12.5522847 10.5522847,13 10,13 C9.48716416,13 9.06449284,12.6139598 9.00672773,12.1166211 L9,12 L9,11 L8,11 C7.44771525,11 7,10.5522847 7,10 C7,9.48716416 7.38604019,9.06449284 7.88337887,9.00672773 L8,9 L9,9 L9,8 C9,7.44771525 9.44771525,7 10,7 Z M17,8 C17.5128358,8 17.9355072,8.38604019 17.9932723,8.88337887 L18,9 L18,11 C18,11.5522847 17.5522847,12 17,12 C16.4871642,12 16.0644928,11.6139598 16.0067277,11.1166211 L16,11 L16,9 C16,8.44771525 16.4477153,8 17,8 Z"/>
</svg>
