<svg xmlns="http://www.w3.org/2000/svg" width="20" height="20" viewBox="0 0 20 20">
  <path fill-rule="evenodd" d="M11,2 C12.6568542,2 14,3.34314575 14,5 L14,15 C14,16.6568542 12.6568542,18 11,18 L9,18 C7.34314575,18 6,16.6568542 6,15 L6,5 C6,3.34314575 7.34314575,2 9,2 L11,2 Z M3,2 C3.55228475,2 4,2.44771525 4,3 L4,17 C4,17.5522847 3.55228475,18 3,18 C2.44771525,18 2,17.5522847 2,17 L2,3 C2,2.44771525 2.44771525,2 3,2 Z M17,2 C17.5522847,2 18,2.44771525 18,3 L18,17 C18,17.5522847 17.5522847,18 17,18 C16.4477153,18 16,17.5522847 16,17 L16,3 C16,2.44771525 16.4477153,2 17,2 Z M11,4 L9,4 C8.44771525,4 8,4.44771525 8,5 L8,15 C8,15.5522847 8.44771525,16 9,16 L11,16 C11.5522847,16 12,15.5522847 12,15 L12,5 C12,4.44771525 11.5522847,4 11,4 Z"/>
</svg>
