<svg xmlns="http://www.w3.org/2000/svg" width="20" height="20" viewBox="0 0 20 20">
  <path fill-rule="evenodd" d="M2,10 C2,9.44771525 2.44771525,9 3,9 L14.585,9 L12.2928932,6.70710678 C11.9324093,6.34662282 11.9046797,5.77939176 12.2097046,5.38710056 L12.2928932,5.29289322 C12.6533772,4.93240926 13.2206082,4.90467972 13.6128994,5.20970461 L13.7071068,5.29289322 L17.7071068,9.29289322 L17.7485042,9.336853 L17.7485042,9.336853 L17.8036654,9.40469339 L17.8036654,9.40469339 L17.8753288,9.5159379 L17.8753288,9.5159379 L17.9287745,9.62866398 L17.9287745,9.62866398 L17.9641549,9.73400703 L17.9641549,9.73400703 L17.9931658,9.88252582 L17.9931658,9.88252582 L18,10 L17.9972121,10.0752385 L17.9972121,10.0752385 L17.9797599,10.2007258 L17.9797599,10.2007258 L17.9502619,10.3121425 L17.9502619,10.3121425 L17.9063266,10.4232215 L17.9063266,10.4232215 L17.8540045,10.5207088 L17.8540045,10.5207088 L17.787214,10.6167501 C17.7623312,10.6484659 17.7355731,10.6786405 17.7071068,10.7071068 L13.7071068,14.7071068 C13.3165825,15.0976311 12.6834175,15.0976311 12.2928932,14.7071068 C11.9324093,14.3466228 11.9046797,13.7793918 12.2097046,13.3871006 L12.2928932,13.2928932 L14.585,11 L3,11 C2.44771525,11 2,10.5522847 2,10 Z"/>
</svg>
