<svg xmlns="http://www.w3.org/2000/svg" width="20" height="20" viewBox="0 0 20 20">
  <path fill-rule="evenodd" d="M7.00100218,18 C5.34448002,18 4.00160348,16.6568542 4.00160348,15 L4.00160348,11 L3.00180392,11 C2.11107764,11 1.66500027,9.92285808 2.29483887,9.29289322 L9.29303495,2.29289322 C9.68348096,1.90236893 10.316519,1.90236893 10.7069651,2.29289322 L17.7051611,9.29289322 C18.3349997,9.92285808 17.8889224,11 16.9981961,11 L15.9983965,11 L15.9983965,15 C15.9983965,16.6568542 14.65552,18 12.9989978,18 L7.00100218,18 Z M10,4.41453762 L5.09242063,9.32338201 L5.22529372,9.41792443 C5.69757363,9.78375312 6.00160348,10.3563716 6.00160348,11 L6.00160348,15 C6.00160348,15.5523745 6.44913928,16 7.00100218,16 L8,15.999 L8,13 C8,12.4477153 8.44771525,12 9,12 L11,12 C11.5522847,12 12,12.4477153 12,13 L12,15.999 L12.9989978,16 C13.5508607,16 13.9983965,15.5523745 13.9983965,15 L13.9983965,11 C13.9983965,10.2978599 14.3602172,9.68022753 14.9075794,9.32338201 L10,4.41453762 Z"/>
</svg>
