<svg xmlns="http://www.w3.org/2000/svg" width="20" height="20" viewBox="0 0 20 20">
  <path fill-rule="evenodd" d="M6,16 C3.790861,16 2,14.0812204 2,11.7142857 C2,9.78981897 3.19155335,8.13306488 4.86361129,7.60405314 C5.74104115,5.44540486 7.74169643,4 10,4 C12.8521726,4 15.2063301,6.28456008 15.5553768,9.23893489 C16.9581437,9.60265633 18,10.9566825 18,12.5714286 C18,14.3900904 16.674875,15.8894346 14.9641214,15.9952773 L14.8,16 L6,16 Z M6,14 L14.8406194,13.9990942 C15.4684544,13.9602506 16,13.360182 16,12.5714286 C16,11.8759714 15.5800445,11.311468 15.0533993,11.1749149 C14.2552652,10.9679678 13.6659323,10.2924265 13.5691908,9.47359427 C13.332814,7.47287191 11.7843673,6 10,6 C8.59574104,6 7.30265671,6.91485705 6.71640105,8.35716011 C6.5147121,8.85335419 6.123573,9.24551184 5.63372005,9.44985098 L5.32060745,9.56428059 C4.55329303,9.88243823 4,10.72735 4,11.7142857 C4,13.006309 4.92744492,14 6,14 Z"/>
</svg>
