<svg xmlns="http://www.w3.org/2000/svg" width="20" height="20" viewBox="0 0 20 20">
  <path d="M2,10 C2,5.581722 5.581722,2 10,2 C14.418278,2 18,5.581722 18,10 C18,14.418278 14.418278,18 10,18 C5.581722,18 2,14.418278 2,10 Z M4,10 C4,13.3137085 6.6862915,16 10,16 C13.3137085,16 16,13.3137085 16,10 C16,6.6862915 13.3137085,4 10,4 C6.6862915,4 4,6.6862915 4,10 Z M6,10 C6,9.44771525 6.44771525,9 7,9 L10.586,9 L10.2928932,8.70710678 C9.96244959,8.37666315 9.91161211,7.87249453 10.1403808,7.48859705 L10.2097046,7.38710056 L10.2928932,7.29289322 C10.6533772,6.93240926 11.2206082,6.90467972 11.6128994,7.20970461 L11.7071068,7.29289322 L13.7071068,9.29289322 L13.7485042,9.336853 L13.8036654,9.40469339 L13.8753288,9.5159379 L13.9287745,9.62866398 L13.9641549,9.73400703 L13.9930928,9.8819045 L14,10 L13.9972121,10.0752385 L13.9797599,10.2007258 L13.9502619,10.3121425 L13.9063266,10.4232215 L13.8540045,10.5207088 L13.7803112,10.625449 L13.7071068,10.7071068 L11.7071068,12.7071068 C11.3165825,13.0976311 10.6834175,13.0976311 10.2928932,12.7071068 C9.93240926,12.3466228 9.90467972,11.7793918 10.2097046,11.3871006 L10.2928932,11.2928932 L10.584,11 L7,11 C6.44771525,11 6,10.5522847 6,10 Z"/>
</svg>
