<svg xmlns="http://www.w3.org/2000/svg" width="20" height="20" viewBox="0 0 20 20">
  <path fill-rule="evenodd" d="M10.7071068,11.2928932 L14.7071068,15.2928932 C15.0976311,15.6834175 15.0976311,16.3165825 14.7071068,16.7071068 C14.3165825,17.0976311 13.6834175,17.0976311 13.2928932,16.7071068 L10,13.4142136 L6.70710678,16.7071068 C6.31658249,17.0976311 5.68341751,17.0976311 5.29289322,16.7071068 C4.90236893,16.3165825 4.90236893,15.6834175 5.29289322,15.2928932 L9.29289322,11.2928932 C9.68341751,10.9023689 10.3165825,10.9023689 10.7071068,11.2928932 Z M5.29289322,3.29289322 C5.65337718,2.93240926 6.22060824,2.90467972 6.61289944,3.20970461 L6.70710678,3.29289322 L10,6.58578644 L13.2928932,3.29289322 C13.6834175,2.90236893 14.3165825,2.90236893 14.7071068,3.29289322 C15.0675907,3.65337718 15.0953203,4.22060824 14.7902954,4.61289944 L14.7071068,4.70710678 L10.7071068,8.70710678 C10.3466228,9.06759074 9.77939176,9.09532028 9.38710056,8.79029539 L9.29289322,8.70710678 L5.29289322,4.70710678 C4.90236893,4.31658249 4.90236893,3.68341751 5.29289322,3.29289322 Z"/>
</svg>
