<svg xmlns="http://www.w3.org/2000/svg" width="20" height="20" viewBox="0 0 20 20">
  <path fill-rule="evenodd" d="M8.31622777,8.9486833 C8.72456991,8.81256925 9,8.43043041 9,8 L9,5 C9,3.34314575 7.65685425,2 6,2 L3,2 C2.44771525,2 2,2.44771525 2,3 C2,10.8547164 9.14528356,18 17,18 C17.5522847,18 18,17.5522847 18,17 L18,14 C18,12.3431458 16.6568542,11 15,11 L12,11 C11.5695696,11 11.1874307,11.2754301 11.0513167,11.6837722 L10.3042938,13.9248409 C8.74457735,12.9124407 7.37501327,11.5819706 6.31438206,10.0522112 L6.07515909,9.69570619 L8.31622777,8.9486833 Z M12.7207592,13 L15,13 C15.5522847,13 16,13.4477153 16,14 L16,15.9545772 C14.7978154,15.8456524 13.6210222,15.5439092 12.503038,15.0827655 L12.0866159,14.9024299 L12.7207592,13 Z M13.7071068,2.29289322 L15,3.585 L16.2928932,2.29289322 C16.6533772,1.93240926 17.2206082,1.90467972 17.6128994,2.20970461 L17.7071068,2.29289322 C18.0675907,2.65337718 18.0953203,3.22060824 17.7902954,3.61289944 L17.7071068,3.70710678 L16.415,5 L17.7071068,6.29289322 C18.0976311,6.68341751 18.0976311,7.31658249 17.7071068,7.70710678 C17.3165825,8.09763107 16.6834175,8.09763107 16.2928932,7.70710678 L15,6.415 L13.7071068,7.70710678 C13.3466228,8.06759074 12.7793918,8.09532028 12.3871006,7.79029539 L12.2928932,7.70710678 C11.9324093,7.34662282 11.9046797,6.77939176 12.2097046,6.38710056 L12.2928932,6.29289322 L13.585,5 L12.2928932,3.70710678 C11.9023689,3.31658249 11.9023689,2.68341751 12.2928932,2.29289322 C12.6834175,1.90236893 13.3165825,1.90236893 13.7071068,2.29289322 Z M6,4 C6.55228475,4 7,4.44771525 7,5 L7,7.27924078 L5.0975701,7.91338408 C4.53453934,6.67277941 4.16796325,5.35245772 4.04542281,4 L6,4 Z"/>
</svg>
