<svg xmlns="http://www.w3.org/2000/svg" width="20" height="20" viewBox="0 0 20 20">
  <path fill-rule="evenodd" d="M16,5 C17.1045695,5 18,5.8954305 18,7 L18,13 C18,14.1045695 17.1045695,15 16,15 L4,15 C2.8954305,15 2,14.1045695 2,13 L2,7 C2,5.8954305 2.8954305,5 4,5 L16,5 Z M6,11 L4,11 L4,13 L6,13 L6,11 Z M16,11 L14,11 L14,13 L16,13 L16,11 Z M13,11 L7,11 L7,13 L13,13 L13,11 Z M6,7 L4,7 L4,9 L6,9 L6,7 Z M9,7 L7,7 L7,9 L9,9 L9,7 Z M12,7 L10,7 L10,9 L12,9 L12,7 Z M16,7 L13,7 L13,9 L16,9 L16,7 Z"/>
</svg>
