<svg xmlns="http://www.w3.org/2000/svg" width="20" height="20" viewBox="0 0 20 20">
  <path fill-rule="evenodd" d="M10,2 C14.418278,2 18,5.581722 18,10 C18,14.418278 14.418278,18 10,18 C5.581722,18 2,14.418278 2,10 C2,5.581722 5.581722,2 10,2 Z M10,14 C9.44771525,14 9,14.4477153 9,15 C9,15.5522847 9.44771525,16 10,16 C10.5522847,16 11,15.5522847 11,15 C11,14.4477153 10.5522847,14 10,14 Z M10,4 C11.6568542,4 13,5.34314575 13,7 C13,7.54060402 12.7972,7.95243249 12.4324938,8.33695441 L12.3049846,8.46425623 L11.6976805,9.00562265 C11.227883,9.46313853 11,9.98493642 11,11 C11,11.5128358 10.6139598,11.9355072 10.1166211,11.9932723 L10,12 C9.44771525,12 9,11.5522847 9,11 L9.00528561,10.712882 C9.05455619,9.40117173 9.44742455,8.4787716 10.1475931,7.73055006 L10.3023195,7.57280447 L10.5268503,7.36697752 L10.9833325,6.9652856 C10.9940344,6.95806514 10.9983381,6.95876504 10.9999034,6.9646777 L10.991185,6.86663987 C10.9259877,6.37740496 10.5070677,6 10,6 C9.48716416,6 9.06449284,6.38604019 9.00672773,6.88337887 L8.99327227,7.11662113 C8.93550716,7.61395981 8.51283584,8 8,8 C7.44771525,8 7,7.55228475 7,7 C7,5.34314575 8.34314575,4 10,4 Z"/>
</svg>
