<svg xmlns="http://www.w3.org/2000/svg" width="20" height="20" viewBox="0 0 20 20">
  <path fill-rule="evenodd" d="M10,4 C13.8659932,4 17,7.13400675 17,11 C17,14.8659932 13.8659932,18 10,18 C6.13400675,18 3,14.8659932 3,11 C3,7.13400675 6.13400675,4 10,4 Z M10,6 C7.23857625,6 5,8.23857625 5,11 C5,13.7614237 7.23857625,16 10,16 C12.7614237,16 15,13.7614237 15,11 C15,8.23857625 12.7614237,6 10,6 Z M10,8 C10.5522847,8 11,8.44771525 11,9 L11,11 C11,11.5522847 10.5522847,12 10,12 C9.44771525,12 9,11.5522847 9,11 L9,9 C9,8.44771525 9.44771525,8 10,8 Z M13,2 C13.5522847,2 14,2.44771525 14,3 C14,3.55228475 13.5522847,4 13,4 L7,4 C6.44771525,4 6,3.55228475 6,3 C6,2.44771525 6.44771525,2 7,2 L13,2 Z"/>
</svg>
