<svg xmlns="http://www.w3.org/2000/svg" width="20" height="20" viewBox="0 0 20 20">
  <path d="M10.6128994,2.20970461 L10.7071068,2.29289322 L12.415,4 L15,4 C15.5128358,4 15.9355072,4.38604019 15.9932723,4.88337887 L16,5 L16,7.585 L17.7071068,9.29289322 C18.0675907,9.65337718 18.0953203,10.2206082 17.7902954,10.6128994 L17.7071068,10.7071068 L16,12.414 L16,15 C16,15.5128358 15.6139598,15.9355072 15.1166211,15.9932723 L15,16 L12.414,16 L10.7071068,17.7071068 C10.3466228,18.0675907 9.77939176,18.0953203 9.38710056,17.7902954 L9.29289322,17.7071068 L7.585,16 L5,16 C4.48716416,16 4.06449284,15.6139598 4.00672773,15.1166211 L4,15 L4,12.415 L2.29289322,10.7071068 C1.93240926,10.3466228 1.90467972,9.77939176 2.20970461,9.38710056 L2.29289322,9.29289322 L4,7.584 L4,5 C4,4.48716416 4.38604019,4.06449284 4.88337887,4.00672773 L5,4 L7.584,4 L9.29289322,2.29289322 C9.65337718,1.93240926 10.2206082,1.90467972 10.6128994,2.20970461 Z M10,6 C7.790861,6 6,7.790861 6,10 C6,12.209139 7.790861,14 10,14 C12.209139,14 14,12.209139 14,10 C14,7.790861 12.209139,6 10,6 Z"/>
</svg>
