<svg xmlns="http://www.w3.org/2000/svg" width="20" height="20" viewBox="0 0 20 20">
  <path fill-rule="evenodd" d="M3,4 L8,4 C8.51283584,4 8.93550716,4.38604019 8.99327227,4.88337887 L9,5 L9,9 C9,9.07165473 8.99229872,9.14299706 8.97709377,9.21280927 L8.9486833,9.31622777 L6.9486833,15.3162278 C6.82494326,15.6874479 6.49787694,15.9488234 6.11604424,15.9932782 L6,16 L5,16 C4.35759273,16 3.89286934,15.4076597 4.02036916,14.7981217 L4.0513167,14.6837722 L5.61257411,10 L3,10 C2.48716416,10 2.06449284,9.61395981 2.00672773,9.11662113 L2,9 L2,5 C2,4.48716416 2.38604019,4.06449284 2.88337887,4.00672773 L3,4 L8,4 L3,4 Z M12,4 L17,4 C17.5128358,4 17.9355072,4.38604019 17.9932723,4.88337887 L18,5 L18,9 C18,9.07165473 17.9922987,9.14299706 17.9770938,9.21280927 L17.9486833,9.31622777 L15.9486833,15.3162278 C15.8249433,15.6874479 15.4978769,15.9488234 15.1160442,15.9932782 L15,16 L14,16 C13.3575927,16 12.8928693,15.4076597 13.0203692,14.7981217 L13.0513167,14.6837722 L14.6125741,10 L12,10 C11.4871642,10 11.0644928,9.61395981 11.0067277,9.11662113 L11,9 L11,5 C11,4.48716416 11.3860402,4.06449284 11.8833789,4.00672773 L12,4 L17,4 L12,4 Z"/>
</svg>
