<svg xmlns="http://www.w3.org/2000/svg" width="20" height="20" viewBox="0 0 20 20">
  <path fill-rule="evenodd" d="M3.47186258,9.42135624 L4.31457505,8.57864376 C4.70707174,8.18614708 5.3434346,8.18614708 5.73593129,8.57864376 C6.1003925,8.94310497 6.12642544,9.51783855 5.81403012,9.91233867 L5.73593129,10 L4.89321881,10.8427125 C3.71572875,12.0202025 3.71572875,13.9292911 4.89321881,15.1067812 C6.02865566,16.242218 7.84436716,16.2827693 9.02839505,15.2284351 L9.15728753,15.1067812 L10,14.2640687 C10.3924967,13.871572 11.0288596,13.871572 11.4213562,14.2640687 C11.7858174,14.6285299 11.8118504,15.2032635 11.4994551,15.5977636 L11.4213562,15.6854249 L10.5786438,16.5281374 C8.61616033,18.4906209 5.43434601,18.4906209 3.47186258,16.5281374 C1.56102344,14.6172983 1.5107382,11.5504592 3.32100685,9.57877793 L3.47186258,9.42135624 Z M9.42135624,3.47186258 C11.3838397,1.50937914 14.565654,1.50937914 16.5281374,3.47186258 C18.4906209,5.43434601 18.4906209,8.61616033 16.5281374,10.5786438 L15.6854249,11.4213562 C15.2929283,11.8138529 14.6565654,11.8138529 14.2640687,11.4213562 C13.871572,11.0288596 13.871572,10.3924967 14.2640687,10 L15.1067812,9.15728753 C16.2842712,7.97979746 16.2842712,6.07070887 15.1067812,4.89321881 C13.9292911,3.71572875 12.0202025,3.71572875 10.8427125,4.89321881 L10,5.73593129 C9.60750331,6.12842798 8.97114045,6.12842798 8.57864376,5.73593129 C8.18614708,5.3434346 8.18614708,4.70707174 8.57864376,4.31457505 L9.42135624,3.47186258 Z M10.4213562,8.15728753 C10.8138529,7.76479084 11.4502158,7.76479084 11.8427125,8.15728753 C12.2352092,8.54978421 12.2352092,9.18614708 11.8427125,9.57864376 L9.57864376,11.8427125 C9.18614708,12.2352092 8.54978421,12.2352092 8.15728753,11.8427125 C7.76479084,11.4502158 7.76479084,10.8138529 8.15728753,10.4213562 L10.4213562,8.15728753 Z"/>
</svg>
