<svg xmlns="http://www.w3.org/2000/svg" width="20" height="20" viewBox="0 0 20 20">
  <path fill-rule="evenodd" d="M8.35078106,13.9984983 L3.62469505,17.7790123 C2.9699317,18.3027738 2,17.8366442 2,16.9982167 L2,4.99971843 C2,3.34301969 3.34314575,2 5,2 L15,2 C16.6568542,2 18,3.34301969 18,4.99971843 L18,10.9987799 C18,12.6554786 16.6568542,13.9984983 15,13.9984983 L8.35078106,13.9984983 Z M4,14.9177872 L7.37530495,12.2177966 C7.552618,12.0759595 7.7729285,11.998686 8,11.998686 L15,11.998686 C15.5522847,11.998686 16,11.5510128 16,10.9987799 L16,4.99971843 C16,4.44748552 15.5522847,3.99981229 15,3.99981229 L5,3.99981229 C4.44771525,3.99981229 4,4.44748552 4,4.99971843 L4,14.9177872 Z"/>
</svg>
