<svg xmlns="http://www.w3.org/2000/svg" width="20" height="20" viewBox="0 0 20 20">
  <path fill-rule="evenodd" d="M15,2 C16.5976809,2 17.9036609,3.24891996 17.9949073,4.82372721 L18,5 L18,15 C18,16.5976809 16.75108,17.9036609 15.1762728,17.9949073 L15,18 L5,18 C3.40231912,18 2.09633912,16.75108 2.00509269,15.1762728 L2,15 L2,5 C2,3.40231912 3.24891996,2.09633912 4.82372721,2.00509269 L5,2 L15,2 Z M9,4 L5,4 C4.48716416,4 4.06449284,4.49633739 4.00672773,5.13577284 L4,5.28571429 L4,9 L5,9 C5.55228475,9 6,9.44771525 6,10 C6,10.5522847 5.55228475,11 5,11 L4,11 L4,15 C4,15.5128358 4.49633739,15.9355072 5.13577284,15.9932723 L5.28571429,16 L9,16 L9,15 C9,14.4477153 9.44771525,14 10,14 C10.5522847,14 11,14.4477153 11,15 L11,16 L15,16 C15.5128358,16 15.9355072,15.6139598 15.9932723,15.1166211 L16,15 L16,11 L15,11 C14.4477153,11 14,10.5522847 14,10 C14,9.44771525 14.4477153,9 15,9 L16,9 L16,5.28571429 C16,4.62635392 15.5036626,4.08291936 14.8642272,4.00864994 L14.7142857,4 L11,4 L11,5 C11,5.55228475 10.5522847,6 10,6 C9.44771525,6 9,5.55228475 9,5 L9,4 Z M10,7 C10.5128358,7 10.9355072,7.38604019 10.9932723,7.88337887 L11,8 L11,9 L12,9 C12.5522847,9 13,9.44771525 13,10 C13,10.5128358 12.6139598,10.9355072 12.1166211,10.9932723 L12,11 L11,11 L11,12 C11,12.5522847 10.5522847,13 10,13 C9.48716416,13 9.06449284,12.6139598 9.00672773,12.1166211 L9,12 L9,11 L8,11 C7.44771525,11 7,10.5522847 7,10 C7,9.48716416 7.38604019,9.06449284 7.88337887,9.00672773 L8,9 L9,9 L9,8 C9,7.44771525 9.44771525,7 10,7 Z"/>
</svg>
