<svg xmlns="http://www.w3.org/2000/svg" width="20" height="20" viewBox="0 0 20 20">
  <path fill-rule="evenodd" d="M10,2 C5.582,2 2,5.582 2,10 C2,14.418 5.582,18 10,18 C14.418,18 18,14.418 18,10 C18,5.582 14.418,2 10,2 L10,2 Z M9.00025,14.0005725 C8.73625,14.0005725 8.48125,13.8965725 8.29325,13.7075725 L6.29325,11.7075725 C5.90225,11.3165725 5.90225,10.6845725 6.29325,10.2935725 C6.68425,9.90257249 7.31625,9.90257249 7.70725,10.2935725 L8.84525,11.4315725 L12.16825,6.44557249 C12.47425,5.98557249 13.09425,5.86157249 13.55525,6.16857249 C14.01425,6.47557249 14.13825,7.09557249 13.83225,7.55557249 L9.83225,13.5555725 C9.66625,13.8045725 9.39625,13.9665725 9.09925,13.9955725 C9.06525,13.9985725 9.03325,14.0005725 9.00025,14.0005725"/>
</svg>
