<svg xmlns="http://www.w3.org/2000/svg" width="20" height="20" viewBox="0 0 20 20">
  <path fill-rule="evenodd" d="M15,2 C15.2652165,2 15.5195704,2.10535684 15.7071068,2.29289322 L17.7071068,4.29289322 C17.8946432,4.4804296 18,4.73478351 18,5 L18,10 C18,10.2652165 17.8946432,10.5195704 17.7071068,10.7071068 L15.7071068,12.7071068 C15.5195704,12.8946432 15.2652165,13 15,13 L11.4142136,13 L6.70710678,17.7071068 C6.5195704,17.8946432 6.26521649,18 6,18 L3,18 C2.44771525,18 2,17.5522847 2,17 L2,14 C2,13.7347835 2.10535684,13.4804296 2.29289322,13.2928932 L7,8.58578644 L7,5 C7,4.73478351 7.10535684,4.4804296 7.29289322,4.29289322 L9.29289322,2.29289322 C9.4804296,2.10535684 9.73478351,2 10,2 L15,2 Z M14.5857864,4 L10.4142136,4 L9,5.41421356 L9,9 C9,9.26521649 8.89464316,9.5195704 8.70710678,9.70710678 L4,14.4142136 L4,16 L5.58578644,16 L10.2928932,11.2928932 C10.4804296,11.1053568 10.7347835,11 11,11 L14.5857864,11 L16,9.58578644 L16,5.41421356 L14.5857864,4 Z M13.5,5 C14.3284271,5 15,5.67157288 15,6.5 C15,7.32842712 14.3284271,8 13.5,8 C12.6715729,8 12,7.32842712 12,6.5 C12,5.67157288 12.6715729,5 13.5,5 Z"/>
</svg>
