<svg xmlns="http://www.w3.org/2000/svg" width="20" height="20" viewBox="0 0 20 20">
  <path fill-rule="evenodd" d="M10,5 L10,15 C10,15.8240453 9.05923625,16.2944272 8.4,15.8 L4.66666667,13 L3,13 C2.44771525,13 2,12.5522847 2,12 L2,8 C2,7.44771525 2.44771525,7 3,7 L4.66666667,7 L8.4,4.2 C9.05923625,3.70557281 10,4.17595468 10,5 Z M13.1104725,4.54311832 C13.3628013,4.05184586 13.9656092,3.85814374 14.4568817,4.11047253 C16.6126235,5.2177109 18,7.48381075 18,10 C18,12.5161892 16.6126235,14.7822891 14.4568817,15.8895275 C13.9656092,16.1418563 13.3628013,15.9481541 13.1104725,15.4568817 C12.8581437,14.9656092 13.0518459,14.3628013 13.5431183,14.1104725 C15.0327738,13.3453514 16,11.7655125 16,10 C16,8.23448746 15.0327738,6.65464862 13.5431183,5.88952747 C13.0518459,5.63719869 12.8581437,5.03439078 13.1104725,4.54311832 Z M8,7 L5.6,8.8 C5.42690383,8.92982213 5.21637021,9 5,9 L4,9 L4,11 L5,11 C5.21637021,11 5.42690383,11.0701779 5.6,11.2 L8,13 L8,7 Z M11.1487078,7.47530817 C11.4384871,7.00515245 12.0545361,6.85892846 12.5246918,7.14870776 C13.4405121,7.71317128 14,8.8097925 14,10 C14,11.1902075 13.4405121,12.2868287 12.5246918,12.8512922 C12.0545361,13.1410715 11.4384871,12.9948476 11.1487078,12.5246918 C10.879627,12.0881187 10.9864878,11.5257497 11.3795595,11.2156252 L11.5627324,11.085822 C11.8174424,10.8750694 12,10.4702259 12,10 C12,9.5297741 11.8174424,9.12493057 11.5627324,8.91417799 L11.3795595,8.78437483 C10.9864878,8.47425029 10.879627,7.91188134 11.1487078,7.47530817 Z"/>
</svg>
