<svg xmlns="http://www.w3.org/2000/svg" width="20" height="20" viewBox="0 0 20 20">
  <path d="M3,14 L3.11662113,13.9932723 C3.57570299,13.9399506 3.93995063,13.575703 3.99327227,13.1166211 L4,13 L4,4 L13,4 L13.1166211,3.99327227 C13.6139598,3.93550716 14,3.51283584 14,3 C14,2.48716416 13.6139598,2.06449284 13.1166211,2.00672773 L13,2 L3,2 L2.88337887,2.00672773 C2.42429701,2.06004937 2.06004937,2.42429701 2.00672773,2.88337887 L2,3 L2,13 L2.00672773,13.1166211 C2.06004937,13.575703 2.42429701,13.9399506 2.88337887,13.9932723 L3,14 Z M17,18 L17.1166211,17.9932723 C17.575703,17.9399506 17.9399506,17.575703 17.9932723,17.1166211 L18,17 L18,7 L17.9932723,6.88337887 C17.9443941,6.46255383 17.6342517,6.12141588 17.2292908,6.02641071 L17.1166211,6.00672773 L17,6 L7,6 L6.88337887,6.00672773 C6.42429701,6.06004937 6.06004937,6.42429701 6.00672773,6.88337887 L6,7 L6,17 L6.00672773,17.1166211 C6.0556059,17.5374462 6.36574828,17.8785841 6.77070917,17.9735893 L6.88337887,17.9932723 L7,18 L17,18 Z M8,16 L8,8 L16,8 L16,16 L8,16 Z"/>
</svg>
