<svg xmlns="http://www.w3.org/2000/svg" width="20" height="20" viewBox="0 0 20 20">
  <path fill-rule="evenodd" d="M4,3 C4,2.44771525 3.55228475,2 3,2 C2.44771525,2 2,2.44771525 2,3 L2,17 C2,17.5522847 2.44771525,18 3,18 C3.55228475,18 4,17.5522847 4,17 L4,3 Z M13,10 C13,9.44771525 12.5522847,9 12,9 L11,9 L11,8 C11,7.44771525 10.5522847,7 10,7 C9.44771525,7 9,7.44771525 9,8 L9,9 L8,9 C7.44771525,9 7,9.44771525 7,10 C7,10.5522847 7.44771525,11 8,11 L9,11 L9,12 C9,12.5522847 9.44771525,13 10,13 C10.5522847,13 11,12.5522847 11,12 L11,11 L12,11 C12.5522847,11 13,10.5522847 13,10 Z M12,17 C12,16.4477153 11.5522847,16 11,16 L9,16 C8.44771525,16 8,16.4477153 8,17 C8,17.5522847 8.44771525,18 9,18 L11,18 C11.5522847,18 12,17.5522847 12,17 Z M12,3 C12,2.44771525 11.5522847,2 11,2 L9,2 C8.44771525,2 8,2.44771525 8,3 C8,3.55228475 8.44771525,4 9,4 L11,4 C11.5522847,4 12,3.55228475 12,3 Z M18,3 L17.9932723,2.88337887 C17.9399506,2.42429701 17.575703,2.06004937 17.1166211,2.00672773 L17,2 L15,2 L14.8833789,2.00672773 C14.424297,2.06004937 14.0600494,2.42429701 14.0067277,2.88337887 L14,3 L14.0067277,3.11662113 C14.0600494,3.57570299 14.424297,3.93995063 14.8833789,3.99327227 L15,4 L16,4 L16,5 L16.0067277,5.11662113 C16.0644928,5.61395981 16.4871642,6 17,6 C17.5128358,6 17.9355072,5.61395981 17.9932723,5.11662113 L18,5 L18,3 Z M18,15 L17.9932723,14.8833789 C17.9355072,14.3860402 17.5128358,14 17,14 C16.5266131,14 16.1300527,14.3289337 16.0264107,14.7707092 L16.0067277,14.8833789 L16,15 L16,16 L15,16 L14.8833789,16.0067277 C14.4625538,16.0556059 14.1214159,16.3657483 14.0264107,16.7707092 L14.0067277,16.8833789 L14,17 L14.0067277,17.1166211 C14.0556059,17.5374462 14.3657483,17.8785841 14.7707092,17.9735893 L14.8833789,17.9932723 L15,18 L17,18 L17.1166211,17.9932723 C17.5374462,17.9443941 17.8785841,17.6342517 17.9735893,17.2292908 L17.9932723,17.1166211 L18,17 L18,15 Z M18,9 C18,8.44771525 17.5522847,8 17,8 C16.4477153,8 16,8.44771525 16,9 L16,11 C16,11.5522847 16.4477153,12 17,12 C17.5522847,12 18,11.5522847 18,11 L18,9 Z"/>
</svg>
