<svg xmlns="http://www.w3.org/2000/svg" width="20" height="20" viewBox="0 0 20 20">
  <path fill-rule="evenodd" d="M12,16 C12.5522847,16 13,16.4477153 13,17 C13,17.5522847 12.5522847,18 12,18 L8,18 C7.44771525,18 7,17.5522847 7,17 C7,16.4477153 7.44771525,16 8,16 L12,16 Z M9.99975804,2 C13.5154241,2 16,4.14732139 16,7.55613821 C16,9.03449374 15.4263685,10.2345977 14.3486751,11.5712147 L13.4565989,12.6386914 L13.3378991,12.7906768 L13.2369358,12.9316891 L13.139232,13.085071 C13.095054,13.6024966 12.6621653,14 12.1428571,14 L7.85714286,14 C7.33783473,14 6.90494603,13.6024966 6.86076797,13.085071 L6.76305886,12.9316633 L6.66209178,12.79064 L6.66209178,12.79064 L6.54339113,12.6386479 L5.65131186,11.5711248 C4.57370164,10.2345537 4,9.0344867 4,7.55619675 C4,4.14740139 6.48450013,2 9.99975804,2 Z M9.99975804,4 C7.52954437,4 6,5.3220147 6,7.55619675 C6,8.41319701 6.33276865,9.17520434 7.02714672,10.0851116 L7.29685467,10.4231814 L7.68220686,10.8819382 L7.68220686,10.8819382 L8.1735541,11.4747295 C8.31871288,11.6608093 8.44080132,11.8331302 8.5398918,12 L11.4601162,12 L11.5668762,11.83101 C11.6431637,11.7167286 11.7296831,11.5987941 11.8264558,11.474745 L12.7917218,10.3158676 L12.7917218,10.3158676 L12.9728762,10.0851662 C13.6672894,9.17524917 14,8.41324502 14,7.55619675 C14,5.32196923 12.4704046,4 9.99975804,4 Z"/>
</svg>
