<svg xmlns="http://www.w3.org/2000/svg" width="20" height="20" viewBox="0 0 20 20">
  <path d="M9.99973045,2.00053909 C11.9868029,1.97702344 13.9062679,2.72364535 15.3524805,4.08167419 L15.3524805,4.08167419 L13.0685229,6.36563177 C12.2425356,5.57785747 11.1402395,5.14869684 9.99973045,5.16633358 C7.91271645,5.16633358 6.14022427,6.57433317 5.50824115,8.47028252 C5.17314313,9.46381876 5.17314313,10.5396598 5.50824115,11.533196 L5.50824115,11.533196 C6.14610318,13.4262059 7.9156559,14.8342055 10.0026699,14.8342055 C11.0814504,14.8342055 12.0073791,14.5578966 12.7246065,14.0699469 L12.721,14.071 C13.5050321,13.5513428 14.0577549,12.7564748 14.2762817,11.8500874 L14.3207313,11.6390165 L9.99973045,11.6390165 L9.99973045,8.55846621 L17.5453149,8.55846621 C17.6393775,9.09344726 17.6834693,9.64018614 17.6834693,10.1839856 C17.6834693,12.6178554 16.8133903,14.6754749 15.2995703,16.0687772 L15.3,16.067 C14.0465883,17.2272324 12.3474523,17.9240057 10.3375661,17.9941412 L9.99973045,18 C6.97502987,18 4.20900145,16.2951153 2.85097261,13.5937549 L2.85097261,13.5937549 L2.72026322,13.3206205 C1.71815787,11.1209055 1.76172767,8.57974787 2.85097261,6.40972362 L2.85097261,6.40972362 L2.98237774,6.15914501 C4.38213083,3.60053341 7.06955176,2.00053909 9.99973045,2.00053909 Z"/>
</svg>
