<svg xmlns="http://www.w3.org/2000/svg" width="20" height="20" viewBox="0 0 20 20">
  <path fill-rule="evenodd" d="M6.17070571,4 L6.23766364,3.82776208 C6.69415347,2.75341388 7.75909211,2 9,2 C10.2930037,2 11.4032205,2.82061246 11.8231481,4 L13,4 C14.6568542,4 16,5.34314575 16,7 L16,8.17070571 C17.1651924,8.58254212 18,9.69378117 18,11 C18,12.3062188 17.1651924,13.4174579 16,13.8292943 L16,15 C16,16.6568542 14.6568542,18 13,18 L11,18 C10.4871642,18 10.0644928,17.6139598 10.0067277,17.1166211 L9.99327227,16.8833789 C9.93550716,16.3860402 9.51283584,16 9,16 C8.48716416,16 8.06449284,16.3860402 8.00672773,16.8833789 L7.99327227,17.1166211 C7.93550716,17.6139598 7.51283584,18 7,18 L5,18 C3.34314575,18 2,16.6568542 2,15 L2,13 C2,12.4871642 2.38604019,12.0644928 2.88337887,12.0067277 L3.11662113,11.9932723 C3.61395981,11.9355072 4,11.5128358 4,11 C4,10.4871642 3.61395981,10.0644928 3.11662113,10.0067277 L2.88337887,9.99327227 C2.38604019,9.93550716 2,9.51283584 2,9 L2,7 C2,5.34314575 3.34314575,4 5,4 L6.17070571,4 Z M13,16 C13.5522847,16 14,15.5522847 14,15 L14,13 C14,12.4871642 14.3860402,12.0644928 14.8833789,12.0067277 L15.1166211,11.9932723 C15.6139598,11.9355072 16,11.5128358 16,11 C16,10.4871642 15.6139598,10.0644928 15.1166211,10.0067277 L14.8833789,9.99327227 C14.3860402,9.93550716 14,9.51283584 14,9 L14,7 C14,6.44771525 13.5522847,6 13,6 L11,6 C10.4620075,6 10.0204338,5.57435705 10.0006747,5.03672752 L9.99722475,4.92431496 C9.95894602,4.40547321 9.52432346,4 9,4 C8.48716416,4 8.06449284,4.38604019 8.00672773,4.88337887 L7.99327227,5.11662113 C7.93550716,5.61395981 7.51283584,6 7,6 L5,6 C4.44771525,6 4,6.44771525 4,7 L4,8.17070571 C5.16519237,8.58254212 6,9.69378117 6,11 C6,12.3062188 5.16519237,13.4174579 4,13.8292943 L4,15 C4,15.5522847 4.44771525,16 5,16 L6.17070571,16 C6.58254212,14.8348076 7.69378117,14 9,14 C10.2409079,14 11.3058465,14.7534139 11.7623364,15.8277621 L11.8292943,16 L13,16 Z"/>
</svg>
