<svg xmlns="http://www.w3.org/2000/svg" width="20" height="20" viewBox="0 0 20 20">
  <path fill-rule="evenodd" d="M8.31622777,8.9486833 C8.72456991,8.81256925 9,8.43043041 9,8 L9,5 C9,3.34314575 7.65685425,2 6,2 L3,2 C2.44771525,2 2,2.44771525 2,3 C2,10.8547164 9.14528356,18 17,18 C17.5522847,18 18,17.5522847 18,17 L18,14 C18,12.3431458 16.6568542,11 15,11 L12,11 C11.5695696,11 11.1874307,11.2754301 11.0513167,11.6837722 L10.3042938,13.9248409 C8.74457735,12.9124407 7.37501327,11.5819706 6.31438206,10.0522112 L6.07515909,9.69570619 L8.31622777,8.9486833 Z M12.7207592,13 L15,13 C15.5522847,13 16,13.4477153 16,14 L16,15.9545772 C14.7978154,15.8456524 13.6210222,15.5439092 12.503038,15.0827655 L12.0866159,14.9024299 L12.7207592,13 Z M17,2 C17.5522847,2 18,2.44771525 18,3 L18,7 C18,7.55228475 17.5522847,8 17,8 C16.4477153,8 16,7.55228475 16,7 L16,3 C16,2.44771525 16.4477153,2 17,2 Z M13,2 C13.5522847,2 14,2.44771525 14,3 L14,7 C14,7.55228475 13.5522847,8 13,8 C12.4477153,8 12,7.55228475 12,7 L12,3 C12,2.44771525 12.4477153,2 13,2 Z M6,4 C6.55228475,4 7,4.44771525 7,5 L7,7.27924078 L5.0975701,7.91338408 C4.53453934,6.67277941 4.16796325,5.35245772 4.04542281,4 L6,4 Z"/>
</svg>
