<svg xmlns="http://www.w3.org/2000/svg" width="20" height="20" viewBox="0 0 20 20">
  <path fill-rule="evenodd" d="M4.70314578,4.70314578 L15.6568542,15.6568542 C16.0473785,16.0473785 16.0473785,16.6805435 15.6568542,17.0710678 C15.26633,17.4615921 14.633165,17.4615921 14.2426407,17.0710678 L12.6507991,15.4806692 C12.1293913,15.6941645 11.5764943,15.8465643 11.0010101,15.9289666 L11,17 C11,17.5522847 10.5522847,18 10,18 C9.44771525,18 9,17.5522847 9,17 L9,15.92911 C5.60770164,15.4438768 3,12.5264691 3,9 C3,8.44771525 3.44771525,8 4,8 C4.55228475,8 5,8.44771525 5,9 C5,11.7614237 7.23857625,14 10,14 C10.3633452,14 10.7176384,13.9612435 11.058971,13.8876389 L9.00008893,11.8293257 C8.1476039,11.5280459 7.47195412,10.8523961 7.17067428,9.99991107 L3.28893222,6.11735934 C2.89840793,5.72683505 2.89840793,5.09367007 3.28893222,4.70314578 C3.67945651,4.31262149 4.31262149,4.31262149 4.70314578,4.70314578 Z M16,8 C16.5522847,8 17,8.44771525 17,9 C17,10.466041 16.5493183,11.8268196 15.7789428,12.9513478 L14.3298847,11.5020807 C14.7560547,10.7661773 15,9.91157687 15,9 C15,8.44771525 15.4477153,8 16,8 Z M10,2 C11.6568542,2 13,3.34314575 13,5 L13,9 C13,9.35084629 12.9397734,9.6876259 12.8290948,10.0005643 L10.999039,8.171 L11,5 C11,4.44771525 10.5522847,4 10,4 C9.44771525,4 9,4.44771525 9,5 L8.999039,6.171 L7.09099837,4.26379218 C7.41920903,2.9628794 8.59715825,2 10,2 Z"/>
</svg>
