<svg xmlns="http://www.w3.org/2000/svg" width="20" height="20" viewBox="0 0 20 20">
  <path fill-rule="evenodd" d="M4.98426132,9.00012386 C5.49703364,8.9920525 5.92572837,9.37139259 5.99131378,9.86776053 L5.99987614,9.98426132 L6.00220907,10.1403808 C6.07041006,12.3035969 7.70468285,13.9999974 9.66612579,13.9999974 C9.94480301,13.9999974 10.2186833,13.9662261 10.4846209,13.9000254 L10.2928932,13.7071068 C9.90236893,13.3165825 9.90236893,12.6834175 10.2928932,12.2928932 C10.6834175,11.9023689 11.3165825,11.9023689 11.7071068,12.2928932 L13.7071068,14.2928932 C14.0976311,14.6834175 14.0976311,15.3165825 13.7071068,15.7071068 L11.7071068,17.7071068 C11.3165825,18.0976311 10.6834175,18.0976311 10.2928932,17.7071068 C9.90236893,17.3165825 9.90236893,16.6834175 10.2928932,16.2928932 L10.6822744,15.9036623 C10.3493424,15.9675291 10.0095886,15.9999974 9.66612579,15.9999974 C6.66619462,15.9999974 4.22334745,13.5384253 4.01412774,10.4171673 L4.00282956,10.1876314 L4.00012386,10.0157387 C3.99143163,9.46352233 4.43204498,9.00881609 4.98426132,9.00012386 Z M9.70710678,2.29289322 C10.0675907,2.65337718 10.0953203,3.22060824 9.79029539,3.61289944 L9.70710678,3.70710678 L9.31758735,4.09624664 C9.65039966,4.03243866 9.99002582,4 10.3333574,4 C13.4789661,4 16,6.70112164 16,10 C16,10.5522847 15.5522847,11 15,11 C14.4477153,11 14,10.5522847 14,10 C14,7.77603086 12.3423797,6 10.3333574,6 C10.0547757,6 9.78098687,6.03374015 9.51513257,6.09987779 L9.70710678,6.29289322 C10.0976311,6.68341751 10.0976311,7.31658249 9.70710678,7.70710678 C9.34662282,8.06759074 8.77939176,8.09532028 8.38710056,7.79029539 L8.29289322,7.70710678 L6.29289322,5.70710678 C5.93240926,5.34662282 5.90467972,4.77939176 6.20970461,4.38710056 L6.29289322,4.29289322 L8.29289322,2.29289322 C8.68341751,1.90236893 9.31658249,1.90236893 9.70710678,2.29289322 Z"/>
</svg>
