<svg xmlns="http://www.w3.org/2000/svg" width="20" height="20" viewBox="0 0 20 20">
  <path fill-rule="evenodd" d="M5,18 C4.44771525,18 4,17.5522847 4,17 L4,3 C4,2.44771525 4.44771525,2 5,2 L10,2 C12.2462913,2 14,4.0459935 14,6.5 C14,7.50828609 13.7039442,8.44769266 13.1993073,9.20460543 C14.8406795,9.77921123 16,11.5047435 16,13.5 C16,15.8818298 14.3479336,17.8792945 12.1968918,17.994732 L12,18 L5,18 Z M12.1326672,11.0056115 L12,11 L6,11 L6,16 L12,16 C13.0674172,16 14,14.9119867 14,13.5 C14,12.146846 13.1435134,11.0912302 12.1326672,11.0056115 Z M10,4 L6,4 L6,9 L10,9 C11.0674172,9 12,7.91198674 12,6.5 C12,5.14684604 11.1435134,4.09123023 10.1326672,4.00561147 L10,4 Z"/>
</svg>
