<svg xmlns="http://www.w3.org/2000/svg" width="20" height="20" viewBox="0 0 20 20">
  <path d="M3.61289944,14.7902954 L3.70710678,14.7071068 L8,10.415 L10.2928932,12.7071068 C10.6533772,13.0675907 11.2206082,13.0953203 11.6128994,12.7902954 L11.7071068,12.7071068 L15,9.415 L16.2928932,10.7071068 C16.8954683,11.3096819 17.9071808,10.9276677 17.9940167,10.1136309 L18,10 L18,6 C18,5.48716416 17.6139598,5.06449284 17.1166211,5.00672773 L17,5 L13,5 C12.1478301,5 11.7025662,5.98551359 12.2167748,6.62252676 L12.2928932,6.70710678 L13.585,8 L11,10.585 L8.70710678,8.29289322 C8.34662282,7.93240926 7.77939176,7.90467972 7.38710056,8.20970461 L7.29289322,8.29289322 L2.29289322,13.2928932 C1.90236893,13.6834175 1.90236893,14.3165825 2.29289322,14.7071068 C2.65337718,15.0675907 3.22060824,15.0953203 3.61289944,14.7902954 Z"/>
</svg>
