<svg xmlns="http://www.w3.org/2000/svg" width="20" height="20" viewBox="0 0 20 20">
  <path d="M10,2 C14.418278,2 18,5.581722 18,10 C18,14.418278 14.418278,18 10,18 C5.581722,18 2,14.418278 2,10 C2,5.581722 5.581722,2 10,2 Z M10,4 C6.6862915,4 4,6.6862915 4,10 C4,13.3137085 6.6862915,16 10,16 C13.3137085,16 16,13.3137085 16,10 C16,6.6862915 13.3137085,4 10,4 Z M10,6 C10.5522847,6 11,6.44771525 11,7 L11,10.586 L11.2928932,10.2928932 C11.6233369,9.96244959 12.1275055,9.91161211 12.5114029,10.1403808 L12.6128994,10.2097046 L12.7071068,10.2928932 C13.0675907,10.6533772 13.0953203,11.2206082 12.7902954,11.6128994 L12.7071068,11.7071068 L10.7071068,13.7071068 L10.663147,13.7485042 L10.5953066,13.8036654 L10.4840621,13.8753288 L10.371336,13.9287745 L10.265993,13.9641549 L10.1180955,13.9930928 L10,14 L9.92476146,13.9972121 L9.79927424,13.9797599 L9.68785748,13.9502619 L9.57677845,13.9063266 L9.47929125,13.8540045 L9.37455101,13.7803112 L9.29289322,13.7071068 L7.29289322,11.7071068 C6.90236893,11.3165825 6.90236893,10.6834175 7.29289322,10.2928932 C7.65337718,9.93240926 8.22060824,9.90467972 8.61289944,10.2097046 L8.70710678,10.2928932 L9,10.584 L9,7 C9,6.44771525 9.44771525,6 10,6 Z"/>
</svg>
