<svg xmlns="http://www.w3.org/2000/svg" width="20" height="20" viewBox="0 0 20 20">
  <path fill-rule="evenodd" d="M15,11 C16.6568542,11 18,12.3431458 18,14 L18,15 C18,16.6568542 16.6568542,18 15,18 L5,18 C3.34314575,18 2,16.6568542 2,15 L2,14 C2,12.3431458 3.34314575,11 5,11 L15,11 Z M15,13 L5,13 C4.44771525,13 4,13.4477153 4,14 L4,15 C4,15.5522847 4.44771525,16 5,16 L15,16 C15.5522847,16 16,15.5522847 16,15 L16,14 C16,13.4477153 15.5522847,13 15,13 Z M15,2 C16.6568542,2 18,3.34314575 18,5 L18,6 C18,7.65685425 16.6568542,9 15,9 L5,9 C3.34314575,9 2,7.65685425 2,6 L2,5 C2,3.34314575 3.34314575,2 5,2 L15,2 Z M15,4 L5,4 C4.44771525,4 4,4.44771525 4,5 L4,6 C4,6.55228475 4.44771525,7 5,7 L15,7 C15.5522847,7 16,6.55228475 16,6 L16,5 C16,4.44771525 15.5522847,4 15,4 Z"/>
</svg>
