<svg xmlns="http://www.w3.org/2000/svg" width="20" height="20" viewBox="0 0 20 20">
  <path fill-rule="evenodd" d="M9.23177872,6.3598156 C9.60492082,5.91204508 10.2716772,5.88219371 10.6839679,6.2702615 L10.7682213,6.3598156 L15.7682213,12.3598156 C16.2863222,12.9815368 15.8878644,13.9108012 15.1131715,13.9939953 L15,14 L13,14 L13,17 C13,17.4733869 12.6710663,17.8699473 12.2292908,17.9735893 L12.1166211,17.9932723 L12,18 L8,18 C7.48716416,18 7.06449284,17.6139598 7.00672773,17.1166211 L7,17 L7,14 L5,14 C4.2292385,14 3.77639567,13.1827624 4.1082235,12.5448222 L4.16394105,12.4506005 L4.23177872,12.3598156 L9.23177872,6.3598156 Z M10,8.562 L7.135,12 L8,12 C8.47338693,12 8.86994729,12.3289337 8.97358929,12.7707092 L8.99327227,12.8833789 L9,13 L9,16 L11,16 L11,13 C11,12.5266131 11.3289337,12.1300527 11.7707092,12.0264107 L11.8833789,12.0067277 L12,12 L12.864,12 L10,8.562 Z M17,2 C17.5522847,2 18,2.44771525 18,3 C18,3.55228475 17.5522847,4 17,4 L3,4 C2.44771525,4 2,3.55228475 2,3 C2,2.44771525 2.44771525,2 3,2 L17,2 Z"/>
</svg>
