<svg xmlns="http://www.w3.org/2000/svg" width="20" height="20" viewBox="0 0 20 20">
  <path fill-rule="evenodd" d="M10,2 C10.5522847,2 11,2.44771525 11,3 L11,14.585 L13.2928932,12.2928932 C13.6533772,11.9324093 14.2206082,11.9046797 14.6128994,12.2097046 L14.7071068,12.2928932 C15.0675907,12.6533772 15.0953203,13.2206082 14.7902954,13.6128994 L14.7071068,13.7071068 L10.7071068,17.7071068 L10.663147,17.7485042 L10.663147,17.7485042 L10.5953066,17.8036654 L10.5953066,17.8036654 L10.4840621,17.8753288 L10.4840621,17.8753288 L10.371336,17.9287745 L10.371336,17.9287745 L10.265993,17.9641549 L10.265993,17.9641549 L10.1174742,17.9931658 L10.1174742,17.9931658 L10,18 L10,18 L9.92476146,17.9972121 L9.92476146,17.9972121 L9.79927424,17.9797599 L9.79927424,17.9797599 L9.68785748,17.9502619 L9.68785748,17.9502619 L9.57677845,17.9063266 L9.57677845,17.9063266 L9.47929125,17.8540045 L9.47929125,17.8540045 L9.38324992,17.787214 C9.35153408,17.7623312 9.32135953,17.7355731 9.29289322,17.7071068 L5.29289322,13.7071068 C4.90236893,13.3165825 4.90236893,12.6834175 5.29289322,12.2928932 C5.65337718,11.9324093 6.22060824,11.9046797 6.61289944,12.2097046 L6.70710678,12.2928932 L9,14.585 L9,3 C9,2.44771525 9.44771525,2 10,2 Z"/>
</svg>
