<svg xmlns="http://www.w3.org/2000/svg" width="20" height="20" viewBox="0 0 20 20">
  <path d="M14,16 C14.5522847,16 15,16.4477153 15,17 C15,17.5522847 14.5522847,18 14,18 L6,18 C5.44771525,18 5,17.5522847 5,17 C5,16.4477153 5.44771525,16 6,16 L14,16 Z M14,2 C14.5128358,2 14.9355072,2.38604019 14.9932723,2.88337887 L15,3 L15,9 C15,11.7614237 12.7614237,14 10,14 C7.3112453,14 5.11818189,11.8776933 5.00461951,9.21688962 L5,9 L5,3 C5,2.44771525 5.44771525,2 6,2 C6.51283584,2 6.93550716,2.38604019 6.99327227,2.88337887 L7,3 L7,9 C7,10.6568542 8.34314575,12 10,12 C11.5976809,12 12.9036609,10.75108 12.9949073,9.17627279 L13,9 L13,3 C13,2.44771525 13.4477153,2 14,2 Z"/>
</svg>
