<svg xmlns="http://www.w3.org/2000/svg" width="20" height="20" viewBox="0 0 20 20">
  <path d="M10,2 C11.1045695,2 12,2.8954305 12,4 C12,4.7398375 11.5982846,5.38584934 11.0010775,5.73181186 L11.0000259,15.9170372 C13.1188817,15.561551 14.8611654,14.0955325 15.6079056,12.1379533 L15.657,12 L14,12 C12.9061094,12 12.6271285,10.5215871 13.5735506,10.0943349 L13.6837722,10.0513167 L16.6837722,9.0513167 C17.3313033,8.835473 18,9.31744227 18,10 C18,14.418278 14.418278,18 10,18 C5.581722,18 2,14.418278 2,10 C2,9.35759273 2.59234029,8.89286934 3.20187827,9.02036916 L3.31622777,9.0513167 L6.31622777,10.0513167 C7.3539835,10.3972353 7.15113283,11.8880024 6.11816901,11.9940445 L6,12 L4.342,12 L4.39209445,12.1379533 C5.13891316,14.0957384 6.88148472,15.5618593 9.00064247,15.9171493 L8.99992752,5.73239368 C8.40216612,5.38657394 8,4.74025244 8,4 C8,2.8954305 8.8954305,2 10,2 Z"/>
</svg>
