<svg xmlns="http://www.w3.org/2000/svg" width="20" height="20" viewBox="0 0 20 20">
  <path fill-rule="evenodd" d="M17,16 C17.5522847,16 18,16.4477153 18,17 C18,17.5522847 17.5522847,18 17,18 L3,18 C2.44771525,18 2,17.5522847 2,17 C2,16.4477153 2.44771525,16 3,16 L17,16 Z M15,6 C16.6568542,6 18,7.34314575 18,9 L18,11 C18,12.6568542 16.6568542,14 15,14 L5,14 C3.34314575,14 2,12.6568542 2,11 L2,9 C2,7.34314575 3.34314575,6 5,6 L15,6 Z M15,8 L5,8 C4.44771525,8 4,8.44771525 4,9 L4,11 C4,11.5522847 4.44771525,12 5,12 L15,12 C15.5522847,12 16,11.5522847 16,11 L16,9 C16,8.44771525 15.5522847,8 15,8 Z M17,2 C17.5522847,2 18,2.44771525 18,3 C18,3.55228475 17.5522847,4 17,4 L3,4 C2.44771525,4 2,3.55228475 2,3 C2,2.44771525 2.44771525,2 3,2 L17,2 Z"/>
</svg>
