<svg xmlns="http://www.w3.org/2000/svg" width="20" height="20" viewBox="0 0 20 20">
  <path fill-rule="evenodd" d="M3,14 L3.11662113,14.0067277 L3.22929083,14.0264107 C3.59375563,14.1119154 3.88141744,14.3967876 3.97093734,14.7596884 L3.99327227,14.8833789 L4,15 L4,16 L5,16 L5.11662113,16.0067277 L5.22929083,16.0264107 C5.67106635,16.1300527 6,16.5266131 6,17 C6,17.4733869 5.67106635,17.8699473 5.22929083,17.9735893 L5.11662113,17.9932723 L5,18 L3,18 L2.88337887,17.9932723 L2.77070917,17.9735893 C2.40624437,17.8880846 2.11858256,17.6032124 2.02906266,17.2403116 L2.00672773,17.1166211 L2,17 L2,15 L2.00672773,14.8833789 L2.02641071,14.7707092 C2.11191536,14.4062444 2.39678757,14.1185826 2.75968842,14.0290627 L2.88337887,14.0067277 L3,14 Z M17,14 L17.1166211,14.0067277 C17.5374462,14.0556059 17.8785841,14.3657483 17.9735893,14.7707092 L17.9932723,14.8833789 L18,15 L18,17 L17.9932723,17.1166211 C17.9443941,17.5374462 17.6342517,17.8785841 17.2292908,17.9735893 L17.1166211,17.9932723 L17,18 L15,18 L14.8833789,17.9932723 C14.3860402,17.9355072 14,17.5128358 14,17 C14,16.5266131 14.3289337,16.1300527 14.7707092,16.0264107 L14.8833789,16.0067277 L15,16 L16,16 L16,15 L16.0067277,14.8833789 C16.0556059,14.4625538 16.3657483,14.1214159 16.7707092,14.0264107 L16.8833789,14.0067277 L17,14 Z M10,2 C10.5522847,2 11,2.44771525 11,3 L11,8.999 L17,9 C17.5522847,9 18,9.44771525 18,10 C18,10.5522847 17.5522847,11 17,11 L11,11 L11,17 C11,17.5522847 10.5522847,18 10,18 C9.44771525,18 9,17.5522847 9,17 L9,11 L3,11 C2.44771525,11 2,10.5522847 2,10 C2,9.44771525 2.44771525,9 3,9 L9,8.999 L9,3 C9,2.44771525 9.44771525,2 10,2 Z M5,2 L5.11662113,2.00672773 C5.61395981,2.06449284 6,2.48716416 6,3 C6,3.47338693 5.67106635,3.86994729 5.22929083,3.97358929 L5.11662113,3.99327227 L5,4 L4,4 L4,5 L3.99327227,5.11662113 C3.9443941,5.53744617 3.63425172,5.87858412 3.22929083,5.97358929 L3.11662113,5.99327227 L3,6 L2.88337887,5.99327227 C2.46255383,5.9443941 2.12141588,5.63425172 2.02641071,5.22929083 L2.00672773,5.11662113 L2,5 L2,3 L2.00672773,2.88337887 C2.0556059,2.46255383 2.36574828,2.12141588 2.77070917,2.02641071 L2.88337887,2.00672773 L3,2 L5,2 Z M17,2 L17.1166211,2.00672773 C17.575703,2.06004937 17.9399506,2.42429701 17.9932723,2.88337887 L18,3 L18,5 L17.9932723,5.11662113 C17.9399506,5.57570299 17.575703,5.93995063 17.1166211,5.99327227 L17,6 L16.8833789,5.99327227 C16.424297,5.93995063 16.0600494,5.57570299 16.0067277,5.11662113 L16,5 L16,4 L15,4 L14.8833789,3.99327227 C14.3860402,3.93550716 14,3.51283584 14,3 C14,2.48716416 14.3860402,2.06449284 14.8833789,2.00672773 L15,2 L17,2 Z"/>
</svg>
