<svg xmlns="http://www.w3.org/2000/svg" width="20" height="20" viewBox="0 0 20 20">
  <path d="M10.6313268,9.49362731 L10.9551846,10.5478662 L11.1689181,11.2621227 C11.7280798,13.1563716 12,14.3065351 12,14.8181818 C12,16.0231667 11.1045695,17 10,17 C8.8954305,17 8,16.0231667 8,14.8181818 C8,14.2451375 8.34109669,12.8711378 9.04481537,10.5478662 L9.3686732,9.49362731 C9.57334774,8.83545756 10.4266523,8.83545756 10.6313268,9.49362731 Z M10,3 C14.418278,3 18,6.581722 18,11 C18,12.6577499 17.49357,14.2422243 16.5644361,15.5736171 C16.2483706,16.0265199 15.6249985,16.1374485 15.1720956,15.821383 C14.7191928,15.5053174 14.6082642,14.8819453 14.9243298,14.4290424 C15.6210426,13.430695 16,12.2450458 16,11 C16,7.6862915 13.3137085,5 10,5 C6.6862915,5 4,7.6862915 4,11 C4,12.2450458 4.37895741,13.430695 5.07567024,14.4290424 C5.39173579,14.8819453 5.28080723,15.5053174 4.82790436,15.821383 C4.3750015,16.1374485 3.75162942,16.0265199 3.43556386,15.5736171 C2.50642998,14.2422243 2,12.6577499 2,11 C2,6.581722 5.581722,3 10,3 Z"/>
</svg>
