<svg xmlns="http://www.w3.org/2000/svg" width="20" height="20" viewBox="0 0 20 20">
  <path fill-rule="evenodd" d="M4,17 C4,17.5522847 3.55228475,18 3,18 C2.44771525,18 2,17.5522847 2,17 L2,3 C2,2.44771525 2.44771525,2 3,2 C3.55228475,2 4,2.44771525 4,3 L4,17 Z M6,10 L6.004,9.918 L6.02024007,9.79927424 L6.04973809,9.68785748 L6.09367336,9.57677845 L6.14599545,9.47929125 L6.19631351,9.4048407 L6.29289322,9.29289322 L9.29289322,6.29289322 C9.68341751,5.90236893 10.3165825,5.90236893 10.7071068,6.29289322 C11.0675907,6.65337718 11.0953203,7.22060824 10.7902954,7.61289944 L10.7071068,7.70710678 L9.415,9 L17,9 C17.5522847,9 18,9.44771525 18,10 C18,10.5522847 17.5522847,11 17,11 L9.415,11 L10.7071068,12.2928932 C11.0675907,12.6533772 11.0953203,13.2206082 10.7902954,13.6128994 L10.7071068,13.7071068 C10.3466228,14.0675907 9.77939176,14.0953203 9.38710056,13.7902954 L9.29289322,13.7071068 L6.29289322,10.7071068 L6.2514958,10.663147 L6.19633458,10.5953066 L6.12467117,10.4840621 L6.09365378,10.4230991 L6.05988586,10.3416504 L6.03584514,10.265993 L6.00683422,10.1174742 L6,10 Z"/>
</svg>
