<svg xmlns="http://www.w3.org/2000/svg" width="20" height="20" viewBox="0 0 20 20">
  <path fill-rule="evenodd" d="M14,2 C14.5522847,2 15,2.44771525 15,3 L15,4 C16.6568542,4 18,5.34314575 18,7 C18,7.55228475 17.5522847,8 17,8 C16.4871642,8 16.0644928,7.61395981 16.0067277,7.11662113 L16,7 C16,6.44771525 15.5522847,6 15,6 L5,6 C4.44771525,6 4,6.44771525 4,7 L4,8 L7,8 C7.55228475,8 8,8.44771525 8,9 C8,9.55228475 7.55228475,10 7,10 L4,10 L4,15 C4,15.5522847 4.44771525,16 5,16 L7,16 C7.55228475,16 8,16.4477153 8,17 C8,17.5522847 7.55228475,18 7,18 L5,18 C3.34314575,18 2,16.6568542 2,15 L2,7 C2,5.34314575 3.34314575,4 5,4 L5,3 C5,2.44771525 5.44771525,2 6,2 C6.55228475,2 7,2.44771525 7,3 L7,4 L13,4 L13,3 C13,2.44771525 13.4477153,2 14,2 Z M14,10 C14.5522847,10 15,10.4477153 15,11 L15,13 L17,13 C17.5522847,13 18,13.4477153 18,14 C18,14.5522847 17.5522847,15 17,15 L15,15 L15,17 C15,17.5522847 14.5522847,18 14,18 C13.4477153,18 13,17.5522847 13,17 L13,15 L11,15 C10.4477153,15 10,14.5522847 10,14 C10,13.4477153 10.4477153,13 11,13 L13,13 L13,11 C13,10.4477153 13.4477153,10 14,10 Z"/>
</svg>
