<svg xmlns="http://www.w3.org/2000/svg" width="20" height="20" viewBox="0 0 20 20">
  <path fill-rule="evenodd" d="M8,4.37318661 L10,5.1483075 L12,4.37318661 C13.2838827,3.87560446 14.7161173,3.87560446 16,4.37318661 L17.4971125,4.95340822 C17.8008392,5.07112067 18,5.35613941 18,5.6730899 L18,14.8551209 C18,15.2832083 17.6418278,15.6302418 17.2,15.6302418 C17.0982245,15.6302418 16.9973837,15.6114256 16.9028875,15.5748026 L16,15.2248791 C14.7161173,14.727297 13.2838827,14.727297 12,15.2248791 L10,16 L8,15.2248791 C6.71611731,14.727297 5.28388269,14.727297 4,15.2248791 L3.09711254,15.5748026 C2.68688573,15.7337903 2.22130937,15.5404628 2.05721865,15.1429936 C2.01942016,15.0514361 2,14.9537313 2,14.8551209 L2,5.6730899 C2,5.35613941 2.19916076,5.07112067 2.50288746,4.95340822 L4,4.37318661 C5.28388269,3.87560446 6.71611731,3.87560446 8,4.37318661 Z M4.72274014,6.23803156 L4,6.51813705 L4,13.1213337 C5.55163935,12.6947532 7.21145561,12.7743201 8.72274014,13.3600342 L9,13.468 L9,7 L9.005,6.908 L7.27725986,6.23803156 C6.45835427,5.92065615 5.54164573,5.92065615 4.72274014,6.23803156 Z M12.7227401,6.23803156 L10.9957331,6.90700359 L11,7 L11,7 L11,13.467 L11.2772599,13.3600342 C12.7885444,12.7743201 14.4483606,12.6947532 16,13.1213337 L16,6.51813705 L15.2772599,6.23803156 C14.4583543,5.92065615 13.5416457,5.92065615 12.7227401,6.23803156 Z"/>
</svg>
