<svg xmlns="http://www.w3.org/2000/svg" width="20" height="20" viewBox="0 0 20 20">
  <path fill-rule="evenodd" d="M18,10 C18,10.5522847 17.5522847,11 17,11 L15,11 C14.4477153,11 14,10.5522847 14,10 C14,9.44771525 14.4477153,9 15,9 L17,9 C17.5522847,9 18,9.44771525 18,10 Z M6,10 C6,10.5522847 5.55228475,11 5,11 L3,11 C2.44771525,11 2,10.5522847 2,10 C2,9.44771525 2.44771525,9 3,9 L5,9 C5.55228475,9 6,9.44771525 6,10 Z M13,16 C13,17.1045695 12.1045695,18 11,18 L9,18 C7.8954305,18 7,17.1045695 7,16 L7,4 C7,2.8954305 7.8954305,2 9,2 L11,2 C12.1045695,2 13,2.8954305 13,4 L13,16 Z"/>
</svg>
