<svg xmlns="http://www.w3.org/2000/svg" width="20" height="20" viewBox="0 0 20 20">
  <path fill-rule="evenodd" d="M5.29289322,11.2928932 C5.65337718,10.9324093 6.22060824,10.9046797 6.61289944,11.2097046 L6.70710678,11.2928932 L10,14.5857864 L13.2928932,11.2928932 C13.6834175,10.9023689 14.3165825,10.9023689 14.7071068,11.2928932 C15.0675907,11.6533772 15.0953203,12.2206082 14.7902954,12.6128994 L14.7071068,12.7071068 L10.7071068,16.7071068 C10.3466228,17.0675907 9.77939176,17.0953203 9.38710056,16.7902954 L9.29289322,16.7071068 L5.29289322,12.7071068 C4.90236893,12.3165825 4.90236893,11.6834175 5.29289322,11.2928932 Z M10.7071068,3.29289322 L14.7071068,7.29289322 C15.0976311,7.68341751 15.0976311,8.31658249 14.7071068,8.70710678 C14.3165825,9.09763107 13.6834175,9.09763107 13.2928932,8.70710678 L10,5.41421356 L6.70710678,8.70710678 C6.31658249,9.09763107 5.68341751,9.09763107 5.29289322,8.70710678 C4.90236893,8.31658249 4.90236893,7.68341751 5.29289322,7.29289322 L9.29289322,3.29289322 C9.68341751,2.90236893 10.3165825,2.90236893 10.7071068,3.29289322 Z"/>
</svg>
