<svg xmlns="http://www.w3.org/2000/svg" width="20" height="20" viewBox="0 0 20 20">
  <path fill-rule="evenodd" d="M10,2 C10.5522847,2 11,2.44771525 11,3 L11,5 C11,5.55228475 10.5522847,6 10,6 C9.44771525,6 9,5.55228475 9,5 L9,3 C9,2.44771525 9.44771525,2 10,2 Z M10,14 C10.5522847,14 11,14.4477153 11,15 L11,17 C11,17.5522847 10.5522847,18 10,18 C9.44771525,18 9,17.5522847 9,17 L9,15 C9,14.4477153 9.44771525,14 10,14 Z M16,7 C17.1045695,7 18,7.8954305 18,9 L18,11 C18,12.1045695 17.1045695,13 16,13 L4,13 C2.8954305,13 2,12.1045695 2,11 L2,9 C2,7.8954305 2.8954305,7 4,7 L16,7 Z"/>
</svg>
