<svg xmlns="http://www.w3.org/2000/svg" width="20" height="20" viewBox="0 0 20 20">
  <path fill-rule="evenodd" d="M7,12 L13,12 C15.7614237,12 18,14.2385763 18,17 C18,17.5522847 17.5522847,18 17,18 C16.4871642,18 16.0644928,17.6139598 16.0067277,17.1166211 L15.9949073,16.8237272 C15.9070404,15.3072462 14.6927538,14.0929596 13.1762728,14.0050927 L13,14 L7,14 C5.34314575,14 4,15.3431458 4,17 C4,17.5522847 3.55228475,18 3,18 C2.44771525,18 2,17.5522847 2,17 C2,14.3112453 4.12230671,12.1181819 6.78311038,12.0046195 L7,12 Z M10,2 C10.5522847,2 11,2.44771525 11,3 C11,3.55228475 10.5522847,4 10,4 C8.34314575,4 7,5.34314575 7,7 C7,8.65685425 8.34314575,10 10,10 C10.7415415,10 11.4387178,9.73126895 11.9832766,9.25097929 C12.3974774,8.88566275 13.029401,8.92529125 13.3947176,9.33949202 C13.7600341,9.75369279 13.7204056,10.3856164 13.3062048,10.750933 C12.3997046,11.5504474 11.2334182,12 10,12 C7.23857625,12 5,9.76142375 5,7 C5,4.23857625 7.23857625,2 10,2 Z M14.6128994,2.20970461 L14.7071068,2.29289322 L15.5,3.085 L16.2928932,2.29289322 C16.6834175,1.90236893 17.3165825,1.90236893 17.7071068,2.29289322 C18.0976311,2.68341751 18.0976311,3.31658249 17.7071068,3.70710678 L16.915,4.5 L17.7071068,5.29289322 C18.0675907,5.65337718 18.0953203,6.22060824 17.7902954,6.61289944 L17.7071068,6.70710678 C17.3466228,7.06759074 16.7793918,7.09532028 16.3871006,6.79029539 L16.2928932,6.70710678 L15.5,5.915 L14.7071068,6.70710678 C14.3165825,7.09763107 13.6834175,7.09763107 13.2928932,6.70710678 C12.9023689,6.31658249 12.9023689,5.68341751 13.2928932,5.29289322 L14.085,4.5 L13.2928932,3.70710678 C12.9324093,3.34662282 12.9046797,2.77939176 13.2097046,2.38710056 L13.2928932,2.29289322 C13.6233369,1.96244959 14.1275055,1.91161211 14.5114029,2.14038077 L14.6128994,2.20970461 L14.6128994,2.20970461 Z"/>
</svg>
