<svg xmlns="http://www.w3.org/2000/svg" width="20" height="20" viewBox="0 0 20 20">
  <path fill-rule="evenodd" d="M8.31622777,8.9486833 C8.72456991,8.81256925 9,8.43043041 9,8 L9,5 C9,3.34314575 7.65685425,2 6,2 L3,2 C2.44771525,2 2,2.44771525 2,3 C2,10.8547164 9.14528356,18 17,18 C17.5522847,18 18,17.5522847 18,17 L18,14 C18,12.3431458 16.6568542,11 15,11 L12,11 C11.5695696,11 11.1874307,11.2754301 11.0513167,11.6837722 L10.3042938,13.9248409 C8.74457735,12.9124407 7.37501327,11.5819706 6.31438206,10.0522112 L6.07515909,9.69570619 L8.31622777,8.9486833 Z M12.7207592,13 L15,13 C15.5522847,13 16,13.4477153 16,14 L16,15.9545772 C14.7978154,15.8456524 13.6210222,15.5439092 12.503038,15.0827655 L12.0866159,14.9024299 L12.7207592,13 Z M14.7071068,2.29289322 C15.0675907,2.65337718 15.0953203,3.22060824 14.7902954,3.61289944 L14.7071068,3.70710678 L14.414,4 L17,4 C17.5522847,4 18,4.44771525 18,5 C18,5.55228475 17.5522847,6 17,6 L14.415,6 L14.7071068,6.29289322 C15.0675907,6.65337718 15.0953203,7.22060824 14.7902954,7.61289944 L14.7071068,7.70710678 C14.3466228,8.06759074 13.7793918,8.09532028 13.3871006,7.79029539 L13.2928932,7.70710678 L11.2928932,5.70710678 L11.1963346,5.59530661 L11.1963346,5.59530661 L11.1246712,5.4840621 L11.0936538,5.42309915 L11.0936538,5.42309915 L11.0598859,5.34165038 L11.0598859,5.34165038 L11.0358451,5.26599297 L11.0358451,5.26599297 L11.0110178,5.14846687 L11.0110178,5.14846687 L11.0039775,5.08980185 L11.0039775,5.08980185 L11.0001675,4.98163795 L11.003,4.918 L11.0202401,4.79927424 L11.0202401,4.79927424 L11.0497381,4.68785748 L11.0497381,4.68785748 L11.0936734,4.57677845 L11.1459955,4.47929125 L11.1459955,4.47929125 L11.212786,4.38324992 C11.2376688,4.35153408 11.2644269,4.32135953 11.2928932,4.29289322 L13.2928932,2.29289322 C13.6834175,1.90236893 14.3165825,1.90236893 14.7071068,2.29289322 Z M6,4 C6.55228475,4 7,4.44771525 7,5 L7,7.27924078 L5.0975701,7.91338408 C4.53453934,6.67277941 4.16796325,5.35245772 4.04542281,4 L6,4 Z"/>
</svg>
