<svg xmlns="http://www.w3.org/2000/svg" width="20" height="20" viewBox="0 0 20 20">
  <path fill-rule="evenodd" d="M9,2 L11,2 C12.5976809,2 13.9036609,3.24891996 13.9949073,4.82372721 L14,5 L14,6 L15,6 C16.6568542,6 18,7.34314575 18,9 L18,15 C18,16.6568542 16.6568542,18 15,18 L5,18 C3.34314575,18 2,16.6568542 2,15 L2,9 C2,7.34314575 3.34314575,6 5,6 L6,6 L6,5 C6,3.40231912 7.24891996,2.09633912 8.82372721,2.00509269 L9,2 L11,2 L9,2 Z M16,14 L4,14 L4,15 C4,15.5522847 4.44771525,16 5,16 L15,16 C15.5522847,16 16,15.5522847 16,15 L16,14 Z M15,8 L5,8 C4.44771525,8 4,8.44771525 4,9 L4,12 L16,12 L16,9 C16,8.44771525 15.5522847,8 15,8 Z M11,4 L9,4 C8.48716416,4 8.06449284,4.38604019 8.00672773,4.88337887 L8,5 L8,6 L12,6 L12,5 C12,4.48716416 11.6139598,4.06449284 11.1166211,4.00672773 L11,4 Z"/>
</svg>
