<svg xmlns="http://www.w3.org/2000/svg" width="20" height="20" viewBox="0 0 20 20">
  <path fill-rule="evenodd" d="M5,18 C3.34314575,18 2,16.6568542 2,15 L2,11 C2,9.34314575 3.34314575,8 5,8 L6.352,8 L7.5527864,3.65835921 C8.03106974,2.70179255 8.97937732,2.07682556 10.0366421,2.00660995 L10.236068,2 L10.5,2 C11.8254834,2 12.9100387,3.03153594 12.9946823,4.33562431 L13,4.5 L13,8 L14.998258,8 C15.195814,8 15.3928864,8.01951406 15.586606,8.05825797 C17.153261,8.37158897 18.1889467,9.8523795 17.9695761,11.4145 L17.94,11.5883484 L16.74,15.5883484 C16.4712311,16.932193 15.3292541,17.915203 13.9759236,17.9947874 L13.798258,18 L5,18 Z M6,10 L5,10 C4.44771525,10 4,10.4477153 4,11 L4,15 C4,15.5522847 4.44771525,16 5,16 L6,16 L6,10 Z M10.5,4 L10.236068,4 C9.94679855,4 9.67648973,4.12481529 9.48944389,4.3347048 L9.4145666,4.42975021 L8.24444095,8.66330457 C8.20996129,8.78805317 8.16345383,8.90916032 8.10557281,9.02492236 C8.05350202,9.12906394 8.02015271,9.24122543 8.00673248,9.35629135 L8,9.47213595 L8,16 L13.858258,16 C14.2952156,16 14.6764912,15.7172804 14.8090098,15.3101248 L14.8843474,15.0136526 L16.0500948,11.1278281 L16.0584508,11.0092249 C16.0632689,10.5381719 15.7332303,10.1151906 15.2543741,10.0194193 L15.1567956,10.0048667 L15.1567956,10.0048667 L15.058258,10 L13,10 C11.9456382,10 11.0818349,9.18412221 11.0054857,8.14926234 L11,8 L11,4.5 C11,4.25454011 10.8231248,4.05039163 10.5898756,4.00805567 L10.5,4 Z"/>
</svg>
