<svg xmlns="http://www.w3.org/2000/svg" width="20" height="20" viewBox="0 0 20 20">
  <path fill-rule="evenodd" d="M8.83418581,2 C9.46529136,2 10.0705485,2.2507057 10.5168075,2.69696471 L17.3030353,9.48319253 C18.2323216,10.4124788 18.2323216,11.9191496 17.3030353,12.8484359 L12.8484359,17.3030353 C11.9191496,18.2323216 10.4124788,18.2323216 9.48319253,17.3030353 L2.69696471,10.5168075 C2.2507057,10.0705485 2,9.46529136 2,8.83418581 L2,4.37958638 C2,3.06537711 3.06537711,2 4.37958638,2 L8.83418581,2 Z M8.83418581,4 L4.37958638,4 C4.16994661,4 4,4.16994661 4,4.37958638 L4,8.83418581 C4,8.93485838 4.03999202,9.03140766 4.11117828,9.10259391 L10.8974061,15.8888217 C11.0456438,16.0370594 11.2859846,16.0370594 11.4342223,15.8888217 L15.8888217,11.4342223 C16.0370594,11.2859846 16.0370594,11.0456438 15.8888217,10.8974061 L9.10259391,4.11117828 C9.03140766,4.03999202 8.93485838,4 8.83418581,4 Z M7.5,6 C8.32842712,6 9,6.67157288 9,7.5 C9,8.32842712 8.32842712,9 7.5,9 C6.67157288,9 6,8.32842712 6,7.5 C6,6.67157288 6.67157288,6 7.5,6 Z"/>
</svg>
