<svg xmlns="http://www.w3.org/2000/svg" width="20" height="20" viewBox="0 0 20 20">
  <path fill-rule="evenodd" d="M11.1174954,3 C12.2379365,3 13.2650007,3.62437178 13.780759,4.61904851 L14.2169723,5.46031716 C14.3888918,5.79187607 14.7312465,6 15.1047269,6 L15.4444444,6 C16.8558388,6 18,7.14416119 18,8.55555556 L18,14 C18,15.6568542 16.6568542,17 15,17 L5,17 C3.34314575,17 2,15.6568542 2,14 L2,8.55555556 C2,7.14416119 3.14416119,6 4.55555556,6 L4.89527314,6 C5.26875353,6 5.61110823,5.79187607 5.78302767,5.46031716 L6.21924105,4.61904851 C6.73499935,3.62437178 7.76206347,3 8.88250464,3 L11.1174954,3 Z M11.1174954,5 L8.88250464,5 C8.50902425,5 8.16666954,5.20812393 7.99475011,5.53968284 L7.55853673,6.38095149 C7.04277843,7.37562822 6.0157143,8 4.89527314,8 L4.55555556,8 C4.24873069,8 4,8.24873069 4,8.55555556 L4,14 C4,14.5522847 4.44771525,15 5,15 L15,15 C15.5522847,15 16,14.5522847 16,14 L16,8.55555556 C16,8.24873069 15.7512693,8 15.4444444,8 L15.1047269,8 C13.9842857,8 12.9572216,7.37562822 12.4414633,6.38095149 L12.0052499,5.53968284 C11.8333305,5.20812393 11.4909757,5 11.1174954,5 Z M10,8 C11.6568542,8 13,9.34314575 13,11 C13,12.6568542 11.6568542,14 10,14 C8.34314575,14 7,12.6568542 7,11 C7,9.34314575 8.34314575,8 10,8 Z"/>
</svg>
