<svg xmlns="http://www.w3.org/2000/svg" width="20" height="20" viewBox="0 0 20 20">
  <path fill-rule="evenodd" d="M16.3553686,6.99061411 C16.3655249,7.12185784 16.3655249,7.25313043 16.3655249,7.38437417 C16.3655249,11.3874812 13.0660432,16 7.03555092,16 C5.17766866,16 3.45178692,15.5031034 2,14.6406404 C2.26396978,14.6687476 2.51775202,14.6781263 2.7918781,14.6781263 C4.32485283,14.6781263 5.73604584,14.2000159 6.8629565,13.3843886 C5.42132586,13.3562525 4.21319614,12.4843821 3.79694452,11.2843734 C4,11.3124806 4.20303986,11.3312379 4.41625944,11.3312379 C4.71066684,11.3312379 5.00510549,11.2937232 5.27920031,11.2281302 C3.77666319,10.9468565 2.64972129,9.72811945 2.64972129,8.25624464 L2.64972129,8.21875879 C3.08625424,8.44376042 3.59391248,8.5843828 4.13194582,8.60311135 C3.24869238,8.05935018 2.67003386,7.13123651 2.67003386,6.08122894 C2.67003386,5.51873931 2.83244075,5.0031142 3.11672311,4.55311095 C4.73094817,6.39060978 7.1573639,7.59058959 9.87815576,7.72186218 C9.8274056,7.49686055 9.79693672,7.26250911 9.79693672,7.02812881 C9.79693672,5.35935956 11.2588799,4 13.076137,4 C14.020297,4 14.8730815,4.36562403 15.4720838,4.95624969 C16.2131806,4.82500595 16.9238395,4.5718683 17.5533107,4.22500162 C17.3096223,4.92814252 16.7918703,5.51876817 16.1116802,5.89374202 C16.771589,5.82814901 17.4111852,5.65936172 18,5.42501028 C17.5533733,6.02498575 16.9949648,6.55933936 16.3553686,6.99061411 Z"/>
</svg>
