<svg xmlns="http://www.w3.org/2000/svg" width="20" height="20" viewBox="0 0 20 20">
  <path fill-rule="evenodd" d="M11,2 C11.2652165,2 11.5195704,2.10535684 11.7071068,2.29289322 L15.7071068,6.29289322 C15.8946432,6.4804296 16,6.73478351 16,7 C16,7.55228475 15.5522847,8 15,8 L11,8 C10.4871642,8 10.0644928,7.61395981 10.0067277,7.11662113 L10,7 L9.999,4 L7,4 C6.44771525,4 6,4.44771525 6,5 L6,15 C6,15.5128358 6.38604019,15.9355072 6.88337887,15.9932723 L7,16 C7.55228475,16 8,16.4477153 8,17 C8,17.5128358 7.61395981,17.9355072 7.11662113,17.9932723 L7,18 C5.34314575,18 4,16.6568542 4,15 L4,5 C4,3.34314575 5.34314575,2 7,2 L11,2 Z M11.7071068,10.2928932 L14,12.585 L16.2928932,10.2928932 C16.6533772,9.93240926 17.2206082,9.90467972 17.6128994,10.2097046 L17.7071068,10.2928932 C18.0675907,10.6533772 18.0953203,11.2206082 17.7902954,11.6128994 L17.7071068,11.7071068 L15.415,14 L17.7071068,16.2928932 C18.0976311,16.6834175 18.0976311,17.3165825 17.7071068,17.7071068 C17.3165825,18.0976311 16.6834175,18.0976311 16.2928932,17.7071068 L14,15.415 L11.7071068,17.7071068 C11.3466228,18.0675907 10.7793918,18.0953203 10.3871006,17.7902954 L10.2928932,17.7071068 C9.93240926,17.3466228 9.90467972,16.7793918 10.2097046,16.3871006 L10.2928932,16.2928932 L12.585,14 L10.2928932,11.7071068 C9.90236893,11.3165825 9.90236893,10.6834175 10.2928932,10.2928932 C10.6834175,9.90236893 11.3165825,9.90236893 11.7071068,10.2928932 Z"/>
</svg>
