<svg xmlns="http://www.w3.org/2000/svg" width="20" height="20" viewBox="0 0 20 20">
  <path fill-rule="evenodd" d="M3,2 L8,2 C9.30625206,2 10.4175144,2.8348501 10.8293257,4.00008893 L15,4 C16.5976809,4 17.9036609,5.24891996 17.9949073,6.82372721 L18,7 L18,13 C18,14.5976809 16.75108,15.9036609 15.1762728,15.9949073 L15,16 L12,16 C10.6941178,16 9.58311485,15.1656226 9.17102423,14.0009007 L4,14 L4,17 C4,17.5522847 3.55228475,18 3,18 C2.44771525,18 2,17.5522847 2,17 L2,3 C2,2.44771525 2.44771525,2 3,2 Z M11,6 L11,13 C11,13.5128358 11.3860402,13.9355072 11.8833789,13.9932723 L12,14 L15,14 C15.5128358,14 15.9355072,13.6139598 15.9932723,13.1166211 L16,13 L16,7 C16,6.48716416 15.6139598,6.06449284 15.1166211,6.00672773 L15,6 L11,6 Z M8,4 L4,4 L4,12 L9,12 L9,5 C9,4.48716416 8.61395981,4.06449284 8.11662113,4.00672773 L8,4 Z"/>
</svg>
