<svg xmlns="http://www.w3.org/2000/svg" width="20" height="20" viewBox="0 0 20 20">
  <path d="M10.6128994,2.20970461 L10.7071068,2.29289322 L12.415,4 L15,4 C15.5128358,4 15.9355072,4.38604019 15.9932723,4.88337887 L16,5 L16,7.585 L17.7071068,9.29289322 C18.0675907,9.65337718 18.0953203,10.2206082 17.7902954,10.6128994 L17.7071068,10.7071068 L16,12.414 L16,15 C16,15.5128358 15.6139598,15.9355072 15.1166211,15.9932723 L15,16 L12.414,16 L10.7071068,17.7071068 C10.3466228,18.0675907 9.77939176,18.0953203 9.38710056,17.7902954 L9.29289322,17.7071068 L7.585,16 L5,16 C4.48716416,16 4.06449284,15.6139598 4.00672773,15.1166211 L4,15 L4,12.415 L2.29289322,10.7071068 C1.93240926,10.3466228 1.90467972,9.77939176 2.20970461,9.38710056 L2.29289322,9.29289322 L4,7.584 L4,5 C4,4.48716416 4.38604019,4.06449284 4.88337887,4.00672773 L5,4 L7.584,4 L9.29289322,2.29289322 C9.65337718,1.93240926 10.2206082,1.90467972 10.6128994,2.20970461 Z M10.8614004,5.49092537 C10.481362,4.83635821 9.51863796,4.83635821 9.13859963,5.49092537 L9.08085497,5.6060807 L6.08085497,12.6060807 L6.04109942,12.7159226 C5.90926853,13.1588898 6.10058077,13.6371704 6.50153916,13.867022 L6.6060807,13.919145 L6.71592261,13.9589006 C7.15888985,14.0907315 7.63717043,13.8994192 7.86702196,13.4984608 L7.91914503,13.3939193 L8.08674358,13 L11.9127436,13 L12.080855,13.3939193 L12.132978,13.4984608 C12.3819839,13.9328324 12.9225488,14.121161 13.3939193,13.919145 C13.8652898,13.7171291 14.1017174,13.1958038 13.9589006,12.7159226 L13.919145,12.6060807 L10.919145,5.6060807 L10.8614004,5.49092537 Z M10,8.538 L11.0547436,11 L8.94474358,11 L10,8.538 Z"/>
</svg>
