<svg xmlns="http://www.w3.org/2000/svg" width="20" height="20" viewBox="0 0 20 20">
  <path fill-rule="evenodd" d="M15,4 C16.6568542,4 18,5.34314575 18,7 L18,13 C18,14.6568542 16.6568542,16 15,16 L5,16 C3.34314575,16 2,14.6568542 2,13 L2,7 C2,5.34314575 3.34314575,4 5,4 L15,4 Z M15,6 L5,6 C4.44771525,6 4,6.44771525 4,7 L4,13 C4,13.5522847 4.44771525,14 5,14 L15,14 C15.5522847,14 16,13.5522847 16,13 L16,7 C16,6.44771525 15.5522847,6 15,6 Z M10,11 C10.5522847,11 11,11.4477153 11,12 C11,12.5522847 10.5522847,13 10,13 C9.44771525,13 9,12.5522847 9,12 C9,11.4477153 9.44771525,11 10,11 Z"/>
</svg>
