<svg xmlns="http://www.w3.org/2000/svg" width="20" height="20" viewBox="0 0 20 20">
  <path fill-rule="evenodd" d="M17,9 C17.5522847,9 18,9.44771525 18,10 C18,10.5522847 17.5522847,11 17,11 L15,11 L15,15 C15,15.5522847 14.5522847,16 14,16 C13.4477153,16 13,15.5522847 13,15 L13,11 L11,11 C10.4477153,11 10,10.5522847 10,10 C10,9.44771525 10.4477153,9 11,9 L17,9 Z M13,4 C13.5522847,4 14,4.44771525 14,5 C14,5.55228475 13.5522847,6 13,6 L9,6 L9,15 C9,15.5522847 8.55228475,16 8,16 C7.44771525,16 7,15.5522847 7,15 L7,6 L3,6 C2.44771525,6 2,5.55228475 2,5 C2,4.44771525 2.44771525,4 3,4 L13,4 Z"/>
</svg>
