<svg xmlns="http://www.w3.org/2000/svg" width="20" height="20" viewBox="0 0 20 20">
  <path fill-rule="evenodd" d="M16.6633689,2 C17.4015699,2 18,2.59801748 18,3.33663106 L18,16.6633689 C18,17.4015699 17.4019825,18 16.6633689,18 L3.33663106,18 C2.59843011,18 2,17.4019825 2,16.6633689 L2,3.33663106 C2,2.59843011 2.59801748,2 3.33663106,2 L16.6633689,2 Z M12.815,8 C11.6878125,8 10.9139453,8.49453125 10.5642603,9.07215576 L10.5,9.18866667 L10.5,8.1 L8.33333333,8.1 L8.33333333,15.7666667 L10.6666667,15.7666667 L10.6666667,12.053 C10.6666667,10.8083333 11.125,10.0166667 12.2266667,10.0166667 C12.979193,10.0166667 13.299121,10.6757359 13.330713,11.8521628 L13.3333333,12.053 L13.3333333,15.7666667 L15.6666667,15.7666667 L15.6666667,11.5323333 C15.6666667,9.246 15.1196667,8 12.815,8 Z M6.66666667,8 L4.33333333,8 L4.33333333,15.6666667 L6.66666667,15.6666667 L6.66666667,8 Z M5.5,4 C4.67166667,4 4,4.67166667 4,5.5 C4,6.32833333 4.67166667,7 5.5,7 C6.32833333,7 7,6.32833333 7,5.5 C7,4.67166667 6.32833333,4 5.5,4 Z"/>
</svg>
