<svg xmlns="http://www.w3.org/2000/svg" width="20" height="20" viewBox="0 0 20 20">
  <path fill-rule="evenodd" d="M10,5 L10,15 C10,15.8240453 9.05923625,16.2944272 8.4,15.8 L4.66666667,13 L3,13 C2.44771525,13 2,12.5522847 2,12 L2,8 C2,7.44771525 2.44771525,7 3,7 L4.66666667,7 L8.4,4.2 C9.05923625,3.70557281 10,4.17595468 10,5 Z M13.7071068,7.29289322 L15,8.585 L16.2928932,7.29289322 C16.6533772,6.93240926 17.2206082,6.90467972 17.6128994,7.20970461 L17.7071068,7.29289322 C18.0675907,7.65337718 18.0953203,8.22060824 17.7902954,8.61289944 L17.7071068,8.70710678 L16.415,10 L17.7071068,11.2928932 C18.0976311,11.6834175 18.0976311,12.3165825 17.7071068,12.7071068 C17.3165825,13.0976311 16.6834175,13.0976311 16.2928932,12.7071068 L15,11.415 L13.7071068,12.7071068 C13.3466228,13.0675907 12.7793918,13.0953203 12.3871006,12.7902954 L12.2928932,12.7071068 C11.9324093,12.3466228 11.9046797,11.7793918 12.2097046,11.3871006 L12.2928932,11.2928932 L13.585,10 L12.2928932,8.70710678 C11.9023689,8.31658249 11.9023689,7.68341751 12.2928932,7.29289322 C12.6834175,6.90236893 13.3165825,6.90236893 13.7071068,7.29289322 Z M8,7 L5.6,8.8 C5.42690383,8.92982213 5.21637021,9 5,9 L4,9 L4,11 L5,11 C5.21637021,11 5.42690383,11.0701779 5.6,11.2 L8,13 L8,7 Z"/>
</svg>
