<svg xmlns="http://www.w3.org/2000/svg" width="20" height="20" viewBox="0 0 20 20">
  <path fill-rule="evenodd" d="M10,17 L3.4776,10.9651643 C2.5248,10.0839337 2,8.91025575 2,7.66035488 C2,6.410454 2.5248,5.23677608 3.4776,4.35476762 C5.2536,2.71130742 8.0416,2.56352822 10,3.90909668 C11.9584,2.56352822 14.7464,2.71130742 16.5224,4.35476762 C17.4752,5.23677608 18,6.410454 18,7.66035488 C18,8.91025575 17.4752,10.0839337 16.5224,10.9651643 L10,17 Z M15.1644068,9.49688149 C15.7122431,8.99019577 16,8.34661033 16,7.66035488 C16,6.97401158 15.7121435,6.33009141 15.164022,5.82269446 C14.0968452,4.83515921 12.3463176,4.72357959 11.1325823,5.55750721 L10,6.33567666 L8.86741768,5.55750721 C7.65368244,4.72357959 5.9031548,4.83515921 4.83623877,5.82245311 C4.28785653,6.33009141 4,6.97401158 4,7.66035488 C4,8.34661033 4.28775686,8.99019577 4.83587992,9.49714675 L10,14.275237 L15.1644068,9.49688149 Z"/>
</svg>
