<svg xmlns="http://www.w3.org/2000/svg" width="20" height="20" viewBox="0 0 20 20">
  <path fill-rule="evenodd" d="M12,2 C14.7614237,2 17,4.23857625 17,7 C17,9.6887547 14.8776933,11.8818181 12.2168896,11.9953805 L12,12 L8,12 L8,13 L10,13 C10.5522847,13 11,13.4477153 11,14 C11,14.5522847 10.5522847,15 10,15 L8,15 L8,17 C8,17.5522847 7.55228475,18 7,18 C6.44771525,18 6,17.5522847 6,17 L6,15 L4,15 C3.44771525,15 3,14.5522847 3,14 C3,13.4477153 3.44771525,13 4,13 L6,13 L6,12 L4,12 C3.44771525,12 3,11.5522847 3,11 C3,10.4871642 3.38604019,10.0644928 3.88337887,10.0067277 L4,10 L6,10 L6,3 C6,2.44771525 6.44771525,2 7,2 L12,2 Z M12,4 L8,4 L8,10 L12,10 C13.6568542,10 15,8.65685425 15,7 C15,5.40231912 13.75108,4.09633912 12.1762728,4.00509269 L12,4 Z"/>
</svg>
