<svg xmlns="http://www.w3.org/2000/svg" width="20" height="20" viewBox="0 0 20 20">
  <path fill-rule="evenodd" d="M16.0067277,7.11662113 L16,7 C16,6.44771525 15.5522847,6 15,6 L5,6 C4.44771525,6 4,6.44771525 4,7 L4,8 L7,8 C7.55228475,8 8,8.44771525 8,9 C8,9.55228475 7.55228475,10 7,10 L4,10 L4,15 C4,15.5522847 4.44771525,16 5,16 L7,16 C7.55228475,16 8,16.4477153 8,17 C8,17.5522847 7.55228475,18 7,18 L5,18 C3.34314575,18 2,16.6568542 2,15 L2,7 C2,5.34314575 3.34314575,4 5,4 L5,3 C5,2.44771525 5.44771525,2 6,2 C6.55228475,2 7,2.44771525 7,3 L7,4 L13,4 L13,3 C13,2.44771525 13.4477153,2 14,2 C14.5522847,2 15,2.44771525 15,3 L15,4 C16.6568542,4 18,5.34314575 18,7 C18,7.55228475 17.5522847,8 17,8 C16.4871642,8 16.0644928,7.61395981 16.0067277,7.11662113 L16.0067277,7.11662113 Z M14.2928932,10.2928932 C14.6533772,9.93240926 15.2206082,9.90467972 15.6128994,10.2097046 L15.7071068,10.2928932 L17.7071068,12.2928932 C18.0675907,12.6533772 18.0953203,13.2206082 17.7902954,13.6128994 L17.7071068,13.7071068 L13.7071068,17.7071068 C13.5508265,17.8633871 13.3481451,17.9625983 13.131444,17.9913276 L13,18 L11,18 C10.4871642,18 10.0644928,17.6139598 10.0067277,17.1166211 L10,17 L10,15 C10,14.7789863 10.0731645,14.565516 10.2060806,14.3919705 L10.2928932,14.2928932 L14.2928932,10.2928932 Z"/>
</svg>
