<svg xmlns="http://www.w3.org/2000/svg" width="20" height="20" viewBox="0 0 20 20">
  <path d="M10,2 C11.5153883,2 12.7797074,3.12716223 12.9759792,4.63801992 L12.9938396,4.81401014 L12.9993253,4.96327248 C13.001882,5.03283696 12.9972822,5.10095466 12.9861952,5.16693131 C13.8288875,5.45901079 14.5006895,6.11757177 14.811812,6.95185993 C15.0862404,6.88746651 15.3396978,6.74608867 15.5428932,6.54289322 C15.7989887,6.28679773 15.9568895,5.95086328 15.9923632,5.59359191 L16,5.43933983 L16,5 L16.0067277,4.88337887 C16.0644928,4.38604019 16.4871642,4 17,4 C17.5128358,4 17.9355072,4.38604019 17.9932723,4.88337887 L18,5 L18,5.43933983 L17.9933783,5.6564885 C17.9405547,6.52161136 17.5734945,7.34071911 16.9571068,7.95710678 C16.4231935,8.49102005 15.7371799,8.83786357 15.0009093,8.95545242 L15,10 L17,10 C17.5522847,10 18,10.4477153 18,11 C18,11.5522847 17.5522847,12 17,12 L15,12 L14.9997984,13.0453707 L14.9997984,13.0453707 C15.7365601,13.1618231 16.4229524,13.5087388 16.9571068,14.0428932 C17.5734945,14.6592809 17.9405547,15.4783886 17.9933783,16.3435115 L18,16.5606602 L18,17 C18,17.5522847 17.5522847,18 17,18 C16.4871642,18 16.0644928,17.6139598 16.0067277,17.1166211 L16,17 L16,16.5606602 C16,16.1467474 15.8355738,15.7497873 15.5428932,15.4571068 C15.3233828,15.2375964 15.0452152,15.090229 14.7452313,15.0302647 L14.5811148,15.0064908 C13.8080798,16.7689281 12.047806,18 10,18 C7.95219397,18 6.19192019,16.7689281 5.41888516,15.0064908 L5.40640809,15.0076368 C5.04913672,15.0431105 4.71320227,15.2010113 4.45710678,15.4571068 C4.20101129,15.7132023 4.04311053,16.0491367 4.00763683,16.4064081 L4,16.5606602 L4,17 L3.99327227,17.1166211 C3.93550716,17.6139598 3.51283584,18 3,18 C2.48716416,18 2.06449284,17.6139598 2.00672773,17.1166211 L2,17 L2,16.5606602 L2.00662172,16.3435115 C2.05944527,15.4783886 2.42650554,14.6592809 3.04289322,14.0428932 C3.57728879,13.5084976 4.26405967,13.1615099 5.00108615,13.0442295 L5,12 L3,12 C2.44771525,12 2,11.5522847 2,11 C2,10.4477153 2.44771525,10 3,10 L5,10 L5.0000884,8.95561162 C4.26343987,8.83817685 3.57704764,8.4912612 3.04289322,7.95710678 C2.42650554,7.34071911 2.05944527,6.52161136 2.00662172,5.6564885 L2,5.43933983 L2,5 C2,4.44771525 2.44771525,4 3,4 C3.51283584,4 3.93550716,4.38604019 3.99327227,4.88337887 L4,5 L4,5.43933983 C4,5.85325264 4.16442622,6.25021266 4.45710678,6.54289322 C4.66030224,6.74608867 4.9137596,6.88746651 5.18825707,6.95492265 C5.49943256,6.11724448 6.17163965,5.45849411 7.01495267,5.16546542 C7.00469482,5.11201362 7,5.05655508 7,5 C7,3.34314575 8.34314575,2 10,2 Z M12,7 L8,7 C7.48716416,7 7.06449284,7.38604019 7.00672773,7.88337887 L7,8 L7,13 C7,14.6568542 8.34314575,16 10,16 C11.5976809,16 12.9036609,14.75108 12.9949073,13.1762728 L13,13 L13,8 C13,7.48716416 12.6139598,7.06449284 12.1166211,7.00672773 L12,7 Z"/>
</svg>
