<svg xmlns="http://www.w3.org/2000/svg" width="20" height="20" viewBox="0 0 20 20">
  <path d="M14,2 C14.5522847,2 15,2.44771525 15,3 C15,3.51283584 14.6139598,3.93550716 14.1166211,3.99327227 L14,4 L8.174,4 L12.7592566,9.34920863 C13.0534985,9.69249088 13.0780187,10.185438 12.8328171,10.5536644 L12.7592566,10.6507914 L8.173,16 L14,16 C14.5128358,16 14.9355072,16.3860402 14.9932723,16.8833789 L15,17 C15,17.5128358 14.6139598,17.9355072 14.1166211,17.9932723 L14,18 L6,18 C5.18279257,18 4.72556049,17.0831283 5.17393667,16.4357112 L5.2407434,16.3492086 L10.682,10 L5.2407434,3.65079137 C4.70891185,3.03032124 5.10749006,2.08647256 5.89084512,2.00557168 L6,2 L14,2 Z"/>
</svg>
