<svg xmlns="http://www.w3.org/2000/svg" width="20" height="20" viewBox="0 0 20 20">
  <path fill-rule="evenodd" d="M10,15.8482489 L16.5038611,12.1317569 C16.9833785,11.8577469 17.5942332,12.0243436 17.8682431,12.5038611 C18.122681,12.9491273 17.9972079,13.5076383 17.5940565,13.8045416 L17.4961389,13.8682431 L10.4961389,17.8682431 C10.2271354,18.0219595 9.90455343,18.041174 9.62215526,17.9258868 L9.50386106,17.8682431 L2.50386106,13.8682431 C2.02434362,13.5942332 1.85774689,12.9833785 2.13175686,12.5038611 C2.38619469,12.0585949 2.93107514,11.883143 3.39154556,12.0797379 L3.49613894,12.1317569 L10,15.8482489 L16.5038611,12.1317569 L10,15.8482489 Z M2.50386106,6.13175686 L9.50386106,2.13175686 C9.77286465,1.97804052 10.0954466,1.95882598 10.3778447,2.07411323 L10.4961389,2.13175686 L17.4961389,6.13175686 C18.1284352,6.49306899 18.1656291,7.37240807 17.6077206,7.79466455 L17.4961389,7.86824314 L10.4961389,11.8682431 C10.2271354,12.0219595 9.90455343,12.041174 9.62215526,11.9258868 L9.50386106,11.8682431 L2.50386106,7.86824314 C1.87156483,7.50693101 1.83437093,6.62759193 2.39227937,6.20533545 L2.50386106,6.13175686 L9.50386106,2.13175686 L2.50386106,6.13175686 Z M10,4.15175111 L5.01556444,7 L10,9.84824889 L14.9844356,7 L10,4.15175111 Z"/>
</svg>
