<svg xmlns="http://www.w3.org/2000/svg" width="20" height="20" viewBox="0 0 20 20">
  <path fill-rule="evenodd" d="M10,2 C10.5522847,2 11,2.44771525 11,3 L11.0008069,4.08309386 C13.5128044,4.50488047 15.495371,6.4875668 15.9169786,8.99962505 L17,9 C17.5522847,9 18,9.44771525 18,10 C18,10.5522847 17.5522847,11 17,11 L15.9169786,11.0003749 C15.495371,13.5124332 13.5128044,15.4951195 11.0008069,15.9169061 L11,17 C11,17.5522847 10.5522847,18 10,18 C9.44771525,18 9,17.5522847 9,17 L9.00019152,15.9170737 C6.48775905,15.4956512 4.50474513,13.5128262 4.08304057,11.0004894 L3,11 C2.44771525,11 2,10.5522847 2,10 C2,9.44771525 2.44771525,9 3,9 L4.08287175,9.00051689 C4.50421563,6.48770327 6.48742361,4.50440502 9.00019152,4.08292631 L9,3 C9,2.44771525 9.44771525,2 10,2 Z M10,6 C7.790861,6 6,7.790861 6,10 C6,12.209139 7.790861,14 10,14 C12.209139,14 14,12.209139 14,10 C14,7.790861 12.209139,6 10,6 Z M10,8 C11.1045695,8 12,8.8954305 12,10 C12,11.1045695 11.1045695,12 10,12 C8.8954305,12 8,11.1045695 8,10 C8,8.8954305 8.8954305,8 10,8 Z"/>
</svg>
