<svg xmlns="http://www.w3.org/2000/svg" width="20" height="20" viewBox="0 0 20 20">
  <path fill-rule="evenodd" d="M11.527864,2 C13.0429523,2 14.4280048,2.8560095 15.1055728,4.21114562 L17.3665631,7.73312629 C17.7831294,8.5662589 18,9.48493729 18,10.4164079 L18,16 C18,17.1045695 17.1045695,18 16,18 C14.8954305,18 14,17.1045695 14,16 L14,15 L6,15 L6,16 C6,17.1045695 5.1045695,18 4,18 C2.8954305,18 2,17.1045695 2,16 L2,10.4164079 C2,9.48493729 2.21687055,8.5662589 2.63343685,7.73312629 L4.89442719,4.21114562 C5.57199525,2.8560095 6.95704772,2 8.47213595,2 L11.527864,2 Z M15,11 L13,11 C12.4477153,11 12,11.4477153 12,12 C12,12.5128358 12.3860402,12.9355072 12.8833789,12.9932723 L13,13 L15,13 C15.5522847,13 16,12.5522847 16,12 C16,11.4871642 15.6139598,11.0644928 15.1166211,11.0067277 L15,11 Z M7,11 L5,11 C4.44771525,11 4,11.4477153 4,12 C4,12.5128358 4.38604019,12.9355072 4.88337887,12.9932723 L5,13 L7,13 C7.55228475,13 8,12.5522847 8,12 C8,11.4871642 7.61395981,11.0644928 7.11662113,11.0067277 L7,11 Z M11.763932,4 L8.23606798,4 C7.53263415,4 6.88526167,4.36904491 6.52511937,4.96426453 L6.4472136,5.10557281 L4,9 L16,9 L13.5527864,5.10557281 C13.2140024,4.42800475 12.5214761,4 11.763932,4 Z"/>
</svg>
