<svg xmlns="http://www.w3.org/2000/svg" width="20" height="20" viewBox="0 0 20 20">
  <path fill-rule="evenodd" d="M10,2 C14.418278,2 18,5.581722 18,10 C18,14.418278 14.418278,18 10,18 C5.581722,18 2,14.418278 2,10 C2,5.581722 5.581722,2 10,2 Z M14.8906459,6.52332235 L6.52332235,14.8906459 C7.50416765,15.589169 8.70410647,16 10,16 C13.3137085,16 16,13.3137085 16,10 C16,8.70410647 15.589169,7.50416765 14.8906459,6.52332235 Z M10,4 C6.6862915,4 4,6.6862915 4,10 C4,11.2958935 4.41083098,12.4958324 5.10935412,13.4766776 L13.4766776,5.10935412 C12.4958324,4.41083098 11.2958935,4 10,4 Z"/>
</svg>
