<svg xmlns="http://www.w3.org/2000/svg" width="20" height="20" viewBox="0 0 20 20">
  <path fill-rule="evenodd" d="M14.4700011,4.1520017 L6.47000106,9.1520017 C5.84333298,9.54366925 5.84333298,10.4563308 6.47000106,10.8479983 L14.4700011,15.8479983 C15.1360491,16.2642783 16,15.7854355 16,15 L16,5 C16,4.21456446 15.1360491,3.73572169 14.4700011,4.1520017 Z M5,4 C4.44771525,4 4,4.44771525 4,5 L4,15 C4,15.5522847 4.44771525,16 5,16 C5.55228475,16 6,15.5522847 6,15 L6,5 C6,4.44771525 5.55228475,4 5,4 Z M14,6.80424764 L14,13.1957524 L8.88679623,10 L14,6.80424764 Z"/>
</svg>
