<svg xmlns="http://www.w3.org/2000/svg" width="20" height="20" viewBox="0 0 20 20">
  <path fill-rule="evenodd" d="M4,2 C4.55228475,2 5,2.44771525 5,3 L5,17 C5,17.5522847 4.55228475,18 4,18 C3.44771525,18 3,17.5522847 3,17 L3,3 C3,2.44771525 3.44771525,2 4,2 Z M16,4 C16.5522847,4 17,4.44771525 17,5 L17,15 C17,15.5522847 16.5522847,16 16,16 C15.4477153,16 15,15.5522847 15,15 L15,5 C15,4.44771525 15.4477153,4 16,4 Z M8,5 C8.55228475,5 9,5.44771525 9,6 L9,14 C9,14.5522847 8.55228475,15 8,15 C7.44771525,15 7,14.5522847 7,14 L7,6 C7,5.44771525 7.44771525,5 8,5 Z M12,8 C12.5522847,8 13,8.44771525 13,9 L13,11 C13,11.5522847 12.5522847,12 12,12 C11.4477153,12 11,11.5522847 11,11 L11,9 C11,8.44771525 11.4477153,8 12,8 Z"/>
</svg>
