<svg xmlns="http://www.w3.org/2000/svg" width="20" height="20" viewBox="0 0 20 20">
  <path d="M15,3 C16.5976809,3 17.9036609,4.24891996 17.9949073,5.82372721 L18,6 L18,14 C18,15.5976809 16.75108,16.9036609 15.1762728,16.9949073 L15,17 L5,17 C3.40231912,17 2.09633912,15.75108 2.00509269,14.1762728 L2,14 L2,6 C2,4.40231912 3.24891996,3.09633912 4.82372721,3.00509269 L5,3 L15,3 Z M15,5 L5,5 C4.48716416,5 4.06449284,5.38604019 4.00672773,5.88337887 L4,6 L4,14 C4,14.5128358 4.38604019,14.9355072 4.88337887,14.9932723 L5,15 L15,15 C15.5128358,15 15.9355072,14.6139598 15.9932723,14.1166211 L16,14 L16,6 C16,5.48716416 15.6139598,5.06449284 15.1166211,5.00672773 L15,5 Z M14,10 C14.5128358,10 14.9355072,10.3860402 14.9932723,10.8833789 L15,11 L15,13 C15,13.5128358 14.6139598,13.9355072 14.1166211,13.9932723 L14,14 L12,14 C11.4477153,14 11,13.5522847 11,13 C11,12.4871642 11.3860402,12.0644928 11.8833789,12.0067277 L12,12 L13,12 L13,11 C13,10.4871642 13.3860402,10.0644928 13.8833789,10.0067277 L14,10 Z M8,6 C8.55228475,6 9,6.44771525 9,7 C9,7.51283584 8.61395981,7.93550716 8.11662113,7.99327227 L8,8 L7,8 L7,9 C7,9.51283584 6.61395981,9.93550716 6.11662113,9.99327227 L6,10 C5.48716416,10 5.06449284,9.61395981 5.00672773,9.11662113 L5,9 L5,7 C5,6.48716416 5.38604019,6.06449284 5.88337887,6.00672773 L6,6 L8,6 Z"/>
</svg>
