<svg xmlns="http://www.w3.org/2000/svg" width="20" height="20" viewBox="0 0 20 20">
  <path fill-rule="evenodd" d="M9,14 L5,14 C3.34314575,14 2,12.6568542 2,11 L2,5 C2,3.34314575 3.34314575,2 5,2 L15,2 C16.6568542,2 18,3.34314575 18,5 L18,11 C18,12.6568542 16.6568542,14 15,14 L11,14 L11,16 L13,16 C13.5522847,16 14,16.4477153 14,17 C14,17.5522847 13.5522847,18 13,18 L7,18 C6.44771525,18 6,17.5522847 6,17 C6,16.4477153 6.44771525,16 7,16 L9,16 L9,14 Z M15,4 L5,4 C4.44771525,4 4,4.44771525 4,5 L4,11 C4,11.5522847 4.44771525,12 5,12 L15,12 C15.5522847,12 16,11.5522847 16,11 L16,5 C16,4.44771525 15.5522847,4 15,4 Z"/>
</svg>
