<svg xmlns="http://www.w3.org/2000/svg" width="20" height="20" viewBox="0 0 20 20">
  <path fill-rule="evenodd" d="M17,4 C17.5522847,4 18,3.55228475 18,3 C18,2.44771525 17.5522847,2 17,2 L3,2 C2.44771525,2 2,2.44771525 2,3 C2,3.55228475 2.44771525,4 3,4 L17,4 Z M10,6 L9.918,6.004 L9.79927424,6.02024007 L9.68785748,6.04973809 L9.57677845,6.09367336 L9.47929125,6.14599545 L9.4048407,6.19631351 L9.29289322,6.29289322 L6.29289322,9.29289322 C5.90236893,9.68341751 5.90236893,10.3165825 6.29289322,10.7071068 C6.65337718,11.0675907 7.22060824,11.0953203 7.61289944,10.7902954 L7.70710678,10.7071068 L9,9.415 L9,17 C9,17.5522847 9.44771525,18 10,18 C10.5522847,18 11,17.5522847 11,17 L11,9.415 L12.2928932,10.7071068 C12.6533772,11.0675907 13.2206082,11.0953203 13.6128994,10.7902954 L13.7071068,10.7071068 C14.0675907,10.3466228 14.0953203,9.77939176 13.7902954,9.38710056 L13.7071068,9.29289322 L10.7071068,6.29289322 L10.663147,6.2514958 L10.5953066,6.19633458 L10.4840621,6.12467117 L10.4230991,6.09365378 L10.3416504,6.05988586 L10.265993,6.03584514 L10.1174742,6.00683422 L10,6 Z"/>
</svg>
