<svg xmlns="http://www.w3.org/2000/svg" width="20" height="20" viewBox="0 0 20 20">
  <path d="M12,2 C13.5976809,2 14.9036609,3.24891996 14.9949073,4.82372721 L15,5 L15,7 C15,7.27541264 14.8865388,7.53676152 14.6894833,7.7243131 L14.6,7.8 L11.667,10 L14.6,12.2 C14.8518058,12.3888544 15,12.6852427 15,13 L15,15 C15,16.6568542 13.6568542,18 12,18 L8,18 C6.34314575,18 5,16.6568542 5,15 L5,13 C5,12.6852427 5.14819416,12.3888544 5.4,12.2 L8.333,10 L5.4,7.8 C5.17966989,7.63475242 5.03866747,7.38717416 5.00685953,7.11699879 L5,7 L5,5 C5,3.40231912 6.24891996,2.09633912 7.82372721,2.00509269 L8,2 L12,2 Z M10,11.25 L7,13.5 L7,15 C7,15.5522847 7.44771525,16 8,16 L12,16 L12.1166211,15.9932723 C12.6139598,15.9355072 13,15.5128358 13,15 L13,13.5 L10,11.25 Z M12,4 L8,4 C7.48716416,4 7.06449284,4.38604019 7.00672773,4.88337887 L7,5 L7,6 L13,6 L13,5 C13,4.52661307 12.6710663,4.13005271 12.2292908,4.02641071 L12.1166211,4.00672773 L12,4 Z"/>
</svg>
