<svg xmlns="http://www.w3.org/2000/svg" width="20" height="20" viewBox="0 0 20 20">
  <path d="M4.00129021,16 C3.20272971,16 2.72631099,15.110122 3.16907476,14.4455476 L3.16907476,14.4455476 L3.22720117,14.3583017 C4.38323487,12.6231318 5.00026082,10.5848165 5.00064512,8.49981568 L5.00064512,8.49981568 L5.00558164,8.28797781 C5.10882965,6.06855497 6.81957206,4.26923356 9.00001049,4.02760224 L9,3 C9,2.44771525 9.44771525,2 10,2 C10.5522847,2 11,2.44771525 11,3 L11.0003241,4.02750023 C13.2501433,4.27636972 15,6.18383439 15,8.5 L15,8.5 L15.0063927,8.86733315 C15.0744973,10.8233002 15.6854093,12.724513 16.7742026,14.3566501 L16.7742026,14.3566501 L16.8331753,14.4450521 C17.2764845,15.1095871 16.8001204,16 16.0012902,16 L16.0012902,16 L12,16 C12,17.1045695 11.1045695,18 10,18 C8.8954305,18 8,17.1045695 8,16 Z M10.5,6 L9.50129027,6 C8.12040204,6 7.00089961,7.11929611 7.00064509,8.50018432 C7.00031502,10.2909505 6.61748063,12.0527574 5.88692162,13.6707122 L5.88692162,13.6707122 L5.731,14 L14.27,14 L14.1142338,13.6704725 C13.439289,12.1771881 13.0609898,10.5610654 13.0067837,8.91270837 L13.0067837,8.91270837 L13,8.5 C13,7.11928813 11.8807119,6 10.5,6 L10.5,6 Z"/>
</svg>
