<svg xmlns="http://www.w3.org/2000/svg" width="20" height="20" viewBox="0 0 20 20">
  <path fill-rule="evenodd" d="M15.6401844,2.23177872 C16.0318246,2.55814556 16.110795,3.12053661 15.8425391,3.53883241 L15.7682213,3.6401844 L10.9999749,9.36197493 L10.9999749,9.99997493 L13,10 C13.5522847,10 14,10.4477153 14,11 C14,11.5522847 13.5522847,12 13,12 L10.9999749,11.9999749 L10.9999749,12.9999749 L13,13 C13.5522847,13 14,13.4477153 14,14 C14,14.5522847 13.5522847,15 13,15 L10.9999749,14.9999749 L11,17 C11,17.5522847 10.5522847,18 10,18 C9.44771525,18 9,17.5522847 9,17 L8.99997493,14.9999749 L7,15 C6.44771525,15 6,14.5522847 6,14 C6,13.4477153 6.44771525,13 7,13 L8.99997493,12.9999749 L8.99997493,11.9999749 L7,12 C6.44771525,12 6,11.5522847 6,11 C6,10.4477153 6.44771525,10 7,10 L8.99997493,9.99997493 L8.99997493,9.36297493 L4.23177872,3.6401844 C3.87821464,3.2159075 3.9355387,2.5853428 4.3598156,2.23177872 C4.75145581,1.90541188 5.31886788,1.92915091 5.68193237,2.2684395 L5.76822128,2.3598156 L10,7.437 L14.2317787,2.3598156 C14.5853428,1.9355387 15.2159075,1.87821464 15.6401844,2.23177872 Z"/>
</svg>
