<svg xmlns="http://www.w3.org/2000/svg" width="20" height="20" viewBox="0 0 20 20">
  <path fill-rule="evenodd" d="M7,14 C8.1045695,14 9,14.8954305 9,16 C9,17.1045695 8.1045695,18 7,18 C5.8954305,18 5,17.1045695 5,16 C5,14.8954305 5.8954305,14 7,14 Z M13,14 C14.1045695,14 15,14.8954305 15,16 C15,17.1045695 14.1045695,18 13,18 C11.8954305,18 11,17.1045695 11,16 C11,14.8954305 11.8954305,14 13,14 Z M7,8 C8.1045695,8 9,8.8954305 9,10 C9,11.1045695 8.1045695,12 7,12 C5.8954305,12 5,11.1045695 5,10 C5,8.8954305 5.8954305,8 7,8 Z M13,8 C14.1045695,8 15,8.8954305 15,10 C15,11.1045695 14.1045695,12 13,12 C11.8954305,12 11,11.1045695 11,10 C11,8.8954305 11.8954305,8 13,8 Z M7,2 C8.1045695,2 9,2.8954305 9,4 C9,5.1045695 8.1045695,6 7,6 C5.8954305,6 5,5.1045695 5,4 C5,2.8954305 5.8954305,2 7,2 Z M13,2 C14.1045695,2 15,2.8954305 15,4 C15,5.1045695 14.1045695,6 13,6 C11.8954305,6 11,5.1045695 11,4 C11,2.8954305 11.8954305,2 13,2 Z"/>
</svg>
