<svg xmlns="http://www.w3.org/2000/svg" width="20" height="20" viewBox="0 0 20 20">
  <path fill-rule="evenodd" d="M13.707,12.293 C14.098,12.684 14.098,13.316 13.707,13.707 C13.512,13.902 13.256,14 13,14 C12.744,14 12.488,13.902 12.293,13.707 L10,11.414 L7.707,13.707 C7.512,13.902 7.256,14 7,14 C6.744,14 6.488,13.902 6.293,13.707 C5.902,13.316 5.902,12.684 6.293,12.293 L8.586,10 L6.293,7.707 C5.902,7.316 5.902,6.684 6.293,6.293 C6.684,5.902 7.316,5.902 7.707,6.293 L10,8.586 L12.293,6.293 C12.684,5.902 13.316,5.902 13.707,6.293 C14.098,6.684 14.098,7.316 13.707,7.707 L11.414,10 L13.707,12.293 Z M10,2 C5.582,2 2,5.582 2,10 C2,14.418 5.582,18 10,18 C14.418,18 18,14.418 18,10 C18,5.582 14.418,2 10,2 L10,2 Z"/>
</svg>
