<svg xmlns="http://www.w3.org/2000/svg" width="20" height="20" viewBox="0 0 20 20">
  <path fill-rule="evenodd" d="M10.9427359,2.22306616 C11.3507958,2.4270961 11.6816728,2.75797313 11.8857027,3.166033 L17.7769338,14.9484952 C18.29772,15.9900676 17.8755394,17.2566095 16.833967,17.7773957 C16.5411851,17.9237867 16.2183403,18 15.8910002,18 L4.10853794,18 C2.94402459,18 2,17.0559754 2,15.8914621 C2,15.5641219 2.0762133,15.2412772 2.22260427,14.9484952 L8.11383539,3.166033 C8.63462159,2.12446059 9.90116349,1.70227996 10.9427359,2.22306616 Z M10,14 C9.44771525,14 9,14.4477153 9,15 C9,15.5522847 9.44771525,16 10,16 C10.5522847,16 11,15.5522847 11,15 C11,14.4477153 10.5522847,14 10,14 Z M10,6 C9.48716416,6 9.06449284,6.38604019 9.00672773,6.88337887 L9,7 L9,11 C9,11.5522847 9.44771525,12 10,12 C10.5128358,12 10.9355072,11.6139598 10.9932723,11.1166211 L11,11 L11,7 C11,6.44771525 10.5522847,6 10,6 Z"/>
</svg>
