<svg xmlns="http://www.w3.org/2000/svg" width="20" height="20" viewBox="0 0 20 20">
  <path fill-rule="evenodd" d="M17.2,2 C16.6877686,2 16.1965169,2.20348313 15.8343146,2.56568542 L13.5202856,4.87971435 C13.3215814,5.07841863 13.0331917,5.15829793 12.7605717,5.09014293 L3.6,2.8 L2.7848466,3.6151534 C2.47242717,3.92757283 2.47242717,4.43410481 2.7848466,4.74652425 C2.84564766,4.8073253 2.91585322,4.85792661 2.99276115,4.89638058 L10,8.4 L6.8,11.6 L3.29442719,11.6 C2.99140954,11.6 2.71439905,11.7712019 2.57888544,12.0422291 L2,13.2 L2,13.2 L5.2,14.8 L5.2,14.8 L6.8,18 L7.95777088,17.4211146 C8.2287981,17.285601 8.4,17.0085905 8.4,16.7055728 L8.4,13.2 L11.6,10 L15.1036194,17.0072388 C15.3012108,17.4024216 15.7817493,17.5626011 16.1769321,17.3650097 C16.25384,17.3265558 16.3240455,17.2759545 16.3848466,17.2151534 L17.2,16.4 L14.9098571,7.23942828 C14.8417021,6.96680826 14.9215814,6.67841863 15.1202856,6.47971435 L17.4343146,4.16568542 C17.7965169,3.80348313 18,3.3122314 18,2.8 C18,2.3581722 17.6418278,2 17.2,2 Z"/>
</svg>
