<svg xmlns="http://www.w3.org/2000/svg" width="20" height="20" viewBox="0 0 20 20">
  <path fill-rule="evenodd" d="M11,2 C13.209139,2 15,3.790861 15,6 C15,6.55228475 14.5522847,7 14,7 C13.4871642,7 13.0644928,6.61395981 13.0067277,6.11662113 L13,6 C13,4.8954305 12.1045695,4 11,4 C9.9456382,4 9.08183488,4.81587779 9.00548574,5.85073766 L9,6 L9,11 L12,11 C12.5128358,11 12.9355072,11.3860402 12.9932723,11.8833789 L13,12 C13,12.5128358 12.6139598,12.9355072 12.1166211,12.9932723 L12,13 L9,13 L9,16 L15,16 C15.5522847,16 16,16.4477153 16,17 C16,17.5522847 15.5522847,18 15,18 L5,18 C4.44771525,18 4,17.5522847 4,17 C4,16.4477153 4.44771525,16 5,16 L7,16 L7,13 L6,13 C5.48716416,13 5.06449284,12.6139598 5.00672773,12.1166211 L5,12 C5,11.4871642 5.38604019,11.0644928 5.88337887,11.0067277 L6,11 L7,11 L7,6 C7,3.790861 8.790861,2 11,2 Z"/>
</svg>
