<svg xmlns="http://www.w3.org/2000/svg" width="20" height="20" viewBox="0 0 20 20">
  <path d="M17,12 C17.5128358,12 17.9355072,12.3860402 17.9932723,12.8833789 L18,13 L18,17 C18,17.5128358 17.6139598,17.9355072 17.1166211,17.9932723 L17,18 L13,18 C12.4477153,18 12,17.5522847 12,17 C12,16.4871642 12.3860402,16.0644928 12.8833789,16.0067277 L13,16 L16,16 L16,13 C16,12.4871642 16.3860402,12.0644928 16.8833789,12.0067277 L17,12 Z M3,12 L3.11662113,12.0067277 C3.57570299,12.0600494 3.93995063,12.424297 3.99327227,12.8833789 L4,13 L4,16 L7,16 L7.11662113,16.0067277 C7.61395981,16.0644928 8,16.4871642 8,17 C8,17.5128358 7.61395981,17.9355072 7.11662113,17.9932723 L7,18 L3,18 L2.88337887,17.9932723 C2.42429701,17.9399506 2.06004937,17.575703 2.00672773,17.1166211 L2,17 L2,13 L2.00672773,12.8833789 C2.06004937,12.424297 2.42429701,12.0600494 2.88337887,12.0067277 L3,12 Z M7,2 C7.55228475,2 8,2.44771525 8,3 C8,3.51283584 7.61395981,3.93550716 7.11662113,3.99327227 L7,4 L4,4 L4,7 C4,7.51283584 3.61395981,7.93550716 3.11662113,7.99327227 L3,8 C2.48716416,8 2.06449284,7.61395981 2.00672773,7.11662113 L2,7 L2,3 C2,2.48716416 2.38604019,2.06449284 2.88337887,2.00672773 L3,2 L7,2 Z M17,2 L17.1166211,2.00672773 C17.575703,2.06004937 17.9399506,2.42429701 17.9932723,2.88337887 L18,3 L18,7 L17.9932723,7.11662113 C17.9399506,7.57570299 17.575703,7.93995063 17.1166211,7.99327227 L17,8 L16.8833789,7.99327227 C16.424297,7.93995063 16.0600494,7.57570299 16.0067277,7.11662113 L16,7 L16,4 L13,4 L12.8833789,3.99327227 C12.3860402,3.93550716 12,3.51283584 12,3 C12,2.48716416 12.3860402,2.06449284 12.8833789,2.00672773 L13,2 L17,2 Z"/>
</svg>
