<svg xmlns="http://www.w3.org/2000/svg" width="20" height="20" viewBox="0 0 20 20">
  <path d="M14.9150783,13.5960574 L14.9531523,13.6961854 L14.9531523,13.6961854 L14.9752006,13.7774377 L14.9752006,13.7774377 L14.9942487,13.8918402 L14.9942487,13.8918402 L14.999515,14.0313642 L14.999515,14.0313642 L14.9880199,14.1545268 L14.9880199,14.1545268 L14.9573182,14.2897028 L14.9573182,14.2897028 L14.9293371,14.3700811 L14.9293371,14.3700811 L14.8754082,14.4843033 L14.8754082,14.4843033 L14.8309804,14.5570611 L14.8309804,14.5570611 L14.7573703,14.6534239 L14.7573703,14.6534239 L14.6915378,14.7225396 L14.6,14.8 L10.6,17.8 C9.97072903,18.2719532 9.08494231,17.8648139 9.00571639,17.1101203 L9,17 L8.999,12.4141844 L6.70710678,14.7071068 C6.31658249,15.0976311 5.68341751,15.0976311 5.29289322,14.7071068 C4.93240926,14.3466228 4.90467972,13.7793918 5.20970461,13.3871006 L5.29289322,13.2928932 L8.585,9.99918442 L5.29289322,6.70710678 C4.90236893,6.31658249 4.90236893,5.68341751 5.29289322,5.29289322 C5.65337718,4.93240926 6.22060824,4.90467972 6.61289944,5.20970461 L6.70710678,5.29289322 L8.999,7.58418442 L9,3 C9,2.21341129 9.8571835,1.74906551 10.5084739,2.13850094 L10.6,2.2 L14.6305521,5.22376818 L14.6305521,5.22376818 L14.7071068,5.29289322 L14.7071068,5.29289322 L14.761323,5.35154797 L14.761323,5.35154797 L14.8322477,5.44484243 L14.8322477,5.44484243 L14.8897751,5.54272705 L14.8897751,5.54272705 L14.9311354,5.63463306 L14.9311354,5.63463306 L14.9570804,5.70950239 L14.9570804,5.70950239 L14.9880676,5.84553204 L14.9880676,5.84553204 L14.9981656,5.93932342 L14.9981656,5.93932342 L14.9989507,6.04599777 L14.9989507,6.04599777 L14.9943387,6.10738177 L14.9943387,6.10738177 L14.9744781,6.22573947 L14.9744781,6.22573947 L14.9541614,6.29997632 L14.9541614,6.29997632 L14.9344493,6.35734534 L14.9344493,6.35734534 L14.9004416,6.43565617 L14.9004416,6.43565617 L14.8354828,6.55006372 L14.8354828,6.55006372 L14.7902954,6.61289944 L14.7902954,6.61289944 L14.7071068,6.70710678 L11.414,9.99918442 L14.7071068,13.2928932 L14.7727479,13.3651739 L14.7727479,13.3651739 L14.8421075,13.460116 L14.8421075,13.460116 L14.8596192,13.4885971 C14.8804164,13.5234968 14.8989027,13.5593906 14.9150783,13.5960574 Z M11,12.415 L11,15 L12.477,13.892 L11,12.415 Z M11,5 L11,7.584 L12.477,6.107 L11,5 Z"/>
</svg>
