<svg xmlns="http://www.w3.org/2000/svg" width="20" height="20" viewBox="0 0 20 20">
  <path fill-rule="evenodd" d="M15,2 C16.6568542,2 18,3.34314575 18,5 L18,15 C18,16.6568542 16.6568542,18 15,18 L5,18 C3.34314575,18 2,16.6568542 2,15 L2,5 C2,3.34314575 3.34314575,2 5,2 L15,2 Z M4,14 L4,15 C4,15.5522847 4.44771525,16 5,16 L6,16 L6,14 L4,14 Z M12,11 L8,11 L8,16 L12,16 L12,11 Z M16,14 L14,14 L14,16 L15,16 C15.5522847,16 16,15.5522847 16,15 L16,14 Z M16,8 L14,8 L14,12 L16,12 L16,8 Z M12,4 L8,4 L8,9 L12,9 L12,4 Z M15,4 L14,4 L14,6 L16,6 L16,5 C16,4.44771525 15.5522847,4 15,4 Z M6,4 L5,4 C4.44771525,4 4,4.44771525 4,5 L4,6 L6,6 L6,4 Z M4,12 L6,12 L6,8 L4,8 L4,12 Z"/>
</svg>
