<svg xmlns="http://www.w3.org/2000/svg" width="20" height="20" viewBox="0 0 20 20">
  <path fill-rule="evenodd" d="M15,2 C16.6568542,2 18,3.34314575 18,5 L18,15 C18,16.6568542 16.6568542,18 15,18 L5,18 C3.34314575,18 2,16.6568542 2,15 L2,5 C2,3.34314575 3.34314575,2 5,2 L15,2 Z M9,11 L4,11 L4,15 C4,15.5522847 4.44771525,16 5,16 L9,16 L9,11 Z M16,11 L11,11 L11,16 L15,16 C15.5522847,16 16,15.5522847 16,15 L16,11 Z M9,4 L5,4 C4.44771525,4 4,4.44771525 4,5 L4,9 L9,9 L9,4 Z M15,4 L11,4 L11,9 L16,9 L16,5 C16,4.44771525 15.5522847,4 15,4 Z"/>
</svg>
