<svg xmlns="http://www.w3.org/2000/svg" width="20" height="20" viewBox="0 0 20 20">
  <path fill-rule="evenodd" d="M18,10 C18,10.5522847 17.5522847,11 17,11 L5.415,11 L7.70710678,13.2928932 C8.06759074,13.6533772 8.09532028,14.2206082 7.79029539,14.6128994 L7.70710678,14.7071068 C7.34662282,15.0675907 6.77939176,15.0953203 6.38710056,14.7902954 L6.29289322,14.7071068 L2.29289322,10.7071068 L2.2514958,10.663147 L2.2514958,10.663147 L2.19633458,10.5953066 L2.19633458,10.5953066 L2.12467117,10.4840621 L2.12467117,10.4840621 L2.07122549,10.371336 L2.07122549,10.371336 L2.03584514,10.265993 L2.03584514,10.265993 L2.00683422,10.1174742 L2.00683422,10.1174742 L2,10 L2,10 L2.00278786,9.92476146 L2.00278786,9.92476146 L2.02024007,9.79927424 L2.02024007,9.79927424 L2.04973809,9.68785748 L2.04973809,9.68785748 L2.09367336,9.57677845 L2.09367336,9.57677845 L2.14599545,9.47929125 L2.14599545,9.47929125 L2.21278596,9.38324992 C2.23766884,9.35153408 2.26442691,9.32135953 2.29289322,9.29289322 L6.29289322,5.29289322 C6.68341751,4.90236893 7.31658249,4.90236893 7.70710678,5.29289322 C8.06759074,5.65337718 8.09532028,6.22060824 7.79029539,6.61289944 L7.70710678,6.70710678 L5.415,9 L17,9 C17.5522847,9 18,9.44771525 18,10 Z"/>
</svg>
