<svg xmlns="http://www.w3.org/2000/svg" width="20" height="20" viewBox="0 0 20 20">
  <path d="M10,18 C14.418278,18 18,14.418278 18,10 C18,5.581722 14.418278,2 10,2 C5.581722,2 2,5.581722 2,10 C2,14.418278 5.581722,18 10,18 Z M10,16 C6.6862915,16 4,13.3137085 4,10 C4,6.6862915 6.6862915,4 10,4 C13.3137085,4 16,6.6862915 16,10 C16,13.3137085 13.3137085,16 10,16 Z M10,14 C10.5522847,14 11,13.5522847 11,13 L11,9.414 L11.2928932,9.70710678 C11.6233369,10.0375504 12.1275055,10.0883879 12.5114029,9.85961923 L12.6128994,9.79029539 L12.7071068,9.70710678 C13.0675907,9.34662282 13.0953203,8.77939176 12.7902954,8.38710056 L12.7071068,8.29289322 L10.7071068,6.29289322 L10.663147,6.2514958 L10.5953066,6.19633458 L10.4840621,6.12467117 L10.371336,6.07122549 L10.265993,6.03584514 L10.1180955,6.00690716 L10,6 L9.92476146,6.00278786 L9.79927424,6.02024007 L9.68785748,6.04973809 L9.57677845,6.09367336 L9.47929125,6.14599545 L9.37455101,6.21968877 L9.29289322,6.29289322 L7.29289322,8.29289322 C6.90236893,8.68341751 6.90236893,9.31658249 7.29289322,9.70710678 C7.65337718,10.0675907 8.22060824,10.0953203 8.61289944,9.79029539 L8.70710678,9.70710678 L9,9.416 L9,13 C9,13.5522847 9.44771525,14 10,14 Z"/>
</svg>
