<svg xmlns="http://www.w3.org/2000/svg" width="20" height="20" viewBox="0 0 20 20">
  <path fill-rule="evenodd" d="M11.5551819,2.58493566 L11.6684305,2.69108655 L17.3089134,8.33156947 C18.2303622,9.25301821 18.2303622,10.7469818 17.3089134,11.6684305 L11.6684305,17.3089134 C10.7469818,18.2303622 9.25301821,18.2303622 8.33156947,17.3089134 L2.69108655,11.6684305 C1.76963782,10.7469818 1.76963782,9.25301821 2.69108655,8.33156947 L8.33156947,2.69108655 C9.21616026,1.80649576 10.6283807,1.77111213 11.5551819,2.58493566 Z M11.7071068,7.29289322 L11.6128994,7.20970461 C11.2532992,6.93009846 10.7467008,6.93009846 10.3871006,7.20970461 L10.2928932,7.29289322 L10.2097046,7.38710056 C9.93009846,7.74670083 9.93009846,8.25329917 10.2097046,8.61289944 L10.2928932,8.70710678 L10.585,9 L7,9 L6.88337887,9.00672773 C6.42429701,9.06004937 6.06004937,9.42429701 6.00672773,9.88337887 L6,10 L6,12 L6.00672773,12.1166211 C6.06449284,12.6139598 6.48716416,13 7,13 C7.51283584,13 7.93550716,12.6139598 7.99327227,12.1166211 L8,12 L8,11 L10.584,11 L10.2928932,11.2928932 L10.2097046,11.3871006 C9.90467972,11.7793918 9.93240926,12.3466228 10.2928932,12.7071068 C10.6533772,13.0675907 11.2206082,13.0953203 11.6128994,12.7902954 L11.7071068,12.7071068 L13.7071068,10.7071068 L13.7902954,10.6128994 C14.0699015,10.2532992 14.0699015,9.74670083 13.7902954,9.38710056 L13.7071068,9.29289322 L11.7071068,7.29289322 L11.6128994,7.20970461 L11.7071068,7.29289322 Z"/>
</svg>
