<svg xmlns="http://www.w3.org/2000/svg" width="20" height="20" viewBox="0 0 20 20">
  <path d="M18,10 C18,5.581722 14.418278,2 10,2 C5.581722,2 2,5.581722 2,10 C2,14.418278 5.581722,18 10,18 C14.418278,18 18,14.418278 18,10 Z M16,10 C16,13.3137085 13.3137085,16 10,16 C6.6862915,16 4,13.3137085 4,10 C4,6.6862915 6.6862915,4 10,4 C13.3137085,4 16,6.6862915 16,10 Z M14,10 C14,9.44771525 13.5522847,9 13,9 L9.414,9 L9.70710678,8.70710678 C10.0375504,8.37666315 10.0883879,7.87249453 9.85961923,7.48859705 L9.79029539,7.38710056 L9.70710678,7.29289322 C9.34662282,6.93240926 8.77939176,6.90467972 8.38710056,7.20970461 L8.29289322,7.29289322 L6.29289322,9.29289322 L6.2514958,9.336853 L6.19633458,9.40469339 L6.12467117,9.5159379 L6.07122549,9.62866398 L6.03584514,9.73400703 L6.00690716,9.8819045 L6,10 L6.00278786,10.0752385 L6.02024007,10.2007258 L6.04973809,10.3121425 L6.09367336,10.4232215 L6.14599545,10.5207088 L6.21968877,10.625449 L6.29289322,10.7071068 L8.29289322,12.7071068 C8.68341751,13.0976311 9.31658249,13.0976311 9.70710678,12.7071068 C10.0675907,12.3466228 10.0953203,11.7793918 9.79029539,11.3871006 L9.70710678,11.2928932 L9.416,11 L13,11 C13.5522847,11 14,10.5522847 14,10 Z"/>
</svg>
