<svg xmlns="http://www.w3.org/2000/svg" width="20" height="20" viewBox="0 0 20 20">
  <path fill-rule="evenodd" d="M10,2 C14.418278,2 18,5.581722 18,10 C18,14.418278 14.418278,18 10,18 C5.581722,18 2,14.418278 2,10 C2,5.581722 5.581722,2 10,2 Z M14.4427413,6.70445669 C14.6793702,5.94508994 13.954405,5.22012472 13.1950382,5.45675359 L13.0913621,5.49506853 L8.14161461,7.61638888 L8.02778364,7.67402583 C7.88181813,7.76005105 7.76005105,7.88181813 7.67402583,8.02778364 L7.61638888,8.14161461 L5.49506853,13.0913621 L5.45675359,13.1950382 C5.22012472,13.954405 5.94508994,14.6793702 6.70445669,14.4427413 L6.80813286,14.4044264 L11.7578803,12.2831061 L11.8717113,12.2254691 C12.0176768,12.1394439 12.1394439,12.0176768 12.2254691,11.8717113 L12.2831061,11.7578803 L14.4044264,6.80813286 L14.4427413,6.70445669 Z M10,9 C10.5522847,9 11,9.44771525 11,10 C11,10.5522847 10.5522847,11 10,11 C9.44771525,11 9,10.5522847 9,10 C9,9.44771525 9.44771525,9 10,9 Z"/>
</svg>
