<svg xmlns="http://www.w3.org/2000/svg" width="20" height="20" viewBox="0 0 20 20">
  <path fill-rule="evenodd" d="M16,3 C16,2.44771525 16.4477153,2 17,2 C17.5522847,2 18,2.44771525 18,3 L18,17 C18,17.5522847 17.5522847,18 17,18 C16.4477153,18 16,17.5522847 16,17 L16,3 Z M7,10 C7,9.44771525 7.44771525,9 8,9 L9,9 L9,8 C9,7.44771525 9.44771525,7 10,7 C10.5522847,7 11,7.44771525 11,8 L11,9 L12,9 C12.5522847,9 13,9.44771525 13,10 C13,10.5522847 12.5522847,11 12,11 L11,11 L11,12 C11,12.5522847 10.5522847,13 10,13 C9.44771525,13 9,12.5522847 9,12 L9,11 L8,11 C7.44771525,11 7,10.5522847 7,10 Z M8,17 C8,16.4477153 8.44771525,16 9,16 L11,16 C11.5522847,16 12,16.4477153 12,17 C12,17.5522847 11.5522847,18 11,18 L9,18 C8.44771525,18 8,17.5522847 8,17 Z M8,3 C8,2.44771525 8.44771525,2 9,2 L11,2 C11.5522847,2 12,2.44771525 12,3 C12,3.55228475 11.5522847,4 11,4 L9,4 C8.44771525,4 8,3.55228475 8,3 Z M2,3 L2.00672773,2.88337887 C2.06004937,2.42429701 2.42429701,2.06004937 2.88337887,2.00672773 L3,2 L5,2 L5.11662113,2.00672773 C5.57570299,2.06004937 5.93995063,2.42429701 5.99327227,2.88337887 L6,3 L5.99327227,3.11662113 C5.93995063,3.57570299 5.57570299,3.93995063 5.11662113,3.99327227 L5,4 L4,4 L4,5 L3.99327227,5.11662113 C3.93550716,5.61395981 3.51283584,6 3,6 C2.48716416,6 2.06449284,5.61395981 2.00672773,5.11662113 L2,5 L2,3 Z M2,15 L2.00672773,14.8833789 C2.06449284,14.3860402 2.48716416,14 3,14 C3.47338693,14 3.86994729,14.3289337 3.97358929,14.7707092 L3.99327227,14.8833789 L4,15 L4,16 L5,16 L5.11662113,16.0067277 C5.53744617,16.0556059 5.87858412,16.3657483 5.97358929,16.7707092 L5.99327227,16.8833789 L6,17 L5.99327227,17.1166211 C5.9443941,17.5374462 5.63425172,17.8785841 5.22929083,17.9735893 L5.11662113,17.9932723 L5,18 L3,18 L2.88337887,17.9932723 C2.46255383,17.9443941 2.12141588,17.6342517 2.02641071,17.2292908 L2.00672773,17.1166211 L2,17 L2,15 Z M2,9 C2,8.44771525 2.44771525,8 3,8 C3.55228475,8 4,8.44771525 4,9 L4,11 C4,11.5522847 3.55228475,12 3,12 C2.44771525,12 2,11.5522847 2,11 L2,9 Z"/>
</svg>
