<svg xmlns="http://www.w3.org/2000/svg" width="20" height="20" viewBox="0 0 20 20">
  <path fill-rule="evenodd" d="M15,4 C16.6568542,4 18,5.34314575 18,7 L18,13 C18,14.6568542 16.6568542,16 15,16 L5,16 C3.34314575,16 2,14.6568542 2,13 L2,7 C2,5.34314575 3.34314575,4 5,4 L15,4 Z M16,7.3 L10.6585046,11.7525767 C10.3128975,12.054983 9.8110564,12.0801835 9.43941026,11.8281783 L9.34149539,11.7525767 L4,7.301 L4,13 C4,13.5522847 4.44771525,14 5,14 L15,14 C15.5522847,14 16,13.5522847 16,13 L16,7.3 Z M14.432,6 L5.567,6 L10,9.67123177 L14.432,6 Z"/>
</svg>
