<svg xmlns="http://www.w3.org/2000/svg" width="20" height="20" viewBox="0 0 20 20">
  <path fill-rule="evenodd" d="M10,2 C14.418278,2 18,5.581722 18,10 C18,14.418278 14.418278,18 10,18 C5.581722,18 2,14.418278 2,10 C2,5.581722 5.581722,2 10,2 Z M14.8687973,6.49284458 L14.8596192,6.51140295 L14.7902954,6.61289944 L14.7902954,6.61289944 L14.7071068,6.70710678 L6.70710678,14.7071068 C6.64229755,14.771916 6.57080578,14.8259699 6.49484948,14.8692683 C7.48024444,15.5809342 8.69118318,16 10,16 C13.3137085,16 16,13.3137085 16,10 C16,8.7913718 15.6426367,7.66621028 15.0278099,6.72441536 L14.8687973,6.49284458 Z M9.00019152,4.08292631 C6.16238395,4.55892549 4,7.02693683 4,10 C4,11.3088168 4.41906585,12.5197556 5.13033787,13.5059566 C5.15946605,13.4547817 5.19319937,13.4059492 5.23165453,13.3598777 L5.29289322,13.2928932 L9.06123556,9.52388927 C9.03548944,9.47300667 9.01734125,9.41945266 9.00779142,9.36395482 L9,9.27272727 L9.00019152,4.08292631 Z M11.0008069,4.08309386 L11,7.584 L13.2928932,5.29289322 C13.3577024,5.22808399 13.4291942,5.17403014 13.5051505,5.13073166 C12.7769076,4.60446857 11.9246627,4.23821743 11.0008069,4.08309386 Z"/>
</svg>
