<svg xmlns="http://www.w3.org/2000/svg" width="20" height="20" viewBox="0 0 20 20">
  <path fill-rule="evenodd" d="M9.67517312,2.06891817 C9.84751005,1.99234243 10.0401531,1.9795798 10.2192587,2.0306303 L10.3248269,2.06891817 L17.5248028,5.26813687 C17.8079425,5.39394645 17.9897132,5.66984905 17.9995772,5.97292921 L17.9950802,6.08761815 L17.537158,10.2091839 C17.3042166,12.3057911 16.1645325,14.1899063 14.4271746,15.3700849 L14.1971986,15.5199888 L10.4239977,17.8783912 C10.1970093,18.0202681 9.91661898,18.0380027 9.67628007,17.9315951 L9.57600227,17.8783912 L5.80280137,15.5199888 C4.01405604,14.401951 2.80954679,12.5586096 2.49834249,10.4814089 L2.46284203,10.2091839 L2.00491976,6.08761815 C1.97070485,5.77966415 2.11721394,5.48352328 2.37390926,5.322111 L2.47519721,5.26813687 L9.67517312,2.06891817 Z M10,4.11313357 L4.0896338,6.73933043 L4.45061106,9.98833487 C4.61641458,11.4806626 5.41825911,12.8239205 6.64247015,13.6783792 L6.86284833,13.8240229 L10,15.7848689 L13.1371517,13.8240229 C14.4103135,13.0282455 15.273678,11.7236848 15.5135705,10.2500702 L15.5493889,9.98833487 L15.9103662,6.73933043 L10,4.11313357 Z M11.2136429,7.38221966 C11.5548556,6.94794959 12.1835091,6.87251128 12.6177798,7.21372347 C13.018645,7.52868858 13.1137597,8.0885733 12.8576477,8.51441088 L12.7862762,8.61785831 L9.78629963,12.6178079 C9.44235921,13.0555496 8.81499769,13.1228552 8.38771069,12.7908187 L8.29287769,12.7070928 L7.2928926,11.707118 C6.90236913,11.3165951 6.90236913,10.6834324 7.2928926,10.2929096 C7.65337579,9.9324269 8.22060564,9.90469746 8.61289601,10.2097213 L8.70710315,10.2929096 L8.91005737,10.4958547 L11.2136429,7.38221966 Z"/>
</svg>
