<svg xmlns="http://www.w3.org/2000/svg" width="20" height="20" viewBox="0 0 20 20">
  <path fill-rule="evenodd" d="M5,18 C3.34314575,18 2,16.6568542 2,15 L2,7 C2,5.34314575 3.34314575,4 5,4 L5,3 C5,2.44771525 5.44771525,2 6,2 C6.55228475,2 7,2.44771525 7,3 L7,4 L13,4 L13,3 C13,2.44771525 13.4477153,2 14,2 C14.5522847,2 15,2.44771525 15,3 L15,4 C16.6568542,4 18,5.34314575 18,7 L18,15 C18,16.6568542 16.6568542,18 15,18 L5,18 Z M9,14 L4,14 L4,15 C4,15.5522847 4.44771525,16 5,16 L9,16 L9,14 Z M16,14 L11,14 L11,16 L15,16 C15.5522847,16 16,15.5522847 16,15 L16,14 Z M9,10 L4,10 L4,12 L9,12 L9,10 Z M16,10 L11,10 L11,12 L16,12 L16,10 Z M15,6 L5,6 C4.44771525,6 4,6.44771525 4,7 L4,8 L16,8 L16,7 C16,6.44771525 15.5522847,6 15,6 Z"/>
</svg>
