<svg xmlns="http://www.w3.org/2000/svg" width="20" height="20" viewBox="0 0 20 20">
  <path fill-rule="evenodd" d="M13.2,2 C13.4121732,2 13.6156563,2.08428547 13.7656854,2.23431458 L17.7656854,6.23431458 C17.9157145,6.38434368 18,6.58782681 18,6.8 L18,12.4 C18,12.5871492 17.934387,12.7683755 17.814577,12.9121475 L13.814577,17.7121475 C13.662582,17.8945416 13.4374239,18 13.2,18 L6.8,18 C6.58782681,18 6.38434368,17.9157145 6.23431458,17.7656854 L2.23431458,13.7656854 C2.08428547,13.6156563 2,13.4121732 2,13.2 L2,6.8 C2,6.58782681 2.08428547,6.38434368 2.23431458,6.23431458 L6.23431458,2.23431458 C6.38434368,2.08428547 6.58782681,2 6.8,2 L13.2,2 Z M10,13 C9.44771525,13 9,13.4477153 9,14 C9,14.5522847 9.44771525,15 10,15 C10.5522847,15 11,14.5522847 11,14 C11,13.4477153 10.5522847,13 10,13 Z M10,5 C9.48716416,5 9.06449284,5.38604019 9.00672773,5.88337887 L9,6 L9,10 C9,10.5522847 9.44771525,11 10,11 C10.5128358,11 10.9355072,10.6139598 10.9932723,10.1166211 L11,10 L11,6 C11,5.44771525 10.5522847,5 10,5 Z"/>
</svg>
