<svg xmlns="http://www.w3.org/2000/svg" width="20" height="20" viewBox="0 0 20 20">
  <path fill-rule="evenodd" d="M15,4 C16.6568542,4 18,5.34314575 18,7 L18,8 C18,8.51283584 17.6139598,8.93550716 17.1166211,8.99327227 L16.8833789,9.00672773 C16.3860402,9.06449284 16,9.48716416 16,10 C16,10.5128358 16.3860402,10.9355072 16.8833789,10.9932723 L17.1166211,11.0067277 C17.6139598,11.0644928 18,11.4871642 18,12 L18,13 C18,14.6568542 16.6568542,16 15,16 L5,16 C3.34314575,16 2,14.6568542 2,13 L2,12 C2,11.4871642 2.38604019,11.0644928 2.88337887,11.0067277 L3.11662113,10.9932723 C3.61395981,10.9355072 4,10.5128358 4,10 C4,9.48716416 3.61395981,9.06449284 3.11662113,9.00672773 L2.88337887,8.99327227 C2.38604019,8.93550716 2,8.51283584 2,8 L2,7 C2,5.34314575 3.34314575,4 5,4 L15,4 Z M16,7 C16,6.44771525 15.5522847,6 15,6 L5,6 C4.44771525,6 4,6.44771525 4,7 L4,7.17070571 C5.16519237,7.58254212 6,8.69378117 6,10 C6,11.3062188 5.16519237,12.4174579 4,12.8292943 L4,13 C4,13.5522847 4.44771525,14 5,14 L15,14 C15.5522847,14 16,13.5522847 16,13 L16,12.8292943 C14.8348076,12.4174579 14,11.3062188 14,10 C14,8.75909211 14.7534139,7.69415347 15.8277621,7.23766364 L16,7.17070571 L16,7 Z"/>
</svg>
