<svg xmlns="http://www.w3.org/2000/svg" width="20" height="20" viewBox="0 0 20 20">
  <path d="M7,14 C7.85216986,14 8.29743382,13.0144864 7.78322518,12.3774732 L7.70710678,12.2928932 L6.43167972,11.0168829 C7.42640803,10.4077639 8.86393934,10 10.5,10 C13.5194862,10 15.8627462,11.3889163 15.9941818,12.8691841 L16,13 C16,13.5522847 16.4477153,14 17,14 C17.5522847,14 18,13.5522847 18,13 C18,10.1099033 14.5714071,8 10.5,8 C8.34593549,8 6.37180523,8.59059654 4.99017113,9.57486527 L3.70710678,8.29289322 C3.1045317,7.69031813 2.09281919,8.07233231 2.00598327,8.88636906 L2,9 L2,13 C2,13.5128358 2.38604019,13.9355072 2.88337887,13.9932723 L3,14 L7,14 Z"/>
</svg>
