<svg xmlns="http://www.w3.org/2000/svg" width="20" height="20" viewBox="0 0 20 20">
  <path fill-rule="evenodd" d="M5.29272418,10.2925734 L5.3869303,10.2093788 C5.74652593,9.92975242 6.25311772,9.92975242 6.61271334,10.2093788 L6.70691946,10.2925734 L6.79010699,10.3867876 C7.06970953,10.7464138 7.06970953,11.2530488 6.79010699,11.6126751 L6.70691946,11.7068893 L5.41469255,13.0002376 L14.9996926,12.999876 C15.5125284,12.999876 15.9351997,13.3859162 15.9929648,13.8832548 L15.9996926,13.999876 L15.9929648,14.1166417 C15.9396432,14.5757236 15.5753955,14.9399712 15.1163137,14.9932929 L14.9996926,15.0000206 L5.41469255,15.0002376 L6.70691946,16.2930073 L6.79010699,16.3872215 C7.09512794,16.7795411 7.06739876,17.3468131 6.70691946,17.7073232 C6.34644016,18.0678332 5.77921644,18.0955647 5.3869303,17.7905178 L5.29272418,17.7073232 L2.29276675,14.7071274 L2.18993664,14.5866601 L2.13596282,14.5041093 L2.13596282,14.5041093 L2.07718758,14.3862471 L2.07718758,14.3862471 L2.04190678,14.2875637 L2.04190678,14.2875637 L2.01089287,14.1489818 L2.00105326,14.0537624 L2.00133221,13.9457834 L2.00133221,13.9457834 L2.01089119,13.8514707 L2.04199238,13.7120632 L2.04199238,13.7120632 L2.0895343,13.5854234 L2.0895343,13.5854234 L2.14524399,13.4803582 L2.14524399,13.4803582 L2.20099522,13.3982132 L2.25341744,13.3344261 L2.25341744,13.3344261 L2.29276675,13.2927692 L5.29272418,10.2925734 L5.3869303,10.2093788 L5.29272418,10.2925734 Z M14.6130697,2.20948221 L14.7072758,2.29267683 L17.7072333,5.29287261 L17.7835173,5.3783869 L17.7835173,5.3783869 L17.8346373,5.44876957 L17.8346373,5.44876957 L17.8913281,5.54588458 L17.8913281,5.54588458 L17.9248787,5.61876683 L17.9499304,5.68626874 L17.9499304,5.68626874 L17.9653001,5.73777271 L17.9891088,5.85157411 L17.9891088,5.85157411 L17.9986678,5.94588678 L17.9986678,5.94588678 L17.9970533,6.07476243 L17.9891071,6.14908524 L17.9580932,6.28766708 L17.9580932,6.28766708 L17.9111139,6.41317465 L17.9111139,6.41317465 L17.8640372,6.5042127 L17.8640372,6.5042127 L17.8100634,6.58676349 L17.8100634,6.58676349 L17.7760533,6.62976243 L17.707237,6.70720963 L14.7072758,9.70742659 C14.3167566,10.0979791 13.6835998,10.0979791 13.2930805,9.70742659 C12.9326012,9.34691656 12.9048721,8.77964448 13.209893,8.3873249 L13.2930805,8.29311075 L14.5853074,7.00034099 L5.00030745,7.00012403 C4.48747161,7.00012403 4.06480029,6.61408384 4.00703518,6.11674515 L4.00030745,5.99997939 C4.00030745,5.44769464 4.4480227,4.99997939 5.00030745,4.99997939 L14.5853074,5.00034099 L13.2930805,3.70699267 C12.9326012,3.34648264 12.9048721,2.77921056 13.209893,2.38689098 L13.2930805,2.29267683 C13.6235199,1.9622093 14.127682,1.91136814 14.5115745,2.14015335 L14.6130697,2.20948221 Z"/>
</svg>
