<svg xmlns="http://www.w3.org/2000/svg" width="20" height="20" viewBox="0 0 20 20">
  <path fill-rule="evenodd" d="M4.63602622,4.56523965 L8.6220396,8.55043417 C8.98074894,8.20933684 9.46592785,8 10,8 C11.1045695,8 12,8.8954305 12,10 C12,10.5340722 11.7906632,11.0192511 11.4495658,11.3779604 L15.3639599,15.2929279 C15.7244403,15.6534001 15.7521757,16.2206187 15.4471618,16.6129051 L15.363968,16.7071195 C14.9734462,17.0976412 14.3402864,17.0976449 13.9497602,16.7071276 L12.7459001,15.5059932 C11.8918139,15.8340367 10.9758409,16 10,16 C6.80071316,16 4.24491753,14.2161416 2.40375204,10.7852602 L2.23323859,10.458794 L2,10 L2.23323859,9.54120598 C2.7732827,8.47890747 3.37811074,7.56506836 4.04579001,6.80340618 L3.22182655,5.97943932 C2.83130609,5.5889278 2.83129885,4.95577628 3.22181037,4.56525583 C3.61234023,4.17472597 4.24549999,4.17472235 4.63602622,4.56523965 Z M4.43738635,9.67716636 L4.25320687,10 L4.41039841,10.2768225 C5.89056825,12.8122964 7.73671394,14 10,14 C10.3904592,14 10.7685032,13.9646507 11.1343947,13.8931303 L5.46177381,8.21919632 C5.10252729,8.64220578 4.76124184,9.12764194 4.43738635,9.67716636 Z M10,4 C13.1992868,4 15.7550825,5.7838584 17.596248,9.21473976 L17.7667614,9.54120598 L18,10 L17.7667614,10.458794 C17.244603,11.4859103 16.6618807,12.374238 16.0203416,13.1204168 L14.6026563,11.7040361 C15.0067366,11.2168896 15.387859,10.64968 15.7467931,10 C14.2407672,7.27405445 12.3441177,6 10,6 C9.65185669,6 9.31358343,6.02810252 8.984994,6.08489014 L7.35623694,4.45565834 C8.18109634,4.15303218 9.06294652,4 10,4 Z"/>
</svg>
