<svg xmlns="http://www.w3.org/2000/svg" width="20" height="20" viewBox="0 0 20 20">
  <path fill-rule="evenodd" d="M10,2 C14.418278,2 18,5.581722 18,10 C18,14.418278 14.418278,18 10,18 C5.581722,18 2,14.418278 2,10 C2,5.581722 5.581722,2 10,2 Z M11.9671769,11.0012841 L8.03282311,11.0012841 C8.12566007,12.4050417 8.41121623,13.6777363 8.83554698,14.6324805 C9.25414059,15.5743161 9.70144273,16 10,16 C10.2985573,16 10.7458594,15.5743161 11.164453,14.6324805 C11.5887838,13.6777363 11.8743399,12.4050417 11.9671769,11.0012841 Z M6.03103512,11.0014617 L4.08302907,11.0004209 C4.3804941,12.7727174 5.45493102,14.2815133 6.94409321,15.164562 C6.45677126,14.0103148 6.12940002,12.5769858 6.03103512,11.0014617 Z M15.916969,11.0004166 L13.9689623,11.0014558 C13.8705849,12.5769518 13.5431414,14.0101173 13.0554,15.1634159 C14.5449904,14.2813356 15.6194937,12.7726899 15.916969,11.0004166 Z M6.94460003,4.83658406 L6.91130614,4.85502155 C5.43907815,5.7407479 4.37817423,7.24050326 4.08297385,8.99990815 L6.03097517,8.9995464 C6.12927622,7.42365604 6.45675518,5.99012724 6.94460003,4.83658406 Z M10,4 L9.93835786,4.00570259 C9.64193004,4.05905186 9.22623435,4.48847296 8.83554698,5.36751953 C8.41111575,6.32248981 8.12552484,7.5955611 8.03275719,8.99971312 L11.9672428,8.99971312 C11.8744752,7.5955611 11.5888842,6.32248981 11.164453,5.36751953 C10.7458594,4.42568392 10.2985573,4 10,4 Z M13.0559068,4.83543799 L13.0592502,4.84570178 C13.5449825,5.99771218 13.8710024,7.42789212 13.9690338,8.99968938 L15.9171378,9.00057407 C15.619908,7.22784726 14.5453476,5.71865189 13.0559068,4.83543799 Z"/>
</svg>
