<svg xmlns="http://www.w3.org/2000/svg" width="20" height="20" viewBox="0 0 20 20">
  <path fill-rule="evenodd" d="M17,16 C17.5522847,16 18,16.4477153 18,17 C18,17.5522847 17.5522847,18 17,18 L3,18 C2.44771525,18 2,17.5522847 2,17 C2,16.4477153 2.44771525,16 3,16 L17,16 Z M5.29289322,6.29289322 C5.8954683,5.69031813 6.90718081,6.07233231 6.99401673,6.88636906 L7,7 L7,13 C7,13.8521699 6.01448641,14.2974338 5.37747324,13.7832252 L5.29289322,13.7071068 L2.29289322,10.7071068 C1.93240926,10.3466228 1.90467972,9.77939176 2.20970461,9.38710056 L2.29289322,9.29289322 L5.29289322,6.29289322 Z M17,11 C17.5522847,11 18,11.4477153 18,12 C18,12.5522847 17.5522847,13 17,13 L11,13 C10.4477153,13 10,12.5522847 10,12 C10,11.4477153 10.4477153,11 11,11 L17,11 Z M17,7 C17.5522847,7 18,7.44771525 18,8 C18,8.55228475 17.5522847,9 17,9 L11,9 C10.4477153,9 10,8.55228475 10,8 C10,7.44771525 10.4477153,7 11,7 L17,7 Z M17,2 C17.5522847,2 18,2.44771525 18,3 C18,3.55228475 17.5522847,4 17,4 L3,4 C2.44771525,4 2,3.55228475 2,3 C2,2.44771525 2.44771525,2 3,2 L17,2 Z"/>
</svg>
