<svg xmlns="http://www.w3.org/2000/svg" width="20" height="20" viewBox="0 0 20 20">
  <path d="M14.0020048,11 C14.5542895,11 15.0020048,11.4477153 15.0020048,12 C15.0020048,12.5128358 14.6159646,12.9355072 14.1186259,12.9932723 L14.0020048,13 L5.41700475,13 L7.70911154,15.2928932 C8.0695955,15.6533772 8.09732503,16.2206082 7.79230014,16.6128994 L7.70911154,16.7071068 C7.34862757,17.0675907 6.78139652,17.0953203 6.38910531,16.7902954 L6.29489797,16.7071068 L2.29489797,12.7071068 C1.69232289,12.1045317 2.07433707,11.0928192 2.88837381,11.0059833 L3.00200475,11 L14.0020048,11 Z M13.6128994,3.20970461 L13.7071068,3.29289322 L17.7071068,7.29289322 C18.3096819,7.8954683 17.9276677,8.90718081 17.1136309,8.99401673 L17,9 L6,9 C5.44771525,9 5,8.55228475 5,8 C5,7.48716416 5.38604019,7.06449284 5.88337887,7.00672773 L6,7 L14.585,7 L12.2928932,4.70710678 C11.9324093,4.34662282 11.9046797,3.77939176 12.2097046,3.38710056 L12.2928932,3.29289322 C12.6533772,2.93240926 13.2206082,2.90467972 13.6128994,3.20970461 Z"/>
</svg>
