<svg xmlns="http://www.w3.org/2000/svg" width="20" height="20" viewBox="0 0 20 20">
  <path fill-rule="evenodd" d="M15,2 C16.6568542,2 18,3.34314575 18,5 L18,15 C18,16.6568542 16.6568542,18 15,18 L5,18 C3.34314575,18 2,16.6568542 2,15 L2,5 C2,3.34314575 3.34314575,2 5,2 L15,2 Z M15,4 L5,4 C4.44771525,4 4,4.44771525 4,5 L4,15 C4,15.5522847 4.44771525,16 5,16 L15,16 C15.5522847,16 16,15.5522847 16,15 L16,5 C16,4.44771525 15.5522847,4 15,4 Z M10,6 C11.6568542,6 13,7.34314575 13,9 C13,10.5976809 11.75108,11.9036609 10.1762728,11.9949073 L10,12 L9,12 L9,13 C9,13.5522847 8.55228475,14 8,14 C7.44771525,14 7,13.5522847 7,13 L7,7 C7,6.44771525 7.44771525,6 8,6 L10,6 Z M10,8 L9,8 L9,10 L10,10 C10.5522847,10 11,9.55228475 11,9 C11,8.48716416 10.6139598,8.06449284 10.1166211,8.00672773 L10,8 Z"/>
</svg>
