<svg xmlns="http://www.w3.org/2000/svg" width="24" height="24" viewBox="0 0 24 24">
  <path fill-rule="evenodd" d="M15.527864,2 C17.0429523,2 18.4280048,2.8560095 19.1055728,4.21114562 L21.3665631,8.73312629 C21.7831294,9.5662589 22,10.4849373 22,11.4164079 L22,20 C22,21.1045695 21.1045695,22 20,22 C18.8954305,22 18,21.1045695 18,20 L18,18 L6,18 L6,20 C6,21.1045695 5.1045695,22 4,22 C2.8954305,22 2,21.1045695 2,20 L2,11.4164079 C2,10.4849373 2.21687055,9.5662589 2.63343685,8.73312629 L4.89442719,4.21114562 C5.57199525,2.8560095 6.95704772,2 8.47213595,2 L15.527864,2 Z M19,13 L17,13 C16.4477153,13 16,13.4477153 16,14 C16,14.5128358 16.3860402,14.9355072 16.8833789,14.9932723 L17,15 L19,15 C19.5522847,15 20,14.5522847 20,14 C20,13.4871642 19.6139598,13.0644928 19.1166211,13.0067277 L19,13 Z M7,13 L5,13 C4.44771525,13 4,13.4477153 4,14 C4,14.5128358 4.38604019,14.9355072 4.88337887,14.9932723 L5,15 L7,15 C7.55228475,15 8,14.5522847 8,14 C8,13.4871642 7.61395981,13.0644928 7.11662113,13.0067277 L7,13 Z M15.763932,4 L8.23606798,4 C7.53263415,4 6.88526167,4.36904491 6.52511937,4.96426453 L6.4472136,5.10557281 L4,10 L20,10 L17.5527864,5.10557281 C17.2140024,4.42800475 16.5214761,4 15.763932,4 Z"/>
</svg>
