<svg xmlns="http://www.w3.org/2000/svg" width="24" height="24" viewBox="0 0 24 24">
  <path fill-rule="evenodd" d="M18.2097046,4.38710056 L18.2928932,4.29289322 C18.6533772,3.93240926 19.2206082,3.90467972 19.6128994,4.20970461 L19.7071068,4.29289322 L21.7071068,6.29289322 L21.7485042,6.336853 L21.7485042,6.336853 L21.7970355,6.3958685 L21.7970355,6.3958685 L21.8753288,6.5159379 L21.8753288,6.5159379 L21.9283772,6.62767031 L21.9283772,6.62767031 L21.9596343,6.7180797 L21.9596343,6.7180797 L21.9847283,6.82534578 L21.9847283,6.82534578 L21.9982534,6.94073988 L21.9982534,6.94073988 L21.9983971,7.05679676 L21.9983971,7.05679676 L21.9854222,7.1706727 L21.9854222,7.1706727 L21.9731607,7.23105978 L21.9731607,7.23105978 L21.9401054,7.34166646 L21.9401054,7.34166646 L21.9063266,7.42322155 L21.9063266,7.42322155 L21.8540045,7.52070875 L21.8540045,7.52070875 L21.787214,7.61675008 L21.7312688,7.68209486 L21.7312688,7.68209486 L19.7071068,9.70710678 C19.3165825,10.0976311 18.6834175,10.0976311 18.2928932,9.70710678 C17.9324093,9.34662282 17.9046797,8.77939176 18.2097046,8.38710056 L18.2928932,8.29289322 L18.584,8 L16,8 C12.7519305,8 11.1144653,8.99471101 9.00177748,11.9984186 C11.1141055,15.0050704 12.7515737,16 16,16 L18.585,16 L18.2928932,15.7071068 C17.9324093,15.3466228 17.9046797,14.7793918 18.2097046,14.3871006 L18.2928932,14.2928932 C18.6533772,13.9324093 19.2206082,13.9046797 19.6128994,14.2097046 L19.7071068,14.2928932 L21.7071068,16.2928932 L21.7485042,16.336853 L21.7485042,16.336853 L21.8036654,16.4046934 L21.8036654,16.4046934 L21.8753288,16.5159379 L21.8753288,16.5159379 L21.9247512,16.6187427 L21.9247512,16.6187427 L21.9641549,16.734007 L21.9641549,16.734007 L21.9930928,16.8819045 L21.9930928,16.8819045 L22,17 L22,17 L21.9976169,17.0695814 L21.9976169,17.0695814 L21.9856722,17.1692131 L21.9856722,17.1692131 L21.9502619,17.3121425 L21.9502619,17.3121425 L21.9082048,17.4191751 L21.9082048,17.4191751 L21.8540045,17.5207088 L21.8540045,17.5207088 L21.7803112,17.625449 L21.7803112,17.625449 L21.7071068,17.7071068 L19.7071068,19.7071068 C19.3165825,20.0976311 18.6834175,20.0976311 18.2928932,19.7071068 C17.9324093,19.3466228 17.9046797,18.7793918 18.2097046,18.3871006 L18.2928932,18.2928932 L18.584,18 L16,18 C12.2045797,18 10.1147138,16.8297574 7.82647195,13.7839436 L7.31763383,14.581097 C7.17997999,14.7942509 7.05471858,14.985035 6.93530333,15.1628711 L6.81759436,15.3367402 L6.5880498,15.6669576 L6.35663827,15.9877722 C5.40438035,17.2845827 4.32403963,18 3,18 C2.44771525,18 2,17.5522847 2,17 C2,16.4871642 2.38604019,16.0644928 2.88337887,16.0067277 L3.12471566,15.9943979 C3.66310681,15.9456796 4.17694303,15.5770438 4.74457765,14.8040237 C4.9857396,14.4756028 5.20752523,14.1542285 5.47754357,13.742069 L5.64588337,13.4830965 L6.591,12 L5.64588337,10.5169035 C5.29546443,9.97403941 5.03397199,9.59008135 4.74457765,9.19597634 C4.17694303,8.42295623 3.66310681,8.0543204 3.12471566,8.00560212 L3,8 C2.44771525,8 2,7.55228475 2,7 C2,6.44771525 2.44771525,6 3,6 C4.32403963,6 5.40438035,6.71541733 6.35663827,8.01222782 L6.5880498,8.33304245 L6.81759436,8.6632598 L7.18386835,9.21285673 C7.31398793,9.41214429 7.45431786,9.63066106 7.61140442,9.87782897 L7.82647195,10.2160564 C10.0453731,7.26254004 12.077739,6.07264608 15.6596073,6.00324344 L16,6 L18.585,6 L18.2928932,5.70710678 C17.9324093,5.34662282 17.9046797,4.77939176 18.2097046,4.38710056 L18.2928932,4.29289322 L18.2097046,4.38710056 Z"/>
</svg>
