<svg xmlns="http://www.w3.org/2000/svg" width="24" height="24" viewBox="0 0 24 24">
  <path d="M15,2 C16.5976809,2 17.9036609,3.24891996 17.9949073,4.82372721 L18,5 L18,8 C18,8.26038605 17.8985463,8.50867108 17.7201762,8.69380235 L17.624695,8.78086881 L13.6,12 L17.624695,15.2191312 C17.8619103,15.4089034 18,15.6962163 18,16 L18,19 C18,20.6568542 16.6568542,22 15,22 L9,22 C7.34314575,22 6,20.6568542 6,19 L6,16 C6,15.6962163 6.13808972,15.4089034 6.37530495,15.2191312 L10.399,12 L6.37530495,8.78086881 C6.17197761,8.61820694 6.04147718,8.3838825 6.00834087,8.12894825 L6,8 L6,5 C6,3.40231912 7.24891996,2.09633912 8.82372721,2.00509269 L9,2 L15,2 Z"/>
</svg>
