<svg xmlns="http://www.w3.org/2000/svg" width="24" height="24" viewBox="0 0 24 24">
  <path fill-rule="evenodd" d="M3,18 L3.11662113,18.0067277 L3.22929083,18.0264107 C3.59375563,18.1119154 3.88141744,18.3967876 3.97093734,18.7596884 L3.99327227,18.8833789 L4,19 L4,20 L5,20 L5.11662113,20.0067277 L5.22929083,20.0264107 C5.67106635,20.1300527 6,20.5266131 6,21 C6,21.4733869 5.67106635,21.8699473 5.22929083,21.9735893 L5.11662113,21.9932723 L5,22 L3,22 L2.88337887,21.9932723 L2.77070917,21.9735893 C2.40624437,21.8880846 2.11858256,21.6032124 2.02906266,21.2403116 L2.00672773,21.1166211 L2,21 L2,19 L2.00672773,18.8833789 L2.02641071,18.7707092 C2.11191536,18.4062444 2.39678757,18.1185826 2.75968842,18.0290627 L2.88337887,18.0067277 L3,18 Z M21,18 L21.1166211,18.0067277 C21.5374462,18.0556059 21.8785841,18.3657483 21.9735893,18.7707092 L21.9932723,18.8833789 L22,19 L22,21 L21.9932723,21.1166211 C21.9443941,21.5374462 21.6342517,21.8785841 21.2292908,21.9735893 L21.1166211,21.9932723 L21,22 L19,22 L18.8833789,21.9932723 C18.3860402,21.9355072 18,21.5128358 18,21 C18,20.5266131 18.3289337,20.1300527 18.7707092,20.0264107 L18.8833789,20.0067277 L19,20 L20,20 L20,19 L20.0067277,18.8833789 C20.0556059,18.4625538 20.3657483,18.1214159 20.7707092,18.0264107 L20.8833789,18.0067277 L21,18 Z M12,2 C12.5522847,2 13,2.44771525 13,3 L13,11 L21,11 C21.5522847,11 22,11.4477153 22,12 C22,12.5522847 21.5522847,13 21,13 L13,13 L13,21 C13,21.5522847 12.5522847,22 12,22 C11.4477153,22 11,21.5522847 11,21 L11,13 L3,13 C2.44771525,13 2,12.5522847 2,12 C2,11.4477153 2.44771525,11 3,11 L11,11 L11,3 C11,2.44771525 11.4477153,2 12,2 Z M5,2 L5.11662113,2.00672773 C5.61395981,2.06449284 6,2.48716416 6,3 C6,3.47338693 5.67106635,3.86994729 5.22929083,3.97358929 L5.11662113,3.99327227 L5,4 L4,4 L4,5 L3.99327227,5.11662113 C3.9443941,5.53744617 3.63425172,5.87858412 3.22929083,5.97358929 L3.11662113,5.99327227 L3,6 L2.88337887,5.99327227 C2.46255383,5.9443941 2.12141588,5.63425172 2.02641071,5.22929083 L2.00672773,5.11662113 L2,5 L2,3 L2.00672773,2.88337887 C2.0556059,2.46255383 2.36574828,2.12141588 2.77070917,2.02641071 L2.88337887,2.00672773 L3,2 L5,2 Z M21,2 L21.1166211,2.00672773 C21.575703,2.06004937 21.9399506,2.42429701 21.9932723,2.88337887 L22,3 L22,5 L21.9932723,5.11662113 C21.9399506,5.57570299 21.575703,5.93995063 21.1166211,5.99327227 L21,6 L20.8833789,5.99327227 C20.424297,5.93995063 20.0600494,5.57570299 20.0067277,5.11662113 L20,5 L20,4 L19,4 L18.8833789,3.99327227 C18.3860402,3.93550716 18,3.51283584 18,3 C18,2.48716416 18.3860402,2.06449284 18.8833789,2.00672773 L19,2 L21,2 Z"/>
</svg>
