<svg xmlns="http://www.w3.org/2000/svg" width="24" height="24" viewBox="0 0 24 24">
  <path fill-rule="evenodd" d="M21,20 C21.5522847,20 22,20.4477153 22,21 C22,21.5522847 21.5522847,22 21,22 L3,22 C2.44771525,22 2,21.5522847 2,21 C2,20.4477153 2.44771525,20 3,20 L21,20 Z M6.29289322,13.2928932 L17.2928932,2.29289322 C17.6533772,1.93240926 18.2206082,1.90467972 18.6128994,2.20970461 L18.7071068,2.29289322 L21.7071068,5.29289322 C22.0675907,5.65337718 22.0953203,6.22060824 21.7902954,6.61289944 L21.7071068,6.70710678 L10.7071068,17.7071068 C10.5508265,17.8633871 10.3481451,17.9625983 10.131444,17.9913276 L10,18 L7,18 C6.48716416,18 6.06449284,17.6139598 6.00672773,17.1166211 L6,17 L6,14 C6,13.7789863 6.07316447,13.565516 6.20608063,13.3919705 L6.29289322,13.2928932 L17.2928932,2.29289322 L6.29289322,13.2928932 Z M18,4.41421356 L8,14.4142136 L8,16 L9.58578644,16 L19.5857864,6 L18,4.41421356 Z"/>
</svg>
