<svg xmlns="http://www.w3.org/2000/svg" width="24" height="24" viewBox="0 0 24 24">
  <path fill-rule="evenodd" d="M3.47186258,13.4213562 L6.31457505,10.5786438 C6.70707174,10.1861471 7.3434346,10.1861471 7.73593129,10.5786438 C8.1003925,10.943105 8.12642544,11.5178385 7.81403012,11.9123387 L7.73593129,12 L4.89321881,14.8427125 C3.71572875,16.0202025 3.71572875,17.9292911 4.89321881,19.1067812 C6.02865566,20.242218 7.84436716,20.2827693 9.02839505,19.2284351 L9.15728753,19.1067812 L12,16.2640687 C12.3924967,15.871572 13.0288596,15.871572 13.4213562,16.2640687 C13.7858174,16.6285299 13.8118504,17.2032635 13.4994551,17.5977636 L13.4213562,17.6854249 L10.5786438,20.5281374 C8.61616033,22.4906209 5.43434601,22.4906209 3.47186258,20.5281374 C1.56102344,18.6172983 1.5107382,15.5504592 3.32100685,13.5787779 L3.47186258,13.4213562 Z M13.4213562,3.47186258 C15.3838397,1.50937914 18.565654,1.50937914 20.5281374,3.47186258 C22.4906209,5.43434601 22.4906209,8.61616033 20.5281374,10.5786438 L17.6854249,13.4213562 C17.2929283,13.8138529 16.6565654,13.8138529 16.2640687,13.4213562 C15.871572,13.0288596 15.871572,12.3924967 16.2640687,12 L19.1067812,9.15728753 C20.2842712,7.97979746 20.2842712,6.07070887 19.1067812,4.89321881 C17.9292911,3.71572875 16.0202025,3.71572875 14.8427125,4.89321881 L12,7.73593129 C11.6075033,8.12842798 10.9711404,8.12842798 10.5786438,7.73593129 C10.1861471,7.3434346 10.1861471,6.70707174 10.5786438,6.31457505 L13.4213562,3.47186258 Z M13.4213562,9.15728753 C13.8138529,8.76479084 14.4502158,8.76479084 14.8427125,9.15728753 C15.2352092,9.54978421 15.2352092,10.1861471 14.8427125,10.5786438 L10.5786438,14.8427125 C10.1861471,15.2352092 9.54978421,15.2352092 9.15728753,14.8427125 C8.76479084,14.4502158 8.76479084,13.8138529 9.15728753,13.4213562 L13.4213562,9.15728753 Z"/>
</svg>
