<svg xmlns="http://www.w3.org/2000/svg" width="24" height="24" viewBox="0 0 24 24">
  <path fill-rule="evenodd" d="M12.4775757,6 L19,6 C20.6568542,6 22,7.34314575 22,9 L22,17 C22,18.6568542 20.6568542,20 19,20 L5,20 C3.34314575,20 2,18.6568542 2,17 L2,7 C2,5.34314575 3.34314575,4 5,4 L10.383667,4 C10.6857121,4 10.9715743,4.13652083 11.1614279,4.37143972 L12.4775757,6 Z M9.90609126,6 L5,6 C4.44771525,6 4,6.44771525 4,7 L4,17 C4,17.5522847 4.44771525,18 5,18 L19,18 C19.5522847,18 20,17.5522847 20,17 L20,9 C20,8.44771525 19.5522847,8 19,8 L12,8 C11.6979549,8 11.4120927,7.86347917 11.2222391,7.62856028 L9.90609126,6 Z M15,10 C15.5522847,10 16,10.4477153 16,11 L16,12 L17,12 C17.5522847,12 18,12.4477153 18,13 C18,13.5522847 17.5522847,14 17,14 L16,14 L16,15 C16,15.5522847 15.5522847,16 15,16 C14.4477153,16 14,15.5522847 14,15 L14,14 L13,14 C12.4477153,14 12,13.5522847 12,13 C12,12.4477153 12.4477153,12 13,12 L14,12 L14,11 C14,10.4477153 14.4477153,10 15,10 Z"/>
</svg>
