<svg xmlns="http://www.w3.org/2000/svg" width="24" height="24" viewBox="0 0 24 24">
  <path fill-rule="evenodd" d="M21,20 C21.5522847,20 22,20.4477153 22,21 C22,21.5522847 21.5522847,22 21,22 L3,22 C2.44771525,22 2,21.5522847 2,21 C2,20.4477153 2.44771525,20 3,20 L21,20 Z M12,9 C12.5522847,9 13,9.44771525 13,10 L13,11 L14,11 C14.5522847,11 15,11.4477153 15,12 C15,12.5522847 14.5522847,13 14,13 L13,13 L13,14 C13,14.5522847 12.5522847,15 12,15 C11.4477153,15 11,14.5522847 11,14 L11,13 L10,13 C9.44771525,13 9,12.5522847 9,12 C9,11.4477153 9.44771525,11 10,11 L11,11 L11,10 C11,9.44771525 11.4477153,9 12,9 Z M3,10 C3.55228475,10 4,10.4477153 4,11 L4,13 C4,13.5522847 3.55228475,14 3,14 C2.44771525,14 2,13.5522847 2,13 L2,11 C2,10.4477153 2.44771525,10 3,10 Z M21,10 C21.5522847,10 22,10.4477153 22,11 L22,13 C22,13.5522847 21.5522847,14 21,14 C20.4477153,14 20,13.5522847 20,13 L20,11 C20,10.4477153 20.4477153,10 21,10 Z M21,2 L21.1166211,2.00672773 C21.575703,2.06004937 21.9399506,2.42429701 21.9932723,2.88337887 L22,3 L22,5 L21.9932723,5.11662113 C21.9399506,5.57570299 21.575703,5.93995063 21.1166211,5.99327227 L21,6 L20.8833789,5.99327227 C20.424297,5.93995063 20.0600494,5.57570299 20.0067277,5.11662113 L20,5 L20,4 L19,4 L18.8833789,3.99327227 C18.3860402,3.93550716 18,3.51283584 18,3 C18,2.48716416 18.3860402,2.06449284 18.8833789,2.00672773 L19,2 L21,2 Z M5,2 L5.11662113,2.00672773 C5.61395981,2.06449284 6,2.48716416 6,3 C6,3.47338693 5.67106635,3.86994729 5.22929083,3.97358929 L5.11662113,3.99327227 L5,4 L4,4 L4,5 L3.99327227,5.11662113 C3.9443941,5.53744617 3.63425172,5.87858412 3.22929083,5.97358929 L3.11662113,5.99327227 L3,6 L2.88337887,5.99327227 C2.46255383,5.9443941 2.12141588,5.63425172 2.02641071,5.22929083 L2.00672773,5.11662113 L2,5 L2,3 L2.00672773,2.88337887 C2.0556059,2.46255383 2.36574828,2.12141588 2.77070917,2.02641071 L2.88337887,2.00672773 L3,2 L5,2 Z M13,2 C13.5522847,2 14,2.44771525 14,3 C14,3.55228475 13.5522847,4 13,4 L11,4 C10.4477153,4 10,3.55228475 10,3 C10,2.44771525 10.4477153,2 11,2 L13,2 Z"/>
</svg>
