<svg xmlns="http://www.w3.org/2000/svg" width="24" height="24" viewBox="0 0 24 24">
  <path fill-rule="evenodd" d="M21,20 C21.5522847,20 22,20.4477153 22,21 C22,21.5522847 21.5522847,22 21,22 L3,22 C2.44771525,22 2,21.5522847 2,21 C2,20.4477153 2.44771525,20 3,20 L21,20 Z M19,6 C20.6568542,6 22,7.34314575 22,9 L22,15 C22,16.6568542 20.6568542,18 19,18 L5,18 C3.34314575,18 2,16.6568542 2,15 L2,9 C2,7.34314575 3.34314575,6 5,6 L19,6 Z M19,8 L5,8 C4.44771525,8 4,8.44771525 4,9 L4,15 C4,15.5522847 4.44771525,16 5,16 L19,16 C19.5522847,16 20,15.5522847 20,15 L20,9 C20,8.44771525 19.5522847,8 19,8 Z M21,2 C21.5522847,2 22,2.44771525 22,3 C22,3.55228475 21.5522847,4 21,4 L3,4 C2.44771525,4 2,3.55228475 2,3 C2,2.44771525 2.44771525,2 3,2 L21,2 Z"/>
</svg>
