<svg xmlns="http://www.w3.org/2000/svg" width="24" height="24" viewBox="0 0 24 24">
  <path fill-rule="evenodd" d="M5,4 L14.0801302,4 C14.9559048,4 15.7879534,4.38268819 16.3579,5.04762588 L21.7592566,11.3492086 C22.0802478,11.7236984 22.0802478,12.2763016 21.7592566,12.6507914 L16.3579,18.9523741 C15.7879534,19.6173118 14.9559048,20 14.0801302,20 L5,20 C3.34314575,20 2,18.6568542 2,17 L2,7 C2,5.34314575 3.34314575,4 5,4 Z M19.6829222,12 L14.8393868,6.34920863 C14.6494046,6.12756273 14.372055,6 14.0801302,6 L5,6 C4.44771525,6 4,6.44771525 4,7 L4,17 C4,17.5522847 4.44771525,18 5,18 L14.0801302,18 C14.372055,18 14.6494046,17.8724373 14.8393868,17.6507914 L19.6829222,12 Z"/>
</svg>
