<svg xmlns="http://www.w3.org/2000/svg" width="24" height="24" viewBox="0 0 24 24">
  <path fill-rule="evenodd" d="M7,19 C4.23857625,19 2,16.7614237 2,14 C2,11.7547888 3.48944169,9.82190902 5.57951411,9.20472866 C6.67630144,6.68630567 9.17712053,5 12,5 C15.5652157,5 18.5079126,7.66532009 18.944221,11.1120907 C20.6976796,11.5364324 22,13.1161296 22,15 C22,17.1217721 20.3435937,18.871007 18.2051517,18.9944902 L18,19 L7,19 Z M17.9711211,17.0004171 L18.1184285,16.9965817 C19.1715232,16.935564 20,16.0606575 20,15 C20,13.8954305 19.1045695,13 18,13 C17.4477153,13 17,12.5522847 17,12 C17,9.23857625 14.7614237,7 12,7 C9.84526387,7 7.95271043,8.37571654 7.2665111,10.3812343 C7.14802558,10.7275255 6.8498252,10.9814221 6.48907093,11.0431697 C5.06050731,11.2876865 4,12.5331882 4,14 C4,15.6568542 5.34314575,17 7,17 L17.9711211,17.0004171 Z"/>
</svg>
