<svg xmlns="http://www.w3.org/2000/svg" width="24" height="24" viewBox="0 0 24 24">
  <path d="M12,22 C17.5228475,22 22,17.5228475 22,12 C22,6.4771525 17.5228475,2 12,2 C6.4771525,2 2,6.4771525 2,12 C2,17.5228475 6.4771525,22 12,22 Z M12,20 C7.581722,20 4,16.418278 4,12 C4,7.581722 7.581722,4 12,4 C16.418278,4 20,7.581722 20,12 C20,16.418278 16.418278,20 12,20 Z M12,18 C12.5522847,18 13,17.5522847 13,17 L13,9.414 L14.2928932,10.7071068 C14.6233369,11.0375504 15.1275055,11.0883879 15.5114029,10.8596192 L15.6128994,10.7902954 L15.7071068,10.7071068 C16.0675907,10.3466228 16.0953203,9.77939176 15.7902954,9.38710056 L15.7071068,9.29289322 L12.7071068,6.29289322 L12.663147,6.2514958 L12.5953066,6.19633458 L12.4840621,6.12467117 L12.371336,6.07122549 L12.265993,6.03584514 L12.1180955,6.00690716 L12,6 L11.9247615,6.00278786 L11.7992742,6.02024007 L11.6878575,6.04973809 L11.5767785,6.09367336 L11.4792912,6.14599545 L11.374551,6.21968877 L11.2928932,6.29289322 L8.29289322,9.29289322 C7.90236893,9.68341751 7.90236893,10.3165825 8.29289322,10.7071068 C8.65337718,11.0675907 9.22060824,11.0953203 9.61289944,10.7902954 L9.70710678,10.7071068 L11,9.416 L11,17 C11,17.5522847 11.4477153,18 12,18 Z"/>
</svg>
