<svg xmlns="http://www.w3.org/2000/svg" width="24" height="24" viewBox="0 0 24 24">
  <path fill-rule="evenodd" d="M19,4 C20.6568542,4 22,5.34314575 22,7 L22,9 C22,9.55228475 21.5522847,10 21,10 C19.8954305,10 19,10.8954305 19,12 C19,13.0543618 19.8158778,13.9181651 20.8507377,13.9945143 L21.1166211,14.0067277 C21.6139598,14.0644928 22,14.4871642 22,15 L22,17 C22,18.6568542 20.6568542,20 19,20 L5,20 C3.34314575,20 2,18.6568542 2,17 L2,15 C2,14.4871642 2.38604019,14.0644928 2.88337887,14.0067277 L3.14926234,13.9945143 C4.18412221,13.9181651 5,13.0543618 5,12 C5,10.8954305 4.1045695,10 3,10 C2.44771525,10 2,9.55228475 2,9 L2,7 C2,5.34314575 3.34314575,4 5,4 L19,4 Z M13,6 L5,6 C4.44771525,6 4,6.44771525 4,7 L4,8.12601749 C5.72522721,8.57006028 7,10.1361606 7,12 C7,13.8638394 5.72522721,15.4299397 4,15.8739825 L4,17 C4,17.5522847 4.44771525,18 5,18 L13,18 L13,17 C13,16.4477153 13.4477153,16 14,16 C14.5522847,16 15,16.4477153 15,17 L15,18 L19,18 C19.5522847,18 20,17.5522847 20,17 L20,15.8739825 C18.2747728,15.4299397 17,13.8638394 17,12 C17,10.2051917 18.1820938,8.68647613 19.8102037,8.17993121 L20,8.12601749 L20,7 C20,6.44771525 19.5522847,6 19,6 L15,6 L15,7 C15,7.55228475 14.5522847,8 14,8 C13.4477153,8 13,7.55228475 13,7 L13,6 Z M14,10 C14.5522847,10 15,10.4477153 15,11 L15,13 C15,13.5522847 14.5522847,14 14,14 C13.4477153,14 13,13.5522847 13,13 L13,11 C13,10.4477153 13.4477153,10 14,10 Z"/>
</svg>
