<svg xmlns="http://www.w3.org/2000/svg" width="24" height="24" viewBox="0 0 24 24">
  <path d="M12,4 C16.9705627,4 21,8.02943725 21,13 C21,17.9705627 16.9705627,22 12,22 C7.02943725,22 3,17.9705627 3,13 C3,8.02943725 7.02943725,4 12,4 Z M12,6 C8.13400675,6 5,9.13400675 5,13 C5,16.8659932 8.13400675,20 12,20 C15.8659932,20 19,16.8659932 19,13 C19,9.13400675 15.8659932,6 12,6 Z M12,8 C12.5522847,8 13,8.44771525 13,9 L13,12 L16,12 C16.5522847,12 17,12.4477153 17,13 C17,13.5522847 16.5522847,14 16,14 L13,14 L13,17 C13,17.5522847 12.5522847,18 12,18 C11.4477153,18 11,17.5522847 11,17 L11,14 L8,14 C7.44771525,14 7,13.5522847 7,13 C7,12.4477153 7.44771525,12 8,12 L11,12 L11,9 C11,8.44771525 11.4477153,8 12,8 Z M18.6128994,2.20970461 L18.7071068,2.29289322 L21.7071068,5.29289322 C22.0976311,5.68341751 22.0976311,6.31658249 21.7071068,6.70710678 C21.3466228,7.06759074 20.7793918,7.09532028 20.3871006,6.79029539 L20.2928932,6.70710678 L17.2928932,3.70710678 C16.9023689,3.31658249 16.9023689,2.68341751 17.2928932,2.29289322 C17.6233369,1.96244959 18.1275055,1.91161211 18.5114029,2.14038077 L18.6128994,2.20970461 Z M6.70710678,2.29289322 C7.09763107,2.68341751 7.09763107,3.31658249 6.70710678,3.70710678 L3.70710678,6.70710678 C3.31658249,7.09763107 2.68341751,7.09763107 2.29289322,6.70710678 C1.90236893,6.31658249 1.90236893,5.68341751 2.29289322,5.29289322 L5.29289322,2.29289322 C5.68341751,1.90236893 6.31658249,1.90236893 6.70710678,2.29289322 Z"/>
</svg>
