<svg xmlns="http://www.w3.org/2000/svg" width="24" height="24" viewBox="0 0 24 24">
  <path fill-rule="evenodd" d="M19,2 C20.5976809,2 21.9036609,3.24891996 21.9949073,4.82372721 L22,5 L22,19 C22,20.5976809 20.75108,21.9036609 19.1762728,21.9949073 L19,22 L5,22 C3.40231912,22 2.09633912,20.75108 2.00509269,19.1762728 L2,19 L2,5 C2,3.40231912 3.24891996,2.09633912 4.82372721,2.00509269 L5,2 L19,2 Z M11,4 L5,4 C4.48716416,4 4.06449284,4.49633739 4.00672773,5.13577284 L4,5.28571429 L4,11 L5,11 C5.55228475,11 6,11.4477153 6,12 C6,12.5522847 5.55228475,13 5,13 L4,13 L4,19 C4,19.5128358 4.49633739,19.9355072 5.13577284,19.9932723 L5.28571429,20 L11,20 L11,19 C11,18.4477153 11.4477153,18 12,18 C12.5522847,18 13,18.4477153 13,19 L13,20 L19,20 C19.5128358,20 19.9355072,19.6139598 19.9932723,19.1166211 L20,19 L20,13 L19,13 C18.4477153,13 18,12.5522847 18,12 C18,11.4477153 18.4477153,11 19,11 L20,11 L20,5.28571429 C20,4.62635392 19.5036626,4.08291936 18.8642272,4.00864994 L18.7142857,4 L13,4 L13,5 C13,5.55228475 12.5522847,6 12,6 C11.4477153,6 11,5.55228475 11,5 L11,4 Z M12,9 C12.5128358,9 12.9355072,9.38604019 12.9932723,9.88337887 L13,10 L13,11 L14,11 C14.5522847,11 15,11.4477153 15,12 C15,12.5128358 14.6139598,12.9355072 14.1166211,12.9932723 L14,13 L13,13 L13,14 C13,14.5522847 12.5522847,15 12,15 C11.4871642,15 11.0644928,14.6139598 11.0067277,14.1166211 L11,14 L11,13 L10,13 C9.44771525,13 9,12.5522847 9,12 C9,11.4871642 9.38604019,11.0644928 9.88337887,11.0067277 L10,11 L11,11 L11,10 C11,9.44771525 11.4477153,9 12,9 Z"/>
</svg>
