<svg xmlns="http://www.w3.org/2000/svg" width="24" height="24" viewBox="0 0 24 24">
  <path d="M3.61289944,17.7902954 L3.70710678,17.7071068 L10,11.415 L13.2928932,14.7071068 C13.6533772,15.0675907 14.2206082,15.0953203 14.6128994,14.7902954 L14.7071068,14.7071068 L19,10.415 L20.2928932,11.7071068 C20.8954683,12.3096819 21.9071808,11.9276677 21.9940167,11.1136309 L22,11 L21.9982503,6.94061549 L21.989279,6.85305043 L21.964279,6.73416039 L21.9401054,6.65833354 L21.9063266,6.57677845 L21.8540045,6.47929125 L21.7870723,6.38297765 L21.7070891,6.29285919 C21.6717127,6.25749917 21.6343256,6.22531295 21.5953066,6.19633458 L21.4840621,6.12467117 L21.371336,6.07122549 L21.265993,6.03584514 L21.1484669,6.0110178 L21.0892501,6.00396641 L21,6 L17,6 C16.1478301,6 15.7025662,6.98551359 16.2167748,7.62252676 L16.2928932,7.70710678 L17.585,9 L14,12.585 L10.7071068,9.29289322 C10.3466228,8.93240926 9.77939176,8.90467972 9.38710056,9.20970461 L9.29289322,9.29289322 L2.29289322,16.2928932 C1.90236893,16.6834175 1.90236893,17.3165825 2.29289322,17.7071068 C2.65337718,18.0675907 3.22060824,18.0953203 3.61289944,17.7902954 Z"/>
</svg>
