<svg xmlns="http://www.w3.org/2000/svg" width="24" height="24" viewBox="0 0 24 24">
  <path fill-rule="evenodd" d="M17,20 C17.5522847,20 18,20.4477153 18,21 C18,21.5522847 17.5522847,22 17,22 L7,22 C6.44771525,22 6,21.5522847 6,21 C6,20.4477153 6.44771525,20 7,20 L17,20 Z M17,2 C17.5128358,2 17.9355072,2.38604019 17.9932723,2.88337887 L18,3 L18,12 C18,15.3137085 15.3137085,18 12,18 C8.76160306,18 6.12242824,15.4344251 6.00413847,12.2249383 L6,12 L6,3 C6,2.44771525 6.44771525,2 7,2 C7.51283584,2 7.93550716,2.38604019 7.99327227,2.88337887 L8,3 L8,12 C8,14.209139 9.790861,16 12,16 C14.1421954,16 15.8910789,14.3160315 15.9951047,12.1996403 L16,12 L16,3 C16,2.44771525 16.4477153,2 17,2 Z"/>
</svg>
