<svg xmlns="http://www.w3.org/2000/svg" width="24" height="24" viewBox="0 0 24 24">
  <path fill-rule="evenodd" d="M4.38710056,10.7902954 L4.29289322,10.7071068 C3.93240926,10.3466228 3.90467972,9.77939176 4.20970461,9.38710056 L4.29289322,9.29289322 L11.2928932,2.29289322 L11.336853,2.2514958 L11.336853,2.2514958 L11.4046934,2.19633458 L11.4046934,2.19633458 L11.5159379,2.12467117 L11.5159379,2.12467117 L11.628664,2.07122549 L11.628664,2.07122549 L11.734007,2.03584514 L11.734007,2.03584514 L11.8819045,2.00690716 L11.8819045,2.00690716 L12,2 L12.0752385,2.00278786 L12.0752385,2.00278786 L12.2007258,2.02024007 L12.2007258,2.02024007 L12.3121425,2.04973809 L12.3121425,2.04973809 L12.4232215,2.09367336 L12.4232215,2.09367336 L12.5207088,2.14599545 L12.5207088,2.14599545 L12.625449,2.21968877 L12.625449,2.21968877 L12.7071068,2.29289322 L19.7071068,9.29289322 C20.0976311,9.68341751 20.0976311,10.3165825 19.7071068,10.7071068 C19.3466228,11.0675907 18.7793918,11.0953203 18.3871006,10.7902954 L18.2928932,10.7071068 L13,5.416 L13,21 C13,21.5522847 12.5522847,22 12,22 C11.4477153,22 11,21.5522847 11,21 L11,5.414 L5.70710678,10.7071068 C5.34662282,11.0675907 4.77939176,11.0953203 4.38710056,10.7902954 L4.29289322,10.7071068 L4.38710056,10.7902954 Z"/>
</svg>
