<svg xmlns="http://www.w3.org/2000/svg" width="24" height="24" viewBox="0 0 24 24">
  <path fill-rule="evenodd" d="M21,16 C21.5128358,16 21.9355072,16.3860402 21.9932723,16.8833789 L22,17 L22,19 C22,20.5976809 20.75108,21.9036609 19.1762728,21.9949073 L19,22 L5,22 C3.40231912,22 2.09633912,20.75108 2.00509269,19.1762728 L2,19 L2,17 C2,16.4477153 2.44771525,16 3,16 C3.51283584,16 3.93550716,16.3860402 3.99327227,16.8833789 L4,17 L4,19 C4,19.5128358 4.38604019,19.9355072 4.88337887,19.9932723 L5,20 L19,20 C19.5128358,20 19.9355072,19.6139598 19.9932723,19.1166211 L20,19 L20,17 C20,16.4477153 20.4477153,16 21,16 Z M12,2 C12.5522847,2 13,2.44771525 13,3 L13,12.585 L14.2928932,11.2928932 C14.6533772,10.9324093 15.2206082,10.9046797 15.6128994,11.2097046 L15.7071068,11.2928932 C16.0675907,11.6533772 16.0953203,12.2206082 15.7902954,12.6128994 L15.7071068,12.7071068 L12.7071068,15.7071068 L12.663147,15.7485042 L12.663147,15.7485042 L12.5953066,15.8036654 L12.5953066,15.8036654 L12.4840621,15.8753288 L12.4840621,15.8753288 L12.371336,15.9287745 L12.371336,15.9287745 L12.265993,15.9641549 L12.265993,15.9641549 L12.1174742,15.9931658 L12.1174742,15.9931658 L12,16 L12,16 L11.9247615,15.9972121 L11.9247615,15.9972121 L11.7992742,15.9797599 L11.7992742,15.9797599 L11.6878575,15.9502619 L11.6878575,15.9502619 L11.5767785,15.9063266 L11.5767785,15.9063266 L11.4792912,15.8540045 L11.4792912,15.8540045 L11.3832499,15.787214 C11.3515341,15.7623312 11.3213595,15.7355731 11.2928932,15.7071068 L8.29289322,12.7071068 C7.90236893,12.3165825 7.90236893,11.6834175 8.29289322,11.2928932 C8.65337718,10.9324093 9.22060824,10.9046797 9.61289944,11.2097046 L9.70710678,11.2928932 L11,12.585 L11,3 C11,2.44771525 11.4477153,2 12,2 Z"/>
</svg>
