<svg xmlns="http://www.w3.org/2000/svg" width="24" height="24" viewBox="0 0 24 24">
  <path fill-rule="evenodd" d="M12,4 C14.0004463,4 15.8484557,4.65266013 17.342709,5.75666121 L17.2928932,5.70710678 C16.9023689,5.31658249 16.9023689,4.68341751 17.2928932,4.29289322 C17.6533772,3.93240926 18.2206082,3.90467972 18.6128994,4.20970461 L18.7071068,4.29289322 L20.7071068,6.29289322 C21.0976311,6.68341751 21.0976311,7.31658249 20.7071068,7.70710678 C20.3466228,8.06759074 19.7793918,8.09532028 19.3871006,7.79029539 L19.2928932,7.70710678 L19.2433388,7.65729102 C20.3473399,9.15154428 21,10.9995537 21,13 C21,17.9705627 16.9705627,22 12,22 C7.02943725,22 3,17.9705627 3,13 C3,8.02943725 7.02943725,4 12,4 Z M12,6 C8.13400675,6 5,9.13400675 5,13 C5,16.8659932 8.13400675,20 12,20 C15.8659932,20 19,16.8659932 19,13 C19,9.13400675 15.8659932,6 12,6 Z M12,8 C12.5522847,8 13,8.44771525 13,9 L13,13 C13,13.5522847 12.5522847,14 12,14 C11.4477153,14 11,13.5522847 11,13 L11,9 C11,8.44771525 11.4477153,8 12,8 Z M15,2 C15.5522847,2 16,2.44771525 16,3 C16,3.55228475 15.5522847,4 15,4 L9,4 C8.44771525,4 8,3.55228475 8,3 C8,2.44771525 8.44771525,2 9,2 L15,2 Z"/>
</svg>
