<svg xmlns="http://www.w3.org/2000/svg" width="24" height="24" viewBox="0 0 24 24">
  <path fill-rule="evenodd" d="M9.5547002,9.83205029 C9.83289886,9.64658452 10,9.33435319 10,9 L10,5 C10,3.34314575 8.65685425,2 7,2 L3,2 C2.44771525,2 2,2.44771525 2,3 C2,12.9411255 11.0588745,22 21,22 C21.5522847,22 22,21.5522847 22,21 L22,17 C22,15.3431458 20.6568542,14 19,14 L15,14 C14.6656468,14 14.3534155,14.1671011 14.1679497,14.4452998 L12.2626046,17.3033175 C10.187391,15.961484 8.36924805,14.1891773 6.97074067,12.1489624 L6.6966825,11.7373954 L9.5547002,9.83205029 Z M15.5351838,16 L19,16 C19.5522847,16 20,16.4477153 20,17 L20,19.9653271 C18.0627576,19.8312776 16.1721397,19.3131585 14.4087453,18.4915688 L14.0041032,18.2966209 L15.5351838,16 Z M18.6130029,2.20971003 L18.7072102,2.29290079 L21.7072102,5.29297078 L21.7834942,5.37848508 L21.7834942,5.37848508 L21.834245,5.4483084 L21.834245,5.4483084 L21.8914407,5.54624439 L21.8914407,5.54624439 L21.9307165,5.63339655 L21.9307165,5.63339655 L21.9642583,5.73410358 L21.9642583,5.73410358 L21.9890856,5.85163271 L21.9995612,5.9670744 L21.9995612,5.9670744 L22.0001034,6.00012927 L21.9965063,6.08510805 L21.9890841,6.14909049 L21.9643825,6.26596888 L21.9643825,6.26596888 L21.9402088,6.34179351 L21.9402088,6.34179351 L21.9064301,6.42333591 L21.9064301,6.42333591 L21.854108,6.52082563 L21.854108,6.52082563 L21.8037899,6.59528858 L21.8037899,6.59528858 L21.7072102,6.70722848 L18.7072102,9.70730604 C18.3166859,10.0978404 17.6835209,10.0978404 17.2929966,9.70730604 C16.9325127,9.34681276 16.9047831,8.77956704 17.209808,8.38726569 L17.2929966,8.29305592 L18.5851034,7.00020684 L13.0001034,7.00012927 C12.4872676,7.00012927 12.0645963,6.61408908 12.0068311,6.1167504 L12.0001034,6.00007756 C12.0001034,5.44779281 12.4478187,5.00007756 13.0001034,5.00007756 L18.5851034,5.00020684 L17.2929966,3.70715092 C16.9325127,3.34665764 16.9047831,2.77941191 17.209808,2.38711057 L17.2929966,2.29290079 C17.6534806,1.93240751 18.2207117,1.90467726 18.6130029,2.20971003 Z M7,4 C7.55228475,4 8,4.44771525 8,5 L8,8.46481624 L5.70337914,9.99589681 C4.76882476,8.11844872 4.17903392,6.08626103 4.03467288,4 L7,4 Z"/>
</svg>
