<svg xmlns="http://www.w3.org/2000/svg" width="24" height="24" viewBox="0 0 24 24">
  <path fill-rule="evenodd" d="M5.63603897,5.56528543 L10.607235,10.5356269 C10.9673432,10.1876809 11.4585444,9.97346742 12,9.97346742 C13.1045695,9.97346742 14,10.8649382 14,11.9646232 C14,12.5071149 13.7820879,12.9989355 13.4286552,13.3580578 L18.363961,18.2932075 C18.7544853,18.6837318 18.7544853,19.3168968 18.363961,19.707421 C17.9734367,20.0979453 17.3402718,20.0979453 16.9497475,19.707421 L16.0497581,18.8084258 C14.7648739,19.5525092 13.4151328,19.9292465 12,19.9292465 C8.41439253,19.9292465 5.24859557,17.510615 2.4939115,12.8261139 L2.28282345,12.4613011 L2,11.9646232 L2.28282345,11.4679454 C3.12423043,9.99031624 4.0045657,8.72698774 4.92408291,7.6824147 L4.22182541,6.97949899 C3.83130112,6.5889747 3.83130112,5.95580972 4.22182541,5.56528543 C4.6123497,5.17476113 5.24551468,5.17476113 5.63603897,5.56528543 Z M4.54571643,11.5690181 L4.30531955,11.9646232 L4.51335888,12.3078896 C6.87517493,16.1384427 9.3741493,17.9380906 12,17.9380906 C12.8728303,17.9380906 13.7312862,17.7395763 14.574982,17.3343383 L10.7963795,13.5549799 C10.6452582,13.4414381 10.5108327,13.3070405 10.397421,13.1560858 L6.33749051,9.09402155 C5.73182607,9.79538377 5.13451503,10.6191901 4.54571643,11.5690181 Z M12,4 C15.5856075,4 18.7514044,6.41863148 21.5060885,11.1031326 L21.7171765,11.4679454 L22,11.9646232 L21.5112563,12.8173223 C20.7424542,14.1257502 19.9416188,15.2576296 19.1085608,16.2096377 L17.6965317,14.7975123 C18.3734413,14.0080522 19.039593,13.0654213 19.6947584,11.9647541 C17.2717689,7.89826311 14.7031106,5.99115581 12,5.99115581 C11.1437144,5.99115581 10.3009209,6.18253062 9.47197592,6.57329962 L7.99437852,5.09542001 C9.26602647,4.36816414 10.6010615,4 12,4 Z"/>
</svg>
