<svg xmlns="http://www.w3.org/2000/svg" width="24" height="24" viewBox="0 0 24 24">
  <path fill-rule="evenodd" d="M21,4 C21.5522847,4 22,3.55228475 22,3 C22,2.44771525 21.5522847,2 21,2 L3,2 C2.44771525,2 2,2.44771525 2,3 C2,3.55228475 2.44771525,4 3,4 L21,4 Z M12,15 C12.5522847,15 13,14.5522847 13,14 L13,13 L14,13 C14.5522847,13 15,12.5522847 15,12 C15,11.4477153 14.5522847,11 14,11 L13,11 L13,10 C13,9.44771525 12.5522847,9 12,9 C11.4477153,9 11,9.44771525 11,10 L11,11 L10,11 C9.44771525,11 9,11.4477153 9,12 C9,12.5522847 9.44771525,13 10,13 L11,13 L11,14 C11,14.5522847 11.4477153,15 12,15 Z M3,14 C3.55228475,14 4,13.5522847 4,13 L4,11 C4,10.4477153 3.55228475,10 3,10 C2.44771525,10 2,10.4477153 2,11 L2,13 C2,13.5522847 2.44771525,14 3,14 Z M21,14 C21.5522847,14 22,13.5522847 22,13 L22,11 C22,10.4477153 21.5522847,10 21,10 C20.4477153,10 20,10.4477153 20,11 L20,13 C20,13.5522847 20.4477153,14 21,14 Z M21,22 L21.1166211,21.9932723 C21.575703,21.9399506 21.9399506,21.575703 21.9932723,21.1166211 L22,21 L22,19 L21.9932723,18.8833789 C21.9399506,18.424297 21.575703,18.0600494 21.1166211,18.0067277 L21,18 L20.8833789,18.0067277 C20.424297,18.0600494 20.0600494,18.424297 20.0067277,18.8833789 L20,19 L20,20 L19,20 L18.8833789,20.0067277 C18.3860402,20.0644928 18,20.4871642 18,21 C18,21.5128358 18.3860402,21.9355072 18.8833789,21.9932723 L19,22 L21,22 Z M5,22 L5.11662113,21.9932723 C5.61395981,21.9355072 6,21.5128358 6,21 C6,20.5266131 5.67106635,20.1300527 5.22929083,20.0264107 L5.11662113,20.0067277 L5,20 L4,20 L4,19 L3.99327227,18.8833789 C3.9443941,18.4625538 3.63425172,18.1214159 3.22929083,18.0264107 L3.11662113,18.0067277 L3,18 L2.88337887,18.0067277 C2.46255383,18.0556059 2.12141588,18.3657483 2.02641071,18.7707092 L2.00672773,18.8833789 L2,19 L2,21 L2.00672773,21.1166211 C2.0556059,21.5374462 2.36574828,21.8785841 2.77070917,21.9735893 L2.88337887,21.9932723 L3,22 L5,22 Z M13,22 C13.5522847,22 14,21.5522847 14,21 C14,20.4477153 13.5522847,20 13,20 L11,20 C10.4477153,20 10,20.4477153 10,21 C10,21.5522847 10.4477153,22 11,22 L13,22 Z"/>
</svg>
