<svg xmlns="http://www.w3.org/2000/svg" width="24" height="24" viewBox="0 0 24 24">
  <path fill-rule="evenodd" d="M12,2 C14.6887547,2 16.8818181,4.12230671 16.9953805,6.78311038 L17,7 L17,10 C18.6568542,10 20,11.3431458 20,13 L20,19 C20,20.6568542 18.6568542,22 17,22 L7,22 C5.34314575,22 4,20.6568542 4,19 L4,13 C4,11.3431458 5.34314575,10 7,10 L15,10 L15,7 C15,5.40231912 13.75108,4.09633912 12.1762728,4.00509269 L12,4 C10.3431458,4 9,5.34314575 9,7 C9,7.55228475 8.55228475,8 8,8 C7.44771525,8 7,7.55228475 7,7 C7,4.23857625 9.23857625,2 12,2 Z M17,12 L7,12 C6.44771525,12 6,12.4477153 6,13 L6,19 C6,19.5522847 6.44771525,20 7,20 L17,20 C17.5522847,20 18,19.5522847 18,19 L18,13 C18,12.4477153 17.5522847,12 17,12 Z"/>
</svg>
