<svg xmlns="http://www.w3.org/2000/svg" width="24" height="24" viewBox="0 0 24 24">
  <path fill-rule="evenodd" d="M3,18 C3.47338693,18 3.86994729,18.3289337 3.97358929,18.7707092 L3.99327227,18.8833789 L4,19 L4,20 L5,20 L5.11662113,20.0067277 C5.53744617,20.0556059 5.87858412,20.3657483 5.97358929,20.7707092 L5.99327227,20.8833789 L6,21 L5.99327227,21.1166211 C5.9443941,21.5374462 5.63425172,21.8785841 5.22929083,21.9735893 L5.11662113,21.9932723 L5,22 L3,22 L2.88337887,21.9932723 C2.46255383,21.9443941 2.12141588,21.6342517 2.02641071,21.2292908 L2.00672773,21.1166211 L2,21 L2,19 L2.00672773,18.8833789 C2.06449284,18.3860402 2.48716416,18 3,18 Z M12,2 C12.5522847,2 13,2.44771525 13,3 L13,21 C13,21.5522847 12.5522847,22 12,22 C11.4477153,22 11,21.5522847 11,21 L11,3 C11,2.44771525 11.4477153,2 12,2 Z M21,18 C21.4733869,18 21.8699473,18.3289337 21.9735893,18.7707092 L21.9932723,18.8833789 L22,19 L22,21 L21.9932723,21.1166211 L21.9735893,21.2292908 C21.8880846,21.5937556 21.6032124,21.8814174 21.2403116,21.9709373 L21.1166211,21.9932723 L21,22 L19,22 L18.8833789,21.9932723 L18.7707092,21.9735893 C18.4062444,21.8880846 18.1185826,21.6032124 18.0290627,21.2403116 L18.0067277,21.1166211 L18,21 L18.0067277,20.8833789 L18.0264107,20.7707092 C18.1119154,20.4062444 18.3967876,20.1185826 18.7596884,20.0290627 L18.8833789,20.0067277 L19,20 L20,20 L20,19 L20.0067277,18.8833789 L20.0264107,18.7707092 C20.1300527,18.3289337 20.5266131,18 21,18 Z M3,10 C3.55228475,10 4,10.4477153 4,11 L4,13 C4,13.5522847 3.55228475,14 3,14 C2.44771525,14 2,13.5522847 2,13 L2,11 C2,10.4477153 2.44771525,10 3,10 Z M21,10 C21.5128358,10 21.9355072,10.3860402 21.9932723,10.8833789 L22,11 L22,13 C22,13.5522847 21.5522847,14 21,14 C20.4871642,14 20.0644928,13.6139598 20.0067277,13.1166211 L20,13 L20,11 C20,10.4477153 20.4477153,10 21,10 Z M5,2 L5.11662113,2.00672773 C5.57570299,2.06004937 5.93995063,2.42429701 5.99327227,2.88337887 L6,3 L5.99327227,3.11662113 C5.93995063,3.57570299 5.57570299,3.93995063 5.11662113,3.99327227 L5,4 L4,4 L4,5 L3.99327227,5.11662113 C3.93550716,5.61395981 3.51283584,6 3,6 C2.48716416,6 2.06449284,5.61395981 2.00672773,5.11662113 L2,5 L2,3 L2.00672773,2.88337887 C2.06004937,2.42429701 2.42429701,2.06004937 2.88337887,2.00672773 L3,2 L5,2 Z M21,2 L21.1166211,2.00672773 C21.5374462,2.0556059 21.8785841,2.36574828 21.9735893,2.77070917 L21.9932723,2.88337887 L22,3 L22,5 L21.9932723,5.11662113 C21.9355072,5.61395981 21.5128358,6 21,6 C20.5266131,6 20.1300527,5.67106635 20.0264107,5.22929083 L20.0067277,5.11662113 L20,5 L20,4 L19,4 L18.8833789,3.99327227 C18.4625538,3.9443941 18.1214159,3.63425172 18.0264107,3.22929083 L18.0067277,3.11662113 L18,3 L18.0067277,2.88337887 C18.0556059,2.46255383 18.3657483,2.12141588 18.7707092,2.02641071 L18.8833789,2.00672773 L19,2 L21,2 Z"/>
</svg>
