<svg xmlns="http://www.w3.org/2000/svg" width="24" height="24" viewBox="0 0 24 24">
  <path fill-rule="evenodd" d="M19,2 C20.6568542,2 22,3.34314575 22,5 L22,19 C22,20.6568542 20.6568542,22 19,22 L5,22 C3.34314575,22 2,20.6568542 2,19 L2,5 C2,3.34314575 3.34314575,2 5,2 L19,2 Z M19,4 L5,4 C4.44771525,4 4,4.44771525 4,5 L4,19 C4,19.5522847 4.44771525,20 5,20 L19,20 C19.5522847,20 20,19.5522847 20,19 L20,5 C20,4.44771525 19.5522847,4 19,4 Z M9,6 L12,6 C14.209139,6 16,7.790861 16,10 C16,12.1421954 14.3160315,13.8910789 12.1996403,13.9951047 L12,14 L10,14 L10,17 C10,17.5522847 9.55228475,18 9,18 C8.44771525,18 8,17.5522847 8,17 L8,7 C8,6.44771525 8.44771525,6 9,6 L12,6 L9,6 Z M12,8 L10,8 L10,12 L12,12 L12.1492623,11.9945143 C13.1841222,11.9181651 14,11.0543618 14,10 C14,8.8954305 13.1045695,8 12,8 Z"/>
</svg>
