<svg xmlns="http://www.w3.org/2000/svg" width="24" height="24" viewBox="0 0 24 24">
  <path d="M12,2 C14.1421954,2 15.8910789,3.68396847 15.9951047,5.80035966 L16,6 L16.0009007,6.17102423 C16.8482841,6.47083722 17.5208107,7.14059603 17.8243776,7.98619771 C18.3775427,7.93308996 18.8969141,7.68887231 19.2928932,7.29289322 C19.7003708,6.88541564 19.9471452,6.3472755 19.9924253,5.77695139 L20,5.58578644 L20,5 L20.0067277,4.88337887 C20.0644928,4.38604019 20.4871642,4 21,4 C21.5128358,4 21.9355072,4.38604019 21.9932723,4.88337887 L22,5 L22,5.58578644 L21.9938294,5.81921837 C21.9363787,6.90490079 21.479744,7.93446953 20.7071068,8.70710678 C19.9777124,9.43650119 19.0193415,9.88427517 18.0009458,9.98044661 L18,12 L21,12 C21.5522847,12 22,12.4477153 22,13 C22,13.5522847 21.5522847,14 21,14 L18,14 L18.0009458,16.0195534 C19.0193415,16.1157248 19.9777124,16.5634988 20.7071068,17.2928932 C21.479744,18.0655305 21.9363787,19.0950992 21.9938294,20.1807816 L22,20.4142136 L22,21 C22,21.5522847 21.5522847,22 21,22 C20.4871642,22 20.0644928,21.6139598 20.0067277,21.1166211 L20,21 L20,20.4142136 C20,19.7739243 19.7456461,19.1598596 19.2928932,18.7071068 C18.8854156,18.2996292 18.3472755,18.0528548 17.7769514,18.0075747 L17.6572765,18.0037085 C16.8325575,20.3321558 14.6110517,22 12,22 C9.38894833,22 7.16744253,20.3321558 6.34272355,18.0037085 L6.22304861,18.0075747 C5.6527245,18.0528548 5.11458436,18.2996292 4.70710678,18.7071068 C4.2996292,19.1145844 4.05285477,19.6527245 4.00757466,20.2230486 L4,20.4142136 L4,21 L3.99327227,21.1166211 C3.93550716,21.6139598 3.51283584,22 3,22 C2.48716416,22 2.06449284,21.6139598 2.00672773,21.1166211 L2,21 L2,20.4142136 L2.00617059,20.1807816 C2.06362127,19.0950992 2.52025597,18.0655305 3.29289322,17.2928932 C4.02252654,16.5632599 4.98128639,16.1154315 6.00005498,16.019459 L6,14 L3,14 C2.44771525,14 2,13.5522847 2,13 C2,12.4477153 2.44771525,12 3,12 L6,12 L6.00005498,9.980541 C4.98128639,9.88456847 4.02252654,9.4367401 3.29289322,8.70710678 C2.52025597,7.93446953 2.06362127,6.90490079 2.00617059,5.81921837 L2,5.58578644 L2,5 C2,4.44771525 2.44771525,4 3,4 C3.51283584,4 3.93550716,4.38604019 3.99327227,4.88337887 L4,5 L4,5.58578644 C4,6.22607568 4.25435391,6.84014035 4.70710678,7.29289322 C5.10308588,7.68887231 5.62245732,7.93308996 6.1748463,7.98811167 C6.47930745,7.14026687 7.15223954,6.47031582 8.00008893,6.17067428 L8,6 C8,3.790861 9.790861,2 12,2 Z M15,8 L9,8 C8.48716416,8 8.06449284,8.38604019 8.00672773,8.88337887 L8,9 L8,16 C8,18.209139 9.790861,20 12,20 C14.1421954,20 15.8910789,18.3160315 15.9951047,16.1996403 L16,16 L16,9 C16,8.48716416 15.6139598,8.06449284 15.1166211,8.00672773 L15,8 Z M12,4 C10.9456382,4 10.0818349,4.81587779 10.0054857,5.85073766 L10,6 L14,6 C14,4.99835629 13.2636703,4.16869161 12.3027743,4.0227694 L12.1492623,4.00548574 L12,4 Z"/>
</svg>
