<svg xmlns="http://www.w3.org/2000/svg" width="24" height="24" viewBox="0 0 24 24">
  <path fill-rule="evenodd" d="M13,9 C13,8.44771525 12.5522847,8 12,8 C11.4477153,8 11,8.44771525 11,9 L11,12 C11,12.2652165 11.1053568,12.5195704 11.2928932,12.7071068 L13.2928932,14.7071068 C13.6834175,15.0976311 14.3165825,15.0976311 14.7071068,14.7071068 C15.0976311,14.3165825 15.0976311,13.6834175 14.7071068,13.2928932 L13,11.5857864 L13,9 Z M12,4 C16.9705627,4 21,8.02943725 21,13 C21,17.9705627 16.9705627,22 12,22 C7.02943725,22 3,17.9705627 3,13 C3,8.02943725 7.02943725,4 12,4 Z M12,6 C8.13400675,6 5,9.13400675 5,13 C5,16.8659932 8.13400675,20 12,20 C15.8659932,20 19,16.8659932 19,13 C19,9.13400675 15.8659932,6 12,6 Z M17.2928932,2.29289322 C17.6834175,1.90236893 18.3165825,1.90236893 18.7071068,2.29289322 L18.7071068,2.29289322 L21.7071068,5.29289322 C22.0976311,5.68341751 22.0976311,6.31658249 21.7071068,6.70710678 C21.3165825,7.09763107 20.6834175,7.09763107 20.2928932,6.70710678 L20.2928932,6.70710678 L17.2928932,3.70710678 C16.9023689,3.31658249 16.9023689,2.68341751 17.2928932,2.29289322 Z M6.70710678,2.29289322 C7.09763107,2.68341751 7.09763107,3.31658249 6.70710678,3.70710678 L3.70710678,6.70710678 C3.31658249,7.09763107 2.68341751,7.09763107 2.29289322,6.70710678 C1.90236893,6.31658249 1.90236893,5.68341751 2.29289322,5.29289322 L5.29289322,2.29289322 C5.68341751,1.90236893 6.31658249,1.90236893 6.70710678,2.29289322 Z"/>
</svg>
