<svg xmlns="http://www.w3.org/2000/svg" width="24" height="24" viewBox="0 0 24 24">
  <path fill-rule="evenodd" d="M7,16 L17,16 C19.7614237,16 22,18.2385763 22,21 C22,21.5522847 21.5522847,22 21,22 C20.4871642,22 20.0644928,21.6139598 20.0067277,21.1166211 L19.9949073,20.8237272 C19.9070404,19.3072462 18.6927538,18.0929596 17.1762728,18.0050927 L17,18 L7,18 C5.34314575,18 4,19.3431458 4,21 C4,21.5522847 3.55228475,22 3,22 C2.44771525,22 2,21.5522847 2,21 C2,18.3112453 4.12230671,16.1181819 6.78311038,16.0046195 L7,16 Z M12,2 C12.4062134,2 12.8078123,2.04051239 13.2003571,2.12029429 C13.7415768,2.23029326 14.0911502,2.75821022 13.9811512,3.29942984 C13.8711522,3.84064945 13.3432353,4.19022286 12.8020157,4.08022389 C12.5403924,4.02705085 12.2722375,4 12,4 C9.790861,4 8,5.790861 8,8 C8,10.209139 9.790861,12 12,12 C13.2748073,12 14.4481613,11.4008085 15.2000781,10.4003828 C15.5318999,9.95889366 16.1587924,9.86999074 16.6002816,10.2018126 C17.0417708,10.5336345 17.1306737,11.1605269 16.7988518,11.6020161 C15.6730783,13.0998584 13.9103951,14 12,14 C8.6862915,14 6,11.3137085 6,8 C6,4.6862915 8.6862915,2 12,2 Z M19,2 C19.5522847,2 20,2.44771525 20,3 L20,4 L21,4 C21.5522847,4 22,4.44771525 22,5 C22,5.55228475 21.5522847,6 21,6 L20,6 L20,7 C20,7.55228475 19.5522847,8 19,8 C18.4477153,8 18,7.55228475 18,7 L18,6 L17,6 C16.4477153,6 16,5.55228475 16,5 C16,4.44771525 16.4477153,4 17,4 L18,4 L18,3 C18,2.44771525 18.4477153,2 19,2 Z"/>
</svg>
