<svg xmlns="http://www.w3.org/2000/svg" width="24" height="24" viewBox="0 0 24 24">
  <path fill-rule="evenodd" d="M12,2 C17.5228475,2 22,6.4771525 22,12 C22,17.5228475 17.5228475,22 12,22 C6.4771525,22 2,17.5228475 2,12 C2,6.4771525 6.4771525,2 12,2 Z M18.3206595,7.09538813 L7.09547725,18.3207287 C8.44997896,19.3732643 10.1517985,20 12,20 C16.418278,20 20,16.418278 20,12 C20,10.151758 19.3732368,8.44990431 18.3206595,7.09538813 Z M11.0000487,4.06188768 C7.05371356,4.55396414 4,7.92036556 4,12 C4,13.8482015 4.62673571,15.550021 5.67927125,16.9045228 L11.0000487,11.584 L11.0000487,4.06188768 Z M13.0009551,4.06201291 L13,9.584 L16.9046965,5.67940629 C15.7985982,4.8198477 14.4608751,4.24424057 13.0009551,4.06201291 Z"/>
</svg>
