<svg xmlns="http://www.w3.org/2000/svg" width="24" height="24" viewBox="0 0 24 24">
  <path fill-rule="evenodd" d="M11.4434703,19.4783366 L7.11534027,21.8561884 C6.53071469,22.1773786 5.80762087,21.9424899 5.50026501,21.3315498 C5.3778743,21.0882703 5.3356403,20.8096129 5.38010133,20.5387172 L6.2067006,15.5023462 C6.27323987,15.0969303 6.14461904,14.6832584 5.86275418,14.3961413 L2.36122346,10.8293635 C1.88825143,10.3475782 1.87857357,9.55633639 2.33960735,9.06207547 C2.52319342,8.86525818 2.76374635,8.73717345 3.02402575,8.69765029 L7.8630222,7.96285367 C8.25254987,7.90370429 8.58928356,7.64804097 8.76348563,7.27918144 L10.9275506,2.69693973 C11.2198634,2.07798981 11.936976,1.82386417 12.5292664,2.12933421 C12.7651196,2.25097399 12.9560234,2.45047063 13.0724239,2.69693973 L15.2364889,7.27918144 C15.410691,7.64804097 15.7474247,7.90370429 16.1369524,7.96285367 L20.9759488,8.69765029 C21.6295801,8.79690353 22.0824579,9.43108706 21.9874797,10.1141388 C21.9496589,10.3861337 21.827091,10.6375141 21.6387511,10.8293635 L18.1372204,14.3961413 C17.8553555,14.6832584 17.7267347,15.0969303 17.793274,15.5023462 L18.6198732,20.5387172 C18.7315268,21.219009 18.2943081,21.8650816 17.6433179,21.9817608 C17.3840902,22.028223 17.1174353,21.984088 16.8846343,21.8561884 L12.5565043,19.4783366 C12.2081001,19.2869252 11.7918744,19.2869252 11.4434703,19.4783366 Z"/>
</svg>
