<svg xmlns="http://www.w3.org/2000/svg" width="24" height="24" viewBox="0 0 24 24">
  <path fill-rule="evenodd" d="M12.7071068,15.2928932 L17.7071068,20.2928932 C18.0976311,20.6834175 18.0976311,21.3165825 17.7071068,21.7071068 C17.3165825,22.0976311 16.6834175,22.0976311 16.2928932,21.7071068 L12,17.4142136 L7.70710678,21.7071068 C7.31658249,22.0976311 6.68341751,22.0976311 6.29289322,21.7071068 C5.90236893,21.3165825 5.90236893,20.6834175 6.29289322,20.2928932 L11.2928932,15.2928932 C11.6834175,14.9023689 12.3165825,14.9023689 12.7071068,15.2928932 Z M6.29289322,2.29289322 C6.65337718,1.93240926 7.22060824,1.90467972 7.61289944,2.20970461 L7.70710678,2.29289322 L12,6.58578644 L16.2928932,2.29289322 C16.6834175,1.90236893 17.3165825,1.90236893 17.7071068,2.29289322 C18.0675907,2.65337718 18.0953203,3.22060824 17.7902954,3.61289944 L17.7071068,3.70710678 L12.7071068,8.70710678 C12.3466228,9.06759074 11.7793918,9.09532028 11.3871006,8.79029539 L11.2928932,8.70710678 L6.29289322,3.70710678 C5.90236893,3.31658249 5.90236893,2.68341751 6.29289322,2.29289322 Z"/>
</svg>
