<svg xmlns="http://www.w3.org/2000/svg" width="24" height="24" viewBox="0 0 24 24">
  <path fill-rule="evenodd" d="M8,2 C9.65685425,2 11,3.34314575 11,5 L11,19 C11,20.6568542 9.65685425,22 8,22 L5,22 C3.34314575,22 2,20.6568542 2,19 L2,5 C2,3.34314575 3.34314575,2 5,2 L8,2 Z M19,2 C20.6568542,2 22,3.34314575 22,5 L22,19 C22,20.6568542 20.6568542,22 19,22 L16,22 C14.3431458,22 13,20.6568542 13,19 L13,5 C13,3.34314575 14.3431458,2 16,2 L19,2 Z M8,4 L5,4 C4.44771525,4 4,4.44771525 4,5 L4,19 C4,19.5522847 4.44771525,20 5,20 L8,20 C8.55228475,20 9,19.5522847 9,19 L9,5 C9,4.44771525 8.55228475,4 8,4 Z M19,4 L16,4 C15.4477153,4 15,4.44771525 15,5 L15,19 C15,19.5522847 15.4477153,20 16,20 L19,20 C19.5522847,20 20,19.5522847 20,19 L20,5 C20,4.44771525 19.5522847,4 19,4 Z"/>
</svg>
