<svg xmlns="http://www.w3.org/2000/svg" width="24" height="24" viewBox="0 0 24 24">
  <path fill-rule="evenodd" d="M14,2 C14.2652165,2 14.5195704,2.10535684 14.7071068,2.29289322 L19.7071068,7.29289322 C19.8946432,7.4804296 20,7.73478351 20,8 L20,9 C20,9.55228475 19.5522847,10 19,10 L13,10 C12.4871642,10 12.0644928,9.61395981 12.0067277,9.11662113 L12,9 L11.999,4 L7,4 C6.44771525,4 6,4.44771525 6,5 L6,19 C6,19.5522847 6.44771525,20 7,20 L9,20 C9.55228475,20 10,20.4477153 10,21 C10,21.5522847 9.55228475,22 9,22 L7,22 C5.34314575,22 4,20.6568542 4,19 L4,5 C4,3.34314575 5.34314575,2 7,2 L14,2 Z M17.2928932,12.2928932 C17.6533772,11.9324093 18.2206082,11.9046797 18.6128994,12.2097046 L18.7071068,12.2928932 L21.7071068,15.2928932 C22.0675907,15.6533772 22.0953203,16.2206082 21.7902954,16.6128994 L21.7071068,16.7071068 L16.7071068,21.7071068 C16.5508265,21.8633871 16.3481451,21.9625983 16.131444,21.9913276 L16,22 L13,22 C12.4871642,22 12.0644928,21.6139598 12.0067277,21.1166211 L12,21 L12,18 C12,17.7789863 12.0731645,17.565516 12.2060806,17.3919705 L12.2928932,17.2928932 L17.2928932,12.2928932 Z M18,14.4142136 L14,18.4142136 L14,20 L15.5857864,20 L19.5857864,16 L18,14.4142136 Z M13.999,4.414 L14,8 L17.586,8 L13.999,4.414 Z"/>
</svg>
