<svg xmlns="http://www.w3.org/2000/svg" width="24" height="24" viewBox="0 0 24 24">
  <path fill-rule="evenodd" d="M21,20 C21.5522847,20 22,20.4477153 22,21 C22,21.5522847 21.5522847,22 21,22 L3,22 C2.44771525,22 2,21.5522847 2,21 C2,20.4477153 2.44771525,20 3,20 L21,20 Z M12,18 L11.918,17.996 L11.7992742,17.9797599 L11.7992742,17.9797599 L11.6878575,17.9502619 L11.6878575,17.9502619 L11.5767785,17.9063266 L11.4792912,17.8540045 L11.4792912,17.8540045 L11.4048407,17.8036865 L11.4048407,17.8036865 L11.2928932,17.7071068 L7.29289322,13.7071068 C6.90236893,13.3165825 6.90236893,12.6834175 7.29289322,12.2928932 C7.65337718,11.9324093 8.22060824,11.9046797 8.61289944,12.2097046 L8.70710678,12.2928932 L11,14.585 L11,3 C11,2.44771525 11.4477153,2 12,2 C12.5522847,2 13,2.44771525 13,3 L13,14.585 L15.2928932,12.2928932 C15.6533772,11.9324093 16.2206082,11.9046797 16.6128994,12.2097046 L16.7071068,12.2928932 C17.0675907,12.6533772 17.0953203,13.2206082 16.7902954,13.6128994 L16.7071068,13.7071068 L12.7071068,17.7071068 L12.663147,17.7485042 L12.663147,17.7485042 L12.5953066,17.8036654 L12.5953066,17.8036654 L12.4840621,17.8753288 L12.4230991,17.9063462 L12.4230991,17.9063462 L12.3416504,17.9401141 L12.3416504,17.9401141 L12.265993,17.9641549 L12.265993,17.9641549 L12.1174742,17.9931658 L12.1174742,17.9931658 L12,18 Z"/>
</svg>
