<svg xmlns="http://www.w3.org/2000/svg" width="24" height="24" viewBox="0 0 24 24">
  <path fill-rule="evenodd" d="M12,14 L12.1174742,14.0068342 L12.265993,14.0358451 L12.3416504,14.0598859 L12.4230991,14.0936538 L12.4840621,14.1246712 L12.5953066,14.1963346 L12.663147,14.2514958 L12.7071068,14.2928932 L14.7071068,16.2928932 L14.7902954,16.3871006 C15.0699015,16.7467008 15.0699015,17.2532992 14.7902954,17.6128994 L14.7071068,17.7071068 L14.6128994,17.7902954 C14.2532992,18.0699015 13.7467008,18.0699015 13.3871006,17.7902954 L13.2928932,17.7071068 L13,17.415 L13,21 C13,21.5522847 12.5522847,22 12,22 C11.4871642,22 11.0644928,21.6139598 11.0067277,21.1166211 L11,21 L11,17.415 L10.7071068,17.7071068 L10.6128994,17.7902954 C10.2206082,18.0953203 9.65337718,18.0675907 9.29289322,17.7071068 C8.93240926,17.3466228 8.90467972,16.7793918 9.20970461,16.3871006 L9.29289322,16.2928932 L11.2928932,14.2928932 L11.4048407,14.1963135 L11.4792912,14.1459955 L11.5767785,14.0936734 L11.6878575,14.0497381 L11.7992742,14.0202401 L11.918,14.004 L12,14 Z M21,11 C21.5522847,11 22,11.4477153 22,12 C22,12.5128358 21.6139598,12.9355072 21.1166211,12.9932723 L21,13 L3,13 C2.44771525,13 2,12.5522847 2,12 C2,11.4871642 2.38604019,11.0644928 2.88337887,11.0067277 L3,11 L21,11 Z M12,2 C12.5522847,2 13,2.44771525 13,3 L13,6.585 L13.2928932,6.29289322 C13.6533772,5.93240926 14.2206082,5.90467972 14.6128994,6.20970461 L14.7071068,6.29289322 C15.0675907,6.65337718 15.0953203,7.22060824 14.7902954,7.61289944 L14.7071068,7.70710678 L12.7071068,9.70710678 L12.663147,9.7485042 L12.5953066,9.80366542 L12.4840621,9.87532883 L12.4230991,9.90634622 L12.3416504,9.94011414 L12.265993,9.96415486 L12.1174742,9.99316578 L12,10 L11.918,9.996 L11.7992742,9.97975993 L11.6878575,9.95026191 L11.5767785,9.90632664 L11.4792912,9.85400455 L11.4048407,9.80368649 L11.2928932,9.70710678 L9.29289322,7.70710678 C8.90236893,7.31658249 8.90236893,6.68341751 9.29289322,6.29289322 C9.65337718,5.93240926 10.2206082,5.90467972 10.6128994,6.20970461 L10.7071068,6.29289322 L11,6.585 L11,3 C11,2.44771525 11.4477153,2 12,2 Z"/>
</svg>
