<svg xmlns="http://www.w3.org/2000/svg" width="24" height="24" viewBox="0 0 24 24">
  <path fill-rule="evenodd" d="M17,5 L5,5 C3.34314575,5 2,6.34314575 2,8 L2,16 C2,17.6568542 3.34314575,19 5,19 L17,19 L17.1762728,18.9949073 C18.75108,18.9036609 20,17.5976809 20,16 L20,15.822 L20.0293472,15.8125294 C21.1929785,15.3847436 22,14.2822516 22,13 L22,11 L21.9949073,10.8237272 C21.9278806,9.66692436 21.2053958,8.68596702 20.1933113,8.24671351 L20,8.17 L20,8 C20,6.34314575 18.6568542,5 17,5 Z M5,7 L17,7 C17.5522847,7 18,7.44771525 18,8 L18,9 C18,9.51283584 18.3860402,9.93550716 18.8833789,9.99327227 L19,10 C19.5522847,10 20,10.4477153 20,11 L20,13 C20,13.5243235 19.5945268,13.958946 19.075685,13.9972247 L18.9632725,14.0006747 C18.425643,14.0204338 18,14.4620075 18,15 L18,16 C18,16.5522847 17.5522847,17 17,17 L5,17 C4.44771525,17 4,16.5522847 4,16 L4,8 C4,7.44771525 4.44771525,7 5,7 Z"/>
</svg>
