<svg xmlns="http://www.w3.org/2000/svg" width="24" height="24" viewBox="0 0 24 24">
  <path fill-rule="evenodd" d="M8.29289322,5.29289322 L10.2928932,3.29289322 C10.6834175,2.90236893 11.3165825,2.90236893 11.7071068,3.29289322 C12.0675907,3.65337718 12.0953203,4.22060824 11.7902954,4.61289944 L11.7071068,4.70710678 L11.3891629,5.0230186 C11.5916051,5.00770767 11.7953244,5 12,5 C16.418278,5 20,8.581722 20,13 C20,17.418278 16.418278,21 12,21 C7.581722,21 4,17.418278 4,13 C4,12.4477153 4.44771525,12 5,12 C5.55228475,12 6,12.4477153 6,13 C6,16.3137085 8.6862915,19 12,19 C15.3137085,19 18,16.3137085 18,13 C18,9.6862915 15.3137085,7 12,7 C11.8129339,7 11.6271216,7.00853145 11.4429483,7.02544919 L11.7071068,7.29289322 C12.0976311,7.68341751 12.0976311,8.31658249 11.7071068,8.70710678 C11.3466228,9.06759074 10.7793918,9.09532028 10.3871006,8.79029539 L10.2928932,8.70710678 L8.29289322,6.70710678 C7.93240926,6.34662282 7.90467972,5.77939176 8.20970461,5.38710056 L8.29289322,5.29289322 L10.2928932,3.29289322 L8.29289322,5.29289322 Z"/>
</svg>
