<svg xmlns="http://www.w3.org/2000/svg" width="24" height="24" viewBox="0 0 24 24">
  <path fill-rule="evenodd" d="M17,2 C17.5522847,2 18,2.44771525 18,3 L18,4 L19,4 C20.6568542,4 22,5.34314575 22,7 L22,9 C22,9.55228475 21.5522847,10 21,10 C20.4477153,10 20,9.55228475 20,9 L20,7 C20,6.44771525 19.5522847,6 19,6 L18,6 L18,7 C18,7.55228475 17.5522847,8 17,8 C16.4477153,8 16,7.55228475 16,7 L16,6 L8,6 L8,7 C8,7.55228475 7.55228475,8 7,8 C6.44771525,8 6,7.55228475 6,7 L6,6 L5,6 C4.44771525,6 4,6.44771525 4,7 L4,10 L9,10 C9.55228475,10 10,10.4477153 10,11 C10,11.5522847 9.55228475,12 9,12 L4,12 L4,19 C4,19.5522847 4.44771525,20 5,20 L9,20 C9.55228475,20 10,20.4477153 10,21 C10,21.5522847 9.55228475,22 9,22 L5,22 C3.34314575,22 2,20.6568542 2,19 L2,7 C2,5.34314575 3.34314575,4 5,4 L6,4 L6,3 C6,2.44771525 6.44771525,2 7,2 C7.55228475,2 8,2.44771525 8,3 L8,4 L16,4 L16,3 C16,2.44771525 16.4477153,2 17,2 Z M15.7071068,14.2928932 L18,16.585 L20.2928932,14.2928932 C20.6533772,13.9324093 21.2206082,13.9046797 21.6128994,14.2097046 L21.7071068,14.2928932 C22.0675907,14.6533772 22.0953203,15.2206082 21.7902954,15.6128994 L21.7071068,15.7071068 L19.415,18 L21.7071068,20.2928932 C22.0976311,20.6834175 22.0976311,21.3165825 21.7071068,21.7071068 C21.3165825,22.0976311 20.6834175,22.0976311 20.2928932,21.7071068 L18,19.415 L15.7071068,21.7071068 C15.3466228,22.0675907 14.7793918,22.0953203 14.3871006,21.7902954 L14.2928932,21.7071068 C13.9324093,21.3466228 13.9046797,20.7793918 14.2097046,20.3871006 L14.2928932,20.2928932 L16.585,18 L14.2928932,15.7071068 C13.9023689,15.3165825 13.9023689,14.6834175 14.2928932,14.2928932 C14.6834175,13.9023689 15.3165825,13.9023689 15.7071068,14.2928932 Z"/>
</svg>
