<svg xmlns="http://www.w3.org/2000/svg" width="24" height="24" viewBox="0 0 24 24">
  <path fill-rule="evenodd" d="M17,2 C17.5522847,2 18,2.44771525 18,3 C18,3.55228475 17.5522847,4 17,4 C14.6060126,4 13.3695615,4.90326036 13.0717604,6.92866732 C13.4229999,6.87683888 13.7457832,6.79126255 14.1108662,6.6654815 L14.3937153,6.56350644 L14.7196993,6.44090113 C15.5463139,6.13352796 16.1448777,6 17,6 C20.0545577,6 22,7.94663043 22,12 C22,17.2162914 20.1608115,22 17,22 C15.8880055,22 15.1044467,21.8599764 14.1748169,21.550663 L13.8588793,21.4412484 L13.565018,21.3349077 L13.1430741,21.189038 C12.8059545,21.0819563 12.5332036,21.025221 12.2323522,21.0068101 L12,21 C11.5991488,21 11.2783255,21.0551859 10.8569259,21.189038 L10.434982,21.3349077 L10.1411207,21.4412484 C9.06562275,21.8271314 8.23554948,22 7,22 C3.83918846,22 2,17.2162914 2,12 C2,7.94663043 3.9454423,6 7,6 C7.8551223,6 8.45368607,6.13352796 9.28030074,6.44090113 L9.60628474,6.56350644 C10.1418441,6.76405507 10.5646584,6.8860076 11.0553037,6.94825409 C11.4150382,3.73397931 13.4812343,2 17,2 Z M17,8 C16.4891945,8 16.1363674,8.06446503 15.6394344,8.23553224 L15.4167595,8.31549628 L15.0950848,8.43649356 C14.139796,8.79421651 13.3984816,8.9672419 12.3306767,8.99574467 L12,9 C10.7476416,9 9.9557329,8.8299888 8.90491521,8.43649356 L8.58324046,8.31549628 C7.96121631,8.08419923 7.5837777,8 7,8 C5.05028524,8 4,9.05092667 4,12 C4,16.1876638 5.46572574,20 7,20 C7.87053805,20 8.4503572,19.8993925 9.18294373,19.6565613 L9.97723383,19.3745877 C10.7085778,19.1190199 11.2769978,19 12,19 L12.3013195,19.007338 C12.7908307,19.0318833 13.2246152,19.1184306 13.7183823,19.2733676 L14.0227662,19.3745877 L14.8170563,19.6565613 C15.5496428,19.8993925 16.1294619,20 17,20 C18.5342743,20 20,16.1876638 20,12 C20,9.05092667 18.9497148,8 17,8 Z"/>
</svg>
