<svg xmlns="http://www.w3.org/2000/svg" width="24" height="24" viewBox="0 0 24 24">
  <path fill-rule="evenodd" d="M5.63603897,5.63603897 L18.363961,18.363961 C18.7544853,18.7544853 18.7544853,19.3876503 18.363961,19.7781746 C17.9734367,20.1686989 17.3402718,20.1686989 16.9497475,19.7781746 L16.0628193,18.8930208 C15.144205,19.4356306 14.1076925,19.7998438 13.0009551,19.9379871 L13,21 C13,21.5522847 12.5522847,22 12,22 C11.4477153,22 11,21.5522847 11,21 L11.0000487,19.9381123 C7.38160685,19.4869215 4.51361653,16.6192066 4.06200545,13.0008953 L3,13 C2.44771525,13 2,12.5522847 2,12 C2,11.4477153 2.44771525,11 3,11 L4.06188125,11.0001003 C4.19994449,9.8928077 4.56430141,8.85578963 5.10721274,7.93678538 L4.22182541,7.05025253 C3.83130112,6.65972824 3.83130112,6.02656326 4.22182541,5.63603897 C4.6123497,5.24551468 5.24551468,5.24551468 5.63603897,5.63603897 Z M6,12 C6,15.3137085 8.6862915,18 12,18 C12.9260864,18 13.803169,17.7901893 14.5863067,17.4155089 L6.58449114,9.41369331 C6.20981067,10.196831 6,11.0739136 6,12 Z M12,2 C12.5522847,2 13,2.44771525 13,3 L13.0009551,4.06201291 C16.6192832,4.51365373 19.4869953,7.38169805 19.9381291,11.0001836 L21,11 C21.5522847,11 22,11.4477153 22,12 C22,12.5522847 21.5522847,13 21,13 L19.938005,13.0008119 C19.7998366,14.1079121 19.4354506,15.1447441 18.8925663,16.0635886 L17.4156917,14.5859245 C17.7902576,13.8028836 18,12.9259358 18,12 C18,8.6862915 15.3137085,6 12,6 C11.0740642,6 10.1971164,6.20974241 9.41407553,6.58430829 L7.93663904,5.10729919 C8.85566527,4.56434852 9.89271672,4.19996313 11.0000487,4.06188768 L11,3 C11,2.44771525 11.4477153,2 12,2 Z"/>
</svg>
