<svg xmlns="http://www.w3.org/2000/svg" width="24" height="24" viewBox="0 0 24 24">
  <path fill-rule="evenodd" d="M10.5427323,2 C11.3316142,2 12.0881856,2.31338213 12.6460093,2.87120589 L21.1287941,11.3539907 C22.290402,12.5155985 22.290402,14.398937 21.1287941,15.5605448 L15.5605448,21.1287941 C14.398937,22.290402 12.5155985,22.290402 11.3539907,21.1287941 L2.87120589,12.6460093 C2.31338213,12.0881856 2,11.3316142 2,10.5427323 L2,4.97448297 C2,3.33172139 3.33172139,2 4.97448297,2 L10.5427323,2 Z M10.5427323,4 L4.97448297,4 C4.43629089,4 4,4.43629089 4,4.97448297 L4,10.5427323 C4,10.8011812 4.10266845,11.0490448 4.28541945,11.2317958 L12.7682042,19.7145805 C13.1487635,20.0951398 13.765772,20.0951398 14.1463313,19.7145805 L19.7145805,14.1463313 C20.0951398,13.765772 20.0951398,13.1487635 19.7145805,12.7682042 L11.2317958,4.28541945 C11.0490448,4.10266845 10.8011812,4 10.5427323,4 Z M8,6 C9.1045695,6 10,6.8954305 10,8 C10,9.1045695 9.1045695,10 8,10 C6.8954305,10 6,9.1045695 6,8 C6,6.8954305 6.8954305,6 8,6 Z"/>
</svg>
