<svg xmlns="http://www.w3.org/2000/svg" width="24" height="24" viewBox="0 0 24 24">
  <path fill-rule="evenodd" d="M3,4 L10,4 C10.5128358,4 10.9355072,4.38604019 10.9932723,4.88337887 L11,5 L11,13 C11,13.0716547 10.9922987,13.1429971 10.9770938,13.2128093 L10.9486833,13.3162278 L8.9486833,19.3162278 C8.82494326,19.6874479 8.49787694,19.9488234 8.11604424,19.9932782 L8,20 L4,20 C3.35759273,20 2.89286934,19.4076597 3.02036916,18.7981217 L3.0513167,18.6837722 L4.61257411,14 L3,14 C2.48716416,14 2.06449284,13.6139598 2.00672773,13.1166211 L2,13 L2,5 C2,4.48716416 2.38604019,4.06449284 2.88337887,4.00672773 L3,4 L10,4 L3,4 Z M14,4 L21,4 C21.5128358,4 21.9355072,4.38604019 21.9932723,4.88337887 L22,5 L22,13 C22,13.0716547 21.9922987,13.1429971 21.9770938,13.2128093 L21.9486833,13.3162278 L19.9486833,19.3162278 C19.8249433,19.6874479 19.4978769,19.9488234 19.1160442,19.9932782 L19,20 L15,20 C14.3575927,20 13.8928693,19.4076597 14.0203692,18.7981217 L14.0513167,18.6837722 L15.6125741,14 L14,14 C13.4871642,14 13.0644928,13.6139598 13.0067277,13.1166211 L13,13 L13,5 C13,4.48716416 13.3860402,4.06449284 13.8833789,4.00672773 L14,4 L21,4 L14,4 Z M9,6 L4,6 L4,12 L6,12 C6.64240727,12 7.10713066,12.5923403 6.97963084,13.2018783 L6.9486833,13.3162278 L5.38742589,18 L7.27924078,18 L9,12.8377223 L9,6 Z M20,6 L15,6 L15,12 L17,12 C17.6424073,12 18.1071307,12.5923403 17.9796308,13.2018783 L17.9486833,13.3162278 L16.3874259,18 L18.2792408,18 L20,12.8377223 L20,6 Z"/>
</svg>
