<svg xmlns="http://www.w3.org/2000/svg" width="24" height="24" viewBox="0 0 24 24">
  <path d="M3.61289944,6.20970461 L3.70710678,6.29289322 L10,12.585 L13.2928932,9.29289322 C13.6533772,8.93240926 14.2206082,8.90467972 14.6128994,9.20970461 L14.7071068,9.29289322 L19,13.585 L20.2928932,12.2928932 C20.8954683,11.6903181 21.9071808,12.0723323 21.9940167,12.8863691 L22,13 L21.9982503,17.0593845 L21.9982503,17.0593845 L21.989279,17.1469496 L21.989279,17.1469496 L21.964279,17.2658396 L21.964279,17.2658396 L21.9401054,17.3416665 L21.9401054,17.3416665 L21.9063266,17.4232215 L21.9063266,17.4232215 L21.8540045,17.5207088 L21.8540045,17.5207088 L21.7870723,17.6170223 L21.7870723,17.6170223 L21.7070891,17.7071408 L21.7070891,17.7071408 C21.6717127,17.7425008 21.6343256,17.774687 21.5953066,17.8036654 L21.4840621,17.8753288 L21.4840621,17.8753288 L21.371336,17.9287745 L21.371336,17.9287745 L21.265993,17.9641549 L21.265993,17.9641549 L21.1484669,17.9889822 L21.1484669,17.9889822 L21.0892501,17.9960336 L21,18 L17,18 C16.1478301,18 15.7025662,17.0144864 16.2167748,16.3774732 L16.2928932,16.2928932 L17.585,15 L14,11.415 L10.7071068,14.7071068 C10.3466228,15.0675907 9.77939176,15.0953203 9.38710056,14.7902954 L9.29289322,14.7071068 L2.29289322,7.70710678 C1.90236893,7.31658249 1.90236893,6.68341751 2.29289322,6.29289322 C2.65337718,5.93240926 3.22060824,5.90467972 3.61289944,6.20970461 Z"/>
</svg>
