<svg xmlns="http://www.w3.org/2000/svg" width="24" height="24" viewBox="0 0 24 24">
  <path d="M15,2 C16.5976809,2 17.9036609,3.24891996 17.9949073,4.82372721 L18,5 L18,8 C18,8.26038605 17.8985463,8.50867108 17.7201762,8.69380235 L17.624695,8.78086881 L13.6,12 L17.624695,15.2191312 C17.8619103,15.4089034 18,15.6962163 18,16 L18,19 C18,20.6568542 16.6568542,22 15,22 L9,22 C7.34314575,22 6,20.6568542 6,19 L6,16 C6,15.6962163 6.13808972,15.4089034 6.37530495,15.2191312 L10.399,12 L6.37530495,8.78086881 C6.17197761,8.61820694 6.04147718,8.3838825 6.00834087,8.12894825 L6,8 L6,5 C6,3.40231912 7.24891996,2.09633912 8.82372721,2.00509269 L9,2 L15,2 Z M12,13.281 L8,16.48 L8,19 C8,19.5522847 8.44771525,20 9,20 L15,20 L15.1166211,19.9932723 C15.6139598,19.9355072 16,19.5128358 16,19 L16,16.481 L12,13.281 Z M15,4 L9,4 C8.48716416,4 8.06449284,4.38604019 8.00672773,4.88337887 L8,5 L8,7.52 L12,10.719 L16,7.519 L16,5 C16,4.52661307 15.6710663,4.13005271 15.2292908,4.02641071 L15.1166211,4.00672773 L15,4 Z"/>
</svg>
