<svg xmlns="http://www.w3.org/2000/svg" width="24" height="24" viewBox="0 0 24 24">
  <path fill-rule="evenodd" d="M21,4 C21.5522847,4 22,3.55228475 22,3 C22,2.44771525 21.5522847,2 21,2 L3,2 C2.44771525,2 2,2.44771525 2,3 C2,3.55228475 2.44771525,4 3,4 L21,4 Z M12,6 L11.918,6.004 L11.7992742,6.02024007 L11.6878575,6.04973809 L11.5767785,6.09367336 L11.4792912,6.14599545 L11.4048407,6.19631351 L11.2928932,6.29289322 L7.29289322,10.2928932 C6.90236893,10.6834175 6.90236893,11.3165825 7.29289322,11.7071068 C7.65337718,12.0675907 8.22060824,12.0953203 8.61289944,11.7902954 L8.70710678,11.7071068 L11,9.415 L11,21 C11,21.5522847 11.4477153,22 12,22 C12.5522847,22 13,21.5522847 13,21 L13,9.415 L15.2928932,11.7071068 C15.6533772,12.0675907 16.2206082,12.0953203 16.6128994,11.7902954 L16.7071068,11.7071068 C17.0675907,11.3466228 17.0953203,10.7793918 16.7902954,10.3871006 L16.7071068,10.2928932 L12.7071068,6.29289322 L12.663147,6.2514958 L12.5953066,6.19633458 L12.4840621,6.12467117 L12.4230991,6.09365378 L12.3416504,6.05988586 L12.265993,6.03584514 L12.1174742,6.00683422 L12,6 Z"/>
</svg>
