<svg xmlns="http://www.w3.org/2000/svg" width="24" height="24" viewBox="0 0 24 24">
  <path fill-rule="evenodd" d="M9.5547002,9.83205029 C9.83289886,9.64658452 10,9.33435319 10,9 L10,5 C10,3.34314575 8.65685425,2 7,2 L3,2 C2.44771525,2 2,2.44771525 2,3 C2,12.9411255 11.0588745,22 21,22 C21.5522847,22 22,21.5522847 22,21 L22,17 C22,15.3431458 20.6568542,14 19,14 L15,14 C14.6656468,14 14.3534155,14.1671011 14.1679497,14.4452998 L12.2626046,17.3033175 C10.187391,15.961484 8.36924805,14.1891773 6.97074067,12.1489624 L6.6966825,11.7373954 L9.5547002,9.83205029 Z M15.5351838,16 L19,16 C19.5522847,16 20,16.4477153 20,17 L20,19.9653271 C18.0627576,19.8312776 16.1721397,19.3131585 14.4087453,18.4915688 L14.0041032,18.2966209 L15.5351838,16 Z M7,4 C7.55228475,4 8,4.44771525 8,5 L8,8.46481624 L5.70337914,9.99589681 C4.76882476,8.11844872 4.17903392,6.08626103 4.03467288,4 L7,4 Z M12.0275261,6.23364082 L12.0154011,6.17490678 L12.0154011,6.17490678 L12.0018365,6.05913633 L12.0018365,5.94095944 L12.0018365,5.94095944 L12.0153751,5.8254421 L12.0153751,5.8254421 L12.0499743,5.68735381 L12.0819233,5.60327344 L12.0819233,5.60327344 L12.1461709,5.47941738 L12.1461709,5.47941738 L12.1865668,5.41830876 L12.2167126,5.37848508 L12.2929966,5.29297078 L15.2929966,2.29290079 L15.387204,2.20971003 C15.7468042,1.93009666 16.2534026,1.93009666 16.6130029,2.20971003 L16.7072102,2.29290079 L16.7903988,2.38711057 C17.070005,2.74672014 17.070005,3.25333157 16.7903988,3.61294114 L16.7072102,3.70715092 L15.4151034,5.00020684 L21.0001034,5.00007756 C21.5129393,5.00007756 21.9356106,5.38611775 21.9933757,5.88345644 L22.0001034,6.00007756 L21.9933757,6.1167504 C21.940054,6.57583226 21.5758064,6.9400799 21.1167245,6.99340154 L21.0001034,7.00012927 L15.4151034,7.00020684 L16.7072102,8.29305592 L16.7903988,8.38726569 C17.0954237,8.77956704 17.0676942,9.34681276 16.7072102,9.70730604 C16.3467262,10.0677993 15.7794952,10.0955296 15.387204,9.7904968 L15.2929966,9.70730604 L12.2929966,6.70723605 L12.1964169,6.59528858 L12.1249792,6.48440622 L12.0937768,6.42333591 L12.0498415,6.31225401 L12.0498415,6.31225401 L12.0275261,6.23364082 L12.0275261,6.23364082 Z"/>
</svg>
