<svg xmlns="http://www.w3.org/2000/svg" width="24" height="24" viewBox="0 0 24 24">
  <path fill-rule="evenodd" d="M5.7041396,5.70414456 L19.0710678,19.0710678 C19.4615921,19.4615921 19.4615921,20.0947571 19.0710678,20.4852814 C18.6805435,20.8758057 18.0473786,20.8758057 17.6568543,20.4852814 L16.063838,18.892419 C15.1449713,19.4353613 14.1081016,19.7997927 13.0009551,19.9379871 L13,21 C13,21.5522847 12.5522848,22 12,22 C11.4477153,22 11,21.5522847 11,21 L11.0000487,19.9381123 C7.05371357,19.4460359 4.00000002,16.0796344 4.00000002,12 C4.00000002,11.4477153 4.44771527,11 5.00000002,11 C5.55228477,11 6.00000002,11.4477153 6.00000002,12 C6.00000002,15.3137085 8.68629152,18 12,18 C12.9259358,18 13.8028836,17.7902576 14.5859245,17.4156917 L13.0348641,15.8648402 C12.7047768,15.9530016 12.3578769,16 12,16 C9.79086102,16 8.00000002,14.209139 8.00000002,12 L7.99993201,10.829 L4.29182523,7.12025233 C3.90130094,6.72972804 3.90130094,6.09656306 4.29182523,5.70603877 C4.68171709,5.31614691 5.3134644,5.3155155 5.7041396,5.70414456 Z M19,11 C19.5522848,11 20,11.4477153 20,12 C20,13.483507 19.5962013,14.8727017 18.8925188,16.0636691 L17.4155089,14.5863067 C17.7901893,13.803169 18,12.9260864 18,12 C18,11.4477153 18.4477153,11 19,11 Z M12,2 C14.209139,2 16,3.790861 16,6 L16,12 C16,12.3579355 15.9529862,12.7048904 15.8647969,13.0350263 L13.999932,11.171 L14,6 C14,4.8954305 13.1045695,4 12,4 C10.8954305,4 10,4.8954305 10,6 L9.99993201,7.171 L8.07145159,5.24342122 C8.4251078,3.39603916 10.0495227,2 12,2 Z"/>
</svg>
