<svg xmlns="http://www.w3.org/2000/svg" width="24" height="24" viewBox="0 0 24 24">
  <path fill-rule="evenodd" d="M19.6128994,13.2097046 L19.7071068,13.2928932 C20.0675907,13.6533772 20.0953203,14.2206082 19.7902954,14.6128994 L19.7071068,14.7071068 L12.7071068,21.7071068 L12.663147,21.7485042 L12.663147,21.7485042 L12.5953066,21.8036654 L12.5953066,21.8036654 L12.4840621,21.8753288 L12.4840621,21.8753288 L12.371336,21.9287745 L12.371336,21.9287745 L12.265993,21.9641549 L12.265993,21.9641549 L12.1180955,21.9930928 L12.1180955,21.9930928 L12,22 L12,22 L11.9247615,21.9972121 L11.9247615,21.9972121 L11.7992742,21.9797599 L11.7992742,21.9797599 L11.6878575,21.9502619 L11.6878575,21.9502619 L11.5767785,21.9063266 L11.5767785,21.9063266 L11.4792912,21.8540045 L11.4792912,21.8540045 L11.374551,21.7803112 L11.374551,21.7803112 L11.2928932,21.7071068 L4.29289322,14.7071068 C3.90236893,14.3165825 3.90236893,13.6834175 4.29289322,13.2928932 C4.65337718,12.9324093 5.22060824,12.9046797 5.61289944,13.2097046 L5.70710678,13.2928932 L11,18.584 L11,3 C11,2.44771525 11.4477153,2 12,2 C12.5522847,2 13,2.44771525 13,3 L13,18.586 L18.2928932,13.2928932 C18.6533772,12.9324093 19.2206082,12.9046797 19.6128994,13.2097046 L19.7071068,13.2928932 L19.6128994,13.2097046 Z"/>
</svg>
