<svg xmlns="http://www.w3.org/2000/svg" width="24" height="24" viewBox="0 0 24 24">
  <path d="M22,12 C22,6.4771525 17.5228475,2 12,2 C6.4771525,2 2,6.4771525 2,12 C2,17.5228475 6.4771525,22 12,22 C17.5228475,22 22,17.5228475 22,12 Z M20,12 C20,16.418278 16.418278,20 12,20 C7.581722,20 4,16.418278 4,12 C4,7.581722 7.581722,4 12,4 C16.418278,4 20,7.581722 20,12 Z M18,12 C18,11.4477153 17.5522847,11 17,11 L9.414,11 L10.7071068,9.70710678 C11.0375504,9.37666315 11.0883879,8.87249453 10.8596192,8.48859705 L10.7902954,8.38710056 L10.7071068,8.29289322 C10.3466228,7.93240926 9.77939176,7.90467972 9.38710056,8.20970461 L9.29289322,8.29289322 L6.29289322,11.2928932 L6.2514958,11.336853 L6.19633458,11.4046934 L6.12467117,11.5159379 L6.07122549,11.628664 L6.03584514,11.734007 L6.00690716,11.8819045 L6,12 L6.00278786,12.0752385 L6.02024007,12.2007258 L6.04973809,12.3121425 L6.09367336,12.4232215 L6.14599545,12.5207088 L6.21968877,12.625449 L6.29289322,12.7071068 L9.29289322,15.7071068 C9.68341751,16.0976311 10.3165825,16.0976311 10.7071068,15.7071068 C11.0675907,15.3466228 11.0953203,14.7793918 10.7902954,14.3871006 L10.7071068,14.2928932 L9.416,13 L17,13 C17.5522847,13 18,12.5522847 18,12 Z"/>
</svg>
