<svg xmlns="http://www.w3.org/2000/svg" width="24" height="24" viewBox="0 0 24 24">
  <path fill-rule="evenodd" d="M11,16 L5,16 C4.22820917,16 3.74733806,15.1627856 4.1362211,14.496129 L11.1362211,2.49612897 C11.6505396,1.61444015 13,1.97926562 13,3 L13,8 L19,8 C19.7717908,8 20.2526619,8.83721439 19.8637789,9.50387103 L12.8637789,21.503871 C12.3494604,22.3855598 11,22.0207344 11,21 L11,16 Z M11,6.69892057 L6.741037,14 L12,14 C12.5522847,14 13,14.4477153 13,15 L13,17.3010794 L17.258963,10 L12,10 C11.4477153,10 11,9.55228475 11,9 L11,6.69892057 Z"/>
</svg>
