<svg xmlns="http://www.w3.org/2000/svg" width="24" height="24" viewBox="0 0 24 24">
  <path fill-rule="evenodd" d="M8,12 C8,13.3062521 7.1651499,14.4175144 5.99991107,14.8293257 L6,21 C6,21.5522847 5.55228475,22 5,22 C4.44771525,22 4,21.5522847 4,21 L3.99909928,14.8289758 C2.83437743,14.4168852 2,13.3058822 2,12 C2,10.6941178 2.83437743,9.58311485 3.99909928,9.17102423 L4,3 C4,2.44771525 4.44771525,2 5,2 C5.55228475,2 6,2.44771525 6,3 L5.99991107,9.17067428 C7.1651499,9.58248558 8,10.6937479 8,12 Z M6,12 C6,11.4477153 5.55228475,11 5,11 C4.44771525,11 4,11.4477153 4,12 C4,12.5522847 4.44771525,13 5,13 C5.55228475,13 6,12.5522847 6,12 Z M15,19 C15,20.6568542 13.6568542,22 12,22 C10.3431458,22 9,20.6568542 9,19 C9,17.6941178 9.83437743,16.5831148 10.9990993,16.1710242 L11,3 C11,2.44771525 11.4477153,2 12,2 C12.5522847,2 13,2.44771525 13,3 L12.9999111,16.1706743 C14.1651499,16.5824856 15,17.6937479 15,19 Z M13,19 C13,18.4477153 12.5522847,18 12,18 C11.4477153,18 11,18.4477153 11,19 C11,19.5522847 11.4477153,20 12,20 C12.5522847,20 13,19.5522847 13,19 Z M22,5 C22,6.31179956 21.1580438,7.42694971 19.9850473,7.83453458 C19.9953052,7.88798638 20,7.94344492 20,8 L20,21 C20,21.5522847 19.5522847,22 19,22 C18.4477153,22 18,21.5522847 18,21 L18,8 C18,7.94344492 18.0046948,7.88798638 18.013716,7.83399285 C16.8419562,7.42694971 16,6.31179956 16,5 C16,3.34314575 17.3431458,2 19,2 C20.6568542,2 22,3.34314575 22,5 Z M20,5 C20,4.44771525 19.5522847,4 19,4 C18.4477153,4 18,4.44771525 18,5 C18,5.55228475 18.4477153,6 19,6 C19.5522847,6 20,5.55228475 20,5 Z"/>
</svg>
