<svg xmlns="http://www.w3.org/2000/svg" width="24" height="24" viewBox="0 0 24 24">
  <path fill-rule="evenodd" d="M8.272,4.9526 C7.174,4.9526 6.077,5.3496 5.241,6.1446 C4.441,6.9066 4,7.9176 4,8.9916 C4,10.0646 4.441,11.0756 5.241,11.8376 L12,18.2696 L18.759,11.8376 C19.559,11.0756 20,10.0646 20,8.9916 C20,7.9186 19.559,6.9066 18.759,6.1446 C17.088,4.5546 14.368,4.5546 12.697,6.1446 L12,6.8086 L11.303,6.1446 C10.467,5.3496 9.37,4.9526 8.272,4.9526 L8.272,4.9526 Z M12,20.9996 L3.847,13.2406 C2.656,12.1076 2,10.5986 2,8.9916 C2,7.3846 2.656,5.8756 3.847,4.7416 C6.067,2.6286 9.552,2.4386 12,4.1686 C14.448,2.4386 17.933,2.6286 20.153,4.7416 C21.344,5.8756 22,7.3846 22,8.9916 C22,10.5986 21.344,12.1076 20.153,13.2406 L12,20.9996 Z"/>
</svg>
