<svg xmlns="http://www.w3.org/2000/svg" width="24" height="24" viewBox="0 0 24 24">
  <path fill-rule="evenodd" d="M7,18.585 L8.29289322,17.2928932 C8.65337718,16.9324093 9.22060824,16.9046797 9.61289944,17.2097046 L9.70710678,17.2928932 C10.0675907,17.6533772 10.0953203,18.2206082 9.79029539,18.6128994 L9.70710678,18.7071068 L6.70710678,21.7071068 L6.663147,21.7485042 L6.59530661,21.8036654 L6.4840621,21.8753288 L6.42309915,21.9063462 L6.34165038,21.9401141 L6.26599297,21.9641549 L6.11747418,21.9931658 L6,22 L5.918,21.996 L5.79927424,21.9797599 L5.68785748,21.9502619 L5.57677845,21.9063266 L5.47929125,21.8540045 L5.4048407,21.8036865 L5.29289322,21.7071068 L2.29289322,18.7071068 C1.90236893,18.3165825 1.90236893,17.6834175 2.29289322,17.2928932 C2.65337718,16.9324093 3.22060824,16.9046797 3.61289944,17.2097046 L3.70710678,17.2928932 L5,18.585 L5,5.415 L3.70710678,6.70710678 L3.61289944,6.79029539 C3.22060824,7.09532028 2.65337718,7.06759074 2.29289322,6.70710678 C1.93240926,6.34662282 1.90467972,5.77939176 2.20970461,5.38710056 L2.29289322,5.29289322 L5.29289322,2.29289322 L5.4048407,2.19631351 L5.47929125,2.14599545 L5.57677845,2.09367336 L5.68785748,2.04973809 L5.79927424,2.02024007 L5.918,2.004 L6,2 L6.11747418,2.00683422 L6.26599297,2.03584514 L6.34165038,2.05988586 L6.42309915,2.09365378 L6.4840621,2.12467117 L6.59530661,2.19633458 L6.663147,2.2514958 L6.70710678,2.29289322 L9.70710678,5.29289322 L9.79029539,5.38710056 C10.0699015,5.74670083 10.0699015,6.25329917 9.79029539,6.61289944 L9.70710678,6.70710678 L9.61289944,6.79029539 C9.25329917,7.06990154 8.74670083,7.06990154 8.38710056,6.79029539 L8.29289322,6.70710678 L7,5.415 L7,18.585 Z M21,19 C21.5522847,19 22,19.4477153 22,20 C22,20.5522847 21.5522847,21 21,21 L13,21 C12.4477153,21 12,20.5522847 12,20 C12,19.4477153 12.4477153,19 13,19 L21,19 Z M21,11 C21.5522847,11 22,11.4477153 22,12 C22,12.5522847 21.5522847,13 21,13 L13,13 C12.4477153,13 12,12.5522847 12,12 C12,11.4477153 12.4477153,11 13,11 L21,11 Z M21,3 C21.5522847,3 22,3.44771525 22,4 C22,4.55228475 21.5522847,5 21,5 L13,5 C12.4477153,5 12,4.55228475 12,4 C12,3.44771525 12.4477153,3 13,3 L21,3 Z"/>
</svg>
