<svg xmlns="http://www.w3.org/2000/svg" width="24" height="24" viewBox="0 0 24 24">
  <path fill-rule="evenodd" d="M14,2 C14.2652165,2 14.5195704,2.10535684 14.7071068,2.29289322 L19.7071068,7.29289322 C19.8946432,7.4804296 20,7.73478351 20,8 L20,19 C20,20.6568542 18.6568542,22 17,22 L7,22 C5.34314575,22 4,20.6568542 4,19 L4,5 C4,3.34314575 5.34314575,2 7,2 L14,2 Z M11.999,4 L7,4 C6.44771525,4 6,4.44771525 6,5 L6,19 C6,19.5522847 6.44771525,20 7,20 L17,20 C17.5522847,20 18,19.5522847 18,19 L18,10 L13,10 C12.4871642,10 12.0644928,9.61395981 12.0067277,9.11662113 L12,9 L11.999,4 Z M17.586,8 L13.999,4.414 L14,8 L17.586,8 Z"/>
</svg>
