<svg xmlns="http://www.w3.org/2000/svg" width="24" height="24" viewBox="0 0 24 24">
  <path fill-rule="evenodd" d="M6.29289322,15.2928932 C6.65337718,14.9324093 7.22060824,14.9046797 7.61289944,15.2097046 L7.70710678,15.2928932 L12,19.5857864 L16.2928932,15.2928932 C16.6834175,14.9023689 17.3165825,14.9023689 17.7071068,15.2928932 C18.0675907,15.6533772 18.0953203,16.2206082 17.7902954,16.6128994 L17.7071068,16.7071068 L12.7071068,21.7071068 C12.3466228,22.0675907 11.7793918,22.0953203 11.3871006,21.7902954 L11.2928932,21.7071068 L6.29289322,16.7071068 C5.90236893,16.3165825 5.90236893,15.6834175 6.29289322,15.2928932 Z M12.7071068,2.29289322 L17.7071068,7.29289322 C18.0976311,7.68341751 18.0976311,8.31658249 17.7071068,8.70710678 C17.3165825,9.09763107 16.6834175,9.09763107 16.2928932,8.70710678 L12,4.41421356 L7.70710678,8.70710678 C7.31658249,9.09763107 6.68341751,9.09763107 6.29289322,8.70710678 C5.90236893,8.31658249 5.90236893,7.68341751 6.29289322,7.29289322 L11.2928932,2.29289322 C11.6834175,1.90236893 12.3165825,1.90236893 12.7071068,2.29289322 Z"/>
</svg>
