<svg xmlns="http://www.w3.org/2000/svg" width="24" height="24" viewBox="0 0 24 24">
  <path fill-rule="evenodd" d="M21,2 C20.3597108,2 19.7456461,2.25435391 19.2928932,2.70710678 L16.4003571,5.59964294 C16.1519767,5.84802329 15.7914897,5.94787242 15.4507147,5.86267866 L4,3 L2.98105825,4.01894175 C2.59053396,4.40946604 2.59053396,5.04263102 2.98105825,5.43315531 C3.05705957,5.50915663 3.14481653,5.57240826 3.24095144,5.62047572 L12,10 L8,14 L3.61803399,14 C3.23926193,14 2.89299881,14.2140024 2.7236068,14.5527864 L2,16 L2,16 L6,18 L6,18 L8,22 L9.4472136,21.2763932 C9.78599762,21.1070012 10,20.7607381 10,20.381966 L10,16 L14,12 L18.3795243,20.7590486 C18.6265135,21.2530271 19.2271866,21.4532514 19.7211651,21.2062622 C19.8173,21.1581947 19.9050569,21.0949431 19.9810583,21.0189417 L21,20 L18.1373213,8.54928535 C18.0521276,8.20851033 18.1519767,7.84802329 18.4003571,7.59964294 L21.2928932,4.70710678 C21.7456461,4.25435391 22,3.64028925 22,3 C22,2.44771525 21.5522847,2 21,2 Z"/>
</svg>
