<svg xmlns="http://www.w3.org/2000/svg" width="24" height="24" viewBox="0 0 24 24">
  <path fill-rule="evenodd" d="M18.6,2.2 C19.007841,2.50588078 19.1155105,3.06348933 18.8690296,3.49497485 L18.8,3.6 L12.9999411,11.3329411 L12.9999411,11.9999411 L16,12 C16.5522847,12 17,12.4477153 17,13 C17,13.5522847 16.5522847,14 16,14 L12.9999411,13.9999411 L12.9999411,15.9999411 L16,16 C16.5522847,16 17,16.4477153 17,17 C17,17.5522847 16.5522847,18 16,18 L12.9999411,17.9999411 L13,21 C13,21.5522847 12.5522847,22 12,22 C11.4477153,22 11,21.5522847 11,21 L10.9999411,17.9999411 L8,18 C7.44771525,18 7,17.5522847 7,17 C7,16.4477153 7.44771525,16 8,16 L10.9999411,15.9999411 L10.9999411,13.9999411 L8,14 C7.44771525,14 7,13.5522847 7,13 C7,12.4477153 7.44771525,12 8,12 L10.9999411,11.9999411 L10.9999411,11.3329411 L5.2,3.6 C4.86862915,3.1581722 4.9581722,2.53137085 5.4,2.2 C5.80784105,1.89411922 6.37329269,1.94688696 6.71850414,2.30432455 L6.8,2.4 L11.999,9.332 L17.2,2.4 C17.5313708,1.9581722 18.1581722,1.86862915 18.6,2.2 Z"/>
</svg>
