<svg xmlns="http://www.w3.org/2000/svg" width="24" height="24" viewBox="0 0 24 24">
  <path fill-rule="evenodd" d="M7,14 L8,14 C9.63573058,14 11.0880049,14.7854695 12.0002202,15.9998057 C12.8640069,14.8493819 14.2128957,14.083869 15.7433034,14.0064755 L16,14 L17,14 C19.7614237,14 22,16.2385763 22,19 C22,19.5522847 21.5522847,20 21,20 C20.4871642,20 20.0644928,19.6139598 20.0067277,19.1166211 L19.9949073,18.8237272 C19.9070404,17.3072462 18.6927538,16.0929596 17.1762728,16.0050927 L17,16 L16,16 C14.3431458,16 13,17.3431458 13,19 C13,19.5128358 12.6139598,19.9355072 12.1166211,19.9932723 L12,20 C11.4871642,20 11.0644928,19.6139598 11.0067277,19.1166211 L10.9949073,18.8237272 C10.9070404,17.3072462 9.69275384,16.0929596 8.17627279,16.0050927 L8,16 L7,16 C5.34314575,16 4,17.3431458 4,19 C4,19.5522847 3.55228475,20 3,20 C2.44771525,20 2,19.5522847 2,19 C2,16.3112453 4.12230671,14.1181819 6.78311038,14.0046195 L7,14 Z M7,4 C9.209139,4 11,5.790861 11,8 C11,10.209139 9.209139,12 7,12 C4.790861,12 3,10.209139 3,8 C3,5.790861 4.790861,4 7,4 Z M17,4 C19.209139,4 21,5.790861 21,8 C21,10.209139 19.209139,12 17,12 C14.790861,12 13,10.209139 13,8 C13,5.790861 14.790861,4 17,4 Z M7,6 C5.8954305,6 5,6.8954305 5,8 C5,9.1045695 5.8954305,10 7,10 C8.1045695,10 9,9.1045695 9,8 C9,6.8954305 8.1045695,6 7,6 Z M17,6 C15.8954305,6 15,6.8954305 15,8 C15,9.1045695 15.8954305,10 17,10 C18.1045695,10 19,9.1045695 19,8 C19,6.8954305 18.1045695,6 17,6 Z"/>
</svg>
