<svg xmlns="http://www.w3.org/2000/svg" width="24" height="24" viewBox="0 0 24 24">
  <path fill-rule="evenodd" d="M19,3 C20.6568542,3 22,4.34314575 22,6 L22,8 C22,9.65685425 20.6568542,11 19,11 L18,11 L18,13 L19,13 C20.6568542,13 22,14.3431458 22,16 L22,18 C22,19.6568542 20.6568542,21 19,21 L5,21 C3.34314575,21 2,19.6568542 2,18 L2,16 C2,14.3431458 3.34314575,13 5,13 L6,13 L6,11 L5,11 C3.34314575,11 2,9.65685425 2,8 L2,6 C2,4.34314575 3.34314575,3 5,3 L19,3 Z M19,15 L5,15 C4.44771525,15 4,15.4477153 4,16 L4,18 C4,18.5522847 4.44771525,19 5,19 L19,19 C19.5522847,19 20,18.5522847 20,18 L20,16 C20,15.4477153 19.5522847,15 19,15 Z M7,16 C7.55228475,16 8,16.4477153 8,17 C8,17.5522847 7.55228475,18 7,18 C6.44771525,18 6,17.5522847 6,17 C6,16.4477153 6.44771525,16 7,16 Z M16,11 L8,11 L8,13 L16,13 L16,11 Z M19,5 L5,5 C4.44771525,5 4,5.44771525 4,6 L4,8 C4,8.55228475 4.44771525,9 5,9 L19,9 C19.5522847,9 20,8.55228475 20,8 L20,6 C20,5.44771525 19.5522847,5 19,5 Z M7,6 C7.55228475,6 8,6.44771525 8,7 C8,7.55228475 7.55228475,8 7,8 C6.44771525,8 6,7.55228475 6,7 C6,6.44771525 6.44771525,6 7,6 Z"/>
</svg>
