<svg xmlns="http://www.w3.org/2000/svg" width="24" height="24" viewBox="0 0 24 24">
  <path d="M12,2 C17.5228475,2 22,6.4771525 22,12 C22,17.5228475 17.5228475,22 12,22 C6.4771525,22 2,17.5228475 2,12 C2,6.4771525 6.4771525,2 12,2 Z M12,4 C7.581722,4 4,7.581722 4,12 C4,16.418278 7.581722,20 12,20 C16.418278,20 20,16.418278 20,12 C20,7.581722 16.418278,4 12,4 Z M12,6 C12.5522847,6 13,6.44771525 13,7 L13,14.586 L14.2928932,13.2928932 C14.6233369,12.9624496 15.1275055,12.9116121 15.5114029,13.1403808 L15.6128994,13.2097046 L15.7071068,13.2928932 C16.0675907,13.6533772 16.0953203,14.2206082 15.7902954,14.6128994 L15.7071068,14.7071068 L12.7071068,17.7071068 L12.663147,17.7485042 L12.5953066,17.8036654 L12.4840621,17.8753288 L12.371336,17.9287745 L12.265993,17.9641549 L12.1180955,17.9930928 L12,18 L11.9247615,17.9972121 L11.7992742,17.9797599 L11.6878575,17.9502619 L11.5767785,17.9063266 L11.4792912,17.8540045 L11.374551,17.7803112 L11.2928932,17.7071068 L8.29289322,14.7071068 C7.90236893,14.3165825 7.90236893,13.6834175 8.29289322,13.2928932 C8.65337718,12.9324093 9.22060824,12.9046797 9.61289944,13.2097046 L9.70710678,13.2928932 L11,14.584 L11,7 C11,6.44771525 11.4477153,6 12,6 Z"/>
</svg>
