<svg xmlns="http://www.w3.org/2000/svg" width="24" height="24" viewBox="0 0 24 24">
  <path fill-rule="evenodd" d="M14,2 C14.2652165,2 14.5195704,2.10535684 14.7071068,2.29289322 L19.7071068,7.29289322 C19.8946432,7.4804296 20,7.73478351 20,8 L20,9 C20,9.55228475 19.5522847,10 19,10 L13,10 C12.4871642,10 12.0644928,9.61395981 12.0067277,9.11662113 L12,9 L11.999,4 L7,4 C6.44771525,4 6,4.44771525 6,5 L6,19 C6,19.5522847 6.44771525,20 7,20 L9,20 C9.55228475,20 10,20.4477153 10,21 C10,21.5522847 9.55228475,22 9,22 L7,22 C5.34314575,22 4,20.6568542 4,19 L4,5 C4,3.34314575 5.34314575,2 7,2 L14,2 Z M15.7071068,14.2928932 L18,16.585 L20.2928932,14.2928932 C20.6533772,13.9324093 21.2206082,13.9046797 21.6128994,14.2097046 L21.7071068,14.2928932 C22.0675907,14.6533772 22.0953203,15.2206082 21.7902954,15.6128994 L21.7071068,15.7071068 L19.415,18 L21.7071068,20.2928932 C22.0976311,20.6834175 22.0976311,21.3165825 21.7071068,21.7071068 C21.3165825,22.0976311 20.6834175,22.0976311 20.2928932,21.7071068 L18,19.415 L15.7071068,21.7071068 C15.3466228,22.0675907 14.7793918,22.0953203 14.3871006,21.7902954 L14.2928932,21.7071068 C13.9324093,21.3466228 13.9046797,20.7793918 14.2097046,20.3871006 L14.2928932,20.2928932 L16.585,18 L14.2928932,15.7071068 C13.9023689,15.3165825 13.9023689,14.6834175 14.2928932,14.2928932 C14.6834175,13.9023689 15.3165825,13.9023689 15.7071068,14.2928932 Z M13.999,4.414 L14,8 L17.586,8 L13.999,4.414 Z"/>
</svg>
