<svg xmlns="http://www.w3.org/2000/svg" width="24" height="24" viewBox="0 0 24 24">
  <path fill-rule="evenodd" d="M9.5547002,9.83205029 C9.83289886,9.64658452 10,9.33435319 10,9 L10,5 C10,3.34314575 8.65685425,2 7,2 L3,2 C2.44771525,2 2,2.44771525 2,3 C2,12.9411255 11.0588745,22 21,22 C21.5522847,22 22,21.5522847 22,21 L22,17 C22,15.3431458 20.6568542,14 19,14 L15,14 C14.6656468,14 14.3534155,14.1671011 14.1679497,14.4452998 L12.2626046,17.3033175 C10.187391,15.961484 8.36924805,14.1891773 6.97074067,12.1489624 L6.6966825,11.7373954 L9.5547002,9.83205029 Z M15.5351838,16 L19,16 C19.5522847,16 20,16.4477153 20,17 L20,19.9653271 C18.0627576,19.8312776 16.1721397,19.3131585 14.4087453,18.4915688 L14.0041032,18.2966209 L15.5351838,16 Z M15,2 C15.5128358,2 15.9355072,2.38604019 15.9932723,2.88337887 L16,3 L16,9 C16,9.55228475 15.5522847,10 15,10 C14.4871642,10 14.0644928,9.61395981 14.0067277,9.11662113 L14,9 L14,3 C14,2.44771525 14.4477153,2 15,2 Z M19,2 C19.5128358,2 19.9355072,2.38604019 19.9932723,2.88337887 L20,3 L20,9 C20,9.55228475 19.5522847,10 19,10 C18.4871642,10 18.0644928,9.61395981 18.0067277,9.11662113 L18,9 L18,3 C18,2.44771525 18.4477153,2 19,2 Z M7,4 C7.55228475,4 8,4.44771525 8,5 L8,8.46481624 L5.70337914,9.99589681 C4.76882476,8.11844872 4.17903392,6.08626103 4.03467288,4 L7,4 Z"/>
</svg>
