<svg xmlns="http://www.w3.org/2000/svg" width="24" height="24" viewBox="0 0 24 24">
  <path fill-rule="evenodd" d="M12,2 C17.5228475,2 22,6.4771525 22,12 C22,17.5228475 17.5228475,22 12,22 C6.4771525,22 2,17.5228475 2,12 C2,6.4771525 6.4771525,2 12,2 Z M14.9724446,13.0007836 L9.02755536,13.0007836 C9.13849511,15.0042801 9.57913632,16.8282723 10.2533205,18.1766406 C10.8812109,19.4324214 11.5521641,20 12,20 C12.4478359,20 13.1187891,19.4324214 13.7466795,18.1766406 C14.4208637,16.8282723 14.8615049,15.0042801 14.9724446,13.0007836 Z M19.9379838,13.0009882 L16.9752499,13.0012571 C16.8542687,15.4351666 16.2969444,17.6122807 15.4619572,19.215239 C17.860144,18.0615985 19.595159,15.7475008 19.9379838,13.0009882 Z M7.02475108,13.0012558 L4.06201693,13.0009873 C4.4048478,15.7474921 6.13991984,18.0615163 8.53864169,19.2144687 C7.75534668,17.7123314 7.21649966,15.7050397 7.05251187,13.4545242 L7.02475108,13.0012558 L7.02475108,13.0012558 Z M8.5380428,4.78476098 L8.51188764,4.79845221 C6.1267876,5.9558286 4.4032296,8.26318769 4.06191521,10.9998279 L7.02470024,10.9997459 C7.14557822,8.56543155 7.70294094,6.3879395 8.5380428,4.78476098 Z M12,4 L11.9187082,4.00591637 C11.4733774,4.06915527 10.8442762,4.64144802 10.2533205,5.82335938 C9.57902397,7.17195239 9.13834826,8.99632785 9.02749992,11.000218 L14.9725001,11.000218 C14.8616517,8.99632785 14.420976,7.17195239 13.7466795,5.82335938 C13.1187891,4.56757856 12.4478359,4 12,4 Z M15.4613583,4.78553132 L15.4839504,4.82723968 C16.3069189,6.42645639 16.8555915,8.58727973 16.9753343,11.0004417 L19.9381081,11.0000145 C19.5955741,8.25307062 17.8603718,5.93862384 15.4613583,4.78553132 Z"/>
</svg>
