<svg xmlns="http://www.w3.org/2000/svg" width="24" height="24" viewBox="0 0 24 24">
  <path d="M2,12 C2,6.4771525 6.4771525,2 12,2 C17.5228475,2 22,6.4771525 22,12 C22,17.5228475 17.5228475,22 12,22 C6.4771525,22 2,17.5228475 2,12 Z M4,12 C4,16.418278 7.581722,20 12,20 C16.418278,20 20,16.418278 20,12 C20,7.581722 16.418278,4 12,4 C7.581722,4 4,7.581722 4,12 Z M6,12 C6,11.4477153 6.44771525,11 7,11 L14.586,11 L13.2928932,9.70710678 C12.9624496,9.37666315 12.9116121,8.87249453 13.1403808,8.48859705 L13.2097046,8.38710056 L13.2928932,8.29289322 C13.6533772,7.93240926 14.2206082,7.90467972 14.6128994,8.20970461 L14.7071068,8.29289322 L17.7071068,11.2928932 L17.7485042,11.336853 L17.8036654,11.4046934 L17.8753288,11.5159379 L17.9287745,11.628664 L17.9641549,11.734007 L17.9930928,11.8819045 L18,12 L17.9972121,12.0752385 L17.9797599,12.2007258 L17.9502619,12.3121425 L17.9063266,12.4232215 L17.8540045,12.5207088 L17.7803112,12.625449 L17.7071068,12.7071068 L14.7071068,15.7071068 C14.3165825,16.0976311 13.6834175,16.0976311 13.2928932,15.7071068 C12.9324093,15.3466228 12.9046797,14.7793918 13.2097046,14.3871006 L13.2928932,14.2928932 L14.584,13 L7,13 C6.44771525,13 6,12.5522847 6,12 Z"/>
</svg>
