<svg xmlns="http://www.w3.org/2000/svg" width="24" height="24" viewBox="0 0 24 24">
  <path fill-rule="evenodd" d="M5,18 C3.34314575,18 2,16.6568542 2,15 L2,7 C2,5.34314575 3.34314575,4 5,4 L19,4 C20.6568542,4 22,5.34314575 22,7 L22,15 C22,16.6568542 20.6568542,18 19,18 L15,18 C15.5522847,18 16,18.4477153 16,19 C16,19.5522847 15.5522847,20 15,20 L9,20 C8.44771525,20 8,19.5522847 8,19 C8,18.4477153 8.44771525,18 9,18 L5,18 Z M19,6 L5,6 C4.44771525,6 4,6.44771525 4,7 L4,15 C4,15.5522847 4.44771525,16 5,16 L19,16 C19.5522847,16 20,15.5522847 20,15 L20,7 C20,6.44771525 19.5522847,6 19,6 Z"/>
</svg>
