<svg xmlns="http://www.w3.org/2000/svg" width="24" height="24" viewBox="0 0 24 24">
  <path d="M15.9695838,2 C17.5462752,2 19.0725337,2.36818415 20.4511649,3.06513799 C20.9440462,3.31430946 21.1416121,3.91586213 20.8924406,4.40874348 C20.6432692,4.90162482 20.0417165,5.09919072 19.5488351,4.85001925 C18.448348,4.29367848 17.2309429,4 15.9695838,4 C12.6252628,4 9.76135725,6.06808565 8.57910336,9.00043564 L14,9 C14.5522847,9 15,9.44771525 15,10 C15,10.5522847 14.5522847,11 14,11 L8.06154735,11.0008458 C8.02092539,11.3281624 8,11.6616243 8,12 C8,12.3387232 8.02096838,12.6725223 8.06167253,13.0001623 L14,13 C14.5522847,13 15,13.4477153 15,14 C15,14.5522847 14.5522847,15 14,15 L8.57950369,15.0005571 C9.76200366,17.9323811 12.6256402,20 15.9695838,20 C17.2306028,20 18.4476927,19.7064802 19.5479517,19.1504273 C20.0408642,18.9013174 20.6423921,19.0989584 20.8915021,19.5918709 C21.140612,20.0847834 20.9429709,20.6863113 20.4500585,20.9354212 C19.0717122,21.6320149 17.5458494,22 15.9695838,22 C11.5053319,22 7.7272183,19.0571189 6.45667336,15.0007704 L4,15 C3.44771525,15 3,14.5522847 3,14 C3,13.4477153 3.44771525,13 4,13 L6.04932597,13.0009774 C6.01670292,12.6717505 6,12.3378293 6,12 C6,11.6625123 6.01666916,11.3289248 6.04922706,11.0000213 L4,11 C3.44771525,11 3,10.5522847 3,10 C3,9.44771525 3.44771525,9 4,9 L6.45635842,9.00023521 C7.72659388,4.94336747 11.504963,2 15.9695838,2 Z"/>
</svg>
