<svg xmlns="http://www.w3.org/2000/svg" width="24" height="24" viewBox="0 0 24 24">
  <path fill-rule="evenodd" d="M13.4,16.6 C14.2,17.4 14.2,18.6 13.4,19.4 C13,19.8 12.5,20 12,20 C11.5,20 11,19.8 10.6,19.4 C9.8,18.6 9.8,17.4 10.6,16.6 C11.4,15.8 12.6,15.8 13.4,16.6 Z M12,12 C13.6,12 15.1,12.6 16.2,13.8 C16.6,14.2 16.6,14.8 16.2,15.2 C16,15.4 15.7,15.5 15.5,15.5 C15.2428571,15.5 15.0591837,15.4265306 14.8860058,15.2795918 L14.8,15.2 C13.3,13.7 10.8,13.7 9.3,15.2 C8.9,15.6 8.3,15.6 7.9,15.2 C7.53076923,14.8307692 7.50236686,14.2911243 7.8147929,13.8956759 L7.9,13.8 C8.9,12.6 10.4,12 12,12 Z M12,8 C14.6,8 17.1,9 18.9,10.9 C19.3,11.3 19.3,11.9 18.9,12.3 C18.7,12.5 18.5,12.6 18.2,12.6 C17.9428571,12.6 17.7591837,12.5265306 17.5860058,12.3795918 L17.5,12.3 C16,10.8 14.1,10 12,10 C9.9,10 8,10.8 6.5,12.3 C6.1,12.7 5.5,12.7 5.1,12.3 C4.7,11.9 4.7,11.3 5.1,10.9 C6.9,9 9.4,8 12,8 Z M12,4 C15.7,4 19.1,5.5 21.7,8.1 C22.1,8.5 22.1,9.1 21.7,9.5 C21.5,9.7 21.3,9.8 21,9.8 C20.7,9.8 20.5,9.7 20.3,9.5 C18.1,7.2 15.1,6 12,6 C8.9,6 5.9,7.2 3.7,9.5 C3.3,9.9 2.7,9.9 2.3,9.5 C1.9,9.1 1.9,8.5 2.3,8.1 C4.9,5.5 8.3,4 12,4 Z"/>
</svg>
