<svg xmlns="http://www.w3.org/2000/svg" width="24" height="24" viewBox="0 0 24 24">
  <path fill-rule="evenodd" d="M13,2 C14.5976809,2 15.9036609,3.24891996 15.9949073,4.82372721 L16,5 L16,8 L19,8 C20.5976809,8 21.9036609,9.24891996 21.9949073,10.8237272 L22,11 L22,19 C22,20.5976809 20.75108,21.9036609 19.1762728,21.9949073 L19,22 L11,22 C9.40231912,22 8.09633912,20.75108 8.00509269,19.1762728 L8,19 L8,16 L5,16 C3.40231912,16 2.09633912,14.75108 2.00509269,13.1762728 L2,13 L2,5 C2,3.40231912 3.24891996,2.09633912 4.82372721,2.00509269 L5,2 L13,2 Z M14,10 L11,10 C10.4871642,10 10.0644928,10.3860402 10.0067277,10.8833789 L10,11 L10,14 L13,14 C13.5128358,14 13.9355072,13.6139598 13.9932723,13.1166211 L14,13 L14,10 Z"/>
</svg>
