<svg xmlns="http://www.w3.org/2000/svg" width="24" height="24" viewBox="0 0 24 24">
  <path fill-rule="evenodd" d="M3,2 L11,2 C12.3062521,2 13.4175144,2.8348501 13.8293257,4.00008893 L19,4 C20.5976809,4 21.9036609,5.24891996 21.9949073,6.82372721 L22,7 L22,15 C22,16.5976809 20.75108,17.9036609 19.1762728,17.9949073 L19,18 L15,18 C13.6941178,18 12.5831148,17.1656226 12.1710242,16.0009007 L4,16 L4,21 C4,21.5522847 3.55228475,22 3,22 C2.44771525,22 2,21.5522847 2,21 L2,3 C2,2.44771525 2.44771525,2 3,2 Z M14,6 L14,15 C14,15.5128358 14.3860402,15.9355072 14.8833789,15.9932723 L15,16 L19,16 C19.5128358,16 19.9355072,15.6139598 19.9932723,15.1166211 L20,15 L20,7 C20,6.48716416 19.6139598,6.06449284 19.1166211,6.00672773 L19,6 L14,6 Z M11,4 L4,4 L4,14 L12,14 L12,5 C12,4.48716416 11.6139598,4.06449284 11.1166211,4.00672773 L11,4 Z"/>
</svg>
