<svg xmlns="http://www.w3.org/2000/svg" width="24" height="24" viewBox="0 0 24 24">
  <path d="M3,6 L3.11662113,6.00672773 C3.57570299,6.06004937 3.93995063,6.42429701 3.99327227,6.88337887 L4,7 L4,20 L17,20 L17.1166211,20.0067277 C17.6139598,20.0644928 18,20.4871642 18,21 C18,21.5128358 17.6139598,21.9355072 17.1166211,21.9932723 L17,22 L3,22 L2.88337887,21.9932723 C2.42429701,21.9399506 2.06004937,21.575703 2.00672773,21.1166211 L2,21 L2,7 L2.00672773,6.88337887 C2.06004937,6.42429701 2.42429701,6.06004937 2.88337887,6.00672773 L3,6 Z M7,14 L7.11662113,14.0067277 C7.57570299,14.0600494 7.93995063,14.424297 7.99327227,14.8833789 L8,15 L8,16 L9,16 L9.11662113,16.0067277 C9.61395981,16.0644928 10,16.4871642 10,17 C10,17.5128358 9.61395981,17.9355072 9.11662113,17.9932723 L9,18 L7,18 L6.88337887,17.9932723 C6.42429701,17.9399506 6.06004937,17.575703 6.00672773,17.1166211 L6,17 L6,15 L6.00672773,14.8833789 C6.06004937,14.424297 6.42429701,14.0600494 6.88337887,14.0067277 L7,14 Z M21,14 L21.1166211,14.0067277 C21.5374462,14.0556059 21.8785841,14.3657483 21.9735893,14.7707092 L21.9932723,14.8833789 L22,15 L22,17 L21.9932723,17.1166211 C21.9443941,17.5374462 21.6342517,17.8785841 21.2292908,17.9735893 L21.1166211,17.9932723 L21,18 L19,18 L18.8833789,17.9932723 C18.3860402,17.9355072 18,17.5128358 18,17 C18,16.5266131 18.3289337,16.1300527 18.7707092,16.0264107 L18.8833789,16.0067277 L19,16 L20,16 L20,15 L20.0067277,14.8833789 C20.0556059,14.4625538 20.3657483,14.1214159 20.7707092,14.0264107 L20.8833789,14.0067277 L21,14 Z M15,16 C15.5522847,16 16,16.4477153 16,17 C16,17.5522847 15.5522847,18 15,18 L13,18 C12.4477153,18 12,17.5522847 12,17 C12,16.4477153 12.4477153,16 13,16 L15,16 Z M7,8 C7.55228475,8 8,8.44771525 8,9 L8,11 C8,11.5522847 7.55228475,12 7,12 C6.44771525,12 6,11.5522847 6,11 L6,9 C6,8.44771525 6.44771525,8 7,8 Z M21,8 C21.5522847,8 22,8.44771525 22,9 L22,11 C22,11.5522847 21.5522847,12 21,12 C20.4477153,12 20,11.5522847 20,11 L20,9 C20,8.44771525 20.4477153,8 21,8 Z M21,2 L21.1166211,2.00672773 C21.575703,2.06004937 21.9399506,2.42429701 21.9932723,2.88337887 L22,3 L22,5 L21.9932723,5.11662113 C21.9399506,5.57570299 21.575703,5.93995063 21.1166211,5.99327227 L21,6 L20.8833789,5.99327227 C20.424297,5.93995063 20.0600494,5.57570299 20.0067277,5.11662113 L20,5 L20,4 L19,4 L18.8833789,3.99327227 C18.3860402,3.93550716 18,3.51283584 18,3 C18,2.48716416 18.3860402,2.06449284 18.8833789,2.00672773 L19,2 L21,2 Z M9,2 L9.11662113,2.00672773 C9.61395981,2.06449284 10,2.48716416 10,3 C10,3.47338693 9.67106635,3.86994729 9.22929083,3.97358929 L9.11662113,3.99327227 L9,4 L8,4 L8,5 L7.99327227,5.11662113 C7.9443941,5.53744617 7.63425172,5.87858412 7.22929083,5.97358929 L7.11662113,5.99327227 L7,6 L6.88337887,5.99327227 C6.46255383,5.9443941 6.12141588,5.63425172 6.02641071,5.22929083 L6.00672773,5.11662113 L6,5 L6,3 L6.00672773,2.88337887 C6.0556059,2.46255383 6.36574828,2.12141588 6.77070917,2.02641071 L6.88337887,2.00672773 L7,2 L9,2 Z M15,2 C15.5522847,2 16,2.44771525 16,3 C16,3.55228475 15.5522847,4 15,4 L13,4 C12.4477153,4 12,3.55228475 12,3 C12,2.44771525 12.4477153,2 13,2 L15,2 Z"/>
</svg>
