<svg xmlns="http://www.w3.org/2000/svg" width="24" height="24" viewBox="0 0 24 24">
  <path fill-rule="evenodd" d="M12,2 C12.5522847,2 13,2.44771525 13,3 L13,5 C13,5.55228475 12.5522847,6 12,6 C11.4477153,6 11,5.55228475 11,5 L11,3 C11,2.44771525 11.4477153,2 12,2 Z M12,18 C12.5522847,18 13,18.4477153 13,19 L13,21 C13,21.5522847 12.5522847,22 12,22 C11.4477153,22 11,21.5522847 11,21 L11,19 C11,18.4477153 11.4477153,18 12,18 Z M20,8 C21.1045695,8 22,8.8954305 22,10 L22,14 C22,15.1045695 21.1045695,16 20,16 L4,16 C2.8954305,16 2,15.1045695 2,14 L2,10 C2,8.8954305 2.8954305,8 4,8 L20,8 Z"/>
</svg>
