<svg xmlns="http://www.w3.org/2000/svg" width="24" height="24" viewBox="0 0 24 24">
  <path fill-rule="evenodd" d="M19,2 C20.6568542,2 22,3.34314575 22,5 L22,19 C22,20.6568542 20.6568542,22 19,22 L5,22 C3.34314575,22 2,20.6568542 2,19 L2,5 C2,3.34314575 3.34314575,2 5,2 L19,2 Z M4,17 L4,19 C4,19.5522847 4.44771525,20 5,20 L6,20 L6,17 L4,17 Z M16,13 L8,13 L8,20 L16,20 L16,13 Z M20,17 L18,17 L18,20 L19,20 C19.5522847,20 20,19.5522847 20,19 L20,17 Z M20,9 L18,9 L18,15 L20,15 L20,9 Z M16,4 L8,4 L8,11 L16,11 L16,4 Z M19,4 L18,4 L18,7 L20,7 L20,5 C20,4.44771525 19.5522847,4 19,4 Z M6,4 L5,4 C4.44771525,4 4,4.44771525 4,5 L4,7 L6,7 L6,4 Z M4,15 L6,15 L6,9 L4,9 L4,15 Z"/>
</svg>
