<svg xmlns="http://www.w3.org/2000/svg" width="24" height="24" viewBox="0 0 24 24">
  <path fill-rule="evenodd" d="M9,14.2912007 L2.15633851,3.53687549 C1.73269528,2.87115041 2.21090972,2 3,2 L21,2 C21.7890903,2 22.2673047,2.87115041 21.8436615,3.53687549 L15,14.2912007 L15,19 C15,19.3787721 14.7859976,19.7250352 14.4472136,19.8944272 L10.4472136,21.8944272 C9.7823125,22.2268777 9,21.743382 9,21 L9,14.2912007 Z M4.82167316,4 L10.8436615,13.4631245 C10.9457666,13.6235754 11,13.809816 11,14 L11,19.381966 L13,18.381966 L13,14 C13,13.809816 13.0542334,13.6235754 13.1563385,13.4631245 L19.1783268,4 L4.82167316,4 Z"/>
</svg>
