<svg xmlns="http://www.w3.org/2000/svg" width="24" height="24" viewBox="0 0 24 24">
  <path d="M17,2 C17.5522847,2 18,2.44771525 18,3 C18,3.51283584 17.6139598,3.93550716 17.1166211,3.99327227 L17,4 L9.044,4 L14.7893522,11.3860594 C15.0421296,11.7110588 15.0674073,12.1531436 14.8651854,12.5015601 L14.7893522,12.6139406 L9.044,20 L17,20 C17.5128358,20 17.9355072,20.3860402 17.9932723,20.8833789 L18,21 C18,21.5128358 17.6139598,21.9355072 17.1166211,21.9932723 L17,22 L7,22 C6.20567674,22 5.74306436,21.1279475 6.14699135,20.4773738 L6.21064778,20.3860594 L12.733,12 L6.21064778,3.61394061 C5.72298047,2.98693979 6.12732055,2.08638721 6.88883954,2.00581425 L7,2 L17,2 Z"/>
</svg>
