<svg xmlns="http://www.w3.org/2000/svg" width="24" height="24" viewBox="0 0 24 24">
  <path fill-rule="evenodd" d="M15,2 C16.6568542,2 18,3.34314575 18,5 L18,19 C18,20.6568542 16.6568542,22 15,22 L9,22 C7.34314575,22 6,20.6568542 6,19 L6,5 C6,3.34314575 7.34314575,2 9,2 L15,2 Z M3,2 C3.55228475,2 4,2.44771525 4,3 L4,21 C4,21.5522847 3.55228475,22 3,22 C2.44771525,22 2,21.5522847 2,21 L2,3 C2,2.44771525 2.44771525,2 3,2 Z M21,2 C21.5522847,2 22,2.44771525 22,3 L22,21 C22,21.5522847 21.5522847,22 21,22 C20.4477153,22 20,21.5522847 20,21 L20,3 C20,2.44771525 20.4477153,2 21,2 Z M15,4 L9,4 C8.44771525,4 8,4.44771525 8,5 L8,19 C8,19.5522847 8.44771525,20 9,20 L15,20 C15.5522847,20 16,19.5522847 16,19 L16,5 C16,4.44771525 15.5522847,4 15,4 Z"/>
</svg>
