<svg xmlns="http://www.w3.org/2000/svg" width="24" height="24" viewBox="0 0 24 24">
  <path fill-rule="evenodd" d="M19,2 C19.5522847,2 20,2.44771525 20,3 C20,3.55228475 19.5522847,4 19,4 L10,4 L10,10 L19,10 C19.5522847,10 20,10.4477153 20,11 C20,11.5522847 19.5522847,12 19,12 L10,12 L10,16 L13,16 C13.5522847,16 14,16.4477153 14,17 C14,17.5522847 13.5522847,18 13,18 L10,18 L10,21 C10,21.5522847 9.55228475,22 9,22 C8.44771525,22 8,21.5522847 8,21 L8,18 L5,18 C4.44771525,18 4,17.5522847 4,17 C4,16.4477153 4.44771525,16 5,16 L8,16 L8,3 C8,2.44771525 8.44771525,2 9,2 L19,2 Z"/>
</svg>
