<svg xmlns="http://www.w3.org/2000/svg" width="24" height="24" viewBox="0 0 24 24">
  <path fill-rule="evenodd" d="M18.9988365,2 C20.6556907,2 21.9988365,3.34314575 21.9988365,5 L21.9988365,11 C21.9988365,12.6568542 20.6556907,14 18.9988365,14 L17.6178365,14 L14.4460501,20.3416408 C13.9677667,21.2982075 13.0194592,21.9231744 11.9621943,21.99339 L11.7627685,22 L11.4988365,22 C10.1733531,22 9.08879781,20.9684641 9.00415416,19.6643757 L8.99883648,19.5 L8.99883648,14 L5.00057848,14 C4.80302252,14 4.60595003,13.9804859 4.41223048,13.941742 C2.84557548,13.628411 1.80988974,12.1476205 2.02926034,10.5855 L2.05883648,10.4116516 L3.25883648,4.41165159 C3.52760539,3.06780703 4.66958239,2.08479702 6.0229129,2.00521259 L6.20057848,2 L18.9988365,2 Z M17.9988365,12 L18.9988365,12 C19.5511212,12 19.9988365,11.5522847 19.9988365,11 L19.9988365,5 C19.9988365,4.44771525 19.5511212,4 18.9988365,4 L17.9988365,4 L17.9988365,12 Z M11.4988365,20 L11.7627685,20 C12.0994548,20 12.410455,19.8309117 12.5943789,19.5553977 L12.6571957,19.4472136 L15.8932637,12.9750776 C15.9453345,12.8709361 15.9786838,12.7587746 15.992104,12.6437086 L15.9988365,12.527864 L15.9988365,4 L6.20057848,4 C5.76362088,4 5.38234502,4.28271958 5.24982634,4.68987516 L5.21999748,4.80388386 L4.01999748,10.8038839 C3.91168553,11.3454436 4.26290273,11.8722687 4.80446248,11.9805807 L4.90204093,11.9951333 L4.90204093,11.9951333 L5.00057848,12 L8.99883648,12 C10.0531983,12 10.9170016,12.8158778 10.9933507,13.8507377 L10.9988365,14 L10.9988365,19.5 C10.9988365,19.7454599 11.1757116,19.9496084 11.4089608,19.9919443 L11.4988365,20 Z"/>
</svg>
