<svg xmlns="http://www.w3.org/2000/svg" width="24" height="24" viewBox="0 0 24 24">
  <path fill-rule="evenodd" d="M18,2 C20.209139,2 22,3.790861 22,6 C22,8.209139 20.209139,10 18,10 C16.8301971,10 15.7776798,9.49784111 15.0462495,8.6973249 L10,11.5803225 L10,12.4196775 L15.0462495,15.3026751 C15.7776798,14.5021589 16.8301971,14 18,14 C20.209139,14 22,15.790861 22,18 C22,20.209139 20.209139,22 18,22 C15.790861,22 14,20.209139 14,18 C14,17.6802375 14.0375207,17.3692383 14.1083996,17.0711651 L9.26913875,14.3055087 C8.54487506,15.3306164 7.35060899,16 6,16 C3.790861,16 2,14.209139 2,12 C2,9.790861 3.790861,8 6,8 C7.35060899,8 8.54487506,8.66938359 9.26913875,9.69449132 L14.1083996,6.92883486 C14.0375207,6.63076166 14,6.31976254 14,6 C14,3.790861 15.790861,2 18,2 Z M18,16 C16.8954305,16 16,16.8954305 16,18 C16,19.1045695 16.8954305,20 18,20 C19.1045695,20 20,19.1045695 20,18 C20,16.8954305 19.1045695,16 18,16 Z M6,10 C4.8954305,10 4,10.8954305 4,12 C4,13.1045695 4.8954305,14 6,14 C7.1045695,14 8,13.1045695 8,12 C8,10.8954305 7.1045695,10 6,10 Z M18,4 C16.8954305,4 16,4.8954305 16,6 C16,7.1045695 16.8954305,8 18,8 C19.1045695,8 20,7.1045695 20,6 C20,4.8954305 19.1045695,4 18,4 Z"/>
</svg>
