<svg xmlns="http://www.w3.org/2000/svg" width="24" height="24" viewBox="0 0 24 24">
  <path fill-rule="evenodd" d="M17,4 C17.5522847,4 18,4.44771525 18,5 C18,5.55228475 17.5522847,6 17,6 L11,6 L11,19 C11,19.5522847 10.5522847,20 10,20 C9.44771525,20 9,19.5522847 9,19 L9,6 L3,6 C2.44771525,6 2,5.55228475 2,5 C2,4.44771525 2.44771525,4 3,4 L17,4 Z M13,12 C12.4477153,12 12,11.5522847 12,11 C12,10.4477153 12.4477153,10 13,10 L21,10 C21.5522847,10 22,10.4477153 22,11 C22,11.5522847 21.5522847,12 21,12 L18,12 L18,19 C18,19.5522847 17.5522847,20 17,20 C16.4477153,20 16,19.5522847 16,19 L16,12 L13,12 Z"/>
</svg>
