<svg xmlns="http://www.w3.org/2000/svg" width="24" height="24" viewBox="0 0 24 24">
  <path fill-rule="evenodd" d="M11,2 L13,2 C14.5976809,2 15.9036609,3.24891996 15.9949073,4.82372721 L16,5 L16,6 L19,6 C20.6568542,6 22,7.34314575 22,9 L22,19 C22,20.6568542 20.6568542,22 19,22 L5,22 C3.34314575,22 2,20.6568542 2,19 L2,9 C2,7.34314575 3.34314575,6 5,6 L8,6 L8,5 C8,3.40231912 9.24891996,2.09633912 10.8237272,2.00509269 L11,2 L13,2 L11,2 Z M20,16 L4,16 L4,19 C4,19.5522847 4.44771525,20 5,20 L19,20 C19.5522847,20 20,19.5522847 20,19 L20,16 Z M19,8 L5,8 C4.44771525,8 4,8.44771525 4,9 L4,14 L20,14 L20,9 C20,8.44771525 19.5522847,8 19,8 Z M13,4 L11,4 C10.4871642,4 10.0644928,4.38604019 10.0067277,4.88337887 L10,5 L10,6 L14,6 L14,5 C14,4.48716416 13.6139598,4.06449284 13.1166211,4.00672773 L13,4 Z"/>
</svg>
