<svg xmlns="http://www.w3.org/2000/svg" width="24" height="24" viewBox="0 0 24 24">
  <path fill-rule="evenodd" d="M12,2 C15.3137085,2 18,4.6862915 18,8 L18,16 C18,19.3137085 15.3137085,22 12,22 C8.6862915,22 6,19.3137085 6,16 L6,8 C6,4.6862915 8.6862915,2 12,2 Z M12,4 C9.790861,4 8,5.790861 8,8 L8,16 C8,18.209139 9.790861,20 12,20 C14.209139,20 16,18.209139 16,16 L16,8 C16,5.790861 14.209139,4 12,4 Z M12,7 C12.5522847,7 13,7.44771525 13,8 L13,10 C13,10.5522847 12.5522847,11 12,11 C11.4477153,11 11,10.5522847 11,10 L11,8 C11,7.44771525 11.4477153,7 12,7 Z"/>
</svg>
