<svg xmlns="http://www.w3.org/2000/svg" width="24" height="24" viewBox="0 0 24 24">
  <path fill-rule="evenodd" d="M13,2 C15.7614237,2 18,4.23857625 18,7 C18,7.55228475 17.5522847,8 17,8 C16.4871642,8 16.0644928,7.61395981 16.0067277,7.11662113 L16,7 C16,5.34314575 14.6568542,4 13,4 C11.4023191,4 10.0963391,5.24891996 10.0050927,6.82372721 L10,7 L10,13 L13,13 C13.5128358,13 13.9355072,13.3860402 13.9932723,13.8833789 L14,14 C14,14.5128358 13.6139598,14.9355072 13.1166211,14.9932723 L13,15 L10,15 L10,20 L18,20 C18.5522847,20 19,20.4477153 19,21 C19,21.5522847 18.5522847,22 18,22 L6,22 C5.44771525,22 5,21.5522847 5,21 C5,20.4477153 5.44771525,20 6,20 L8,20 L8,15 L7,15 C6.48716416,15 6.06449284,14.6139598 6.00672773,14.1166211 L6,14 C6,13.4871642 6.38604019,13.0644928 6.88337887,13.0067277 L7,13 L8,13 L8,7 C8,4.23857625 10.2385763,2 13,2 Z"/>
</svg>
