<svg xmlns="http://www.w3.org/2000/svg" width="24" height="24" viewBox="0 0 24 24">
  <path fill-rule="evenodd" d="M5.57346234,4.18076808 L15.5734623,11.1807681 C16.1421792,11.5788699 16.1421792,12.4211301 15.5734623,12.8192319 L5.57346234,19.8192319 C4.91068487,20.2831762 4,19.809023 4,19 L4,5 C4,4.19097699 4.91068487,3.71682385 5.57346234,4.18076808 Z M19,4 C19.5522847,4 20,4.44771525 20,5 L20,19 C20,19.5522847 19.5522847,20 19,20 C18.4477153,20 18,19.5522847 18,19 L18,5 C18,4.44771525 18.4477153,4 19,4 Z M6,6.92065556 L6,17.0793444 L13.2562063,12 L6,6.92065556 Z"/>
</svg>
