<svg xmlns="http://www.w3.org/2000/svg" width="24" height="24" viewBox="0 0 24 24">
  <path fill-rule="evenodd" d="M17,5 C18.5976809,5 19.9036609,6.24891996 19.9949073,7.82372721 L20,8 L20,8.17 L20.1933113,8.24671351 C21.1458614,8.66012858 21.8418803,9.55339202 21.9763495,10.6214854 L21.9949073,10.8237272 L22,11 L22,13 C22,14.2181391 21.2716631,15.274045 20.201161,15.7433631 L20,15.822 L20,16 C20,17.5385075 18.8418794,18.8065215 17.3498634,18.9798168 L17.1762728,18.9949073 L17,19 L5,19 C3.40231912,19 2.09633912,17.75108 2.00509269,16.1762728 L2,16 L2,8 C2,6.40231912 3.24891996,5.09633912 4.82372721,5.00509269 L5,5 L17,5 Z M17,7 L5,7 C4.48716416,7 4.06449284,7.38604019 4.00672773,7.88337887 L4,8 L4,16 C4,16.5128358 4.38604019,16.9355072 4.88337887,16.9932723 L5,17 L17,17 C17.5128358,17 17.9355072,16.6139598 17.9932723,16.1166211 L18,16 L18,15 C18,14.5004355 18.3670085,14.0840077 18.8498945,14.0112465 L18.9632725,14.0006747 L19.075685,13.9972247 C19.5546159,13.9618905 19.9369487,13.5888432 19.9929352,13.1192658 L20,13 L20,11 C20,10.4871642 19.6139598,10.0644928 19.1166211,10.0067277 L18.8833789,9.99327227 C18.424297,9.93995063 18.0600494,9.57570299 18.0067277,9.11662113 L18,9 L18,8 C18,7.48716416 17.6139598,7.06449284 17.1166211,7.00672773 L17,7 Z M11,9 C11.5522847,9 12,9.44771525 12,10 L12,14 C12,14.5522847 11.5522847,15 11,15 L7,15 C6.44771525,15 6,14.5522847 6,14 L6,10 C6,9.44771525 6.44771525,9 7,9 L11,9 Z"/>
</svg>
