<svg xmlns="http://www.w3.org/2000/svg" width="24" height="24" viewBox="0 0 24 24">
  <path fill-rule="evenodd" d="M19,2 C20.6568542,2 22,3.34314575 22,5 L22,19 C22,20.6568542 20.6568542,22 19,22 L5,22 C3.34314575,22 2,20.6568542 2,19 L2,5 C2,3.34314575 3.34314575,2 5,2 L19,2 Z M20,12.302 L15.8320503,18.5547002 C15.5242948,19.0163334 14.9063415,19.1337563 14.4540306,18.8379569 L14.3598156,18.7682213 L9.18750303,14.4579608 L5.228,20 L19,20 C19.5522847,20 20,19.5522847 20,19 L20,12.302 Z M19,4 L5,4 C4.44771525,4 4,4.44771525 4,5 L4,18.278 L8.18626653,12.4187618 C8.50017051,11.9792962 9.09949173,11.8737129 9.54124102,12.158983 L9.6401844,12.2317787 L14.7852568,16.5193391 L20,8.696 L20,5 C20,4.44771525 19.5522847,4 19,4 Z M8,6 C9.1045695,6 10,6.8954305 10,8 C10,9.1045695 9.1045695,10 8,10 C6.8954305,10 6,9.1045695 6,8 C6,6.8954305 6.8954305,6 8,6 Z"/>
</svg>
