<svg xmlns="http://www.w3.org/2000/svg" width="24" height="24" viewBox="0 0 24 24">
  <path fill-rule="evenodd" d="M4,3 C4,2.44771525 3.55228475,2 3,2 C2.44771525,2 2,2.44771525 2,3 L2,21 C2,21.5522847 2.44771525,22 3,22 C3.55228475,22 4,21.5522847 4,21 L4,3 Z M15,12 C15,11.4477153 14.5522847,11 14,11 L13,11 L13,10 C13,9.44771525 12.5522847,9 12,9 C11.4477153,9 11,9.44771525 11,10 L11,11 L10,11 C9.44771525,11 9,11.4477153 9,12 C9,12.5522847 9.44771525,13 10,13 L11,13 L11,14 C11,14.5522847 11.4477153,15 12,15 C12.5522847,15 13,14.5522847 13,14 L13,13 L14,13 C14.5522847,13 15,12.5522847 15,12 Z M14,21 C14,20.4477153 13.5522847,20 13,20 L11,20 C10.4477153,20 10,20.4477153 10,21 C10,21.5522847 10.4477153,22 11,22 L13,22 C13.5522847,22 14,21.5522847 14,21 Z M14,3 C14,2.44771525 13.5522847,2 13,2 L11,2 C10.4477153,2 10,2.44771525 10,3 C10,3.55228475 10.4477153,4 11,4 L13,4 C13.5522847,4 14,3.55228475 14,3 Z M22,3 L21.9932723,2.88337887 C21.9399506,2.42429701 21.575703,2.06004937 21.1166211,2.00672773 L21,2 L19,2 L18.8833789,2.00672773 C18.424297,2.06004937 18.0600494,2.42429701 18.0067277,2.88337887 L18,3 L18.0067277,3.11662113 C18.0600494,3.57570299 18.424297,3.93995063 18.8833789,3.99327227 L19,4 L20,4 L20,5 L20.0067277,5.11662113 C20.0644928,5.61395981 20.4871642,6 21,6 C21.5128358,6 21.9355072,5.61395981 21.9932723,5.11662113 L22,5 L22,3 Z M22,19 L21.9932723,18.8833789 C21.9355072,18.3860402 21.5128358,18 21,18 C20.5266131,18 20.1300527,18.3289337 20.0264107,18.7707092 L20.0067277,18.8833789 L20,19 L20,20 L19,20 L18.8833789,20.0067277 C18.4625538,20.0556059 18.1214159,20.3657483 18.0264107,20.7707092 L18.0067277,20.8833789 L18,21 L18.0067277,21.1166211 C18.0556059,21.5374462 18.3657483,21.8785841 18.7707092,21.9735893 L18.8833789,21.9932723 L19,22 L21,22 L21.1166211,21.9932723 C21.5374462,21.9443941 21.8785841,21.6342517 21.9735893,21.2292908 L21.9932723,21.1166211 L22,21 L22,19 Z M22,11 C22,10.4477153 21.5522847,10 21,10 C20.4477153,10 20,10.4477153 20,11 L20,13 C20,13.5522847 20.4477153,14 21,14 C21.5522847,14 22,13.5522847 22,13 L22,11 Z"/>
</svg>
