<svg xmlns="http://www.w3.org/2000/svg" width="24" height="24" viewBox="0 0 24 24">
  <path fill-rule="evenodd" d="M15,2 C16.6568542,2 18,3.34314575 18,5 L18,19 C18,20.6568542 16.6568542,22 15,22 L9,22 C7.34314575,22 6,20.6568542 6,19 L6,5 C6,3.34314575 7.34314575,2 9,2 L15,2 Z M15,4 L9,4 C8.44771525,4 8,4.44771525 8,5 L8,19 C8,19.5522847 8.44771525,20 9,20 L15,20 C15.5522847,20 16,19.5522847 16,19 L16,5 C16,4.44771525 15.5522847,4 15,4 Z M3,6 C3.55228475,6 4,6.44771525 4,7 L4,17 C4,17.5522847 3.55228475,18 3,18 C2.44771525,18 2,17.5522847 2,17 L2,7 C2,6.44771525 2.44771525,6 3,6 Z M21,6 C21.5522847,6 22,6.44771525 22,7 L22,17 C22,17.5522847 21.5522847,18 21,18 C20.4477153,18 20,17.5522847 20,17 L20,7 C20,6.44771525 20.4477153,6 21,6 Z"/>
</svg>
