<svg xmlns="http://www.w3.org/2000/svg" width="24" height="24" viewBox="0 0 24 24">
  <path d="M3,18 L3.11662113,18.0067277 C3.57570299,18.0600494 3.93995063,18.424297 3.99327227,18.8833789 L4,19 L4,20 L5,20 L5.11662113,20.0067277 C5.61395981,20.0644928 6,20.4871642 6,21 C6,21.5128358 5.61395981,21.9355072 5.11662113,21.9932723 L5,22 L3,22 L2.88337887,21.9932723 C2.42429701,21.9399506 2.06004937,21.575703 2.00672773,21.1166211 L2,21 L2,19 L2.00672773,18.8833789 C2.06004937,18.424297 2.42429701,18.0600494 2.88337887,18.0067277 L3,18 Z M17,20 C17.5522847,20 18,20.4477153 18,21 C18,21.5522847 17.5522847,22 17,22 L15,22 C14.4477153,22 14,21.5522847 14,21 C14,20.4477153 14.4477153,20 15,20 L17,20 Z M11,20 C11.5522847,20 12,20.4477153 12,21 C12,21.5522847 11.5522847,22 11,22 L9,22 C8.44771525,22 8,21.5522847 8,21 C8,20.4477153 8.44771525,20 9,20 L11,20 Z M21,2 L21.1166211,2.00672773 C21.575703,2.06004937 21.9399506,2.42429701 21.9932723,2.88337887 L22,3 L22,17 L21.9932723,17.1166211 C21.9443941,17.5374462 21.6342517,17.8785841 21.2292908,17.9735893 L21.1166211,17.9932723 L21,18 L7,18 L6.88337887,17.9932723 C6.42429701,17.9399506 6.06004937,17.575703 6.00672773,17.1166211 L6,17 L6,3 L6.00672773,2.88337887 C6.0556059,2.46255383 6.36574828,2.12141588 6.77070917,2.02641071 L6.88337887,2.00672773 L7,2 L21,2 Z M8,4 L8,16 L20,16 L20,4 L8,4 Z M3,12 C3.55228475,12 4,12.4477153 4,13 L4,15 C4,15.5522847 3.55228475,16 3,16 C2.44771525,16 2,15.5522847 2,15 L2,13 C2,12.4477153 2.44771525,12 3,12 Z M3,6 C3.55228475,6 4,6.44771525 4,7 L4,9 C4,9.55228475 3.55228475,10 3,10 C2.44771525,10 2,9.55228475 2,9 L2,7 C2,6.44771525 2.44771525,6 3,6 Z"/>
</svg>
