<svg xmlns="http://www.w3.org/2000/svg" width="24" height="24" viewBox="0 0 24 24">
  <path fill-rule="evenodd" d="M13,20 C13.5522847,20 14,20.4477153 14,21 C14,21.5128358 13.6139598,21.9355072 13.1166211,21.9932723 L13,22 L11,22 C10.4477153,22 10,21.5522847 10,21 C10,20.4871642 10.3860402,20.0644928 10.8833789,20.0067277 L11,20 L13,20 Z M21,18 C21.4733869,18 21.8699473,18.3289337 21.9735893,18.7707092 L21.9932723,18.8833789 L22,19 L22,21 L21.9932723,21.1166211 L21.9735893,21.2292908 C21.8880846,21.5937556 21.6032124,21.8814174 21.2403116,21.9709373 L21.1166211,21.9932723 L21,22 L19,22 L18.8833789,21.9932723 L18.7707092,21.9735893 C18.4062444,21.8880846 18.1185826,21.6032124 18.0290627,21.2403116 L18.0067277,21.1166211 L18,21 L18.0067277,20.8833789 L18.0264107,20.7707092 C18.1119154,20.4062444 18.3967876,20.1185826 18.7596884,20.0290627 L18.8833789,20.0067277 L19,20 L20,20 L20,19 L20.0067277,18.8833789 L20.0264107,18.7707092 C20.1300527,18.3289337 20.5266131,18 21,18 Z M21,2 C21.5522847,2 22,2.44771525 22,3 C22,3.51283584 21.6139598,3.93550716 21.1166211,3.99327227 L21,4 L5,4 C4.48716416,4 4.06449284,4.38604019 4.00672773,4.88337887 L4,5 L4,21 C4,21.5522847 3.55228475,22 3,22 C2.48716416,22 2.06449284,21.6139598 2.00672773,21.1166211 L2,21 L2,5 C2,3.40231912 3.24891996,2.09633912 4.82372721,2.00509269 L5,2 L21,2 Z M12,9 C12.5128358,9 12.9355072,9.38604019 12.9932723,9.88337887 L13,10 L13,11 L14,11 C14.5522847,11 15,11.4477153 15,12 C15,12.5128358 14.6139598,12.9355072 14.1166211,12.9932723 L14,13 L13,13 L13,14 C13,14.5522847 12.5522847,15 12,15 C11.4871642,15 11.0644928,14.6139598 11.0067277,14.1166211 L11,14 L11,13 L10,13 C9.44771525,13 9,12.5522847 9,12 C9,11.4871642 9.38604019,11.0644928 9.88337887,11.0067277 L10,11 L11,11 L11,10 C11,9.44771525 11.4477153,9 12,9 Z M21,10 C21.5128358,10 21.9355072,10.3860402 21.9932723,10.8833789 L22,11 L22,13 C22,13.5522847 21.5522847,14 21,14 C20.4871642,14 20.0644928,13.6139598 20.0067277,13.1166211 L20,13 L20,11 C20,10.4477153 20.4477153,10 21,10 Z"/>
</svg>
