<svg xmlns="http://www.w3.org/2000/svg" width="24" height="24" viewBox="0 0 24 24">
  <path fill-rule="evenodd" d="M20,3 C20,2.44771525 20.4477153,2 21,2 C21.5522847,2 22,2.44771525 22,3 L22,21 C22,21.5522847 21.5522847,22 21,22 C20.4477153,22 20,21.5522847 20,21 L20,3 Z M9,12 C9,11.4477153 9.44771525,11 10,11 L11,11 L11,10 C11,9.44771525 11.4477153,9 12,9 C12.5522847,9 13,9.44771525 13,10 L13,11 L14,11 C14.5522847,11 15,11.4477153 15,12 C15,12.5522847 14.5522847,13 14,13 L13,13 L13,14 C13,14.5522847 12.5522847,15 12,15 C11.4477153,15 11,14.5522847 11,14 L11,13 L10,13 C9.44771525,13 9,12.5522847 9,12 Z M10,21 C10,20.4477153 10.4477153,20 11,20 L13,20 C13.5522847,20 14,20.4477153 14,21 C14,21.5522847 13.5522847,22 13,22 L11,22 C10.4477153,22 10,21.5522847 10,21 Z M10,3 C10,2.44771525 10.4477153,2 11,2 L13,2 C13.5522847,2 14,2.44771525 14,3 C14,3.55228475 13.5522847,4 13,4 L11,4 C10.4477153,4 10,3.55228475 10,3 Z M2,3 L2.00672773,2.88337887 C2.06004937,2.42429701 2.42429701,2.06004937 2.88337887,2.00672773 L3,2 L5,2 L5.11662113,2.00672773 C5.57570299,2.06004937 5.93995063,2.42429701 5.99327227,2.88337887 L6,3 L5.99327227,3.11662113 C5.93995063,3.57570299 5.57570299,3.93995063 5.11662113,3.99327227 L5,4 L4,4 L4,5 L3.99327227,5.11662113 C3.93550716,5.61395981 3.51283584,6 3,6 C2.48716416,6 2.06449284,5.61395981 2.00672773,5.11662113 L2,5 L2,3 Z M2,19 L2.00672773,18.8833789 C2.06449284,18.3860402 2.48716416,18 3,18 C3.47338693,18 3.86994729,18.3289337 3.97358929,18.7707092 L3.99327227,18.8833789 L4,19 L4,20 L5,20 L5.11662113,20.0067277 C5.53744617,20.0556059 5.87858412,20.3657483 5.97358929,20.7707092 L5.99327227,20.8833789 L6,21 L5.99327227,21.1166211 C5.9443941,21.5374462 5.63425172,21.8785841 5.22929083,21.9735893 L5.11662113,21.9932723 L5,22 L3,22 L2.88337887,21.9932723 C2.46255383,21.9443941 2.12141588,21.6342517 2.02641071,21.2292908 L2.00672773,21.1166211 L2,21 L2,19 Z M2,11 C2,10.4477153 2.44771525,10 3,10 C3.55228475,10 4,10.4477153 4,11 L4,13 C4,13.5522847 3.55228475,14 3,14 C2.44771525,14 2,13.5522847 2,13 L2,11 Z"/>
</svg>
