<svg xmlns="http://www.w3.org/2000/svg" width="24" height="24" viewBox="0 0 24 24">
  <path fill-rule="evenodd" d="M18,2 C18.2652165,2 18.5195704,2.10535684 18.7071068,2.29289322 L21.7071068,5.29289322 C21.8946432,5.4804296 22,5.73478351 22,6 L22,12 C22,12.2652165 21.8946432,12.5195704 21.7071068,12.7071068 L18.7071068,15.7071068 C18.5195704,15.8946432 18.2652165,16 18,16 L13.4142136,16 L7.70710678,21.7071068 C7.5195704,21.8946432 7.26521649,22 7,22 L3,22 C2.44771525,22 2,21.5522847 2,21 L2,17 C2,16.7347835 2.10535684,16.4804296 2.29289322,16.2928932 L8,10.5857864 L8,6 C8,5.73478351 8.10535684,5.4804296 8.29289322,5.29289322 L11.2928932,2.29289322 C11.4804296,2.10535684 11.7347835,2 12,2 L18,2 Z M17.5857864,4 L12.4142136,4 L10,6.41421356 L10,11 C10,11.2652165 9.89464316,11.5195704 9.70710678,11.7071068 L4,17.4142136 L4,20 L6.58578644,20 L12.2928932,14.2928932 C12.4804296,14.1053568 12.7347835,14 13,14 L17.5857864,14 L20,11.5857864 L20,6.41421356 L17.5857864,4 Z M16,6 C17.1045695,6 18,6.8954305 18,8 C18,9.1045695 17.1045695,10 16,10 C14.8954305,10 14,9.1045695 14,8 C14,6.8954305 14.8954305,6 16,6 Z"/>
</svg>
