<svg xmlns="http://www.w3.org/2000/svg" width="24" height="24" viewBox="0 0 24 24">
  <path d="M17.8531452,16.5218773 L17.8318787,16.5554354 L17.7738364,16.6335407 L17.7738364,16.6335407 L17.7071068,16.7071068 L12.7071068,21.7071068 C12.1045317,22.3096819 11.0928192,21.9276677 11.0059833,21.1136309 L11,21 L10.9999632,14.0789952 L7.62469505,16.7808688 C7.19343311,17.1258784 6.56414074,17.055957 6.21913119,16.624695 C5.90066084,16.2266071 5.9357411,15.6597832 6.28222169,15.3035757 L6.37530495,15.2191312 L10.3989632,11.9999952 L6.37530495,8.78086881 C5.94404302,8.43585926 5.87412164,7.80656689 6.21913119,7.37530495 C6.53760154,6.97721701 7.09830105,6.88701689 7.52187726,7.14685485 L7.62469505,7.21913119 L10.9999632,9.91999525 L11,3 C11,2.14783014 11.9855136,1.70256618 12.6225268,2.21677482 L12.7071068,2.29289322 L17.7071068,7.29289322 C17.7544968,7.34028327 17.7960719,7.39112223 17.8318787,7.44456462 L17.8596648,7.48847804 L17.9043169,7.57218297 L17.9043169,7.57218297 L17.9540894,7.69958152 L17.9540894,7.69958152 C18.0586553,8.0419538 17.9797274,8.41988402 17.7274184,8.68642452 L17.624695,8.78086881 L13.5999632,11.9999952 L17.624695,15.2191312 C17.8906417,15.4318885 18.0171735,15.7497499 17.9981453,16.0617614 C17.9917519,16.1593984 17.9727098,16.2517428 17.9404204,16.3408129 L17.9043193,16.4277695 L17.9043193,16.4277695 L17.8531452,16.5218773 Z M13,14.08 L13,18.584 L15.502,16.082 L13,14.08 Z M13,5.415 L13,9.919 L15.502,7.917 L13,5.415 Z"/>
</svg>
