<svg xmlns="http://www.w3.org/2000/svg" width="24" height="24" viewBox="0 0 24 24">
  <path fill-rule="evenodd" d="M22,12 C22,12.5522847 21.5522847,13 21,13 L19,13 C18.4477153,13 18,12.5522847 18,12 C18,11.4477153 18.4477153,11 19,11 L21,11 C21.5522847,11 22,11.4477153 22,12 Z M6,12 C6,12.5522847 5.55228475,13 5,13 L3,13 C2.44771525,13 2,12.5522847 2,12 C2,11.4477153 2.44771525,11 3,11 L5,11 C5.55228475,11 6,11.4477153 6,12 Z M16,20 C16,21.1045695 15.1045695,22 14,22 L10,22 C8.8954305,22 8,21.1045695 8,20 L8,4 C8,2.8954305 8.8954305,2 10,2 L14,2 C15.1045695,2 16,2.8954305 16,4 L16,20 Z"/>
</svg>
