<svg xmlns="http://www.w3.org/2000/svg" width="24" height="24" viewBox="0 0 24 24">
  <path fill-rule="evenodd" d="M6,22 C5.44771525,22 5,21.5522847 5,21 L5,3 C5,2.44771525 5.44771525,2 6,2 L12,2 C14.7893752,2 17,4.48695286 17,7.5 C17,8.9640287 16.4780819,10.303849 15.6214508,11.2945155 C17.599503,12.0368512 19,14.1017773 19,16.5 C19,19.437721 16.8985248,21.8753235 14.2080925,21.9953676 L14,22 L6,22 Z M14.1675419,13.0054561 L14,13 L7,13 L7,20 L14,20 C15.6289028,20 17,18.4575156 17,16.5 C17,14.6099849 15.7218309,13.1068717 14.1675419,13.0054561 Z M12,4 L7,4 L7,11 L12,11 C13.6289028,11 15,9.45751561 15,7.5 C15,5.60998493 13.7218309,4.10687173 12.1675419,4.00545609 L12,4 Z"/>
</svg>
