<svg xmlns="http://www.w3.org/2000/svg" viewBox="0 0 538.25 176.87"><defs><style>.cls-1{fill:#fff;}</style></defs><title>Recurso 1</title><g id="Capa_2" data-name="Capa 2"><g id="Capa_1-2" data-name="Capa 1"><path class="cls-1" d="M96,104.1,95.7,57.72,73.6,94.94H58.48L36.38,59.32V104.1H5.12V2.33h28.2L66.48,56.56,98.75,2.33H127l.29,101.77Z"/><path class="cls-1" d="M165.93,28.93H136.12V2.33h93.93v26.6H200.24V104.1H165.93Z"/><path class="cls-1" d="M252.22,103.6q-12-2.84-19.7-7.64l11-25a69.64,69.64,0,0,0,16.28,6.76,63.54,63.54,0,0,0,17.3,2.55c4.75,0,8.15-.46,10.18-1.38s3.06-2.3,3.06-4.15c0-2.13-1.34-3.73-4-4.79a85.59,85.59,0,0,0-13.16-3.49,149.45,149.45,0,0,1-19.63-5.31,33.45,33.45,0,0,1-13.67-9.31q-5.82-6.46-5.81-17.52a30.14,30.14,0,0,1,5.38-17.44Q244.87,9,255.56,4.51t26-4.51a94.36,94.36,0,0,1,20.57,2.25A64.61,64.61,0,0,1,319.9,8.87L309.58,33.73q-15-7.56-28.35-7.56T268,32.57q0,3,3.93,4.58a82.62,82.62,0,0,0,12.94,3.27,132.68,132.68,0,0,1,19.63,5,34.14,34.14,0,0,1,13.88,9.23q5.89,6.4,5.89,17.45a29.81,29.81,0,0,1-5.38,17.37q-5.37,7.79-16.06,12.36t-26,4.58A106.78,106.78,0,0,1,252.22,103.6Z"/><path class="cls-1" d="M12.23,173.7a23.39,23.39,0,0,1-9-8.75,25.66,25.66,0,0,1,0-25.07,23.39,23.39,0,0,1,9-8.75A25.83,25.83,0,0,1,25,128a26.64,26.64,0,0,1,9.64,1.69,19.88,19.88,0,0,1,7.51,5L40,136.92q-5.79-5.73-14.82-5.72a22.39,22.39,0,0,0-11,2.75,20.2,20.2,0,0,0-7.78,7.62,22.21,22.21,0,0,0,0,21.7,20.25,20.25,0,0,0,7.78,7.61,22.28,22.28,0,0,0,11,2.75A20.22,20.22,0,0,0,40,167.85l2.2,2.27a20.16,20.16,0,0,1-7.54,5A26.37,26.37,0,0,1,25,176.87,25.72,25.72,0,0,1,12.23,173.7Z"/><path class="cls-1" d="M60.55,173.67a23.69,23.69,0,0,1-9-8.78,25.41,25.41,0,0,1,0-24.94,23.65,23.65,0,0,1,9-8.79,27.37,27.37,0,0,1,25.63,0,23.33,23.33,0,0,1,9,8.75,25.66,25.66,0,0,1,0,25.07,23.33,23.33,0,0,1-9,8.75,25.89,25.89,0,0,1-12.81,3.17A25.84,25.84,0,0,1,60.55,173.67Zm23.77-2.79A20.44,20.44,0,0,0,92,163.27a22.28,22.28,0,0,0,0-21.7A20.39,20.39,0,0,0,84.32,134a23.26,23.26,0,0,0-21.94,0,20.19,20.19,0,0,0-7.75,7.62,22.21,22.21,0,0,0,0,21.7,20.24,20.24,0,0,0,7.75,7.61,23.26,23.26,0,0,0,21.94,0Z"/><path class="cls-1" d="M144.12,176.53l-11.51-16.12a35.06,35.06,0,0,1-4.68.34H114.15v15.78h-3.51V128.3h17.29q9.09,0,14.26,4.31t5.16,11.95a14.69,14.69,0,0,1-11.29,15.09l12.05,16.88Zm-16.19-18.88q7.71,0,11.78-3.41t4.06-9.68q0-6.27-4.06-9.68t-11.78-3.41H114.15v26.18Z"/><path class="cls-1" d="M191.79,132.61q5.16,4.3,5.16,11.95t-5.16,11.89q-5.17,4.31-14.26,4.3H163.75v15.78h-3.52V128.3h17.3Q186.62,128.3,191.79,132.61Zm-2.48,21.6q4-3.37,4.06-9.65t-4.06-9.68q-4.06-3.4-11.78-3.41H163.75v26.11h13.78Q185.24,157.58,189.31,154.21Z"/><path class="cls-1" d="M217.14,173.67a23.62,23.62,0,0,1-9-8.78,25.34,25.34,0,0,1,0-24.94,23.58,23.58,0,0,1,9-8.79,27.35,27.35,0,0,1,25.62,0,23.33,23.33,0,0,1,9,8.75,25.59,25.59,0,0,1,0,25.07,23.33,23.33,0,0,1-9,8.75,27.35,27.35,0,0,1-25.62,0Zm23.76-2.79a20.37,20.37,0,0,0,7.72-7.61,22.28,22.28,0,0,0,0-21.7A20.32,20.32,0,0,0,240.9,134a22,22,0,0,0-11-2.75A22.22,22.22,0,0,0,219,134a20.26,20.26,0,0,0-7.75,7.62,22.28,22.28,0,0,0,0,21.7,20.3,20.3,0,0,0,7.75,7.61,22.11,22.11,0,0,0,11,2.75A21.88,21.88,0,0,0,240.9,170.88Z"/><path class="cls-1" d="M300.7,176.53l-11.51-16.12a35.06,35.06,0,0,1-4.68.34H270.73v15.78h-3.51V128.3h17.29q9.09,0,14.26,4.31t5.17,11.95a14.72,14.72,0,0,1-11.3,15.09l12.05,16.88Zm-16.19-18.88q7.71,0,11.78-3.41t4.06-9.68q0-6.27-4.06-9.68t-11.78-3.41H270.73v26.18Z"/><path class="cls-1" d="M346.65,163h-28l-6.13,13.57h-3.79l22.18-48.23h3.51l22.19,48.23h-3.79Zm-1.31-3-12.68-27.83L320.06,160Z"/><path class="cls-1" d="M372.21,131.47H354.84V128.3h38.24v3.17H375.72v45.06h-3.51Z"/><path class="cls-1" d="M401.76,128.3h3.51v48.23h-3.51Z"/><path class="cls-1" d="M429.73,173.67a23.62,23.62,0,0,1-9-8.78,25.34,25.34,0,0,1,0-24.94,23.58,23.58,0,0,1,9-8.79,27.35,27.35,0,0,1,25.62,0,23.33,23.33,0,0,1,9,8.75,25.59,25.59,0,0,1,0,25.07,23.33,23.33,0,0,1-9,8.75,27.35,27.35,0,0,1-25.62,0Zm23.76-2.79a20.37,20.37,0,0,0,7.72-7.61,22.28,22.28,0,0,0,0-21.7,20.32,20.32,0,0,0-7.72-7.62,23.26,23.26,0,0,0-21.94,0,20.26,20.26,0,0,0-7.75,7.62,22.28,22.28,0,0,0,0,21.7,20.3,20.3,0,0,0,7.75,7.61,23.26,23.26,0,0,0,21.94,0Z"/><path class="cls-1" d="M519.08,128.3v48.23h-2.9l-32.86-41.89v41.89h-3.51V128.3h3l32.79,41.89V128.3Z"/><path class="cls-1" d="M366.06,55,336.52,70.86a.79.79,0,0,1-1.16-.69V68.92a.79.79,0,0,1,.41-.69L366.06,52a.79.79,0,0,1,.73,0l31,15.51a.76.76,0,0,1,.43.7v1.28a.78.78,0,0,1-1.13.7L366.79,55A.79.79,0,0,0,366.06,55Z"/><path class="cls-1" d="M410.77,27.13,381.22,43a.79.79,0,0,1-1.16-.69V41.05a.77.77,0,0,1,.42-.69L410.77,24.1a.79.79,0,0,1,.72,0l31,15.51a.8.8,0,0,1,.44.71v1.27a.79.79,0,0,1-1.14.7L411.49,27.12A.79.79,0,0,0,410.77,27.13Z"/><path class="cls-1" d="M411.5,25.65,387.26,39.28V63.53L366.8,53.68,346.35,64.29v36.36h90.16V38.53ZM365.67,84.36h-6.82V77.55h6.82Zm0-8.33h-6.82V69.21h6.82ZM374,84.36h-6.82V77.55H374ZM374,76h-6.82V69.21H374Zm36.56-14.4H402V53.11h8.53Zm0-10.41H402V42.69h8.53ZM421,61.63h-8.52V53.11H421Zm0-10.41h-8.52V42.69H421Z"/><rect class="cls-1" x="335.14" y="99.66" width="187.41" height="4.53" rx="1.37"/><path class="cls-1" d="M424,43.66c.18,0,.37.06.52,0s.52-.26.6-.5a1.41,1.41,0,0,0-.17-.93,9.6,9.6,0,0,0-1.48-1.56c-.21-.16-.6,0-.87.13-.55.3-.72.22-.72-.58,0-.36.06-1,.19-1a1,1,0,0,1,.9.12c.73.49,1.43,1,2.13,1.62a1.13,1.13,0,0,1,.25.67,1.36,1.36,0,0,0,.41,1.14,1.57,1.57,0,0,1,.1,1.6c-.2.39-.42.36-.84,0a2.12,2.12,0,0,0-.62-.31,3.2,3.2,0,0,0-.42-.1,2,2,0,0,0,0-.23"/><path class="cls-1" d="M426.73,31.61a2.72,2.72,0,0,1,0,.43c-.05.18-.12.41-.23.47s-.43.12-.49,0a6.62,6.62,0,0,1-.49-1.38c0-.08.23-.41.39-.47.59-.22.86.08.86.95"/><path class="cls-1" d="M423.87,46.48a2.32,2.32,0,0,1,.38.06.58.58,0,0,1,.44.67c0,.43-.22.51-.46.54s-.42.06-.63.07-.5-.12-.51-.59.17-.66.45-.72a1.84,1.84,0,0,1,.33,0"/><path class="cls-1" d="M538.25,41c0,.17,0,.35,0,.53,0,.36-.17.57-.44.58s-.41-.21-.44-.56,0-.52,0-.77c0-.49.11-.82.49-.82s.47.35.46.8V41"/><path class="cls-1" d="M426.28,37l.5.5c-.14.22-.27.46-.42.65s-.21.13-.28.08c-.23-.17-.59-.34-.63-.59-.08-.49.3-.43.53-.51a2.13,2.13,0,0,1,.25,0l0-.1"/><path class="cls-1" d="M529.77,37.93a.69.69,0,0,1,.58.73c0,.43-.14.67-.46.66a.68.68,0,0,1-.55-.78c0-.24.28-.41.43-.61"/><path class="cls-1" d="M421.5,44.42c0,.4-.22.55-.51.54s-.44-.3-.42-.72.21-.58.48-.57.46.25.45.75"/><path class="cls-1" d="M533.66,42.48c0,.4-.12.64-.41.65s-.49-.19-.5-.63.14-.66.45-.68.45.23.46.66"/><path class="cls-1" d="M533.25,39.65c.22-.26.34-.49.49-.53s.33.33.31.37a1.53,1.53,0,0,1-.37.62s-.22-.23-.43-.46"/><path class="cls-1" d="M529.81,34.93l-.36.49c-.13-.21-.26-.42-.38-.63.1-.12.22-.37.3-.34s.25.26.44.48"/><path class="cls-1" d="M532.56,38c-.21.16-.34.34-.46.33s-.28-.3-.26-.38a2.13,2.13,0,0,1,.3-.58l.42.63"/><path class="cls-1" d="M530.63,41.59c-.16.19-.26.29-.36.4a2.31,2.31,0,0,1-.23-.54c0-.11.15-.26.23-.39.1.16.21.31.36.53"/><path class="cls-1" d="M454.79,55.7c-.48.18-.94.68-1.5.33-.08-.05-.22,0-.3.09a11.15,11.15,0,0,0-.79.89,4.24,4.24,0,0,0-.52.78,1.56,1.56,0,0,0,0,.61s.17.09.21.05c.53-.58,1.15-.27,1.72-.38.37-.07.82,0,1.09-.3a2.38,2.38,0,0,1,1.71-.67,1.45,1.45,0,0,0,.88-.42.86.86,0,0,1,1.42,0c.14.18.33.37.5.38.6,0,1.2,0,1.8,0v.12a16.16,16.16,0,0,0,1.72-.17c.16,0,.29-.34.44-.52a7.26,7.26,0,0,0-.44-.68c-.07-.08-.22,0-.33,0h-2.28a1,1,0,0,1-1-.65.66.66,0,0,0-.34-.32c-.44-.14-.89-.22-1.32-.37-.64-.2-1.28-.42-1.9-.67-.13-.05-.23-.28-.34-.43-.37-.5-.73-1-1.13-1.5a.43.43,0,0,0-.54-.07A1.35,1.35,0,0,0,453,53a.79.79,0,0,0,.26.43c.5.34,1,.63,1.51,1a.94.94,0,0,1,.37.62A.82.82,0,0,1,454.79,55.7Z"/><path class="cls-1" d="M486.38,99.6c-.23-.15-.32-.45-.34-1s-.17-.9-.62-1l-.17,0c-.79-.11-1-.47-1.06-1.59,0-.28,0-.55,0-.83,0-.54-.23-.74-.64-.77A2.67,2.67,0,0,1,482,93.9a14.29,14.29,0,0,1-1.92-2.2,6.11,6.11,0,0,1-.54-1.37l-2.87-1.19c0,.87.08,1.78-.52,2.39a.23.23,0,0,0-.06.16,3.43,3.43,0,0,1-.95,2c-.56.84-1.19,1.38-2.09,1s-1-.29-1,1.12a4.9,4.9,0,0,1-.07.94,3.76,3.76,0,0,1-.27.73,7.36,7.36,0,0,0-.41,1c-.15.58-.43.89-.84.94s-.54-.07-.8,0-.55.08-.83.14Z"/><path class="cls-1" d="M510.53,56.62c-.07-.38-.14-.73-.45-.73-.15,0-.43.2-.43.3,0,.32.05.79.21.93a1.59,1.59,0,0,1,.38,1.72c-.32.78-.5,1.68-.87,2.37a3.29,3.29,0,0,0-.35,1.88c0,.19.24.51.35.5a.72.72,0,0,0,.52-.41,1.72,1.72,0,0,0,0-.82,2.46,2.46,0,0,1,.86-2.36,1.23,1.23,0,0,0,.43-1.12l.11-.08c-.16-.38-.32-.74-.46-1.13A6.11,6.11,0,0,1,510.53,56.62Z"/><path class="cls-1" d="M441.46,39.34a7.17,7.17,0,0,1,.93,0,1.55,1.55,0,0,1,.91.37,1.82,1.82,0,0,0,1.15.58,4.37,4.37,0,0,1,1.59.87c.19.16.21.77.28,1.18s.22.47.47.41a.82.82,0,0,1,.5-.07c1.07.42,2.24.36,3.18,1.35a1.19,1.19,0,0,1,.35.76,1,1,0,0,1-.44.66,1,1,0,0,1-.75.07c-1.16-.35-2.05.75-3.09,1.05a.42.42,0,0,0-.19.22.92.92,0,0,1-1,.64c-.23,0-.45,0-.68,0H442.2c-.36,0-.56.25-.6.73s.27.6.52.68a1.71,1.71,0,0,0,.55,0c.62,0,1.24-.06,1.85-.16s1.26.08,1.86-.37c.25-.19.45.14.5.52a1,1,0,0,1-.73,1.23c-.32.07-.54.26-.5.78s.28.56.58.6c.75.09,1.15-.69,1.63-1.27a10.83,10.83,0,0,1,1.21-1.44,5.73,5.73,0,0,1,1.44-.77,2.19,2.19,0,0,1,.78-.2c.68,0,1.35-.07,2-.07a30.53,30.53,0,0,1,4.17.12,4,4,0,0,1,1.89,1.22,16.41,16.41,0,0,1,1.39,2,1.37,1.37,0,0,0,.64.45c.38.11.78.11,1.17.2.92.22,1.84.47,2.77.69.47.11,1,0,1.39.3a3.35,3.35,0,0,0,2,.74.63.63,0,0,1,.6.67c0,.5-.2.82-.52.86s-.83,0-1.25,0a2.33,2.33,0,0,0-.88.22,8.07,8.07,0,0,0-1,.64c-.14.1-.38.22-.38.35a1.13,1.13,0,0,0,.22.65A.68.68,0,0,0,466,57c.51.05,1,.07,1.52.09a1.67,1.67,0,0,1,1.11.61c.6.64,1.18,1.39,2.05,1.27s1.48.75,2.06,1.58a1.87,1.87,0,0,0,.55.5c.8.61,1.79.69,2.42,1.76a3,3,0,0,1,.52,2.2,6.67,6.67,0,0,0-.09,1.19l3.22,4.49a34.41,34.41,0,0,1,0-5.83c-.11-1,.35-2,1.05-2.07a3.28,3.28,0,0,0,1.9-1.32,2.57,2.57,0,0,1,2.14-.93,1.48,1.48,0,0,0,1-.21,1,1,0,0,1,1.52.07c.19.19.43.42.64.39a3.2,3.2,0,0,1,2.49,1.06c.5.41,1,.87,1.48,1.32.66.61,1.21.67,1.81-.06a2,2,0,0,1,.51-.41c.87-.58,1.73,0,2.59.11a.21.21,0,0,1,.12.07c.1.18.27.38.26.55a1,1,0,0,1-.31.57c-.14.14-.35.15-.51.26a1.4,1.4,0,0,0-.31,1.25c.23.54.49.16.72,0s.24-.33.37-.47.33-.34.5-.5l.77-.68c.18-.16.37-.48.55-.46a4.79,4.79,0,0,1,1.4.38c.46.2.5.71.12,1.14-.06.08-.17.14-.18.24a2.1,2.1,0,0,0-.06.85c.05.18.35.36.48.29s.22-.41.29-.65.05-.71.18-.89c.49-.62,1-1.25,1.73-1.18l1,.06a17.26,17.26,0,0,0,1.76.07,1,1,0,0,1,1,.4c.28.38.49,0,.67-.27a.58.58,0,0,0,0-.76c-.32-.38-.64-.77-1-1.18-.19-.25-.31-.21-.49,0-.32.43-.57.37-.84-.14a9.43,9.43,0,0,0-.47-.83c-.23-.36-.48-.48-.77-.1s-.4.2-.61,0c-.49-.49-.81-.49-1.3,0a.41.41,0,0,1-.65,0,1.76,1.76,0,0,0-.89-.41c-.82,0-1.66,0-2.49,0a.86.86,0,0,1-.8-.53,1,1,0,0,0-1.46-.3c-.47.46-.92.94-1.38,1.42a1.07,1.07,0,0,1-1.79-.27c-.12-.2-.36-.25-.55-.35-.34-.18-.69-.35-1-.55-.15-.09-.29-.24-.44-.34-.52-.34-1-.66-1.56-1a.85.85,0,0,1-.18-1.17c.4-.46.85-.83,1.26-1.27a3,3,0,0,1,1.61-1.07c.09,0,.16-.17.25-.22a2.69,2.69,0,0,1,.88-.44c.75-.09,1.5,0,2.24-.12a5,5,0,0,0,1.2-.47c.31-.13.61-.38.92-.37.94,0,1.89.17,2.83.28a.85.85,0,0,1,.28.12.66.66,0,0,0,1-.15.65.65,0,0,1,.46-.24,1.21,1.21,0,0,0,1.1-.61.58.58,0,0,1,.47-.23c.69,0,1.19-.42,1.63-1.12.27-.44.26-1.22-.09-1.29s-1-.1-1.19.23a1.81,1.81,0,0,1-1.61.76,3.92,3.92,0,0,0-2.5.68.88.88,0,0,1-.57.16c-.82,0-1.63.08-2.45.08a1.29,1.29,0,0,0-1.23.55.83.83,0,0,1-1.23.12,1.39,1.39,0,0,1-.09-1.52c.44-.69.59-1.6,1-2.26.65-1,1.35-2,2-3,.07-.11.12-.26.2-.38.52-.82,1-1.68,1.92-1.65.24,0,.49-.22.73-.35s.54-.44.81-.47c1-.08,2,0,3-.12a2.37,2.37,0,0,0,.8-.39c.28-.14.56-.42.84-.43,1.16-.06,2.33,0,3.5,0a1.32,1.32,0,0,0,1.35-.62c.06-.11.2-.14.29-.22a7.76,7.76,0,0,0,.79-.73,1.06,1.06,0,0,1,1.23-.24,1.1,1.1,0,0,1,.36,1.11,2.17,2.17,0,0,1-.42.83,1.4,1.4,0,0,0-.06,1.67,6.12,6.12,0,0,0,.61.71c.15.13.39.23.53.15a.83.83,0,0,0,.24-.61,7.45,7.45,0,0,0-.31-1.52c-.29-.8-.24-1,.37-1.28a1.4,1.4,0,0,0,.62-.61c.18-.34.36-.53.66-.52a8.63,8.63,0,0,0,.88,0c.2,0,.34-.16.2-.48-.36-.84-1.14-.86-1.48,0s-1,1-1.38.57-.62-.73-.92-1.12-.69-.5-.89-.12a1.73,1.73,0,0,1-1.46.87,3.19,3.19,0,0,0-1.25.59,1.6,1.6,0,0,1-2.29-.37,3.13,3.13,0,0,0-.59-.66c-.09-.08-.25,0-.37,0-.27.12-.53.28-.8.42s-.38.14-.48.32a1.12,1.12,0,0,1-1,.59,1.29,1.29,0,0,0-1.14.61c-.28.4-.66.21-.8-.32a1.87,1.87,0,0,1,.35-1.75,6.19,6.19,0,0,0,.77-1,1,1,0,0,0,.06-1.12c-.2-.3-.63-.19-.86.17s-.3.38-.42.59a11.15,11.15,0,0,0-.86,1.73,4.56,4.56,0,0,1-.51,1.17c-.35.55-.7,1-1.22,1a.33.33,0,0,0-.15.12c-.84.87-1.71,1.7-2.52,2.63a3.22,3.22,0,0,0-1.07,1.91.72.72,0,0,1-.49.5.88.88,0,0,1-.74-.35,1.89,1.89,0,0,1-.07-1.52,14.7,14.7,0,0,0,.37-1.75,1.11,1.11,0,0,0-.14-.65c-.26-.44-.57-.82-.84-1.25a2,2,0,0,1-.29-.77,3.09,3.09,0,0,1,.44-2.36.92.92,0,0,0,.06-1.11.49.49,0,0,0-.63,0,5.23,5.23,0,0,0-.8,1.43,1.54,1.54,0,0,1-1.13,1.16c-1.33.34-2.44-.69-3.65-1.06a.37.37,0,0,1-.14-.14,1.37,1.37,0,0,0-1.13-.68,1.55,1.55,0,0,1-.88-.32,1.9,1.9,0,0,0-2-.48c-.36.09-.69.55-1,.93-.08.1,0,.49,0,.75.13,0,.26-.1.39-.13a2.38,2.38,0,0,1,1-.19c.47.09.54.58.25,1.12a1,1,0,0,0-.12.56.78.78,0,0,0,1.24.51c.39-.24.87-.5,1.24-.37a7,7,0,0,1,1.84,1.19c.22.16.35.28.55,0a.53.53,0,0,1,.86-.11,2.44,2.44,0,0,1,.63,1c.36,1.21.79,1.81,1.7,1.34,0,0,.05,0,.08,0,.48-.08.83.24.86.91.06,1.23.09,2.47.07,3.7a2,2,0,0,1-.9,1.79.86.86,0,0,0-.39.54,4.34,4.34,0,0,1-1.1,2.19c-.53.81-1.07,1.62-1.64,2.37s-1.14,1.47-2,1.53a.72.72,0,0,0-.57.29,1.12,1.12,0,0,1-1,.63,1.36,1.36,0,0,0-1.13.54,1,1,0,0,1-.72.26c-.84.06-1.72-.11-2.44.8a.42.42,0,0,1-.43.15c-.2-.1-.51-.31-.53-.52a4.6,4.6,0,0,1,.08-1.62c.31-1,.74-2,1.07-3A9.31,9.31,0,0,1,481.68,51c.58-.65,1.13-1.46,2-1.43a.56.56,0,0,0,.44-.27,1.09,1.09,0,0,1,.92-.62c.27,0,.46-.18.45-.62s-.2-.63-.5-.63a5,5,0,0,0-1.09,0,5.78,5.78,0,0,0-.84.39c-.22.08-.5.24-.66.12a22.75,22.75,0,0,1-2.25-1.85,1.57,1.57,0,0,0-1.16-.56,1.35,1.35,0,0,1-1.44-1.15.86.86,0,0,0-.34-.5.46.46,0,0,0-.51.1,1.21,1.21,0,0,0,.4,1.92,1.24,1.24,0,0,1,.6.38,1.28,1.28,0,0,0,1,.57,1.46,1.46,0,0,1,.92.31,1.94,1.94,0,0,0,1.06.63c.42.06.62.51.64,1.28,0,.61-.15,1-.56,1.08-.7.14-1.1.88-1.6,1.43a7.4,7.4,0,0,0-.81,1.7,3.53,3.53,0,0,0-.4,1.88,4.08,4.08,0,0,1-.79,2.88c-.33.42-.69.38-.82-.22-.09-.41-.09-.86-.15-1.29a2.06,2.06,0,0,0-.17-.7c-.34-.54-.68-1.11-1.29-1-.15,0-.31-.14-.46-.25-.33-.22-.64-.47-1-.71a2.27,2.27,0,0,1-1-2.11,6.66,6.66,0,0,0,0-.77c0-.45-.2-.68-.51-.73a3.31,3.31,0,0,1-.83-.17.7.7,0,0,1-.4-.93,4.32,4.32,0,0,1,.72-1.26,1.08,1.08,0,0,0,.4-.81,1.38,1.38,0,0,0-.38-1.12c-.1-.09-.29-.14-.35-.07-.34.44-.84.67-.87,1.5s-.23.91-.71.94-.92-.16-1-.85a3.76,3.76,0,0,0-.83-1.75c-.1-.16-.58-.12-.69.06a1.56,1.56,0,0,1-1,.81c-.12,0-.23.21-.34.33s-.28.36-.44.44a1.84,1.84,0,0,0-1,1.28.84.84,0,0,1-1.06.59c-.39-.12-.5-.53-.53-1-.07-1.41-.47-2.45-1.53-2.79a.63.63,0,0,1-.31-.28c-.23-.35-.4-.29-.64,0a.86.86,0,0,1-1.42.05,1.16,1.16,0,0,0-1.14-.59,3.58,3.58,0,0,1-.92.05.92.92,0,0,1-.6-.43c-.39-.72-.66-.76-1.17-.17a1.44,1.44,0,0,1-.78.49c-1.15.21-1.41-.14-1.43-1.77,0-1.36-.29-1.77-1.23-1.92-.5-.08-.65-.31-.73-1a2,2,0,0,0-.19-.76A1.82,1.82,0,0,0,448.63,38c-1.72.07-3.43,0-5.15,0a1,1,0,0,1-.94-.52c-.48-.7-1.29-.53-1.66.3S440.81,39.31,441.46,39.34Z"/><path class="cls-1" d="M458.22,38.22s-.07-.1-.1-.1c-.83-.1-1.27-.93-1.75-1.74-.23-.39-.58-.62-1-.43s-.5.61-.47,1.17a2.34,2.34,0,0,1-.57,2,1.19,1.19,0,0,0-.19.82.56.56,0,0,0,.52.31.89.89,0,0,0,.56-.46c.64-1.44.93-1.62,2.08-1.18.07,0,.14.08.2.06.24-.06.48-.16.72-.24Z"/><path class="cls-1" d="M449.56,22.56c.31,0,.62,0,.93,0,.58.1.75.64.47,1.35a1.4,1.4,0,0,1-.91,1,.79.79,0,0,0-.4.51.87.87,0,0,0,.2.62c.16.09.39,0,.58-.07s.15-.18.22-.27c.61-.75,1.21-.61,1.59.38a1.92,1.92,0,0,0,.12.25.54.54,0,0,0,.89-.06c.28-.34,0-.62-.12-.78a3.57,3.57,0,0,0-.72-.5,1.39,1.39,0,0,1-.51-.42,7.89,7.89,0,0,1-.36-1.07.44.44,0,0,1,.24-.62c.12-.05.29,0,.36-.11a.93.93,0,0,0,.13-.53,3.64,3.64,0,0,0-.8-.85c-.47-.33-1-.12-1.37.39a1.4,1.4,0,0,1-.51.36,2,2,0,0,1-.42.13v.22A2.7,2.7,0,0,0,449.56,22.56Z"/><path class="cls-1" d="M422.63,40.78c.27-.14.66-.29.87-.12A9.14,9.14,0,0,1,425,42.21a1.4,1.4,0,0,1,.17.93c-.08.24-.38.39-.6.5s-.34,0-.52,0l0,.23a3.2,3.2,0,0,1,.42.1,2.12,2.12,0,0,1,.62.31c.42.37.64.4.84,0a1.57,1.57,0,0,0-.1-1.6,1.36,1.36,0,0,1-.41-1.14,1.15,1.15,0,0,0-.25-.67c-.7-.57-1.4-1.13-2.13-1.62a1,1,0,0,0-.9-.12c-.13.06-.19.68-.19,1C421.91,41,422.08,41.08,422.63,40.78Z"/><path class="cls-1" d="M448.3,57.68l.19-.09a6,6,0,0,0-.14-.61l-.23.1.18.6"/><path class="cls-1" d="M447.09,35.88a1.18,1.18,0,0,1-.07.2c.07.34.22.43.45.32l.07-.2-.45-.32"/><path class="cls-1" d="M441.46,39.34a7.17,7.17,0,0,1,.93,0,1.55,1.55,0,0,1,.91.37,1.82,1.82,0,0,0,1.15.58,4.37,4.37,0,0,1,1.59.87c.19.16.21.77.28,1.18s.22.47.47.41a.82.82,0,0,1,.5-.07c1.07.42,2.24.36,3.18,1.35a1.19,1.19,0,0,1,.35.76,1,1,0,0,1-.44.66,1,1,0,0,1-.75.07c-1.16-.35-2.05.75-3.09,1.05a.42.42,0,0,0-.19.22.92.92,0,0,1-1,.64c-.23,0-.45,0-.68,0H442.2c-.36,0-.56.25-.6.73s.27.6.52.68a1.71,1.71,0,0,0,.55,0c.62,0,1.24-.06,1.85-.16s1.26.08,1.86-.37c.25-.19.45.14.5.52a1,1,0,0,1-.73,1.23c-.32.07-.54.26-.5.78a.56.56,0,0,0,.58.6c.75.09,1.15-.69,1.63-1.27a10.83,10.83,0,0,1,1.21-1.44,5.57,5.57,0,0,1,1.44-.77,2.19,2.19,0,0,1,.78-.2c.68,0,1.35-.07,2-.07a30.53,30.53,0,0,1,4.17.12,4,4,0,0,1,1.89,1.22,16.41,16.41,0,0,1,1.39,2,1.37,1.37,0,0,0,.64.45c.38.11.78.11,1.17.2.92.22,1.84.47,2.77.69.47.11,1,0,1.39.3a3.27,3.27,0,0,0,2,.73.65.65,0,0,1,.6.68c0,.5-.2.82-.52.86s-.83,0-1.25,0a2.55,2.55,0,0,0-.88.23,8.07,8.07,0,0,0-1,.64c-.14.1-.38.22-.38.35a1.13,1.13,0,0,0,.22.65A.68.68,0,0,0,466,57c.51.05,1,.07,1.52.09a1.67,1.67,0,0,1,1.11.61c.6.64,1.18,1.39,2.05,1.27s1.48.75,2.06,1.58a2.37,2.37,0,0,0,.55.5c.8.61,1.79.69,2.42,1.76a4.57,4.57,0,0,1,.36,2.31c0,.44.07.68.07,1.08,0,3.6.25,7.32.25,10.93v4a70.17,70.17,0,0,0,.3,8c0,.87.08,1.78-.52,2.39a.21.21,0,0,0-.06.16,3.43,3.43,0,0,1-.95,2c-.56.84-1.19,1.39-2.09,1s-1-.29-1,1.12a4.9,4.9,0,0,1-.07.94,3.76,3.76,0,0,1-.27.73,7.36,7.36,0,0,0-.41,1c-.15.58-.43.89-.84.94s-.54-.07-.8,0-.55.08-.83.14h17.56c-.23-.15-.32-.45-.34-1s-.17-.9-.62-1l-.17,0c-.79-.11-1-.47-1.06-1.59,0-.28,0-.55,0-.83,0-.54-.23-.74-.64-.77A2.67,2.67,0,0,1,482,93.9a14.29,14.29,0,0,1-1.92-2.2,6.11,6.11,0,0,1-.54-1.37c-.11-.3.12-.61,0-.93a3.71,3.71,0,0,1-.07-1.1,5.4,5.4,0,0,0,.08-2c.08-.71-.1-1.41-.09-2.12q0-4.16,0-8.31l-.15-5.14a34.41,34.41,0,0,1,0-5.83c-.11-1,.35-2,1.05-2.07a3.28,3.28,0,0,0,1.9-1.32,2.56,2.56,0,0,1,2.14-.93,1.48,1.48,0,0,0,1-.21,1,1,0,0,1,1.52.07c.19.19.43.42.64.38a3.24,3.24,0,0,1,2.49,1.07c.5.41,1,.87,1.48,1.32.66.61,1.21.67,1.81-.06a2,2,0,0,1,.51-.41c.87-.58,1.73,0,2.59.11a.21.21,0,0,1,.12.07c.1.18.27.38.26.55a1,1,0,0,1-.31.57c-.14.14-.35.15-.51.26a1.4,1.4,0,0,0-.31,1.25c.23.54.49.16.72,0s.24-.33.37-.47.33-.34.5-.5l.77-.68c.18-.16.37-.48.55-.46a4.79,4.79,0,0,1,1.4.38c.46.2.5.71.12,1.14-.06.08-.17.14-.18.24a2.1,2.1,0,0,0-.06.85c.05.18.35.36.48.29s.23-.41.29-.65.05-.71.18-.89c.49-.62,1-1.25,1.73-1.18l1,.06a17.38,17.38,0,0,0,1.76.07,1,1,0,0,1,1,.39c.28.39.49,0,.67-.26a.58.58,0,0,0,0-.76c-.32-.38-.64-.77-1-1.18-.19-.25-.31-.21-.49,0-.32.43-.57.37-.84-.14a9.43,9.43,0,0,0-.47-.83c-.23-.36-.48-.48-.77-.1s-.4.2-.61,0c-.49-.49-.81-.49-1.3,0a.41.41,0,0,1-.65,0,1.76,1.76,0,0,0-.89-.41c-.82,0-1.66,0-2.49,0a.86.86,0,0,1-.8-.53,1,1,0,0,0-1.46-.3c-.47.46-.92.94-1.38,1.42a1.08,1.08,0,0,1-1.8-.27c-.11-.2-.35-.25-.54-.35-.34-.18-.69-.35-1-.55-.15-.09-.29-.24-.44-.34-.52-.34-1-.66-1.56-1a.85.85,0,0,1-.18-1.17c.4-.46.85-.83,1.26-1.27a3,3,0,0,1,1.61-1.07c.09,0,.16-.17.25-.22a2.64,2.64,0,0,1,.89-.44c.74-.09,1.49,0,2.23-.12a5,5,0,0,0,1.2-.47c.31-.13.61-.38.92-.37.94,0,1.89.17,2.83.28a.85.85,0,0,1,.28.12.66.66,0,0,0,1-.15.65.65,0,0,1,.46-.24,1.21,1.21,0,0,0,1.1-.61.58.58,0,0,1,.47-.23c.69,0,1.19-.42,1.62-1.12.28-.44.27-1.22-.08-1.29s-1-.1-1.19.23a1.81,1.81,0,0,1-1.61.76,3.9,3.9,0,0,0-2.5.68.88.88,0,0,1-.57.16c-.82,0-1.63.08-2.45.08a1.29,1.29,0,0,0-1.23.55.83.83,0,0,1-1.23.12,1.39,1.39,0,0,1-.09-1.52c.43-.69.59-1.6,1-2.26.65-1,1.35-2,2-3,.07-.11.12-.26.2-.38.52-.82,1-1.68,1.92-1.65.24,0,.49-.22.73-.35s.54-.44.81-.47c1-.08,2,0,3-.12a2.37,2.37,0,0,0,.8-.39c.28-.14.56-.42.84-.43,1.16-.06,2.33,0,3.5,0a1.32,1.32,0,0,0,1.35-.62c.06-.11.2-.14.29-.22a7.76,7.76,0,0,0,.79-.73,1.06,1.06,0,0,1,1.23-.24,1.1,1.1,0,0,1,.36,1.11,2.17,2.17,0,0,1-.42.83,1.4,1.4,0,0,0-.06,1.67,6.12,6.12,0,0,0,.61.71c.15.13.39.23.53.15a.83.83,0,0,0,.24-.61,7.45,7.45,0,0,0-.31-1.52c-.29-.8-.24-1,.37-1.28a1.4,1.4,0,0,0,.62-.61c.18-.34.36-.53.66-.52a8.63,8.63,0,0,0,.88,0c.2,0,.34-.16.2-.48-.36-.84-1.14-.86-1.48,0s-1,1-1.38.57-.62-.73-.92-1.12-.69-.5-.89-.12a1.73,1.73,0,0,1-1.46.87,3.19,3.19,0,0,0-1.25.59,1.6,1.6,0,0,1-2.29-.37,3.13,3.13,0,0,0-.59-.66c-.09-.08-.25,0-.37,0-.27.12-.53.27-.8.42s-.38.14-.48.32a1.12,1.12,0,0,1-1,.59,1.29,1.29,0,0,0-1.14.61c-.28.4-.66.21-.8-.32a1.87,1.87,0,0,1,.35-1.75,6.19,6.19,0,0,0,.77-1,1,1,0,0,0,.06-1.12c-.2-.3-.63-.19-.86.17s-.3.38-.42.59a11.15,11.15,0,0,0-.86,1.73,4.72,4.72,0,0,1-.51,1.17c-.35.55-.7,1-1.22,1-.05,0-.11.06-.15.11-.84.87-1.71,1.69-2.52,2.63a3.22,3.22,0,0,0-1.07,1.91.72.72,0,0,1-.49.5.88.88,0,0,1-.74-.35,1.89,1.89,0,0,1-.07-1.52,14.7,14.7,0,0,0,.37-1.75,1.11,1.11,0,0,0-.14-.65c-.26-.44-.57-.82-.84-1.25a2,2,0,0,1-.29-.77,3.09,3.09,0,0,1,.44-2.36.92.92,0,0,0,.06-1.11.49.49,0,0,0-.63,0,5.23,5.23,0,0,0-.8,1.43,1.54,1.54,0,0,1-1.13,1.16c-1.33.34-2.44-.69-3.65-1.06a.37.37,0,0,1-.14-.14,1.37,1.37,0,0,0-1.13-.68,1.55,1.55,0,0,1-.88-.32,1.9,1.9,0,0,0-2-.48c-.36.09-.69.55-1,.93-.08.1,0,.49,0,.75.13,0,.26-.1.39-.13a2.38,2.38,0,0,1,1-.19c.47.09.54.58.25,1.12a1,1,0,0,0-.12.56.78.78,0,0,0,1.24.51c.39-.24.87-.5,1.24-.37a7,7,0,0,1,1.84,1.19c.22.16.35.28.55,0a.53.53,0,0,1,.86-.11,2.44,2.44,0,0,1,.63,1c.36,1.21.79,1.81,1.7,1.34,0,0,.05,0,.08,0,.48-.08.83.24.86.91.06,1.23.09,2.47.07,3.7a2,2,0,0,1-.9,1.79.86.86,0,0,0-.39.54,4.34,4.34,0,0,1-1.1,2.19c-.53.81-1.07,1.62-1.64,2.37s-1.14,1.47-2,1.53a.72.72,0,0,0-.57.29,1.12,1.12,0,0,1-1,.63,1.36,1.36,0,0,0-1.13.54,1,1,0,0,1-.72.26c-.84.06-1.72-.11-2.44.8a.42.42,0,0,1-.43.15c-.2-.1-.51-.31-.53-.52a4.6,4.6,0,0,1,.08-1.62c.31-1,.74-2,1.07-3A9.31,9.31,0,0,1,481.68,51c.58-.65,1.13-1.46,2-1.43a.56.56,0,0,0,.44-.27,1.09,1.09,0,0,1,.92-.62c.27,0,.46-.18.45-.62s-.2-.63-.5-.63a5,5,0,0,0-1.09,0,7.07,7.07,0,0,0-.84.39c-.22.08-.5.24-.66.12a22.75,22.75,0,0,1-2.25-1.85,1.6,1.6,0,0,0-1.16-.56,1.35,1.35,0,0,1-1.44-1.15.86.86,0,0,0-.34-.5.46.46,0,0,0-.51.1,1.21,1.21,0,0,0,.4,1.92,1.24,1.24,0,0,1,.6.38,1.28,1.28,0,0,0,1,.57,1.46,1.46,0,0,1,.92.31,1.94,1.94,0,0,0,1.06.63c.42.06.62.51.64,1.28,0,.61-.15,1-.56,1.08-.7.14-1.1.88-1.6,1.43a7,7,0,0,0-.8,1.7,3.45,3.45,0,0,0-.41,1.88,4.08,4.08,0,0,1-.79,2.88c-.33.42-.69.38-.82-.22-.09-.41-.09-.86-.15-1.29a2.06,2.06,0,0,0-.17-.7c-.34-.54-.68-1.11-1.29-1-.15,0-.31-.14-.46-.25-.33-.22-.64-.47-1-.71a2.27,2.27,0,0,1-1-2.11,6.66,6.66,0,0,0,0-.77c0-.45-.2-.68-.51-.73a3.31,3.31,0,0,1-.83-.17.7.7,0,0,1-.4-.93,4.32,4.32,0,0,1,.72-1.26,1.08,1.08,0,0,0,.4-.81,1.38,1.38,0,0,0-.38-1.12c-.1-.09-.29-.14-.35-.07-.34.44-.84.67-.87,1.5s-.23.91-.71.94-.92-.16-1-.85a3.76,3.76,0,0,0-.83-1.75c-.1-.16-.58-.12-.7.06a1.52,1.52,0,0,1-1,.81c-.12,0-.23.21-.34.33s-.28.36-.44.44a1.84,1.84,0,0,0-1,1.28.84.84,0,0,1-1.06.59c-.39-.12-.5-.53-.53-1-.07-1.41-.47-2.45-1.53-2.79a.63.63,0,0,1-.31-.28c-.23-.35-.4-.29-.64,0a.86.86,0,0,1-1.42.05,1.16,1.16,0,0,0-1.14-.59,3.58,3.58,0,0,1-.92.05.92.92,0,0,1-.6-.43c-.4-.73-.66-.76-1.17-.17a1.44,1.44,0,0,1-.78.49c-1.15.21-1.41-.14-1.43-1.77,0-1.36-.29-1.77-1.23-1.92-.5-.08-.65-.31-.73-1a2,2,0,0,0-.19-.76A1.82,1.82,0,0,0,448.63,38c-1.72.07-3.43,0-5.15,0a1,1,0,0,1-.94-.52c-.48-.7-1.29-.53-1.66.3S440.81,39.31,441.46,39.34ZM461,47.13c.29,0,.51.49.5,1.25,0,.31-.15.6-.47.6s-.46-.36-.46-1C460.56,47.55,460.58,47.14,461,47.13Z"/><path class="cls-1" d="M461,57.13c-.6,0-1.2,0-1.8,0-.17,0-.36-.2-.5-.38a.86.86,0,0,0-1.42,0,1.45,1.45,0,0,1-.88.42,2.38,2.38,0,0,0-1.71.67c-.27.27-.72.23-1.09.3-.57.11-1.19-.2-1.72.38,0,0-.2,0-.21-.05a1.56,1.56,0,0,1,0-.61,4.24,4.24,0,0,1,.52-.78,11.15,11.15,0,0,1,.79-.89c.07-.08.23-.15.3-.09.56.35,1-.15,1.5-.33a.82.82,0,0,0,.35-.63.94.94,0,0,0-.37-.62c-.49-.36-1-.65-1.51-1A.79.79,0,0,1,453,53a1.35,1.35,0,0,1,.53-1.19.43.43,0,0,1,.54.07c.4.46.76,1,1.13,1.5.11.15.21.38.34.43.62.25,1.26.47,1.9.67.43.15.88.23,1.32.37a.66.66,0,0,1,.34.32,1,1,0,0,0,1,.65h2.28c.11,0,.26,0,.33,0a7.26,7.26,0,0,1,.44.68c-.15.18-.28.49-.44.52a16.16,16.16,0,0,1-1.72.17v-.12"/><path class="cls-1" d="M449.17,22.26a2,2,0,0,0,.42-.13,1.4,1.4,0,0,0,.51-.36c.39-.51.9-.72,1.37-.39a3.79,3.79,0,0,1,.8.84.94.94,0,0,1-.13.54c-.07.1-.24.06-.36.11a.44.44,0,0,0-.24.62,7.89,7.89,0,0,0,.36,1.07,1.39,1.39,0,0,0,.51.42,3.57,3.57,0,0,1,.72.5c.14.16.4.44.12.78a.54.54,0,0,1-.89.06,1.92,1.92,0,0,1-.12-.25c-.38-1-1-1.13-1.59-.38-.07.09-.13.24-.22.27s-.42.16-.58.07a.87.87,0,0,1-.2-.62.82.82,0,0,1,.4-.51,1.38,1.38,0,0,0,.91-1c.28-.71.11-1.25-.47-1.35-.31-.05-.62,0-.93,0a2.7,2.7,0,0,1-.39-.08v-.22"/><path class="cls-1" d="M458.24,38.46c-.24.08-.48.18-.72.24-.06,0-.13,0-.2-.06-1.15-.44-1.44-.26-2.09,1.18a.85.85,0,0,1-.55.46.56.56,0,0,1-.52-.31,1.19,1.19,0,0,1,.19-.82,2.34,2.34,0,0,0,.57-2c0-.56.06-1,.47-1.17s.75,0,1,.43c.48.81.92,1.64,1.75,1.74,0,0,.06.07.1.1Z"/><path class="cls-1" d="M511.21,58.88a1.22,1.22,0,0,1-.43,1.12,2.46,2.46,0,0,0-.86,2.36,1.72,1.72,0,0,1,0,.82.72.72,0,0,1-.52.41c-.11,0-.33-.31-.35-.5a3.29,3.29,0,0,1,.35-1.88c.37-.69.55-1.59.87-2.37a1.59,1.59,0,0,0-.38-1.72c-.16-.14-.2-.61-.21-.93,0-.1.28-.3.43-.3.31,0,.38.35.45.73a6.11,6.11,0,0,0,.33,1.05c.14.38.3.76.46,1.13l-.11.08"/><path class="cls-1" d="M433.79,42.82c.42,0,.74-.08,1-.07a.79.79,0,0,0,.92-.69c.05-.17.25-.26.4-.35s.19,0,.29,0c.79.05.79.05.76,1.17a.48.48,0,0,0,0,.12c0,.89,0,.87-.59,1.06a1.51,1.51,0,0,0-.61.48c-.36.4-.57.39-.91,0-.2-.27-.46-.46-.67-.72s-.36-.54-.64-1"/><path class="cls-1" d="M464,25.34c-.68,0-.8-.2-.7-.91.06-.38.05-.79-.26-.86-.14,0-.36.27-.46.49s-.22.62-.5.5a1,1,0,0,1-.56-.49,1,1,0,0,1,.21-1c.29-.34.52-.76.79-1.14.41-.6.71,0,1,.22s.17.52.13.87a2,2,0,0,0,.16.77c0,.1.16.14.25.21a.83.83,0,0,1,.24.92,1.16,1.16,0,0,1-.34.41"/><path class="cls-1" d="M445.56,26.28a2.62,2.62,0,0,1-.7-.33.81.81,0,0,1-.19-.59c0-.15.22-.4.32-.39.77.14,1.28-.56,1.85-1.11.41-.4,1.14.15,1.16.86,0,.16-.19.47-.3.47a1.48,1.48,0,0,0-1.34.79c-.15.22-.49.19-.8.3"/><path class="cls-1" d="M432.46,29.05a6.54,6.54,0,0,1,.15-1.57,2.47,2.47,0,0,1,.87-1.22c.22-.12.61.38.91.65a1,1,0,0,1-.14.53,2.11,2.11,0,0,0-.9,2,.59.59,0,0,1-.26.45.44.44,0,0,1-.44-.2,2.47,2.47,0,0,1-.19-.65"/><path class="cls-1" d="M452.06,37.53a.43.43,0,0,1-.16,0,2,2,0,0,1-.74-.32c-.1-.1.54-1,.79-1.08.8-.17.79-.17,1-1.21a.82.82,0,0,1,.37-.54.43.43,0,0,1,.45.25,1.17,1.17,0,0,1,0,.8,2.25,2.25,0,0,0-.6,1.67c0,.14-.22.38-.37.43a2.13,2.13,0,0,1-.67,0Z"/><path class="cls-1" d="M429.35,45.24c.2.21.49.38.62.69s-.08.72-.3,1a1.57,1.57,0,0,1-1.28.84c-.18,0-.47-.1-.5-.24a1.54,1.54,0,0,1,.08-.88,5.8,5.8,0,0,1,.78-1.13c.13-.15.33-.18.6-.32"/><path class="cls-1" d="M458.87,61.44c0-.18-.05-.36-.06-.55,0-.57-.25-.85-.64-.89a3.42,3.42,0,0,1-.71-.13.56.56,0,0,1-.37-.76c.12-.43.44-.53.67-.3.41.43.71.38,1.12,0s.88-.13.92.51a1,1,0,0,1-.17.6,1.58,1.58,0,0,0-.58,1.35c0,.07-.05.13-.07.2h-.11"/><path class="cls-1" d="M430.34,39.26c-.3.06-.45-.15-.49-.55s.11-.61.4-.67c.73-.14.71-.16.89-1.22,0-.23.26-.56.39-.55a1,1,0,0,1,.67.41c.07.08,0,.53-.13.74a5.27,5.27,0,0,1-.7,1.24,5,5,0,0,1-1,.74l-.05-.14"/><path class="cls-1" d="M501.79,59.12c-.23-.19-.59-.3-.69-.59a.86.86,0,0,1,.47-1.07,4.11,4.11,0,0,1,1.05-.59c.19,0,.49.28.6.55s-.14.56-.28.8c-.27.48-.56,1-1.1.71a1.33,1.33,0,0,1,0,.19"/><path class="cls-1" d="M461.33,42A1.36,1.36,0,0,1,460,42a2.09,2.09,0,0,1-.39-1.83.5.5,0,0,1,.31-.25,1.78,1.78,0,0,1,.46,0c.72,0,.7,0,.76,1a7.66,7.66,0,0,0,.24,1.08"/><path class="cls-1" d="M493.52,13a3.35,3.35,0,0,1-.42.91c-.31.28-1,0-1.16-.34a3.09,3.09,0,0,1-.25-.62c-.19-.7,0-1.08.5-1.13a4.34,4.34,0,0,1,.51,0c.61,0,.73.23.82,1.17"/><path class="cls-1" d="M432.62,40a1.15,1.15,0,0,1,.44-.15,2,2,0,0,0,1.83-.68c.09-.12.36,0,.55.09s.12.17.16.26l.29.68a3,3,0,0,0-.56.23c-.2.11-.37.31-.56.43s-.36.15-.41.06c-.29-.54-.7-.5-1.11-.53a3.6,3.6,0,0,1-.63-.15V40"/><path class="cls-1" d="M466.71,35c.52.12.94.18,1.34.31s.4.71.18,1.09a3.71,3.71,0,0,1-.54.74.23.23,0,0,1-.29,0c-.37-.48-.72-1-1.07-1.51a.49.49,0,0,1,0-.31,2.6,2.6,0,0,1,.41-.32"/><path class="cls-1" d="M456.06,27.27s-.06,0-.08,0l-.62-.34a5.55,5.55,0,0,1,.48-1,2.8,2.8,0,0,1,.75-.52c.26-.16.94.26,1,.64a.69.69,0,0,1-.19.38,3.92,3.92,0,0,1-.57.58,6.36,6.36,0,0,1-.71.4l0-.1"/><path class="cls-1" d="M522.17,40.92c0-1.28,0-1.39.89-1a1.24,1.24,0,0,1,.49.43.91.91,0,0,1,.08.59,5.18,5.18,0,0,1-.92,1.08c-.28.22-.51,0-.53-.53,0-.2,0-.4,0-.6"/><path class="cls-1" d="M439,45.4s.17.13.16.17-.1.35-.19.39a1.64,1.64,0,0,1-.5.08,1.26,1.26,0,0,0-1.11,1.14.92.92,0,0,1-.46.57c-.1.06-.39-.16-.39-.27a2.05,2.05,0,0,1,.17-.85,3.24,3.24,0,0,1,.45-.77.66.66,0,0,1,.35-.28c.47-.08.95-.12,1.52-.18"/><path class="cls-1" d="M524.61,31.86c-.23,0-.45,0-.67,0s-.44-.24-.45-.64.15-.63.44-.63c.45,0,.9,0,1.35,0,.28,0,.44.2.44.62s-.18.63-.48.63h-.63Z"/><path class="cls-1" d="M520.57,37.4c-.08-.09-.27-.22-.28-.38a1.37,1.37,0,0,1,.15-.77,4.72,4.72,0,0,1,.8-.75c.29-.26,1,.19,1.06.69a.56.56,0,0,1-.14.37c-.44.28-.89.52-1.34.78a1,1,0,0,1-.25.06"/><path class="cls-1" d="M517.67,40.78h.05l.61.32a2.86,2.86,0,0,1-.52.36.85.85,0,0,0-.55.85c0,.57-.27.78-.66.73s-.62-.42-.34-.83c.4-.58.65-1.54,1.41-1.43"/><path class="cls-1" d="M463.45,35.65a1.85,1.85,0,0,1-.7-.13.88.88,0,0,1-.36-.59.68.68,0,0,1,.35-.52,3.8,3.8,0,0,1,1.3-.06c.13,0,.29.37.33.61s-.09.62-.37.65a4.86,4.86,0,0,1-.54,0v0"/><path class="cls-1" d="M513,37.42c-.57.1-1.13.21-1.7.27-.13,0-.28-.14-.42-.21.11-.12.22-.33.34-.34a9.87,9.87,0,0,1,1.22-.06,1.74,1.74,0,0,0,1.66-.6.29.29,0,0,1,.37,0,1,1,0,0,1,.23.59c0,.13-.2.37-.31.38a12.71,12.71,0,0,1-1.38,0v0"/><path class="cls-1" d="M474.93,11.8c.49,0,.7.24.7.81s-.31,1.12-.66,1.11-.89-.74-.9-1.1c0-.55.27-.81.86-.82"/><path class="cls-1" d="M430.4,43.87a2.39,2.39,0,0,1-2.31.12c-.14-.06-.2-.44-.3-.67.16-.13.34-.41.48-.38.46.11,1,0,1.34.55.17.22.48.24.79.38"/><path class="cls-1" d="M450.54,64.81a5.84,5.84,0,0,1-.09,1.12.61.61,0,0,1-.42.41c-.13,0-.35-.25-.37-.43a2.74,2.74,0,0,1,.35-2.15c.1-.11.26-.25.35-.2s.14.3.16.48a6.57,6.57,0,0,1,0,.77h0"/><path class="cls-1" d="M462.12,37.27c-.34.8-.44.79-.93.52a6.8,6.8,0,0,0-1.18-.3.81.81,0,0,1-.48-.43.86.86,0,0,1,.13-.65c.17-.11.51-.14.6,0a1.58,1.58,0,0,0,1.45.73,2.32,2.32,0,0,1,.41.11"/><path class="cls-1" d="M461.31,31.84a1.43,1.43,0,0,1-.62-.07.73.73,0,0,1-.34-.48c0-.15.13-.5.23-.52a7.27,7.27,0,0,1,1.54-.12c.08,0,.24.37.22.53a1,1,0,0,1-.32.58,1.87,1.87,0,0,1-.71.08"/><path class="cls-1" d="M434.81,37.51a1.41,1.41,0,0,1-.58,0,1.87,1.87,0,0,1-.47-.43c.11-.25.19-.61.36-.72.55-.38,1.34,0,1.62.78,0,.08-.1.4-.17.41a3.21,3.21,0,0,1-.76,0Z"/><path class="cls-1" d="M507.48,57.51a4.59,4.59,0,0,1,.44.43c.15.2.28.43.44.63a.87.87,0,0,1,.11,1c-.18.35-.39.19-.6,0s-.41-.32-.62-.49a.86.86,0,0,1-.2-1c.06-.22.27-.36.43-.56"/><path class="cls-1" d="M456.68,40.89a2.21,2.21,0,0,1,.63,0c.14.05.35.22.36.36a.91.91,0,0,1-.2.64.67.67,0,0,1-.56.15,3.2,3.2,0,0,1-.94-.29c-.12-.07-.19-.33-.29-.51.12-.12.24-.31.37-.35a2.21,2.21,0,0,1,.63,0Z"/><path class="cls-1" d="M471.45,35.59c-.15,0-.35.08-.45,0a1.19,1.19,0,0,1-.36-.67.46.46,0,0,1,.4-.59,7.12,7.12,0,0,1,.8,0c.3,0,.46.26.46.69s-.2.57-.47.59h-.38Z"/><path class="cls-1" d="M450.4,32.79a4.62,4.62,0,0,1-.07,2.4.47.47,0,0,1-.46.25c-.1,0-.23-.32-.25-.51-.11-1.19,0-1.55.78-2.14"/><path class="cls-1" d="M438.51,38.11c.31,0,.71-.22.79.5.05.48-.11.74-.46.79-.72.12-1.14-.07-1.17-.57s.09-.7.42-.72h.42"/><path class="cls-1" d="M487.32,13.16c-.64,0-.81-.14-.81-.67s.19-.64.79-.64a3,3,0,0,1,.42,0q.43,0,.42.66c0,.41-.15.63-.44.64h-.38"/><path class="cls-1" d="M505.14,30.91c-.31,0-.72.18-.77-.54,0-.2.09-.59.16-.6a4.61,4.61,0,0,1,1.23,0c.08,0,.21.41.18.58a1,1,0,0,1-.35.56c-.11.1-.29,0-.45,0"/><path class="cls-1" d="M501.1,34.56c-.47.33-.94.71-1.43,1-.25.14-.51,0-.58-.44s.11-.75.46-.79a7.87,7.87,0,0,1,1.08-.09,1.51,1.51,0,0,1,.48.16s0,.11,0,.17"/><path class="cls-1" d="M472.57,40.26a2.48,2.48,0,0,1-.67,0c-.09,0-.21-.35-.2-.36.24-.31.47-.72.75-.84s.74.16,1,.65c.15.32,0,.54-.21.58a4.42,4.42,0,0,1-.63,0Z"/><path class="cls-1" d="M503.72,23.92c.27.09.65-.05.73.55.06.41-.21.71-.7.81a.74.74,0,0,1-.33,0,.73.73,0,0,1-.53-.84c0-.18.31-.35.49-.48s.22,0,.34-.06"/><path class="cls-1" d="M502.43,31.88s-.21.05-.3-.05a1.09,1.09,0,0,1-.34-.62.81.81,0,0,1,.33-.55,1.7,1.7,0,0,1,.71-.06c.3,0,.5.19.5.64s-.2.63-.5.64h-.4"/><path class="cls-1" d="M519.48,39.24a1,1,0,0,1-1.13-.25c-.22-.21-.46-.36-.68-.57a2.48,2.48,0,0,1-.23-.4c.14-.09.28-.28.41-.26a2.13,2.13,0,0,1,.92.33,6,6,0,0,1,.81.91Z"/><path class="cls-1" d="M513.68,63.27A2.44,2.44,0,0,1,513,61c0-.13.14-.31.22-.31a.56.56,0,0,1,.41.2,4.12,4.12,0,0,1,.08,2.42"/><path class="cls-1" d="M475,18.86a1.39,1.39,0,0,1-.55-.14.72.72,0,0,1-.31-.51.79.79,0,0,1,.27-.57,1.4,1.4,0,0,1,.69-.16c.33,0,.53.17.53.69s-.17.71-.63.69"/><path class="cls-1" d="M525.89,36.21c.34,0,.58.18.59.7s-.27.51-.52.55a5.57,5.57,0,0,0-.71.14c-.34.1-.4-.16-.35-.53a.94.94,0,0,1,1-.86"/><path class="cls-1" d="M505.17,34.68c-.11,0-.24,0-.33,0s-.41-.3-.4-.43.15-.6.3-.66a1.16,1.16,0,0,1,.89-.07c.17.06.27.48.4.73a2.78,2.78,0,0,1-.44.41c-.12.06-.28,0-.42,0Z"/><path class="cls-1" d="M469.61,11c.18,0,.26,0,.32,0s.37.26.55.4a2.88,2.88,0,0,1-.4.88c-.39.35-1-.09-1.09-.73a.72.72,0,0,1,.24-.49.68.68,0,0,1,.38-.07"/><path class="cls-1" d="M461.69,27.8c.53,0,.72.17.74.67s-.11.59-.36.59a3.07,3.07,0,0,1-.91-.11.63.63,0,0,1-.31-.44,1.15,1.15,0,0,1,.31-.61c.15-.12.35-.07.53-.1"/><path class="cls-1" d="M470.21,38.35a1,1,0,0,1-.48-.18,1,1,0,0,1-.26-.66c0-.14.23-.33.38-.4a1.23,1.23,0,0,1,.54,0c.3,0,.59.07.57.64s-.31.63-.75.61"/><path class="cls-1" d="M458.34,22.14s0,0,0,0l.69.26a5.72,5.72,0,0,1-.5.8.87.87,0,0,1-.51.22c-.27.06-.51,0-.54-.51s.14-.75.49-.76h.33Z"/><path class="cls-1" d="M488.14,31.48c.1,0,.21,0,.29,0s.36.27.54.4a2.75,2.75,0,0,1-.5.79c-.26.2-.93-.25-1.05-.65a.66.66,0,0,1,.14-.47,1.66,1.66,0,0,1,.58-.11v0"/><path class="cls-1" d="M460,28.76c-.07.58-.36,1.08-.65,1.08s-.47-.36-.5-.78.25-1.13.53-1,.41.46.62.71"/><path class="cls-1" d="M440.46,40.88c.06,0,.12,0,.17,0l.56.35a3.18,3.18,0,0,1-.42.73c-.14.15-.37.14-.56.17s-.48-.13-.49-.58.15-.66.45-.67Z"/><path class="cls-1" d="M492.37,27.2a1.09,1.09,0,0,1-.9-.88.46.46,0,0,1,.09-.33c.38-.31,1.1,0,1.34.51s.11.61-.23.65l-.3.05"/><path class="cls-1" d="M506.07,45c-.28-.11-.54-.12-.73-.3a1.26,1.26,0,0,1-.22-.73c0-.12.27-.36.4-.34a1.42,1.42,0,0,1,.77.37,1,1,0,0,1,.19.7c0,.13-.28.21-.41.3"/><path class="cls-1" d="M429,37.5c-.32,0-.55,0-.77-.07a.48.48,0,0,1-.24-.79.84.84,0,0,1,.74-.32,1,1,0,0,1,.59.65c.14.46-.16.53-.32.53"/><path class="cls-1" d="M499.51,15.76a1.81,1.81,0,0,1-.1.56,1.75,1.75,0,0,1-.55.59c-.1.05-.35-.18-.41-.36a1,1,0,0,1,.21-1,1.29,1.29,0,0,1,.17-.16c.15-.09.36-.3.42-.23a1.69,1.69,0,0,1,.26.6"/><path class="cls-1" d="M481.91,13.85s0-.23,0-.4c.07-.34.23-.51.42-.21a3.29,3.29,0,0,1,.47,1c.09.4,0,.76-.38.8s-.52-.21-.54-.7v-.49"/><path class="cls-1" d="M432.39,44.66a1.5,1.5,0,0,0-.5-1.66c-.11-.11-.05-.55-.08-.84.19,0,.42-.09.55,0,.51.44.53.64.34,1.45a4.63,4.63,0,0,0-.07.52l-.06.47-.18,0"/><path class="cls-1" d="M457.37,35.15c.11-.56.26-.82.59-.81s.49.25.48.72-.35,1.24-.56,1.07-.34-.64-.51-1"/><path class="cls-1" d="M456.75,62.37c.06-.18.11-.39.17-.6a1.53,1.53,0,0,1,.41.31,1.85,1.85,0,0,1,.41.77,1,1,0,0,1-.26.72c-.21.18-.47,0-.58-.34s-.09-.53-.15-.86"/><path class="cls-1" d="M439.64,43.62c.24.08.46.08.61.21a.91.91,0,0,1,.25.61.68.68,0,0,1-.36.46c-.41.17-.7-.15-.91-.62a.67.67,0,0,1,0-.42,2,2,0,0,1,.41-.24"/><path class="cls-1" d="M516.57,45.88c-.07,0-.22,0-.3-.13a6.85,6.85,0,0,1-.39-.71,4.61,4.61,0,0,1,.5-.4.57.57,0,0,1,.29,0c.29,0,.51.13.5.6s-.24.64-.6.66"/><path class="cls-1" d="M449.76,59.13c-.15-.12-.38-.19-.43-.37a1.47,1.47,0,0,1,.69-1.12c.27,0,.47.1.51.53s-.07.74-.4.83l-.33,0,0,.09"/><path class="cls-1" d="M467.9,39c.2,0,.44.11.44.62s-.2.69-.54.68a.74.74,0,0,1-.69-.75c0-.35.27-.56.79-.55"/><path class="cls-1" d="M467.42,25a1.19,1.19,0,0,1,.31.52c.07.49-.22.83-.6.81s-.55-.09-.56-.61.26-.73.85-.72"/><path class="cls-1" d="M508.59,45.08c-.18-.17-.47-.3-.53-.54a.84.84,0,0,1,.67-.88c.32,0,.51.22.5.69s-.27.63-.64.73"/><path class="cls-1" d="M441.71,28.89a5.7,5.7,0,0,1,.74.93c.15.29-.05.45-.28.39a5.56,5.56,0,0,1-.7-.19,4,4,0,0,1-.46-.3,7.18,7.18,0,0,1,.34-.68c0-.07.16-.07.36-.15"/><path class="cls-1" d="M476.47,39.55c-.35-.09-.46-.33-.47-.72s.1-.73.44-.76.81.6.7.9-.44.39-.67.58"/><path class="cls-1" d="M460.09,25c.22.05.52,0,.55.56a.68.68,0,0,1-.69.73c-.32,0-.47-.24-.46-.68s.25-.63.6-.61"/><path class="cls-1" d="M465.47,30.11c-.39-.15-.66-.27-.67-.82s.2-.57.47-.58a.76.76,0,0,1,.69.82c0,.23-.32.39-.49.58"/><path class="cls-1" d="M426.61,40.26a7.43,7.43,0,0,1,.6-1.09.39.39,0,0,1,.48-.07,1.26,1.26,0,0,1,.27.72.58.58,0,0,1-.32.42,4.87,4.87,0,0,1-1,0"/><path class="cls-1" d="M516.34,57.77c.27.42.46.72.66,1-.21.21-.43.58-.62.56s-.4-.42-.6-.65l.56-.92"/><path class="cls-1" d="M494.58,30.23c.32.16.63.3.92.47a.57.57,0,0,1,.1.33c-.13.15-.3.4-.43.37a3.69,3.69,0,0,1-1-.46.7.7,0,0,1,0-.43,1.42,1.42,0,0,1,.41-.28"/><path class="cls-1" d="M506.26,37.61a.71.71,0,0,1-.58-.78c0-.41.17-.61.45-.62a.7.7,0,0,1,.63.81c0,.24-.33.4-.5.59"/><path class="cls-1" d="M508.8,34.33c.26,0,.41.23.4.64s-.36.89-.65.85-.28-.44-.29-.74c0-.48.15-.75.54-.75"/><path class="cls-1" d="M437.4,26.77c.39,0,.56.24.56.73s-.2.61-.49.6-.52-.29-.53-.75.23-.57.46-.58"/><path class="cls-1" d="M464.92,37H465l.49.23a5.73,5.73,0,0,1-.39.45,1.14,1.14,0,0,1-.44.34c-.16,0-.43.06-.49-.07a.67.67,0,0,1,.17-.85,1.88,1.88,0,0,1,.58-.13v0"/><path class="cls-1" d="M430.27,30c-.29,0-.46-.21-.46-.66s.21-.77.52-.74.44.36.45.78-.21.61-.51.62"/><path class="cls-1" d="M486,29.4l-.57-.67c.2-.24.41-.71.59-.69s.43.46.64.72l-.66.64"/><path class="cls-1" d="M508.3,31.16c0-.49.25-.64.55-.63s.4.28.39.67-.19.69-.51.67-.43-.3-.43-.71"/><path class="cls-1" d="M514.16,31.86c-.4,0-.55-.28-.57-.72s.18-.61.45-.6.53.09.53.58-.14.71-.41.74"/><path class="cls-1" d="M446.24,35.75a.67.67,0,0,1-.6-.79q0-.59.42-.6c.3,0,.65.48.59.91,0,.19-.26.32-.41.48"/><path class="cls-1" d="M473.57,37.16a5.35,5.35,0,0,1,1.06,0c.09,0,.26.43.22.51s-.31.46-.42.41a5.59,5.59,0,0,1-.92-.66Z"/><path class="cls-1" d="M525.05,34.08c0,.44-.2.6-.48.58s-.49-.3-.49-.74.22-.52.46-.52.5.22.51.68"/><path class="cls-1" d="M511.42,62.34c.3,0,.45.21.46.61s-.13.68-.45.68-.5-.23-.5-.68.23-.57.49-.61"/><path class="cls-1" d="M449,62.36c0-.6,0-1.2,0-1.8,0-.08.25-.24.32-.19s.34.38.32.51a15.49,15.49,0,0,1-.46,1.51l-.18,0"/><path class="cls-1" d="M482.33,19.33c.31,0,.51.18.51.64s-.12.65-.42.67-.47-.2-.49-.64.12-.65.4-.67"/><path class="cls-1" d="M484.33,17c-.29,0-.45-.26-.43-.7s.16-.63.45-.62.46.22.46.66-.16.65-.48.66"/><path class="cls-1" d="M463,39.61c0,.45-.18.65-.48.65s-.45-.18-.44-.61.12-.65.43-.65.48.16.49.61"/><path class="cls-1" d="M516.45,35.06c.14,0,.19,0,.22,0a2.13,2.13,0,0,1,.49.36.66.66,0,0,1-.09.43,1,1,0,0,1-.53,0,1.51,1.51,0,0,1-.52-.2c-.08,0-.14-.16-.2-.25s.12-.22.19-.26a2.51,2.51,0,0,1,.44-.11"/><path class="cls-1" d="M469.86,25.86c.3,0,.47.23.46.67s-.16.62-.45.63-.46-.22-.46-.67.16-.61.45-.63"/><path class="cls-1" d="M492.71,17.93c-.13-.19-.36-.38-.38-.58,0-.4.16-.73.49-.73s.46.2.48.6-.23.58-.59.71"/><path class="cls-1" d="M439.6,61.22c.08-.53.28-.71.48-.46s.5.63.87.64c.05,0,.11.18.16.28s-.18.17-.27.17a2.24,2.24,0,0,1-.77-.15c-.18-.08-.32-.31-.47-.48"/><path class="cls-1" d="M445.58,64.24a1.49,1.49,0,0,1,.28.58c.05.43-.13.7-.46.7s-.41-.21-.42-.59.16-.65.6-.69"/><path class="cls-1" d="M460,18.34a2.41,2.41,0,0,1,.32.74c0,.39-.17.61-.45.61s-.43-.24-.43-.65a.63.63,0,0,1,.56-.7"/><path class="cls-1" d="M492.52,33l.66.55c-.23.2-.45.52-.7.57s-.36-.33-.54-.52l.58-.6"/><path class="cls-1" d="M463,63.22c-.12.1-.29.34-.48.38-.34.06-.46-.32-.48-.73s.23-.48.46-.48.48.19.5.83"/><path class="cls-1" d="M463,10a1.13,1.13,0,0,1,.26,0l.4.21c-.11.18-.2.47-.33.52a1.14,1.14,0,0,1-.73,0c-.11,0-.18-.3-.26-.47a1.57,1.57,0,0,1,.33-.26.91.91,0,0,1,.33,0"/><path class="cls-1" d="M519.9,44.11a2.62,2.62,0,0,1-.32-.73c0-.42.18-.64.47-.63s.46.29.4.66a2.47,2.47,0,0,1-.35.71h-.2"/><path class="cls-1" d="M451.86,60.54a5.06,5.06,0,0,1,.95,0c.07,0,.19.37.16.48-.11.35-.33.66-.62.45a3,3,0,0,1-.55-.73l.06-.23"/><path class="cls-1" d="M523.72,38.16a2.61,2.61,0,0,1,.79,0c.11,0,.22.33.26.53a.62.62,0,0,1-.14.43.46.46,0,0,1-.47,0,6.11,6.11,0,0,1-.5-.75l.06-.2"/><path class="cls-1" d="M456.11,20a2.12,2.12,0,0,1,.61.11c.12.05.2.27.29.41-.11.09-.23.25-.35.26a1.3,1.3,0,0,1-.61-.11,2.16,2.16,0,0,1-.42-.34l.42-.44.06.11"/><path class="cls-1" d="M439.57,31.58c.24-.27.44-.58.48-.54a1.59,1.59,0,0,1,.47.71c0,.12-.25.4-.38.61l-.57-.78"/><path class="cls-1" d="M448.1,32.85c-.16.19-.36.57-.47.52s-.37-.43-.55-.66c.12-.15.24-.43.36-.42a1.93,1.93,0,0,1,.64.29c0,.09,0,.18,0,.27"/><path class="cls-1" d="M442.54,58.86c.08.35.11.55.17.74s.2.54.3.81c0,.07.1.11.11.17a8.12,8.12,0,0,1,.07.85s-.19.11-.2.09a4.64,4.64,0,0,1-.22-.66c-.08-.25-.12-.52-.21-.75a1.37,1.37,0,0,1,0-1.25"/><path class="cls-1" d="M456.21,23.42a1.07,1.07,0,0,1-1.08,0A.55.55,0,0,1,455,23c.07-.16.24-.39.32-.36a6.74,6.74,0,0,1,.95.51Z"/><path class="cls-1" d="M491.62,29.34c.21.37.4.56.42.78,0,.4-.15.68-.46.67s-.44-.25-.38-.62a3.35,3.35,0,0,1,.42-.83"/><path class="cls-1" d="M447.24,59.46c-.08.08-.29.39-.32.35a4.2,4.2,0,0,1-.51-.76c.12-.15.23-.41.37-.44.32-.07.43.26.46.85"/><path class="cls-1" d="M436.87,31.44c.11.2.34.46.31.6a1.12,1.12,0,0,1-.42.65c-.26.11-.44-.21-.39-.56a2.2,2.2,0,0,1,.31-.68Z"/><path class="cls-1" d="M436.36,62c.16-.14.3-.37.46-.4s.44.24.44.63-.19.58-.42.51-.32-.29-.48-.45V62"/><path class="cls-1" d="M479.05,35.1c-.26.27-.41.55-.57.55s-.28-.32-.42-.49a3.53,3.53,0,0,1,.52-.66s.24.3.47.6"/><path class="cls-1" d="M444.85,62.78a.63.63,0,0,1-.49-.71c0-.39.18-.64.43-.55a.88.88,0,0,1,.38.61c0,.19-.2.43-.32.65"/><path class="cls-1" d="M512.1,33.11c-.21-.37-.4-.56-.42-.78,0-.38.18-.66.44-.58s.33.36.35.57-.18.41-.37.79"/><path class="cls-1" d="M428.76,41a1,1,0,0,1,1.09-.16.39.39,0,0,1,.16.3c0,.12-.13.32-.2.31a10.1,10.1,0,0,1-1.07-.21c0-.08,0-.16,0-.24"/><path class="cls-1" d="M513.35,34.09c.19.3.4.56.38.62a4.3,4.3,0,0,1-.45.74c-.11-.22-.3-.43-.31-.65s.2-.39.38-.71"/><path class="cls-1" d="M510.42,25.3a1.32,1.32,0,0,1,.23,1.44c-.06.09-.27.12-.32.05a1.72,1.72,0,0,1,.09-1.49"/><path class="cls-1" d="M447.87,62.08c-.13.14-.3.44-.4.4s-.3-.36-.45-.55c.13-.16.25-.44.38-.45s.32.23.47.35v.25"/><path class="cls-1" d="M489.44,15.07c.15.24.39.46.42.73s-.28.4-.44.6a2.07,2.07,0,0,1-.23-.58,3.64,3.64,0,0,1,.09-.72l.16,0"/><path class="cls-1" d="M504.87,59a.56.56,0,0,1-.55-.66,1.69,1.69,0,0,1,.18-.45c.2.28.4.56.59.85l-.22.26"/><path class="cls-1" d="M493.74,65c.18.26.29.43.39.59-.15.17-.28.43-.45.49s-.34-.31-.33-.46.21-.35.39-.62"/><path class="cls-1" d="M519.79,33.38h1a.24.24,0,0,1,.13.19.46.46,0,0,1-.11.28c-.21.21-.8.06-1-.25,0-.08,0-.15,0-.23"/><path class="cls-1" d="M517.46,31.28c.17.28.35.46.36.66s-.25.45-.33.42-.29-.33-.44-.51l.41-.57"/><path class="cls-1" d="M507.63,37.17a2.45,2.45,0,0,1,.59-.38c.12,0,.27.19.4.29-.09.14-.17.38-.27.4a2.36,2.36,0,0,1-.7,0c0-.09,0-.18,0-.27"/><path class="cls-1" d="M507,23.89c.16.23.37.4.36.54s-.2.36-.31.53l-.46-.6.41-.47"/><path class="cls-1" d="M513.13,59.17a4.31,4.31,0,0,1-.36-.83c0-.11.14-.29.23-.45a5.83,5.83,0,0,1,.43.73,3,3,0,0,1-.3.55"/><path class="cls-1" d="M472,16.16l-.39-.45c.14-.21.29-.42.43-.64.11.15.31.33.3.45a2.11,2.11,0,0,1-.34.64"/><path class="cls-1" d="M526.45,41.9c-.23.23-.36.44-.51.48s-.22-.21-.33-.33a2.91,2.91,0,0,1,.45-.52c.05,0,.19.17.39.37"/><path class="cls-1" d="M496.83,29.27l-.44-.54c.13-.13.27-.37.38-.35s.3.26.45.4l-.39.49"/><path class="cls-1" d="M442.52,41.74l1.17.07a.64.64,0,0,1-1.17-.07"/><path class="cls-1" d="M478.81,18.78c-.12-.37-.25-.57-.23-.75a.58.58,0,0,1,.28-.43c.09,0,.32.24.31.28a5.52,5.52,0,0,1-.36.9"/><path class="cls-1" d="M498.37,32.23c.05.18.17.42.13.52a1.7,1.7,0,0,1-.44.55s-.27-.32-.24-.39a2.06,2.06,0,0,1,.33-.55Z"/><path class="cls-1" d="M499.32,28.66c-.23.18-.37.38-.46.34s-.24-.28-.36-.43c.09-.14.21-.43.26-.41a2.49,2.49,0,0,1,.56.5"/><path class="cls-1" d="M487.54,19.38a3,3,0,0,1-.25-.5,1.23,1.23,0,0,1,.4-.44c.06,0,.18.2.27.31l-.42.63"/><path class="cls-1" d="M450.25,55.89c-.17.14-.31.3-.35.27a1.19,1.19,0,0,1-.33-.5c0-.1.09-.31.15-.47l.53.7"/><path class="cls-1" d="M506.41,56.83c-.19.13-.33.29-.38.25a1.44,1.44,0,0,1-.35-.53c0-.07.1-.26.16-.4l.57.68"/><path class="cls-1" d="M454.7,28.48,455,29c-.13.14-.26.35-.41.39s-.21-.19-.32-.31l.4-.55"/><path class="cls-1" d="M498.19,23.89l.31.48a2.27,2.27,0,0,1-.41.41s-.26-.29-.24-.35a2.46,2.46,0,0,1,.34-.54"/><path class="cls-1" d="M500.6,25a4.31,4.31,0,0,1,.34.76c0,.07-.13.23-.2.35a1.43,1.43,0,0,1-.31-.43c0-.12.07-.32.17-.68"/><path class="cls-1" d="M511.73,35.45c-.22.08-.36.21-.42.15A1.79,1.79,0,0,1,511,35s.11-.2.17-.3l.57.71"/><path class="cls-1" d="M489,29.25c-.14-.21-.24-.37-.33-.52.09-.09.21-.26.28-.24a1.62,1.62,0,0,1,.4.35l-.35.41"/><path class="cls-1" d="M464.94,42.12c-.1.06-.23.21-.3.16a1.83,1.83,0,0,1-.37-.44c.1-.07.21-.23.3-.2s.26.2.39.3a1.1,1.1,0,0,1,0,.18"/><path class="cls-1" d="M435.13,29.05c.13.16.17.19.16.21-.05.31-.12.62-.18.93-.07-.05-.2-.11-.2-.13.06-.32.14-.63.22-1"/><path class="cls-1" d="M465.88,26.43l-.4.53c-.06-.14-.18-.32-.16-.4a1.33,1.33,0,0,1,.31-.46,3.31,3.31,0,0,1,.25.33"/><path class="cls-1" d="M515.19,42.81c0,.19,0,.23,0,.23q-.31,0-.63.06a2.58,2.58,0,0,1,0-.29Z"/><path class="cls-1" d="M466.25,23.05c-.2.17-.3.33-.4.33s-.19-.17-.28-.27c.09-.13.16-.34.26-.36s.21.14.42.3"/><path class="cls-1" d="M438.82,29.28c-.13-.15-.22-.25-.3-.36.12-.12.24-.29.37-.34s.18.16.27.26l-.34.44"/><path class="cls-1" d="M444.71,59.36l-.29.34a3.93,3.93,0,0,1-.24-.56s.1-.18.16-.27l.37.49"/><path class="cls-1" d="M509.51,47.06c-.12-.14-.21-.25-.29-.36.1-.09.21-.25.31-.26s.18.19.27.29l-.29.33"/><path class="cls-1" d="M453.79,18.44a4.18,4.18,0,0,1,.5,0,2.64,2.64,0,0,1,0,.29,4.43,4.43,0,0,1-.51.06c0-.12,0-.24,0-.37"/><path class="cls-1" d="M445.13,45.68c-.21.12-.32.24-.39.2s-.2-.2-.3-.31c.08-.07.17-.22.24-.21s.23.15.45.32"/><path class="cls-1" d="M506.4,59.9a4.55,4.55,0,0,1-.53,0,2,2,0,0,1,0-.29l.55-.09Z"/><path class="cls-1" d="M448.3,57.68l-.18-.6.23-.1a6,6,0,0,1,.14.61Z"/><path class="cls-1" d="M447.09,35.88l.45.32-.07.2c-.23.11-.38,0-.45-.32a1.18,1.18,0,0,0,.07-.2"/><path class="cls-1" d="M461.48,48.38c0,.31-.15.6-.47.6s-.46-.36-.46-1c0-.41,0-.82.43-.83s.51.49.5,1.25"/></g></g></svg>