<svg xmlns="http://www.w3.org/2000/svg" width="16" height="16" viewBox="0 0 16 16">
  <path fill-rule="evenodd" d="M5,1.99980682 L11,1.99980682 C11.5128358,1.99980682 11.9355072,2.38580973 11.9932723,2.88310037 L12,2.99971023 L12,14 L8,12 L4,14 L4,2.99971023 C4,2.48692393 4.38604019,2.06429343 4.88337887,2.0065339 L5,1.99980682 Z M8.000097,3.99932388 C7.48713076,3.99932388 7.06448757,4.38532662 7.00672715,4.88261707 L7,4.99922688 L7,5.99880682 L5.999903,5.99942047 C5.48711691,5.99942047 5.06448658,6.38542321 5.00672708,6.88271366 L5,6.99932388 L5.00672708,7.11593411 C5.06004354,7.57497144 5.42425586,7.93918375 5.88329319,7.99250021 L5.999903,7.99922729 L7,7.99880682 L7,8.99942088 C7,9.51220697 7.38600274,9.9348373 7.88329319,9.9925968 L7.999903,9.99932388 C8.51286924,9.99932388 8.93551243,9.61332114 8.99327285,9.11603069 L9,8.99942088 L9,7.99880682 L10.000097,7.99922729 C10.5128831,7.99922729 10.9355134,7.61322455 10.9932729,7.11593411 L11,6.99932388 L10.9932729,6.88271366 C10.9399565,6.42367632 10.5757441,6.05946401 10.1167068,6.00614755 L10.000097,5.99942047 L9,5.99880682 L9,4.99922688 C9,4.4469957 8.55232818,3.99932388 8.000097,3.99932388 Z"/>
</svg>
