<svg xmlns="http://www.w3.org/2000/svg" width="16" height="16" viewBox="0 0 16 16">
  <path fill-rule="evenodd" d="M13,8 C13.5128358,8 13.9355072,8.38604019 13.9932723,8.88337887 L14,9 L14,11 C14,12.5976809 12.75108,13.9036609 11.1762728,13.9949073 L11,14 L5,14 C3.40231912,14 2.09633912,12.75108 2.00509269,11.1762728 L2,11 L2,9 C2,8.44771525 2.44771525,8 3,8 C3.51283584,8 3.93550716,8.38604019 3.99327227,8.88337887 L4,9 L4,11 C4,11.5128358 4.38604019,11.9355072 4.88337887,11.9932723 L5,12 L11,12 C11.5128358,12 11.9355072,11.6139598 11.9932723,11.1166211 L12,11 L12,9 C12,8.44771525 12.4477153,8 13,8 Z M8,2 C8.55228475,2 9,2.44771525 9,3 L9,6.584 L9.29289322,6.29289322 C9.65337718,5.93240926 10.2206082,5.90467972 10.6128994,6.20970461 L10.7071068,6.29289322 C11.0675907,6.65337718 11.0953203,7.22060824 10.7902954,7.61289944 L10.7071068,7.70710678 L8.70710678,9.70710678 L8.663147,9.7485042 L8.663147,9.7485042 L8.59530661,9.80366542 L8.59530661,9.80366542 L8.4840621,9.87532883 L8.4840621,9.87532883 L8.37133602,9.92877451 L8.37133602,9.92877451 L8.26599297,9.96415486 L8.26599297,9.96415486 L8.11747418,9.99316578 L8.11747418,9.99316578 L8,10 L8,10 L7.92476146,9.99721214 L7.92476146,9.99721214 L7.79927424,9.97975993 L7.79927424,9.97975993 L7.68785748,9.95026191 L7.68785748,9.95026191 L7.57677845,9.90632664 L7.57677845,9.90632664 L7.47929125,9.85400455 L7.47929125,9.85400455 L7.38324992,9.78721404 C7.35153408,9.76233116 7.32135953,9.73557309 7.29289322,9.70710678 L5.29289322,7.70710678 C4.90236893,7.31658249 4.90236893,6.68341751 5.29289322,6.29289322 C5.65337718,5.93240926 6.22060824,5.90467972 6.61289944,6.20970461 L6.70710678,6.29289322 L7,6.585 L7,3 C7,2.44771525 7.44771525,2 8,2 Z"/>
</svg>
