<svg xmlns="http://www.w3.org/2000/svg" width="16" height="16" viewBox="0 0 16 16">
  <path fill-rule="evenodd" d="M7.75637984,2.05168863 C7.88046243,1.99655409 8.01858061,1.98552718 8.14827744,2.01860791 L8.24362016,2.05168863 L13.6436021,4.45110265 C13.8526388,4.5439855 13.9880061,4.7459478 13.9992419,4.96905703 L13.9963102,5.06571361 L13.6528685,8.15688791 C13.4801614,9.71135183 12.6428702,11.1100728 11.3649306,11.9969747 L11.147899,12.1399916 L8.3179983,13.9087934 C8.15123128,14.0130295 7.94603093,14.0279204 7.76828296,13.953466 L7.6820017,13.9087934 L4.85210103,12.1399916 C3.52589168,11.3110574 2.62788981,9.95052226 2.3820312,8.41446211 L2.34713152,8.15688791 L2.00368982,5.06571361 C1.9784296,4.83835695 2.08450974,4.61958542 2.27146823,4.49733156 L2.35639791,4.45110265 L7.75637984,2.05168863 Z M9.21364288,5.38221966 L6.91005737,8.49585467 L6.70710315,8.29290956 C6.31657969,7.90238667 5.68341606,7.90238667 5.2928926,8.29290956 C4.90236913,8.68343245 4.90236913,9.31659515 5.2928926,9.70711803 L6.29287769,10.7070928 C6.71680349,11.131018 7.41590226,11.0892221 7.78629963,10.6178079 L10.7862762,6.61785831 C11.1274889,6.18358825 11.0520505,5.55493567 10.6177798,5.21372347 C10.1835091,4.87251128 9.55485558,4.94794959 9.21364288,5.38221966 Z"/>
</svg>
