<svg xmlns="http://www.w3.org/2000/svg" width="16" height="16" viewBox="0 0 16 16">
  <path fill-rule="evenodd" d="M9.16638642,2.43870174 L9.2513229,2.51831492 L13.4816851,6.7486771 C14.1727716,7.43976366 14.1727716,8.56023634 13.4816851,9.2513229 L9.2513229,13.4816851 C8.56023634,14.1727716 7.43976366,14.1727716 6.7486771,13.4816851 L2.51831492,9.2513229 C1.82722836,8.56023634 1.82722836,7.43976366 2.51831492,6.7486771 L6.7486771,2.51831492 C7.41212019,1.85487182 8.47128555,1.8283341 9.16638642,2.43870174 Z M7.29289322,5.29289322 C6.90236893,5.68341751 6.90236893,6.31658249 7.29289322,6.70710678 L8.58578644,8 L7.29289322,9.29289322 C6.90236893,9.68341751 6.90236893,10.3165825 7.29289322,10.7071068 C7.68341751,11.0976311 8.31658249,11.0976311 8.70710678,10.7071068 L10.7071068,8.70710678 C11.0976311,8.31658249 11.0976311,7.68341751 10.7071068,7.29289322 L8.70710678,5.29289322 C8.31658249,4.90236893 7.68341751,4.90236893 7.29289322,5.29289322 Z"/>
</svg>
