<svg xmlns="http://www.w3.org/2000/svg" width="16" height="16" viewBox="0 0 16 16">
  <path fill-rule="evenodd" d="M8,2 L12,6 L12.0011864,6.10025909 C11.6777087,6.0345146 11.342885,6 11,6 C8.23857625,6 6,8.23857625 6,11 C6,12.1261445 6.37230087,13.1653335 7.00053506,14.0011995 L5,14 C4.44771525,14 4,13.5522847 4,13 L4,3 C4,2.44771525 4.44771525,2 5,2 L8,2 Z M11.2928932,8.29289322 C11.6533772,7.93240926 12.2206082,7.90467972 12.6128994,8.20970461 L12.7071068,8.29289322 L13.7071068,9.29289322 C14.0675907,9.65337718 14.0953203,10.2206082 13.7902954,10.6128994 L13.7071068,10.7071068 L10.7071068,13.7071068 C10.5508265,13.8633871 10.3481451,13.9625983 10.131444,13.9913276 L10,14 L9,14 C8.48716416,14 8.06449284,13.6139598 8.00672773,13.1166211 L8,13 L8,12 C8,11.7789863 8.07316447,11.565516 8.20608063,11.3919705 L8.29289322,11.2928932 L11.2928932,8.29289322 Z"/>
</svg>
