<svg xmlns="http://www.w3.org/2000/svg" width="16" height="16" viewBox="0 0 16 16">
  <path d="M3.61289944,11.7902954 L3.70710678,11.7071068 L6,9.415 L7.29289322,10.7071068 C7.65337718,11.0675907 8.22060824,11.0953203 8.61289944,10.7902954 L8.70710678,10.7071068 L11.5,7.915 L12.2928932,8.70710678 C12.8954683,9.30968187 13.9071808,8.92766769 13.9940167,8.11363094 L14,8 L13.9982503,4.94061549 L13.989279,4.85305043 L13.964279,4.73416039 L13.9401054,4.65833354 L13.9063266,4.57677845 L13.8540045,4.47929125 L13.7870723,4.38297765 L13.7070891,4.29285919 C13.6717127,4.25749917 13.6343256,4.22531295 13.5953066,4.19633458 L13.4840621,4.12467117 L13.371336,4.07122549 L13.265993,4.03584514 L13.1484669,4.0110178 L13.0892501,4.00396641 L13,4 L10,4 C9.14783014,4 8.70256618,4.98551359 9.21677482,5.62252676 L9.29289322,5.70710678 L10.085,6.5 L8,8.585 L6.70710678,7.29289322 C6.34662282,6.93240926 5.77939176,6.90467972 5.38710056,7.20970461 L5.29289322,7.29289322 L2.29289322,10.2928932 C1.90236893,10.6834175 1.90236893,11.3165825 2.29289322,11.7071068 C2.65337718,12.0675907 3.22060824,12.0953203 3.61289944,11.7902954 Z"/>
</svg>
