<svg xmlns="http://www.w3.org/2000/svg" width="16" height="16" viewBox="0 0 16 16">
  <path fill-rule="evenodd" d="M14.3553686,4.99061411 C14.3655249,5.12185784 14.3655249,5.25313043 14.3655249,5.38437417 C14.3655249,9.38748117 11.0660432,14 5.03555092,14 C3.17766866,14 1.45178692,13.5031034 0,12.6406404 C0.263969784,12.6687476 0.517752024,12.6781263 0.791878096,12.6781263 C2.32485283,12.6781263 3.73604584,12.2000159 4.8629565,11.3843886 C3.42132586,11.3562525 2.21319614,10.4843821 1.79694452,9.28437343 C2,9.31248057 2.20303986,9.33123792 2.41625944,9.33123792 C2.71066684,9.33123792 3.00510549,9.29372323 3.27920031,9.22813025 C1.77666319,8.94685655 0.649721288,7.72811945 0.649721288,6.25624464 L0.649721288,6.21875879 C1.08625424,6.44376042 1.59391248,6.5843828 2.13194582,6.60311135 C1.24869238,6.05935018 0.670033864,5.13123651 0.670033864,4.08122894 C0.670033864,3.51873931 0.832440752,3.0031142 1.11672311,2.55311095 C2.73094817,4.39060978 5.1573639,5.59058959 7.87815576,5.72186218 C7.8274056,5.49686055 7.79693672,5.26250911 7.79693672,5.02812881 C7.79693672,3.35935956 9.25887992,2 11.076137,2 C12.020297,2 12.8730815,2.36562403 13.4720838,2.95624969 C14.2131806,2.82500595 14.9238395,2.5718683 15.5533107,2.22500162 C15.3096223,2.92814252 14.7918703,3.51876817 14.1116802,3.89374202 C14.771589,3.82814901 15.4111852,3.65936172 16,3.42501028 C15.5533733,4.02498575 14.9949648,4.55933936 14.3553686,4.99061411 Z"/>
</svg>
