<svg xmlns="http://www.w3.org/2000/svg" width="16" height="16" viewBox="0 0 16 16">
  <path fill-rule="evenodd" d="M12,8 C12.5522847,8 13,8.44771525 13,9 L13,10 L14,10 C14.5522847,10 15,10.4477153 15,11 C15,11.5522847 14.5522847,12 14,12 L13,12 L13,13 C13,13.5522847 12.5522847,14 12,14 C11.4477153,14 11,13.5522847 11,13 L11,12 L10,12 C9.44771525,12 9,11.5522847 9,11 C9,10.4477153 9.44771525,10 10,10 L11,10 L11,9 C11,8.44771525 11.4477153,8 12,8 Z M5.38366699,2 C5.68571212,2 5.97157429,2.13652083 6.16142786,2.37143972 L7.47757573,4 L12,4 C12.5522847,4 13,4.44771525 13,5 L13.0006121,6.0224767 C12.8357322,6.0076001 12.6687537,6 12.5,6 C9.46243388,6 7,8.46243388 7,11.5 C7,11.6687537 7.0076001,11.8357322 7.0224767,12.0006121 L2,12 C1.44771525,12 1,11.5522847 1,11 L1,3 C1,2.44771525 1.44771525,2 2,2 L5.38366699,2 Z"/>
</svg>
