<svg xmlns="http://www.w3.org/2000/svg" width="16" height="16" viewBox="0 0 16 16">
  <path d="M6,4 C5.48716416,4 5.06449284,4.38604019 5.00672773,4.88337887 L5,5 L5,11 C5,11.5522847 5.44771525,12 6,12 C6.51283584,12 6.93550716,11.6139598 6.99327227,11.1166211 L7,11 L7,5 C7,4.44771525 6.55228475,4 6,4 Z M10,4 C9.48716416,4 9.06449284,4.38604019 9.00672773,4.88337887 L9,5 L9,11 C9,11.5522847 9.44771525,12 10,12 C10.5128358,12 10.9355072,11.6139598 10.9932723,11.1166211 L11,11 L11,5 C11,4.44771525 10.5522847,4 10,4 Z"/>
</svg>
