<svg xmlns="http://www.w3.org/2000/svg" width="16" height="16" viewBox="0 0 16 16">
  <path d="M7.99979784,2.00040432 C9.49010221,1.98276758 10.929701,2.54273402 12.0143603,3.56125564 L12.0143603,3.56125564 L10.3013922,5.27422383 C9.68190174,4.6833931 8.85517964,4.36152263 7.99979784,4.37475019 C6.43453733,4.37475019 5.1051682,5.43074988 4.63118086,6.85271189 C4.37985735,7.59786407 4.37985735,8.40474484 4.63118086,9.14989702 L4.63118086,9.14989702 C5.10957739,10.5696544 6.43674193,11.6256541 8.00200243,11.6256541 C8.81108779,11.6256541 9.50553436,11.4184225 10.0434549,11.0524601 L10.041,11.053 C10.6212418,10.6684937 11.0326585,10.082608 11.2007842,9.41366985 L11.2405485,9.22926235 L7.99979784,9.22926235 L7.99979784,6.91884966 L13.6589862,6.91884966 C13.7295331,7.32008545 13.762602,7.73013961 13.762602,8.13798918 C13.762602,9.96339157 13.1100427,11.5066062 11.9746777,12.5515829 L11.975,12.55 C11.0447531,13.4113739 9.78710212,13.9320796 8.30020529,13.9938093 L7.99979784,14 C5.7312724,14 3.65675108,12.7213365 2.63822946,10.6953162 L2.63822946,10.6953162 L2.51696586,10.4388268 C1.78938428,8.80100376 1.82980548,6.91785759 2.63822946,5.30729271 L2.63822946,5.30729271 L2.75135832,5.09287523 C3.80517863,3.18936567 5.81229117,2.00040432 7.99979784,2.00040432 Z"/>
</svg>
