<svg xmlns="http://www.w3.org/2000/svg" width="16" height="16" viewBox="0 0 16 16">
  <path fill-rule="evenodd" d="M12.624695,2.21913119 C13.022783,2.53760154 13.1129831,3.09830105 12.8531452,3.52187726 L12.7808688,3.62469505 L8.87234769,8.51074985 C8.95363767,8.65538162 9,8.82227656 9,9 L10,9 C10.5522847,9 11,9.44771525 11,10 C11,10.5522847 10.5522847,11 10,11 L8.99996318,10.9999632 L9,13 C9,13.5522847 8.55228475,14 8,14 C7.44771525,14 7,13.5522847 7,13 L6.99996318,10.9999632 L6,11 C5.44771525,11 5,10.5522847 5,10 C5,9.44771525 5.44771525,9 6,9 L7,9 C7,8.82227656 7.04636233,8.65538162 7.12765231,8.51074985 L3.21913119,3.62469505 C2.87412164,3.19343311 2.94404302,2.56414074 3.37530495,2.21913119 C3.77339289,1.90066084 4.34021683,1.9357411 4.69642431,2.28222169 L4.78086881,2.37530495 L8,6.399 L11.2191312,2.37530495 C11.5641407,1.94404302 12.1934331,1.87412164 12.624695,2.21913119 Z"/>
</svg>
