<svg xmlns="http://www.w3.org/2000/svg" width="16" height="16" viewBox="0 0 16 16">
  <path fill-rule="evenodd" d="M10.2928932,2.29289322 C10.6533772,1.93240926 11.2206082,1.90467972 11.6128994,2.20970461 L11.7071068,2.29289322 L13.7071068,4.29289322 L13.7485042,4.336853 L13.7485042,4.336853 L13.8036654,4.40469339 L13.8036654,4.40469339 L13.8753288,4.5159379 L13.8753288,4.5159379 L13.9287745,4.62866398 L13.9287745,4.62866398 L13.9641549,4.73400703 L13.9641549,4.73400703 L13.9889822,4.85153313 L13.9889822,4.85153313 L13.9982534,4.94073988 L13.9982534,4.94073988 L13.9982536,5.0592877 L13.9982536,5.0592877 L13.9931674,5.11746263 L13.9931674,5.11746263 L13.9725773,5.23351413 L13.9725773,5.23351413 L13.9401054,5.34166646 L13.9401054,5.34166646 L13.9063266,5.42322155 L13.9063266,5.42322155 L13.8540045,5.52070875 L13.8540045,5.52070875 L13.7803112,5.62544899 L13.7803112,5.62544899 L13.7071068,5.70710678 L11.7071068,7.70710678 C11.3165825,8.09763107 10.6834175,8.09763107 10.2928932,7.70710678 C9.93240926,7.34662282 9.90467972,6.77939176 10.2097046,6.38710056 L10.2928932,6.29289322 L10.584,6 L10.2222222,6 C8.6818047,6 7.87747209,6.47816726 6.85046452,7.9986799 C7.8771116,9.52161839 8.68145947,10 10.2222222,10 L10.585,10 L10.2928932,9.70710678 C9.93240926,9.34662282 9.90467972,8.77939176 10.2097046,8.38710056 L10.2928932,8.29289322 C10.6533772,7.93240926 11.2206082,7.90467972 11.6128994,8.20970461 L11.7071068,8.29289322 L13.7071068,10.2928932 L13.7485042,10.336853 L13.7485042,10.336853 L13.8036654,10.4046934 L13.8036654,10.4046934 L13.8753288,10.5159379 L13.8753288,10.5159379 L13.9287745,10.628664 L13.9287745,10.628664 L13.9641549,10.734007 L13.9641549,10.734007 L13.9930928,10.8819045 L13.9930928,10.8819045 L14,11 L14,11 L13.9972121,11.0752385 L13.9972121,11.0752385 L13.9797599,11.2007258 L13.9797599,11.2007258 L13.9502619,11.3121425 L13.9502619,11.3121425 L13.9063266,11.4232215 L13.9063266,11.4232215 L13.8540045,11.5207088 L13.8540045,11.5207088 L13.7803112,11.625449 L13.7803112,11.625449 L13.7071068,11.7071068 L11.7071068,13.7071068 C11.3165825,14.0976311 10.6834175,14.0976311 10.2928932,13.7071068 C9.93240926,13.3466228 9.90467972,12.7793918 10.2097046,12.3871006 L10.2928932,12.2928932 L10.584,12 L10.2222222,12 C8.15936789,12 6.92912829,11.3772439 5.72334658,9.84836193 L5.46922484,10.2580804 C5.39439326,10.375233 5.32116639,10.4862529 5.24396379,10.5998004 C4.64209594,11.4850115 3.92202533,12 3,12 C2.44771525,12 2,11.5522847 2,11 C2,10.4477153 2.44771525,10 3,10 C3.13820414,10 3.32327027,9.86764224 3.59004506,9.47527706 L3.78052441,9.18633002 L3.78052441,9.18633002 L3.87877447,9.03035607 L4.0980167,8.66922571 L4.49194382,7.99955935 L4.49194382,7.99955935 L4.0980167,7.33077429 L3.87877447,6.96964393 C3.77784882,6.80721835 3.68662209,6.66676583 3.59004506,6.52472294 C3.32327027,6.13235776 3.13820414,6 3,6 C2.44771525,6 2,5.55228475 2,5 C2,4.44771525 2.44771525,4 3,4 C3.92202533,4 4.64209594,4.51498853 5.24396379,5.40019956 C5.32116639,5.51374707 5.39439326,5.624767 5.46922484,5.74191958 L5.72334658,6.15163807 C6.87670299,4.68922919 8.05243677,4.0558656 9.95780967,4.00355499 L10.2222222,4 L10.585,4 L10.2928932,3.70710678 C9.93240926,3.34662282 9.90467972,2.77939176 10.2097046,2.38710056 L10.2928932,2.29289322 Z"/>
</svg>
