<svg xmlns="http://www.w3.org/2000/svg" width="16" height="16" viewBox="0 0 16 16">
  <path fill-rule="evenodd" d="M13,12 C13.5522847,12 14,12.4477153 14,13 C14,13.5522847 13.5522847,14 13,14 L3,14 C2.44771525,14 2,13.5522847 2,13 C2,12.4477153 2.44771525,12 3,12 L13,12 Z M13,2 L13.1166211,2.00672773 C13.575703,2.06004937 13.9399506,2.42429701 13.9932723,2.88337887 L14,3 L14,5 L13.9932723,5.11662113 C13.9399506,5.57570299 13.575703,5.93995063 13.1166211,5.99327227 L13,6 L12.8833789,5.99327227 C12.424297,5.93995063 12.0600494,5.57570299 12.0067277,5.11662113 L12,5 L12,4 L11,4 L10.8833789,3.99327227 C10.3860402,3.93550716 10,3.51283584 10,3 C10,2.48716416 10.3860402,2.06449284 10.8833789,2.00672773 L11,2 L13,2 Z M5,2 L5.11662113,2.00672773 C5.61395981,2.06449284 6,2.48716416 6,3 C6,3.47338693 5.67106635,3.86994729 5.22929083,3.97358929 L5.11662113,3.99327227 L5,4 L4,4 L4,5 L3.99327227,5.11662113 C3.9443941,5.53744617 3.63425172,5.87858412 3.22929083,5.97358929 L3.11662113,5.99327227 L3,6 L2.88337887,5.99327227 C2.46255383,5.9443941 2.12141588,5.63425172 2.02641071,5.22929083 L2.00672773,5.11662113 L2,5 L2,3 L2.00672773,2.88337887 C2.0556059,2.46255383 2.36574828,2.12141588 2.77070917,2.02641071 L2.88337887,2.00672773 L3,2 L5,2 Z"/>
</svg>
