<svg xmlns="http://www.w3.org/2000/svg" width="16" height="16" viewBox="0 0 16 16">
  <path fill-rule="evenodd" d="M8,2 C11.3137085,2 14,4.6862915 14,8 C14,11.3137085 11.3137085,14 8,14 C4.6862915,14 2,11.3137085 2,8 C2,4.6862915 4.6862915,2 8,2 Z M8,4 C7.48716416,4 7.06449284,4.38604019 7.00672773,4.88337887 L7,5 L7,8.584 L6.70710678,8.29289322 L6.61289944,8.20970461 C6.22060824,7.90467972 5.65337718,7.93240926 5.29289322,8.29289322 C4.93240926,8.65337718 4.90467972,9.22060824 5.20970461,9.61289944 L5.29289322,9.70710678 L7.29289322,11.7071068 L7.37455101,11.7803112 L7.47929125,11.8540045 L7.57677845,11.9063266 L7.68785748,11.9502619 L7.79927424,11.9797599 L7.92476146,11.9972121 L8,12 L8.1180955,11.9930928 L8.26599297,11.9641549 L8.37133602,11.9287745 L8.4840621,11.8753288 L8.59530661,11.8036654 L8.663147,11.7485042 L8.70710678,11.7071068 L10.7071068,9.70710678 L10.7902954,9.61289944 C11.0699015,9.25329917 11.0699015,8.74670083 10.7902954,8.38710056 L10.7071068,8.29289322 L10.6128994,8.20970461 L10.5114029,8.14038077 C10.1658952,7.93448897 9.72296786,7.95507815 9.39694406,8.20214831 L9.29289322,8.29289322 L9,8.586 L9,5 C9,4.44771525 8.55228475,4 8,4 Z"/>
</svg>
