<svg xmlns="http://www.w3.org/2000/svg" width="16" height="16" viewBox="0 0 16 16">
  <path fill-rule="evenodd" d="M4.38710056,9.20970461 L4.29289322,9.29289322 C3.93240926,9.65337718 3.90467972,10.2206082 4.20970461,10.6128994 L4.29289322,10.7071068 L7.29289322,13.7071068 L7.336853,13.7485042 L7.336853,13.7485042 L7.40469339,13.8036654 L7.40469339,13.8036654 L7.5159379,13.8753288 L7.5159379,13.8753288 L7.62866398,13.9287745 L7.62866398,13.9287745 L7.73400703,13.9641549 L7.73400703,13.9641549 L7.8819045,13.9930928 L7.8819045,13.9930928 L8,14 L8.07523854,13.9972121 L8.07523854,13.9972121 L8.20072576,13.9797599 L8.20072576,13.9797599 L8.31214252,13.9502619 L8.31214252,13.9502619 L8.42322155,13.9063266 L8.42322155,13.9063266 L8.52070875,13.8540045 L8.52070875,13.8540045 L8.62544899,13.7803112 L8.62544899,13.7803112 L8.70710678,13.7071068 L11.7071068,10.7071068 C12.0976311,10.3165825 12.0976311,9.68341751 11.7071068,9.29289322 C11.3466228,8.93240926 10.7793918,8.90467972 10.3871006,9.20970461 L10.2928932,9.29289322 L9,10.585 L9,3 C9,2.44771525 8.55228475,2 8,2 C7.44771525,2 7,2.44771525 7,3 L7,10.585 L5.70710678,9.29289322 C5.34662282,8.93240926 4.77939176,8.90467972 4.38710056,9.20970461 L4.29289322,9.29289322 L4.38710056,9.20970461 Z"/>
</svg>
