<svg xmlns="http://www.w3.org/2000/svg" width="16" height="16" viewBox="0 0 16 16">
  <path fill-rule="evenodd" d="M13,9 C13.5128358,9 13.9355072,9.38604019 13.9932723,9.88337887 L14,10 L14,12 C14,12.5128358 13.6139598,12.9355072 13.1166211,12.9932723 L13,13 L3,13 C2.48716416,13 2.06449284,12.6139598 2.00672773,12.1166211 L2,12 L2,10 C2,9.48716416 2.38604019,9.06449284 2.88337887,9.00672773 L3,9 L13,9 Z M3,10 L5,10 L5,12 L3,12 L3,10 Z M13,3 C13.5128358,3 13.9355072,3.38604019 13.9932723,3.88337887 L14,4 L14,6 C14,6.51283584 13.6139598,6.93550716 13.1166211,6.99327227 L13,7 L3,7 C2.48716416,7 2.06449284,6.61395981 2.00672773,6.11662113 L2,6 L2,4 C2,3.48716416 2.38604019,3.06449284 2.88337887,3.00672773 L3,3 L13,3 Z M3,4 L5,4 L5,6 L3,6 L3,4 Z"/>
</svg>
