<svg xmlns="http://www.w3.org/2000/svg" width="16" height="16" viewBox="0 0 16 16">
  <path fill-rule="evenodd" d="M13,4 C13.5522847,4 14,3.55228475 14,3 C14,2.44771525 13.5522847,2 13,2 L3,2 C2.44771525,2 2,2.44771525 2,3 C2,3.55228475 2.44771525,4 3,4 L13,4 Z M13,14 L13.1166211,13.9932723 C13.575703,13.9399506 13.9399506,13.575703 13.9932723,13.1166211 L14,13 L14,11 L13.9932723,10.8833789 C13.9399506,10.424297 13.575703,10.0600494 13.1166211,10.0067277 L13,10 L12.8833789,10.0067277 C12.424297,10.0600494 12.0600494,10.424297 12.0067277,10.8833789 L12,11 L12,12 L11,12 L10.8833789,12.0067277 C10.3860402,12.0644928 10,12.4871642 10,13 C10,13.5128358 10.3860402,13.9355072 10.8833789,13.9932723 L11,14 L13,14 Z M5,14 L5.11662113,13.9932723 C5.61395981,13.9355072 6,13.5128358 6,13 C6,12.5266131 5.67106635,12.1300527 5.22929083,12.0264107 L5.11662113,12.0067277 L5,12 L4,12 L4,11 L3.99327227,10.8833789 C3.9443941,10.4625538 3.63425172,10.1214159 3.22929083,10.0264107 L3.11662113,10.0067277 L3,10 L2.88337887,10.0067277 C2.46255383,10.0556059 2.12141588,10.3657483 2.02641071,10.7707092 L2.00672773,10.8833789 L2,11 L2,13 L2.00672773,13.1166211 C2.0556059,13.5374462 2.36574828,13.8785841 2.77070917,13.9735893 L2.88337887,13.9932723 L3,14 L5,14 Z"/>
</svg>
