<svg xmlns="http://www.w3.org/2000/svg" width="16" height="16" viewBox="0 0 16 16">
  <path fill-rule="evenodd" d="M3,2 L6,2 C7.30625206,2 8.41751442,2.8348501 8.82932572,4.00008893 L11,4 C12.5976809,4 13.9036609,5.24891996 13.9949073,6.82372721 L14,7 L14,9 C14,10.5976809 12.75108,11.9036609 11.1762728,11.9949073 L11,12 L10,12 C8.69411778,12 7.58311485,11.1656226 7.17102423,10.0009007 L4,10 L4,13 C4,13.5522847 3.55228475,14 3,14 C2.44771525,14 2,13.5522847 2,13 L2,3 C2,2.44771525 2.44771525,2 3,2 Z M9,6 L9,9 C9,9.51283584 9.38604019,9.93550716 9.88337887,9.99327227 L10,10 L11,10 C11.5128358,10 11.9355072,9.61395981 11.9932723,9.11662113 L12,9 L12,7 C12,6.48716416 11.6139598,6.06449284 11.1166211,6.00672773 L11,6 L9,6 Z M6,4 L4,4 L4,8 L7,8 L7,5 C7,4.48716416 6.61395981,4.06449284 6.11662113,4.00672773 L6,4 Z"/>
</svg>
