<svg xmlns="http://www.w3.org/2000/svg" width="16" height="16" viewBox="0 0 16 16">
  <path d="M6,11 C6.85216986,11 7.29743382,10.0144864 6.78322518,9.37747324 L6.70710678,9.29289322 L6.02603447,8.61036069 C6.64944961,8.24360082 7.51432217,8 8.5,8 C10.4268812,8 11.8920987,8.9309335 11.9942993,9.89301911 L12,10 C12,10.5522847 12.4477153,11 13,11 C13.5522847,11 14,10.5522847 14,10 C14,7.68512296 11.4723156,6 8.5,6 C6.98846098,6 5.59190897,6.43579324 4.58429548,7.16858351 L3.70710678,6.29289322 C3.1045317,5.69031813 2.09281919,6.07233231 2.00598327,6.88636906 L2,7 L2,10 C2,10.5128358 2.38604019,10.9355072 2.88337887,10.9932723 L3,11 L6,11 Z"/>
</svg>
