<svg xmlns="http://www.w3.org/2000/svg" width="16" height="16" viewBox="0 0 16 16">
  <path fill-rule="evenodd" d="M8,2 C11.3137085,2 14,4.6862915 14,8 C14,11.3137085 11.3137085,14 8,14 C4.6862915,14 2,11.3137085 2,8 C2,4.6862915 4.6862915,2 8,2 Z M8,4 C7.44771525,4 7,4.44771525 7,5 L7,8 C7,8.26521649 7.10535684,8.5195704 7.29289322,8.70710678 L9.29289322,10.7071068 C9.68341751,11.0976311 10.3165825,11.0976311 10.7071068,10.7071068 C11.0976311,10.3165825 11.0976311,9.68341751 10.7071068,9.29289322 L9,7.58578644 L9,5 C9,4.44771525 8.55228475,4 8,4 Z"/>
</svg>
