<svg xmlns="http://www.w3.org/2000/svg" width="16" height="16" viewBox="0 0 16 16">
  <path fill-rule="evenodd" d="M11,4 C12.1045695,4 13,4.8954305 13,6 C13.4679515,6.00427754 13.9290951,6.3255638 13.9925853,6.87035418 L14,7 L14,9 C14,9.55228475 13.5522847,10 13,10 C13,11.0543618 12.1841222,11.9181651 11.1492623,11.9945143 L11,12 L4,12 C2.9456382,12 2.08183488,11.1841222 2.00548574,10.1492623 L2,10 L2,6 C2,4.9456382 2.81587779,4.08183488 3.85073766,4.00548574 L4,4 L11,4 Z M8.56239412,4.53414777 C8.56239412,4.02186607 7.89012518,3.81940526 7.56988537,4.1893296 L7.51421582,4.26546215 L5.07745695,8.66437624 C4.87437324,8.99447398 5.09305198,9.40299178 5.47285318,9.45966729 L5.56324113,9.4663047 L7.43760588,9.4663047 L7.43760588,11.4658522 C7.43760588,11.9781339 8.10987482,12.1805947 8.43011463,11.8106704 L8.48578418,11.7345378 L10.922543,7.33562376 C11.1256268,7.00552602 10.906948,6.59700822 10.5271468,6.54033271 L10.4367589,6.5336953 L8.56239412,6.5336953 L8.56239412,4.53414777 Z"/>
</svg>
