<svg xmlns="http://www.w3.org/2000/svg" width="16" height="16" viewBox="0 0 16 16">
  <path fill-rule="evenodd" d="M5,11 L3,11 C2.48716416,11 2.06449284,10.6911678 2.00672773,10.2932969 L2,10.2 L2,3.8 C2,3.38973133 2.38604019,3.05159427 2.88337887,3.00538219 L3,3 L13,3 C13.5128358,3 13.9355072,3.30883215 13.9932723,3.7067031 L14,3.8 L14,10.2 C14,10.6102687 13.6139598,10.9484057 13.1166211,10.9946178 L13,11 L11,11 L11,12 C11,12.5522847 10.5522847,13 10,13 L6,13 C5.44771525,13 5,12.5522847 5,12 L5,11 L3,11 L5,11 Z"/>
</svg>
