<svg xmlns="http://www.w3.org/2000/svg" width="16" height="16" viewBox="0 0 16 16">
  <path fill-rule="evenodd" d="M12,13 C12,13.5522847 12.4477153,14 13,14 C13.5522847,14 14,13.5522847 14,13 L14,3 C14,2.44771525 13.5522847,2 13,2 C12.4477153,2 12,2.44771525 12,3 L12,13 Z M10,8 L9.996,7.918 L9.97975993,7.79927424 L9.95026191,7.68785748 L9.90632664,7.57677845 L9.85400455,7.47929125 L9.80368649,7.4048407 L9.70710678,7.29289322 L7.70710678,5.29289322 C7.31658249,4.90236893 6.68341751,4.90236893 6.29289322,5.29289322 C5.93240926,5.65337718 5.90467972,6.22060824 6.20970461,6.61289944 L6.29289322,6.70710678 L6.585,7 L3,7 C2.44771525,7 2,7.44771525 2,8 C2,8.55228475 2.44771525,9 3,9 L6.585,9 L6.29289322,9.29289322 C5.93240926,9.65337718 5.90467972,10.2206082 6.20970461,10.6128994 L6.29289322,10.7071068 C6.65337718,11.0675907 7.22060824,11.0953203 7.61289944,10.7902954 L7.70710678,10.7071068 L9.70710678,8.70710678 L9.7485042,8.663147 L9.80366542,8.59530661 L9.87532883,8.4840621 L9.90634622,8.42309915 L9.94011414,8.34165038 L9.96415486,8.26599297 L9.99316578,8.11747418 L10,8 Z"/>
</svg>
