<svg xmlns="http://www.w3.org/2000/svg" width="16" height="16" viewBox="0 0 16 16">
  <path fill-rule="evenodd" d="M11,12 C11.5522847,12 12,12.4477153 12,13 C12,13.5522847 11.5522847,14 11,14 L9,14 C8.44771525,14 8,13.5522847 8,13 C8,12.4477153 8.44771525,12 9,12 L11,12 Z M3,10 L3.11662113,10.0067277 C3.57570299,10.0600494 3.93995063,10.424297 3.99327227,10.8833789 L4,11 L4,12 L5,12 L5.11662113,12.0067277 C5.61395981,12.0644928 6,12.4871642 6,13 C6,13.5128358 5.61395981,13.9355072 5.11662113,13.9932723 L5,14 L3,14 L2.88337887,13.9932723 C2.42429701,13.9399506 2.06004937,13.575703 2.00672773,13.1166211 L2,13 L2,11 L2.00672773,10.8833789 C2.06004937,10.424297 2.42429701,10.0600494 2.88337887,10.0067277 L3,10 Z M14,9 C14,9.51283584 13.6139598,9.93550716 13.1166211,9.99327227 L13,10 L7,10 C6.44771525,10 6,9.55228475 6,9 L6,3 L6.00672773,2.88337887 C6.0556059,2.46255383 6.36574828,2.12141588 6.77070917,2.02641071 L6.88337887,2.00672773 L7,2 L13,2 L13.1166211,2.00672773 C13.575703,2.06004937 13.9399506,2.42429701 13.9932723,2.88337887 L14,3 L14,9 Z M12,8 L12,4 L8,4 L8,8 L12,8 Z M3,4 C3.55228475,4 4,4.44771525 4,5 L4,7 C4,7.55228475 3.55228475,8 3,8 C2.44771525,8 2,7.55228475 2,7 L2,5 C2,4.44771525 2.44771525,4 3,4 Z"/>
</svg>
