<svg xmlns="http://www.w3.org/2000/svg" width="16" height="16" viewBox="0 0 16 16">
  <path fill-rule="evenodd" d="M12,2 C13.1045695,2 14,2.8954305 14,4 C14,5.1045695 13.1045695,6 12,6 C11.5930533,6 11.214494,5.87845957 10.8986415,5.66969829 L6.23606798,8.00021906 L10.8986415,10.3303017 C11.214494,10.1215404 11.5930533,10 12,10 C13.1045695,10 14,10.8954305 14,12 C14,13.1045695 13.1045695,14 12,14 C10.9456382,14 10.0818349,13.1841222 10.0054857,12.1492623 L10.004,12.12 L5.10135853,9.66969829 C4.78550603,9.87845957 4.40694666,10 4,10 C2.8954305,10 2,9.1045695 2,8 C2,6.8954305 2.8954305,6 4,6 C4.40694666,6 4.78550603,6.12154043 5.10135853,6.33030171 L10.0035777,3.87937471 C10.0659461,2.83096945 10.9359314,2 12,2 Z"/>
</svg>
