<svg xmlns="http://www.w3.org/2000/svg" width="16" height="16" viewBox="0 0 16 16">
  <path d="M11.0020048,9 C11.5542895,9 12.0020048,9.44771525 12.0020048,10 C12.0020048,10.5128358 11.6159646,10.9355072 11.1186259,10.9932723 L11.0020048,11 L5.41700475,11 L6.70911154,12.2928932 C7.0695955,12.6533772 7.09732503,13.2206082 6.79230014,13.6128994 L6.70911154,13.7071068 C6.34862757,14.0675907 5.78139652,14.0953203 5.38910531,13.7902954 L5.29489797,13.7071068 L2.29489797,10.7071068 C1.69232289,10.1045317 2.07433707,9.09281919 2.88837381,9.00598327 L3.00200475,9 L11.0020048,9 Z M10.6128994,2.20970461 L10.7071068,2.29289322 L13.7071068,5.29289322 C14.3096819,5.8954683 13.9276677,6.90718081 13.1136309,6.99401673 L13,7 L5,7 C4.44771525,7 4,6.55228475 4,6 C4,5.48716416 4.38604019,5.06449284 4.88337887,5.00672773 L5,5 L10.585,5 L9.29289322,3.70710678 C8.93240926,3.34662282 8.90467972,2.77939176 9.20970461,2.38710056 L9.29289322,2.29289322 C9.65337718,1.93240926 10.2206082,1.90467972 10.6128994,2.20970461 Z"/>
</svg>
