<svg xmlns="http://www.w3.org/2000/svg" width="16" height="16" viewBox="0 0 16 16">
  <path fill-rule="evenodd" d="M14,8 C14,11.3137085 11.3137085,14 8,14 C6.69118318,14 5.48024444,13.5809342 4.49404343,12.8696621 C4.57080578,12.8259699 4.64229755,12.771916 4.70710678,12.7071068 L12.7071068,4.70710678 C12.772241,4.64197261 12.8265116,4.57008872 12.8699188,4.49370664 C13.5805944,5.47926299 14,6.69065279 14,8 Z M7.00019152,2.08292631 L7,7.27272727 C7,7.36100456 7.02162614,7.44560834 7.06123556,7.52388927 L3.29289322,11.2928932 C3.22808399,11.3577024 3.17403014,11.4291942 3.13073166,11.5051505 C2.41906585,10.5197556 2,9.30881682 2,8 C2,5.02693683 4.16238395,2.55892549 7.00019152,2.08292631 Z M9,5.58392631 L9.00080686,2.08309386 C9.92466269,2.23821743 10.7769076,2.60446857 11.5062275,3.1305333 C11.4291942,3.17403014 11.3577024,3.22808399 11.2928932,3.29289322 L9,5.58392631 Z"/>
</svg>
