<svg xmlns="http://www.w3.org/2000/svg" width="16" height="16" viewBox="0 0 16 16">
  <path fill-rule="evenodd" d="M7,10 L3,10 C2.48716416,10 2.06449284,9.61395981 2.00672773,9.11662113 L2,9 L2,3 C2,2.48716416 2.38604019,2.06449284 2.88337887,2.00672773 L3,2 L13,2 C13.5128358,2 13.9355072,2.38604019 13.9932723,2.88337887 L14,3 L14,9 C14,9.51283584 13.6139598,9.93550716 13.1166211,9.99327227 L13,10 L9,10 L9,12 L11,12 C11.5522847,12 12,12.4477153 12,13 C12,13.5522847 11.5522847,14 11,14 L5,14 C4.44771525,14 4,13.5522847 4,13 C4,12.4477153 4.44771525,12 5,12 L7,12 L7,10 Z"/>
</svg>
