<svg xmlns="http://www.w3.org/2000/svg" width="16" height="16" viewBox="0 0 16 16">
  <path fill-rule="evenodd" d="M8,2 C9.65685425,2 11,3.34314575 11,5 C11,5.54060402 10.7972,5.95243249 10.4324938,6.33695441 L10.3049846,6.46425623 L9.69768045,7.00562265 C9.22788296,7.46313853 9,7.98493642 9,9 C9,9.51283584 8.61395981,9.93550716 8.11662113,9.99327227 L8,10 C7.44771525,10 7,9.55228475 7,9 L7.00528561,8.712882 C7.05455619,7.40117173 7.44742455,6.4787716 8.14759308,5.73055006 L8.30231955,5.57280447 L8.52685027,5.36697752 L8.98333246,4.9652856 C8.99403437,4.95806514 8.99833806,4.95876504 8.99990345,4.9646777 L8.99118501,4.86663987 C8.92598766,4.37740496 8.50706765,4 8,4 C7.48716416,4 7.06449284,4.38604019 7.00672773,4.88337887 L6.99327227,5.11662113 C6.93550716,5.61395981 6.51283584,6 6,6 C5.44771525,6 5,5.55228475 5,5 C5,3.34314575 6.34314575,2 8,2 Z M7,12 L9,12 L9,14 L7,14 L7,12 Z"/>
</svg>
