<svg xmlns="http://www.w3.org/2000/svg" width="16" height="16" viewBox="0 0 16 16">
  <path fill-rule="evenodd" d="M10,2 C10.5522847,2 11,2.44771525 11,3 L11,4 L12,4 C12.5128358,4 12.9355072,4.38604019 12.9932723,4.88337887 L13,5 L13,8 C13,10.1421954 11.3160315,11.8910789 9.19964034,11.9951047 L9,12 L9,13 C9,13.5522847 8.55228475,14 8,14 C7.44771525,14 7,13.5522847 7,13 L7,12 C4.85780461,12 3.10892112,10.3160315 3.00489531,8.19964034 L3,8 L3,5 C3,4.48716416 3.38604019,4.06449284 3.88337887,4.00672773 L4,4 L5,4 L5,3 C5,2.44771525 5.44771525,2 6,2 C6.55228475,2 7,2.44771525 7,3 L7,4 L9,4 L9,3 C9,2.44771525 9.44771525,2 10,2 Z"/>
</svg>
