<svg xmlns="http://www.w3.org/2000/svg" width="16" height="16" viewBox="0 0 16 16">
  <path fill-rule="evenodd" d="M3,2 L5,2 C6.0543618,2 6.91816512,2.81587779 6.99451426,3.85073766 L7,4 L7,6 C7,6.51283584 6.61395981,6.93550716 6.11662113,6.99327227 L6,7 L5.06216699,7 L5.23607743,7.30515351 C6.07451139,8.71522392 7.28477608,9.92548861 8.69484649,10.7639226 L9,10.937833 L9,10 C9,9.48716416 9.38604019,9.06449284 9.88337887,9.00672773 L10,9 L12,9 C13.0543618,9 13.9181651,9.81587779 13.9945143,10.8507377 L14,11 L14,13 C14,13.5522847 13.5522847,14 13,14 C7.23169261,14 2,8.76830739 2,3 C2,2.48716416 2.38604019,2.06449284 2.88337887,2.00672773 L3,2 L5,2 L3,2 Z M10.2928932,4.29289322 L12.2928932,2.29289322 C12.6834175,1.90236893 13.3165825,1.90236893 13.7071068,2.29289322 C14.0675907,2.65337718 14.0953203,3.22060824 13.7902954,3.61289944 L13.7071068,3.70710678 L12.4142136,5 L13.7071068,6.29289322 C14.0976311,6.68341751 14.0976311,7.31658249 13.7071068,7.70710678 C13.3466228,8.06759074 12.7793918,8.09532028 12.3871006,7.79029539 L12.2928932,7.70710678 L10.2928932,5.70710678 C9.93240926,5.34662282 9.90467972,4.77939176 10.2097046,4.38710056 L10.2928932,4.29289322 L12.2928932,2.29289322 L10.2928932,4.29289322 Z"/>
</svg>
