<svg xmlns="http://www.w3.org/2000/svg" width="16" height="16" viewBox="0 0 16 16">
  <path fill-rule="evenodd" d="M6,10 C6.55228475,10 7,10.4477153 7,11 L7,13 C7,13.5522847 6.55228475,14 6,14 L3,14 C2.44771525,14 2,13.5522847 2,13 L2,11 C2,10.4477153 2.44771525,10 3,10 L6,10 Z M13,6 C13.5522847,6 14,6.44771525 14,7 L14,13 C14,13.5522847 13.5522847,14 13,14 L10,14 C9.44771525,14 9,13.5522847 9,13 L9,7 C9,6.44771525 9.44771525,6 10,6 L13,6 Z M6,2 C6.55228475,2 7,2.44771525 7,3 L7,7 C7,7.55228475 6.55228475,8 6,8 L3,8 C2.44771525,8 2,7.55228475 2,7 L2,3 C2,2.44771525 2.44771525,2 3,2 L6,2 Z M13,2 C13.5522847,2 14,2.44771525 14,3 C14,3.55228475 13.5522847,4 13,4 L10,4 C9.44771525,4 9,3.55228475 9,3 C9,2.44771525 9.44771525,2 10,2 L13,2 Z"/>
</svg>
