<svg xmlns="http://www.w3.org/2000/svg" width="16" height="16" viewBox="0 0 16 16">
  <path d="M11,2 C11.5522847,2 12,2.44771525 12,3 C12,3.51283584 11.6139598,3.93550716 11.1166211,3.99327227 L11,4 L7.08,4 L9.78086881,7.37530495 C10.0464824,7.70732191 10.0706291,8.16639187 9.85330887,8.52150938 L9.78086881,8.62469505 L7.079,12 L11,12 C11.5128358,12 11.9355072,12.3860402 11.9932723,12.8833789 L12,13 C12,13.5128358 11.6139598,13.9355072 11.1166211,13.9932723 L11,14 L5,14 C4.19960771,14 3.73846919,13.1162399 4.15378072,12.4664237 L4.21913119,12.375305 L7.719,8 L4.21913119,3.62469505 C3.71913009,2.99969367 4.12115982,2.08752444 4.8880241,2.00589128 L5,2 L11,2 Z"/>
</svg>
