<svg xmlns="http://www.w3.org/2000/svg" width="16" height="16" viewBox="0 0 16 16">
  <path d="M3,4 L3.11662113,4.00672773 C3.57570299,4.06004937 3.93995063,4.42429701 3.99327227,4.88337887 L4,5 L4,12 L11,12 L11.1166211,12.0067277 C11.6139598,12.0644928 12,12.4871642 12,13 C12,13.5128358 11.6139598,13.9355072 11.1166211,13.9932723 L11,14 L3,14 L2.88337887,13.9932723 C2.42429701,13.9399506 2.06004937,13.575703 2.00672773,13.1166211 L2,13 L2,5 L2.00672773,4.88337887 C2.06004937,4.42429701 2.42429701,4.06004937 2.88337887,4.00672773 L3,4 Z M8,7 L8,8 L9,8 L9,10 L6,10 L6,7 L8,7 Z M14,7 L14,10 L11,10 L11,8 L12,8 L12,7 L14,7 Z M14,2 L14,5 L12,5 L12,4 L11,4 L11,2 L14,2 Z M9,2 L9,4 L8,4 L8,5 L6,5 L6,2 L9,2 Z"/>
</svg>
