<svg xmlns="http://www.w3.org/2000/svg" width="16" height="16" viewBox="0 0 16 16">
  <path fill-rule="evenodd" d="M7.12563936,2 C7.59896852,2 8.05291135,2.18802928 8.3876056,2.52272353 L13.4772765,7.6123944 C14.1742412,8.30935911 14.1742412,9.43936218 13.4772765,10.1363269 L10.1363269,13.4772765 C9.43936218,14.1742412 8.30935911,14.1742412 7.6123944,13.4772765 L2.52272353,8.3876056 C2.18802928,8.05291135 2,7.59896852 2,7.12563936 L2,3.78468978 C2,2.79903283 2.79903283,2 3.78468978,2 L7.12563936,2 Z M5.5,4 C4.67157288,4 4,4.67157288 4,5.5 C4,6.32842712 4.67157288,7 5.5,7 C6.32842712,7 7,6.32842712 7,5.5 C7,4.67157288 6.32842712,4 5.5,4 Z"/>
</svg>
