<svg xmlns="http://www.w3.org/2000/svg" width="16" height="16" viewBox="0 0 16 16">
  <path fill-rule="evenodd" d="M5.12802928,3.5 L5.17824773,3.37082156 C5.5206151,2.56506041 6.31931909,2 7.25,2 C8.22966412,2 9.06309341,2.62610572 9.37197072,3.5 L10.25,3.5 C11.4926407,3.5 12.5,4.50735931 12.5,5.75 L12.5,6.62802928 C13.3738943,6.93690659 14,7.77033588 14,8.75 C14,9.71975278 13.3845407,10.5524153 12.5,10.8673611 L12.5,11.75 C12.5,12.9926407 11.4926407,14 10.25,14 L9.5,14 C9.11537312,14 8.79836963,13.7104699 8.7550458,13.3374658 L8.7458857,13.1380532 C8.68862384,12.3619083 8.04077135,11.75 7.25,11.75 C6.42157288,11.75 5.75,12.4215729 5.75,13.25 C5.75,13.6642136 5.41421356,14 5,14 L4.25,14 C3.00735931,14 2,12.9926407 2,11.75 L2,11 C2,10.6153731 2.28953014,10.2983696 2.66253416,10.2550458 L2.86194676,10.2458857 C3.63809166,10.1886238 4.25,9.54077135 4.25,8.75 C4.25,7.92157288 3.57842712,7.25 2.75,7.25 C2.33578644,7.25 2,6.91421356 2,6.5 L2,5.75 C2,4.50735931 3.00735931,3.5 4.25,3.5 L5.12802928,3.5 Z"/>
</svg>
