<svg xmlns="http://www.w3.org/2000/svg" width="16" height="16" viewBox="0 0 16 16">
  <path d="M11,9 C11.8909049,9 12.3370716,10.0771419 11.7071068,10.7071068 L8.70710678,13.7071068 C8.31658249,14.0976311 7.68341751,14.0976311 7.29289322,13.7071068 L4.29289322,10.7071068 C3.66292836,10.0771419 4.10909515,9 5,9 L11,9 Z M7.29289322,2.29289322 C7.65337718,1.93240926 8.22060824,1.90467972 8.61289944,2.20970461 L8.70710678,2.29289322 L11.7071068,5.29289322 C12.3096819,5.8954683 11.9276677,6.90718081 11.1136309,6.99401673 L11,7 L5,7 C4.14783014,7 3.70256618,6.01448641 4.21677482,5.37747324 L4.29289322,5.29289322 L7.29289322,2.29289322 Z"/>
</svg>
