<svg xmlns="http://www.w3.org/2000/svg" width="16" height="16" viewBox="0 0 16 16">
  <path fill-rule="evenodd" d="M13,12 C13.5522847,12 14,12.4477153 14,13 C14,13.5522847 13.5522847,14 13,14 L3,14 C2.44771525,14 2,13.5522847 2,13 C2,12.4477153 2.44771525,12 3,12 L13,12 Z M12,5 C13.1045695,5 14,5.8954305 14,7 L14,9 C14,10.1045695 13.1045695,11 12,11 L4,11 C2.8954305,11 2,10.1045695 2,9 L2,7 C2,5.8954305 2.8954305,5 4,5 L12,5 Z M12,7 L4,7 L4,9 L12,9 L12,7 Z M13,2 C13.5522847,2 14,2.44771525 14,3 C14,3.55228475 13.5522847,4 13,4 L3,4 C2.44771525,4 2,3.55228475 2,3 C2,2.44771525 2.44771525,2 3,2 L13,2 Z"/>
</svg>
