<svg xmlns="http://www.w3.org/2000/svg" width="16" height="16" viewBox="0 0 16 16">
  <path fill-rule="evenodd" d="M13,8 C13.5128358,8 13.9355072,8.38604019 13.9932723,8.88337887 L14,9 L14,11 C14,12.5976809 12.75108,13.9036609 11.1762728,13.9949073 L11,14 L5,14 C3.40231912,14 2.09633912,12.75108 2.00509269,11.1762728 L2,11 L2,9 C2,8.44771525 2.44771525,8 3,8 C3.51283584,8 3.93550716,8.38604019 3.99327227,8.88337887 L4,9 L4,11 C4,11.5128358 4.38604019,11.9355072 4.88337887,11.9932723 L5,12 L11,12 C11.5128358,12 11.9355072,11.6139598 11.9932723,11.1166211 L12,11 L12,9 C12,8.44771525 12.4477153,8 13,8 Z M7.85153313,2.0110178 L7.90996805,2.00399798 L7.90996805,2.00399798 L8,2 L8.07523854,2.00278786 L8.07523854,2.00278786 L8.20072576,2.02024007 L8.20072576,2.02024007 L8.31214252,2.04973809 L8.31214252,2.04973809 L8.42322155,2.09367336 L8.42322155,2.09367336 L8.52070875,2.14599545 L8.52070875,2.14599545 L8.62544899,2.21968877 L8.62544899,2.21968877 L8.70710678,2.29289322 L10.7071068,4.29289322 C11.0976311,4.68341751 11.0976311,5.31658249 10.7071068,5.70710678 C10.3165825,6.09763107 9.68341751,6.09763107 9.29289322,5.70710678 L9,5.415 L9,9 C9,9.55228475 8.55228475,10 8,10 C7.44771525,10 7,9.55228475 7,9 L7,5.414 L6.70710678,5.70710678 C6.31658249,6.09763107 5.68341751,6.09763107 5.29289322,5.70710678 C4.90236893,5.31658249 4.90236893,4.68341751 5.29289322,4.29289322 L7.29289322,2.29289322 C7.32828727,2.25749917 7.36567442,2.22531295 7.40469339,2.19633458 L7.5159379,2.12467117 L7.5159379,2.12467117 L7.62866398,2.07122549 L7.62866398,2.07122549 L7.73400703,2.03584514 L7.73400703,2.03584514 L7.85153313,2.0110178 L7.85153313,2.0110178 Z"/>
</svg>
