<svg xmlns="http://www.w3.org/2000/svg" width="16" height="16" viewBox="0 0 16 16">
  <path fill-rule="evenodd" d="M8.70710678,9.29289322 L11.7071068,12.2928932 C12.0976311,12.6834175 12.0976311,13.3165825 11.7071068,13.7071068 C11.3165825,14.0976311 10.6834175,14.0976311 10.2928932,13.7071068 L8,11.4142136 L5.70710678,13.7071068 C5.31658249,14.0976311 4.68341751,14.0976311 4.29289322,13.7071068 C3.90236893,13.3165825 3.90236893,12.6834175 4.29289322,12.2928932 L7.29289322,9.29289322 C7.68341751,8.90236893 8.31658249,8.90236893 8.70710678,9.29289322 Z M4.29289322,2.29289322 C4.65337718,1.93240926 5.22060824,1.90467972 5.61289944,2.20970461 L5.70710678,2.29289322 L8,4.58578644 L10.2928932,2.29289322 C10.6834175,1.90236893 11.3165825,1.90236893 11.7071068,2.29289322 C12.0675907,2.65337718 12.0953203,3.22060824 11.7902954,3.61289944 L11.7071068,3.70710678 L8.70710678,6.70710678 C8.34662282,7.06759074 7.77939176,7.09532028 7.38710056,6.79029539 L7.29289322,6.70710678 L4.29289322,3.70710678 C3.90236893,3.31658249 3.90236893,2.68341751 4.29289322,2.29289322 Z"/>
</svg>
