<svg xmlns="http://www.w3.org/2000/svg" width="16" height="16" viewBox="0 0 16 16">
  <path fill-rule="evenodd" d="M3,2 L13,2 C13.5128358,2 13.9355072,2.38604019 13.9932723,2.88337887 L14,3 L14,13 C14,13.5128358 13.6139598,13.9355072 13.1166211,13.9932723 L13,14 L3,14 C2.48716416,14 2.06449284,13.6139598 2.00672773,13.1166211 L2,13 L2,3 C2,2.48716416 2.38604019,2.06449284 2.88337887,2.00672773 L3,2 L13,2 L3,2 Z M7.92,10.996 L8.00007756,11 L8.13289657,10.9912555 L8.13289657,10.9912555 L8.26610326,10.9641549 L8.3969334,10.9181801 L8.3969334,10.9181801 L8.50045639,10.8661032 L8.50045639,10.8661032 L8.58189807,10.8135366 L8.62172176,10.7833908 L8.70723605,10.7071068 L10.707306,8.70710678 L10.7904968,8.61289944 C11.0701102,8.25329917 11.0701102,7.74670083 10.7904968,7.38710056 L10.707306,7.29289322 L10.6130963,7.20970461 C10.2534867,6.93009846 9.74687526,6.93009846 9.38726569,7.20970461 L9.29305592,7.29289322 L9,7.585 L9.00012927,6 C9.00012927,5.48716416 8.61408908,5.06449284 8.1167504,5.00672773 L8.00012927,5 L7.88345644,5.00672773 C7.42437458,5.06004937 7.06012693,5.42429701 7.00680529,5.88337887 L7.00007756,6 L7,7.585 L6.70715092,7.29289322 L6.61294114,7.20970461 C6.22063979,6.90467972 5.65339407,6.93240926 5.29290079,7.29289322 C4.93240751,7.65337718 4.90467726,8.22060824 5.20971003,8.61289944 L5.29290079,8.70710678 L7.29297836,10.7071068 L7.40491826,10.8036865 L7.4793812,10.8540045 L7.57687093,10.9063266 L7.57687093,10.9063266 L7.68795282,10.9502619 L7.68795282,10.9502619 L7.76656602,10.9725773 L7.76656602,10.9725773 L7.85111635,10.9889807 L7.92,10.996 Z"/>
</svg>
