<svg xmlns="http://www.w3.org/2000/svg" width="16" height="16" viewBox="0 0 16 16">
  <path fill-rule="evenodd" d="M8,2 C9.1045695,2 10,2.8954305 10,4 L10,9 C10,9.09277799 9.98736528,9.18260499 9.96372259,9.26785422 C10.5495127,8.76058243 10.9368261,8.02946923 10.9929465,7.20734913 L11.0067277,6.88337887 C11.0644928,6.38604019 11.4871642,6 12,6 C12.5522847,6 13,6.44771525 13,7 C13,9.41853874 11.2828356,11.4360122 9.0011864,11.8997409 L9,13 C9,13.5522847 8.55228475,14 8,14 C7.44771525,14 7,13.5522847 7,13 L6.99981203,11.8999437 C4.71766536,11.4366008 3,9.4188915 3,7 C3,6.44771525 3.44771525,6 4,6 C4.55228475,6 5,6.44771525 5,7 C5,7.90606258 5.40167141,8.71830978 6.03666096,9.26838832 C6.01263472,9.18260499 6,9.09277799 6,9 L6,4 C6,2.8954305 6.8954305,2 8,2 Z"/>
</svg>
