<svg xmlns="http://www.w3.org/2000/svg" width="16" height="16" viewBox="0 0 16 16">
  <path fill-rule="evenodd" d="M3.98251624,6.50099362 C4.49527366,6.4920257 4.924631,6.87061565 4.99108419,7.36686815 L4.99985024,7.4833538 L5.0017952,7.60334568 C5.05069733,8.99932673 6.10383986,10.1589827 7.4999416,10.4372749 L7.5,9.50083756 C7.5,9.13001785 7.88376484,8.89814748 8.2046278,9.044275 L8.27735325,9.08481556 L11.2773532,11.0848156 C11.5472319,11.2647347 11.5717663,11.6416102 11.3509565,11.8573395 L11.2773532,11.9168659 L8.27735325,13.9168659 C7.96880998,14.1225614 7.56300948,13.9318709 7.50661218,13.5838398 L7.5,13.5008376 L7.49993877,12.4615263 C5.10353052,12.1685771 3.20436469,10.2711261 3.01501441,7.87458388 L3.00256112,7.65584176 L3.00015606,7.51832762 C2.9904983,6.96612732 3.43031594,6.51065137 3.98251624,6.50099362 Z M8.50000315,2.50084071 L8.5001185,3.54015374 C11.0313708,3.84938197 13.0000031,5.94553202 13.0000031,8.50084071 C13.0000031,9.05312546 12.5522879,9.50084071 12.0000031,9.50084071 C11.4871673,9.50084071 11.064496,9.11480052 11.0067309,8.61746183 L10.9946884,8.3253948 C10.9120417,6.96468605 9.87432441,5.83841873 8.50062278,5.56449995 L8.50000315,6.50084071 C8.50000315,6.9001884 8.05493041,7.1383841 7.72265305,6.91686586 L4.72265305,4.91686586 C4.42578651,4.71895483 4.42578651,4.28272659 4.72265305,4.08481556 L7.72265305,2.08481556 C8.05493041,1.86329732 8.50000315,2.10149302 8.50000315,2.50084071 Z"/>
</svg>
