<svg xmlns="http://www.w3.org/2000/svg" width="16" height="16" viewBox="0 0 16 16">
  <path fill-rule="evenodd" d="M7.6660432,12.4870019 L5.06916521,13.913713 C4.71838986,14.1064272 4.28453356,13.965494 4.10012005,13.5989299 C4.02668562,13.4529622 4.00134522,13.2857678 4.02802184,13.1232303 L4.5239814,10.1014077 C4.56390497,9.85815819 4.48673247,9.60995502 4.31761355,9.43768476 L2.21669512,7.29761812 C1.9329119,7.00854692 1.92710518,6.53380183 2.20372545,6.23724528 C2.3138771,6.11915491 2.45820886,6.04230407 2.6143765,6.01859018 L5.51777436,5.5777122 C5.75149096,5.54222258 5.95353118,5.38882458 6.05805242,5.16750887 L7.35649142,2.41816384 C7.5318791,2.04679389 7.96214664,1.8943185 8.31752089,2.07760053 C8.45903277,2.15058439 8.57357511,2.27028238 8.6434154,2.41816384 L9.9418544,5.16750887 C10.0463756,5.38882458 10.2484159,5.54222258 10.4821325,5.5777122 L13.3855303,6.01859018 C13.7777091,6.07814212 14.0494358,6.45865223 13.9924489,6.86848331 C13.9697564,7.03168019 13.8962157,7.18250845 13.7832117,7.29761812 L11.6822933,9.43768476 C11.5131743,9.60995502 11.4360019,9.85815819 11.4759254,10.1014077 L11.971885,13.1232303 C12.0388771,13.5314054 11.7765459,13.919049 11.3859518,13.9890565 C11.2304152,14.0169338 11.0704222,13.9904528 10.9307416,13.913713 L8.33386361,12.4870019 C8.12482113,12.3721551 7.87508569,12.3721551 7.6660432,12.4870019 Z M6.70302036,10.7341223 C7.51180253,10.2897816 8.48810429,10.2897816 9.29688646,10.7341223 L9.57839565,10.888782 L9.50233047,10.4253259 C9.35976456,9.55668878 9.63647755,8.66672092 10.255086,8.03658539 L10.6569913,7.62719104 L10.1818765,7.55504534 C9.28279474,7.41852071 8.51938488,6.8389057 8.13339195,6.02159526 L7.99995341,5.73904939 L7.86651487,6.02159526 C7.48052194,6.8389057 6.71711208,7.41852071 5.81803036,7.55504534 L5.3429155,7.62719104 L5.74482081,8.03658539 C6.36342927,8.66672092 6.64014226,9.55668878 6.49757635,10.4253259 L6.42151117,10.888782 L6.70302036,10.7341223 Z"/>
</svg>
