<svg xmlns="http://www.w3.org/2000/svg" width="16" height="16" viewBox="0 0 16 16">
  <path fill-rule="evenodd" d="M5,2 C5.55228475,2 6,2.44771525 6,3 C6,3.51283584 5.61395981,3.93550716 5.11662113,3.99327227 L5,4 C4.48716416,4 4.06449284,4.38604019 4.00672773,4.88337887 L4,5 L4,11 C4,11.5128358 4.38604019,11.9355072 4.88337887,11.9932723 L5,12 L11,12 C11.5128358,12 11.9355072,11.6139598 11.9932723,11.1166211 L12,11 C12,10.4477153 12.4477153,10 13,10 C13.5522847,10 14,10.4477153 14,11 C14,12.5976809 12.75108,13.9036609 11.1762728,13.9949073 L11,14 L5,14 C3.40231912,14 2.09633912,12.75108 2.00509269,11.1762728 L2,11 L2,5 C2,3.34314575 3.34314575,2 5,2 Z M13,2 L13.081,2.003 L13.2007258,2.02024007 L13.2007258,2.02024007 L13.3121425,2.04973809 L13.3121425,2.04973809 L13.4232215,2.09367336 L13.5207088,2.14599545 L13.5207088,2.14599545 L13.6167501,2.21278596 L13.7071068,2.29289322 L13.7071068,2.29289322 L13.8036654,2.40469339 L13.8036654,2.40469339 L13.8753288,2.5159379 L13.9063462,2.57690085 L13.9063462,2.57690085 L13.9401141,2.65834962 L13.9401141,2.65834962 L13.9641549,2.73400703 L13.9641549,2.73400703 L13.9930928,2.8819045 L13.9930928,2.8819045 L14,3 L14,3 L14,7 C14,7.55228475 13.5522847,8 13,8 C12.4477153,8 12,7.55228475 12,7 L12,5.414 L9.70710678,7.70710678 C9.34662282,8.06759074 8.77939176,8.09532028 8.38710056,7.79029539 L8.29289322,7.70710678 C7.93240926,7.34662282 7.90467972,6.77939176 8.20970461,6.38710056 L8.29289322,6.29289322 L10.584,4 L9,4 C8.44771525,4 8,3.55228475 8,3 C8,2.44771525 8.44771525,2 9,2 L13,2 Z"/>
</svg>
