<svg xmlns="http://www.w3.org/2000/svg" width="16" height="16" viewBox="0 0 16 16">
  <path fill-rule="evenodd" d="M7,8 L6.94089693,8.07982774 C6.34880863,8.90139724 6,9.90996431 6,11 C6,12.1261445 6.37230087,13.1653335 7.00053506,14.0011995 L3,14 C2.44771525,14 2,13.5522847 2,13 C2,10.3112453 4.12230671,8.11818189 6.78311038,8.00461951 L7,8 Z M10.5114029,9.14038077 L10.6128994,9.20970461 L10.7071068,9.29289322 L11.5,10.085 L12.2928932,9.29289322 C12.6834175,8.90236893 13.3165825,8.90236893 13.7071068,9.29289322 C14.0976311,9.68341751 14.0976311,10.3165825 13.7071068,10.7071068 L12.915,11.5 L13.7071068,12.2928932 C14.0675907,12.6533772 14.0953203,13.2206082 13.7902954,13.6128994 L13.7071068,13.7071068 C13.3466228,14.0675907 12.7793918,14.0953203 12.3871006,13.7902954 L12.2928932,13.7071068 L11.5,12.915 L10.7071068,13.7071068 C10.3165825,14.0976311 9.68341751,14.0976311 9.29289322,13.7071068 C8.90236893,13.3165825 8.90236893,12.6834175 9.29289322,12.2928932 L10.085,11.5 L9.29289322,10.7071068 C8.93240926,10.3466228 8.90467972,9.77939176 9.20970461,9.38710056 L9.29289322,9.29289322 C9.62333685,8.96244959 10.1275055,8.91161211 10.5114029,9.14038077 Z M8,2 C9.65685425,2 11,3.34314575 11,5 C11,5.35208153 10.9393486,5.68999716 10.8279239,6.00386871 L11,6 C9.4267383,6 8.02318793,6.72662063 7.10663598,7.86257481 C5.88571195,7.48403971 5,6.34545441 5,5 C5,3.34314575 6.34314575,2 8,2 Z"/>
</svg>
