<svg xmlns="http://www.w3.org/2000/svg" width="16" height="16" viewBox="0 0 16 16">
  <path fill-rule="evenodd" d="M2,5 C2,5.55228475 2.44771525,6 3,6 L5.17102423,6.00090072 C5.58311485,7.16562257 6.69411778,8 8,8 C9.30588222,8 10.4168852,7.16562257 10.8289758,6.00090072 L13,6 C13.5522847,6 14,5.55228475 14,5 C14,4.44771525 13.5522847,4 13,4 L10.8293257,4.00008893 C10.4175144,2.8348501 9.30625206,2 8,2 C6.69374794,2 5.58248558,2.8348501 5.17067428,4.00008893 L3,4 C2.44771525,4 2,4.44771525 2,5 Z M2,11 C2,11.5522847 2.44771525,12 3,12 L8.17102423,12.0009007 C8.58311485,13.1656226 9.69411778,14 11,14 C12.6568542,14 14,12.6568542 14,11 C14,9.34314575 12.6568542,8 11,8 C9.69374794,8 8.58248558,8.8348501 8.17067428,10.0000889 L3,10 C2.44771525,10 2,10.4477153 2,11 Z M10,11 C10,10.4477153 10.4477153,10 11,10 C11.5522847,10 12,10.4477153 12,11 C12,11.5522847 11.5522847,12 11,12 C10.4477153,12 10,11.5522847 10,11 Z M7,5 C7,4.44771525 7.44771525,4 8,4 C8.55228475,4 9,4.44771525 9,5 C9,5.55228475 8.55228475,6 8,6 C7.44771525,6 7,5.55228475 7,5 Z"/>
</svg>
