<svg xmlns="http://www.w3.org/2000/svg" width="16" height="16" viewBox="0 0 16 16">
  <path fill-rule="evenodd" d="M4.53453794,7.30690759 C4.91732231,7.68969196 4.91732231,8.31030804 4.53453794,8.69309241 C3.7689692,9.45866115 3.7689692,10.6998933 4.53453794,11.4654621 C5.25981358,12.1907377 6.41200046,12.2289101 7.18221413,11.5799793 L7.39239974,11.3892958 C7.77713797,11.0846307 8.33764978,11.1100194 8.69309241,11.4654621 C9.07587678,11.8482464 9.07587678,12.4688625 8.69309241,12.8516469 C7.16195493,14.3827844 4.67949059,14.3827844 3.14835311,12.8516469 C1.61721563,11.3205094 1.61721563,8.83804507 3.14835311,7.30690759 C3.53113748,6.92412322 4.15175357,6.92412322 4.53453794,7.30690759 Z M4.46446609,3.05025253 L12.9497475,11.5355339 C13.3402718,11.9260582 13.3402718,12.5592232 12.9497475,12.9497475 C12.5592232,13.3402718 11.9260582,13.3402718 11.5355339,12.9497475 L3.05025253,4.46446609 C2.65972824,4.0739418 2.65972824,3.44077682 3.05025253,3.05025253 C3.44077682,2.65972824 4.0739418,2.65972824 4.46446609,3.05025253 Z M12.8516469,3.14835311 C14.3827844,4.67949059 14.3827844,7.16195493 12.8516469,8.69309241 C12.4688625,9.07587678 11.8482464,9.07587678 11.4654621,8.69309241 C11.0826777,8.31030804 11.0826777,7.68969196 11.4654621,7.30690759 C12.2310308,6.54133885 12.2310308,5.30010668 11.4654621,4.53453794 C10.7401864,3.80926229 9.58799954,3.77108988 8.81778587,4.42002073 L8.60760026,4.61070421 C8.22286203,4.91536932 7.66235022,4.88998056 7.30690759,4.53453794 C6.92412322,4.15175357 6.92412322,3.53113748 7.30690759,3.14835311 C8.83804507,1.61721563 11.3205094,1.61721563 12.8516469,3.14835311 Z"/>
</svg>
