<svg xmlns="http://www.w3.org/2000/svg" width="16" height="16" viewBox="0 0 16 16">
  <path fill-rule="evenodd" d="M3,12 L3.40116449,11.1363785 L3.54047879,10.8213437 C3.98099249,9.77332347 4.23074126,8.64415611 4.27628587,7.49512003 L4.28388586,7.11145618 L4.28388586,7 L4.28843374,6.80035966 C4.3682562,5.05232159 5.49055753,3.59928106 7.00018793,3.14643684 L7,3 C7,2.44771525 7.44771525,2 8,2 C8.55228475,2 9,2.44771525 9,3 L9.0008767,3.14675639 C10.5068416,3.59902474 11.6271098,5.04671347 11.7110565,6.78949464 L11.7161141,7 L11.7161141,7.11145618 L11.7223965,7.46029473 C11.7638144,8.60972595 12.0095722,9.73990742 12.4462307,10.7895607 L12.5988355,11.1363785 L13,12 L10,12 C10,13.1045695 9.1045695,14 8,14 C6.8954305,14 6,13.1045695 6,12 L3,12 Z"/>
</svg>
