<svg xmlns="http://www.w3.org/2000/svg" width="16" height="16" viewBox="0 0 16 16">
  <path fill-rule="evenodd" d="M3,2 L5,2 C6.0543618,2 6.91816512,2.81587779 6.99451426,3.85073766 L7,4 L7,6 C7,6.51283584 6.61395981,6.93550716 6.11662113,6.99327227 L6,7 L5.06216699,7 L5.23607743,7.30515351 C6.07451139,8.71522392 7.28477608,9.92548861 8.69484649,10.7639226 L9,10.937833 L9,10 C9,9.48716416 9.38604019,9.06449284 9.88337887,9.00672773 L10,9 L12,9 C13.0543618,9 13.9181651,9.81587779 13.9945143,10.8507377 L14,11 L14,13 C14,13.5522847 13.5522847,14 13,14 C7.23169261,14 2,8.76830739 2,3 C2,2.48716416 2.38604019,2.06449284 2.88337887,2.00672773 L3,2 Z M10,2 C10.5522847,2 11,2.44771525 11,3 L11,6 C11,6.55228475 10.5522847,7 10,7 C9.44771525,7 9,6.55228475 9,6 L9,3 C9,2.44771525 9.44771525,2 10,2 Z M13,2 C13.5522847,2 14,2.44771525 14,3 L14,6 C14,6.55228475 13.5522847,7 13,7 C12.4477153,7 12,6.55228475 12,6 L12,3 C12,2.44771525 12.4477153,2 13,2 Z"/>
</svg>
