<svg xmlns="http://www.w3.org/2000/svg" width="16" height="16" viewBox="0 0 16 16">
  <path fill-rule="evenodd" d="M4,13 C4,13.5522847 3.55228475,14 3,14 C2.44771525,14 2,13.5522847 2,13 L2,3 C2,2.44771525 2.44771525,2 3,2 C3.55228475,2 4,2.44771525 4,3 L4,13 Z M6,8 L6.004,7.918 L6.02024007,7.79927424 L6.04973809,7.68785748 L6.09367336,7.57677845 L6.14599545,7.47929125 L6.19631351,7.4048407 L6.29289322,7.29289322 L8.29289322,5.29289322 C8.68341751,4.90236893 9.31658249,4.90236893 9.70710678,5.29289322 C10.0675907,5.65337718 10.0953203,6.22060824 9.79029539,6.61289944 L9.70710678,6.70710678 L9.415,7 L13,7 C13.5522847,7 14,7.44771525 14,8 C14,8.55228475 13.5522847,9 13,9 L9.415,9 L9.70710678,9.29289322 C10.0675907,9.65337718 10.0953203,10.2206082 9.79029539,10.6128994 L9.70710678,10.7071068 C9.34662282,11.0675907 8.77939176,11.0953203 8.38710056,10.7902954 L8.29289322,10.7071068 L6.29289322,8.70710678 L6.2514958,8.663147 L6.19633458,8.59530661 L6.12467117,8.4840621 L6.09365378,8.42309915 L6.05988586,8.34165038 L6.03584514,8.26599297 L6.00683422,8.11747418 L6,8 Z"/>
</svg>
