<svg xmlns="http://www.w3.org/2000/svg" width="16" height="16" viewBox="0 0 16 16">
  <path d="M8,2 C9.1045695,2 10,2.8954305 10,4 C10,4.7398375 9.59828461,5.38584934 9.0010775,5.73181186 L9.00042542,11.873873 C10.3536623,11.5254142 11.4296895,10.4865865 11.8306439,9.15525286 L11.873,9 L11,9 C10.4871642,9 10.0644928,8.61395981 10.0067277,8.11662113 L10,8 C10,7.48716416 10.3860402,7.06449284 10.8833789,7.00672773 L11,7 L13,7 C13.5522847,7 14,7.44771525 14,8 C14,11.3137085 11.3137085,14 8,14 C4.6862915,14 2,11.3137085 2,8 C2,7.48716416 2.38604019,7.06449284 2.88337887,7.00672773 L3,7 L5,7 C5.55228475,7 6,7.44771525 6,8 C6,8.51283584 5.61395981,8.93550716 5.11662113,8.99327227 L5,9 L4.126,9 L4.16935611,9.15525286 C4.57036798,10.4867773 5.6466461,11.525712 7.00015643,11.8740228 L6.99992752,5.73239368 C6.40216612,5.38657394 6,4.74025244 6,4 C6,2.8954305 6.8954305,2 8,2 Z"/>
</svg>
