<svg xmlns="http://www.w3.org/2000/svg" width="16" height="16" viewBox="0 0 16 16">
  <path fill-rule="evenodd" d="M12,3 C12,2.44771525 12.4477153,2 13,2 C13.5522847,2 14,2.44771525 14,3 L14,13 C14,13.5522847 13.5522847,14 13,14 C12.4477153,14 12,13.5522847 12,13 L12,3 Z M2,3 L2.00672773,2.88337887 C2.06004937,2.42429701 2.42429701,2.06004937 2.88337887,2.00672773 L3,2 L5,2 L5.11662113,2.00672773 C5.57570299,2.06004937 5.93995063,2.42429701 5.99327227,2.88337887 L6,3 L5.99327227,3.11662113 C5.93995063,3.57570299 5.57570299,3.93995063 5.11662113,3.99327227 L5,4 L4,4 L4,5 L3.99327227,5.11662113 C3.93550716,5.61395981 3.51283584,6 3,6 C2.48716416,6 2.06449284,5.61395981 2.00672773,5.11662113 L2,5 L2,3 Z M2,11 L2.00672773,10.8833789 C2.06449284,10.3860402 2.48716416,10 3,10 C3.47338693,10 3.86994729,10.3289337 3.97358929,10.7707092 L3.99327227,10.8833789 L4,11 L4,12 L5,12 L5.11662113,12.0067277 C5.53744617,12.0556059 5.87858412,12.3657483 5.97358929,12.7707092 L5.99327227,12.8833789 L6,13 L5.99327227,13.1166211 C5.9443941,13.5374462 5.63425172,13.8785841 5.22929083,13.9735893 L5.11662113,13.9932723 L5,14 L3,14 L2.88337887,13.9932723 C2.46255383,13.9443941 2.12141588,13.6342517 2.02641071,13.2292908 L2.00672773,13.1166211 L2,13 L2,11 Z"/>
</svg>
