<svg xmlns="http://www.w3.org/2000/svg" width="16" height="16" viewBox="0 0 16 16">
  <path fill-rule="evenodd" d="M5.29289322,4.29289322 L7.29289322,2.29289322 C7.8954683,1.69031813 8.90718081,2.07233231 8.99401673,2.88636906 L9,3 L9.0011864,4.10025909 C11.2828356,4.56398776 13,6.58146126 13,9 C13,11.7614237 10.7614237,14 8,14 C5.23857625,14 3,11.7614237 3,9 C3,8.44771525 3.44771525,8 4,8 C4.55228475,8 5,8.44771525 5,9 C5,10.6568542 6.34314575,12 8,12 C9.65685425,12 11,10.6568542 11,9 C11,7.69411778 10.1656226,6.58311485 9.00090072,6.17102423 L9,7 C9,7.85216986 8.01448641,8.29743382 7.37747324,7.78322518 L7.29289322,7.70710678 L5.29289322,5.70710678 C4.93240926,5.34662282 4.90467972,4.77939176 5.20970461,4.38710056 L5.29289322,4.29289322 L7.29289322,2.29289322 L5.29289322,4.29289322 Z"/>
</svg>
