<svg xmlns="http://www.w3.org/2000/svg" width="16" height="16" viewBox="0 0 16 16">
  <path d="M5,14 C3.40231912,14 2.09633912,12.75108 2.00509269,11.1762728 L2,11 L2,5 C2,3.40231912 3.24891996,2.09633912 4.82372721,2.00509269 L5,2 L11,2 C12.5976809,2 13.9036609,3.24891996 13.9949073,4.82372721 L14,5 L14,11 C14,12.5976809 12.75108,13.9036609 11.1762728,13.9949073 L11,14 L5,14 Z M7,9 L4,9 L4,11 C4,11.5128358 4.38604019,11.9355072 4.88337887,11.9932723 L5,12 L7,12 L7,9 Z M12,9 L9,9 L9,12 L11,12 C11.5128358,12 11.9355072,11.6139598 11.9932723,11.1166211 L12,11 L12,9 Z M7,4 L5,4 C4.48716416,4 4.06449284,4.38604019 4.00672773,4.88337887 L4,5 L4,7 L7,7 L7,4 Z M11,4 L9,4 L9,7 L12,7 L12,5 C12,4.48716416 11.6139598,4.06449284 11.1166211,4.00672773 L11,4 Z"/>
</svg>
