<svg xmlns="http://www.w3.org/2000/svg" width="16" height="16" viewBox="0 0 16 16">
  <path fill-rule="evenodd" d="M9.20970461,4.38710056 L9.29289322,4.29289322 C9.65337718,3.93240926 10.2206082,3.90467972 10.6128994,4.20970461 L10.7071068,4.29289322 L13.7071068,7.29289322 L13.7485042,7.336853 L13.7485042,7.336853 L13.8036654,7.40469339 L13.8036654,7.40469339 L13.8753288,7.5159379 L13.8753288,7.5159379 L13.9287745,7.62866398 L13.9287745,7.62866398 L13.9641549,7.73400703 L13.9641549,7.73400703 L13.9930928,7.8819045 L13.9930928,7.8819045 L14,8 L14,8 L13.9972121,8.07523854 L13.9972121,8.07523854 L13.9797599,8.20072576 L13.9797599,8.20072576 L13.9502619,8.31214252 L13.9502619,8.31214252 L13.9063266,8.42322155 L13.9063266,8.42322155 L13.8540045,8.52070875 L13.8540045,8.52070875 L13.7803112,8.62544899 L13.7803112,8.62544899 L13.7071068,8.70710678 L10.7071068,11.7071068 C10.3165825,12.0976311 9.68341751,12.0976311 9.29289322,11.7071068 C8.93240926,11.3466228 8.90467972,10.7793918 9.20970461,10.3871006 L9.29289322,10.2928932 L10.585,9 L3,9 C2.44771525,9 2,8.55228475 2,8 C2,7.44771525 2.44771525,7 3,7 L10.585,7 L9.29289322,5.70710678 C8.93240926,5.34662282 8.90467972,4.77939176 9.20970461,4.38710056 L9.29289322,4.29289322 L9.20970461,4.38710056 Z"/>
</svg>
