<svg xmlns="http://www.w3.org/2000/svg" width="16" height="16" viewBox="0 0 16 16">
  <path d="M8.36429421,2.76975403 L7.999,3.06890826 L7.63570579,2.76975403 C6.23370002,1.61768059 4.24138146,1.77285608 3.00518173,3.14099695 C2.35624792,3.85944829 2,4.80013668 2,5.80729569 C2,6.81447434 2.35624948,7.75500293 3.00507237,8.47269811 L8,14 L12.9953079,8.47227737 C13.6437954,7.75495331 14,6.81440374 14,5.80729569 C14,4.80020088 13.6437929,3.85949348 12.9951642,3.14137984 C11.7586638,1.77290615 9.76635102,1.61763865 8.36429421,2.76975403 Z M11.6116677,4.81032808 C11.8710571,5.09750473 12,5.43803017 12,5.80729569 L11.9921118,5.96361638 C11.9605499,6.27241564 11.8342232,6.55730833 11.6121782,6.80292335 L8,10.7995995 L4.38820216,6.80334414 C4.12878697,6.5163921 4,6.17638365 4,5.80729569 C4,5.43800902 4.12895906,5.09748691 4.38867812,4.80994524 C4.92819793,4.21284183 5.85308854,4.14080498 6.476657,4.65321133 L8,5.90499149 L9.523343,4.65321133 C10.1469355,4.1407852 11.0718227,4.21286471 11.6116677,4.81032808 Z"/>
</svg>
