<svg xmlns="http://www.w3.org/2000/svg" width="16" height="16" viewBox="0 0 16 16">
  <path d="M8,2 C11.3137085,2 14,4.6862915 14,8 C14,11.3137085 11.3137085,14 8,14 C4.6862915,14 2,11.3137085 2,8 C2,4.6862915 4.6862915,2 8,2 Z M6,5 C5.48716416,5 5.06449284,5.38604019 5.00672773,5.88337887 L5,6 L5,10 C5,10.5522847 5.44771525,11 6,11 C6.51283584,11 6.93550716,10.6139598 6.99327227,10.1166211 L7,10 L7,6 C7,5.44771525 6.55228475,5 6,5 Z M10,5 C9.48716416,5 9.06449284,5.38604019 9.00672773,5.88337887 L9,6 L9,10 C9,10.5522847 9.44771525,11 10,11 C10.5128358,11 10.9355072,10.6139598 10.9932723,10.1166211 L11,10 L11,6 C11,5.44771525 10.5522847,5 10,5 Z"/>
</svg>
