<svg xmlns="http://www.w3.org/2000/svg" width="16" height="16" viewBox="0 0 16 16">
  <path fill-rule="evenodd" d="M13.7906479,11.6127455 L13.7074527,11.7069488 L11.665582,13.7461577 L11.665582,13.7461577 L11.5720123,13.8202289 L11.5720123,13.8202289 L11.5274746,13.849515 L11.4719482,13.881681 L11.3734056,13.9276834 L11.285524,13.958304 L11.285524,13.958304 L11.2046545,13.9787691 L11.0852841,13.9960858 L10.9999742,13.9997016 L10.915044,13.9961047 L10.8510129,13.9886823 L10.7685896,13.9727845 L10.6547099,13.9384893 L10.6547099,13.9384893 L10.5767982,13.9060323 L10.5767982,13.9060323 L10.4690193,13.847345 L10.4690193,13.847345 L10.4282671,13.820266 L10.4282671,13.820266 L10.370369,13.7742984 L10.2928905,13.7068209 L8.29265357,11.7069488 C7.90209843,11.3164411 7.90209843,10.6833031 8.29265357,10.2927955 C8.653166,9.93232689 9.22044186,9.90459854 9.61276404,10.2096104 L9.70697882,10.2927955 L9.99973722,10.5852984 L9.99997415,3.00029836 C9.99997415,2.48746252 10.3860143,2.06479119 10.883353,2.00702609 L11.0001321,2.00029836 C11.5524169,2.00029836 12.0001321,2.44801361 12.0001321,3.00029836 L11.9997372,10.5852984 L12.2931274,10.2927955 C12.6536399,9.93232689 13.2209157,9.90459854 13.6132379,10.2096104 L13.7074527,10.2927955 C14.0379224,10.623225 14.0887639,11.1273722 13.8599772,11.5112533 L13.7906479,11.6127455 L13.7906479,11.6127455 Z M4.37736904,2.21829836 L4.42860808,2.17928676 L4.50190156,2.13264691 L4.50190156,2.13264691 L4.62216274,2.07382309 L4.62216274,2.07382309 L4.76893059,2.02676825 L4.76893059,2.02676825 L4.85135391,2.01087046 L4.96736333,2.00039328 L5.08562507,2.00346693 L5.20499552,2.02078368 L5.31714169,2.05102882 L5.31714169,2.05102882 L5.37374661,2.07186935 L5.4722892,2.11787175 L5.57235328,2.17932385 L5.57235328,2.17932385 L5.62206557,2.21646031 L5.62206557,2.21646031 L5.70757987,2.29274434 L7.70779367,4.29260399 L7.79098884,4.38680731 C8.07061708,4.74639226 8.07061708,5.252969 7.79098884,5.61255395 L7.70779367,5.70675727 L7.61357889,5.78994233 C7.25395022,6.06953657 6.74731187,6.06953657 6.38768319,5.78994233 L6.29346841,5.70675727 L6.0000782,5.41425441 L6.00047309,12.9992544 C6.00047309,13.5120902 5.6144329,13.9347616 5.11709421,13.9925267 L5.00047309,13.9992544 L4.883694,13.9925267 C4.42461214,13.939205 4.0603645,13.5749574 4.00704286,13.1158755 L4.00031513,12.9992544 L4.0000782,5.41425441 L3.7073198,5.70675727 L3.61310502,5.78994233 C3.22078283,6.09495422 2.65350698,6.06722587 2.29299455,5.70675727 C1.93248212,5.34628868 1.90475039,4.7790818 2.20979937,4.38680731 L2.29299455,4.29260399 L4.29320835,2.29274434 L4.37736904,2.21829836 Z"/>
</svg>
