<svg xmlns="http://www.w3.org/2000/svg" width="16" height="16" viewBox="0 0 16 16">
  <path fill-rule="evenodd" d="M5,2 C5.33287789,2 5.62776756,2.16264686 5.80953368,2.41280522 C6.48688954,2.14642637 7.22634492,2 8,2 C8.77365508,2 9.51311046,2.14642637 10.1921644,2.41307744 C10.3722324,2.16264686 10.6671221,2 11,2 L13,2 C13.5522847,2 14,2.44771525 14,3 L14,5 C14,5.33287789 13.8373531,5.62776756 13.5871948,5.80953368 C13.8535736,6.48688954 14,7.22634492 14,8 C14,11.3137085 11.3137085,14 8,14 C4.6862915,14 2,11.3137085 2,8 C2,7.22634492 2.14642637,6.48688954 2.41307744,5.80783556 C2.16264686,5.62776756 2,5.33287789 2,5 L2,3 C2,2.44771525 2.44771525,2 3,2 L5,2 Z M8,4 C7.44771525,4 7,4.44771525 7,5 L7,8 C7,8.26521649 7.10535684,8.5195704 7.29289322,8.70710678 L9.29289322,10.7071068 C9.68341751,11.0976311 10.3165825,11.0976311 10.7071068,10.7071068 C11.0976311,10.3165825 11.0976311,9.68341751 10.7071068,9.29289322 L9,7.58578644 L9,5 C9,4.44771525 8.55228475,4 8,4 Z"/>
</svg>
