<svg xmlns="http://www.w3.org/2000/svg" width="16" height="16" viewBox="0 0 16 16">
  <path fill-rule="evenodd" d="M7,8 L7,7 L10,7 C10.5522847,7 11,6.55228475 11,6 C11,5.44771525 10.5522847,5 10,5 L6,5 C5.44771525,5 5,5.44771525 5,6 L5,9 C5,9.55228475 5.44771525,10 6,10 L11,10 C12.6568542,10 14,8.65685425 14,7 L14,5 C14,3.34314575 12.6568542,2 11,2 L5,2 C3.34314575,2 2,3.34314575 2,5 L2,10 C2,11.6568542 3.34314575,13 5,13 L11,13 C11.5522847,13 12,12.5522847 12,12 C12,11.4477153 11.5522847,11 11,11 L5,11 C4.44771525,11 4,10.5522847 4,10 L4,5 C4,4.44771525 4.44771525,4 5,4 L11,4 C11.5522847,4 12,4.44771525 12,5 L12,7 C12,7.55228475 11.5522847,8 11,8 L7,8 Z"/>
</svg>
