<svg xmlns="http://www.w3.org/2000/svg" width="16" height="16" viewBox="0 0 16 16">
  <path fill-rule="evenodd" d="M14.6633689,0 C15.4015699,0 16,0.598017483 16,1.33663106 L16,14.6633689 C16,15.4015699 15.4019825,16 14.6633689,16 L1.33663106,16 C0.59843011,16 0,15.4019825 0,14.6633689 L0,1.33663106 C0,0.59843011 0.598017483,0 1.33663106,0 L14.6633689,0 Z M10.815,6 C9.6878125,6 8.91394531,6.49453125 8.56426025,7.07215576 L8.5,7.18866667 L8.5,6.1 L6.33333333,6.1 L6.33333333,13.7666667 L8.66666667,13.7666667 L8.66666667,10.053 C8.66666667,8.80833333 9.125,8.01666667 10.2266667,8.01666667 C10.979193,8.01666667 11.299121,8.67573592 11.330713,9.8521628 L11.3333333,10.053 L11.3333333,13.7666667 L13.6666667,13.7666667 L13.6666667,9.53233333 C13.6666667,7.246 13.1196667,6 10.815,6 Z M4.66666667,6 L2.33333333,6 L2.33333333,13.6666667 L4.66666667,13.6666667 L4.66666667,6 Z M3.5,2 C2.67166667,2 2,2.67166667 2,3.5 C2,4.32833333 2.67166667,5 3.5,5 C4.32833333,5 5,4.32833333 5,3.5 C5,2.67166667 4.32833333,2 3.5,2 Z"/>
</svg>
