<svg xmlns="http://www.w3.org/2000/svg" width="16" height="16" viewBox="0 0 16 16">
  <path fill-rule="evenodd" d="M8,2 C8.55228475,2 9,2.44771525 9,3 L9.0011864,3.10025909 C10.9596464,3.4983019 12.5022112,5.04109656 12.8999167,6.99967905 L13,7 C13.5522847,7 14,7.44771525 14,8 C14,8.55228475 13.5522847,9 13,9 L12.8997136,9.00132053 C12.5016863,10.9594283 10.9593132,12.5017658 9.0011864,12.8997409 L9,13 C9,13.5522847 8.55228475,14 8,14 C7.44771525,14 7,13.5522847 7,13 L6.99981203,12.8999437 C5.04059178,12.5021643 3.49740568,10.9587855 3.09990906,8.99946258 L3,9 C2.44771525,9 2,8.55228475 2,8 C2,7.44771525 2.44771525,7 3,7 L3.100112,6.99953763 C3.49793068,5.04068948 5.04092504,3.49776801 6.99981203,3.10005628 L7,3 C7,2.44771525 7.44771525,2 8,2 Z M8,5 C6.34314575,5 5,6.34314575 5,8 C5,9.65685425 6.34314575,11 8,11 C9.65685425,11 11,9.65685425 11,8 C11,6.34314575 9.65685425,5 8,5 Z"/>
</svg>
