<svg xmlns="http://www.w3.org/2000/svg" width="16" height="16" viewBox="0 0 16 16">
  <path d="M13,9 C13.5522847,9 14,9.44771525 14,10 C14,10.5128358 13.6139598,10.9355072 13.1166211,10.9932723 L13,11 L11,11 L11,13 C11,13.5128358 10.6139598,13.9355072 10.1166211,13.9932723 L10,14 C9.48716416,14 9.06449284,13.6139598 9.00672773,13.1166211 L9,13 L9,10 C9,9.48716416 9.38604019,9.06449284 9.88337887,9.00672773 L10,9 L13,9 Z M6,9 L6.11662113,9.00672773 C6.57570299,9.06004937 6.93995063,9.42429701 6.99327227,9.88337887 L7,10 L7,13 L6.99327227,13.1166211 C6.93995063,13.575703 6.57570299,13.9399506 6.11662113,13.9932723 L6,14 L5.88337887,13.9932723 C5.42429701,13.9399506 5.06004937,13.575703 5.00672773,13.1166211 L5,13 L5,11 L3,11 L2.88337887,10.9932723 C2.38604019,10.9355072 2,10.5128358 2,10 C2,9.48716416 2.38604019,9.06449284 2.88337887,9.00672773 L3,9 L6,9 Z M6,2 C6.51283584,2 6.93550716,2.38604019 6.99327227,2.88337887 L7,3 L7,6 C7,6.51283584 6.61395981,6.93550716 6.11662113,6.99327227 L6,7 L3,7 C2.44771525,7 2,6.55228475 2,6 C2,5.48716416 2.38604019,5.06449284 2.88337887,5.00672773 L3,5 L5,5 L5,3 C5,2.48716416 5.38604019,2.06449284 5.88337887,2.00672773 L6,2 Z M10,2 L10.1166211,2.00672773 C10.575703,2.06004937 10.9399506,2.42429701 10.9932723,2.88337887 L11,3 L11,5 L13,5 L13.1166211,5.00672773 C13.6139598,5.06449284 14,5.48716416 14,6 C14,6.51283584 13.6139598,6.93550716 13.1166211,6.99327227 L13,7 L10,7 L9.88337887,6.99327227 C9.42429701,6.93995063 9.06004937,6.57570299 9.00672773,6.11662113 L9,6 L9,3 L9.00672773,2.88337887 C9.06004937,2.42429701 9.42429701,2.06004937 9.88337887,2.00672773 L10,2 Z"/>
</svg>
