<svg xmlns="http://www.w3.org/2000/svg" width="16" height="16" viewBox="0 0 16 16">
  <path fill-rule="evenodd" d="M11,2 C12.5976809,2 13.9036609,3.24891996 13.9949073,4.82372721 L14,5 L14,11 C14,12.5976809 12.75108,13.9036609 11.1762728,13.9949073 L11,14 L5,14 C3.40231912,14 2.09633912,12.75108 2.00509269,11.1762728 L2,11 L2,5 C2,3.40231912 3.24891996,2.09633912 4.82372721,2.00509269 L5,2 L11,2 Z M7,4 L5,4 C4.48716416,4 4.06449284,4.49633739 4.00672773,5.13577284 L4,5.28571429 L4,7 L4,9 L4,11 C4,11.5128358 4.49633739,11.9355072 5.13577284,11.9932723 L5.28571429,12 L7,12 L9,12 L11,12 C11.5128358,12 11.9355072,11.6139598 11.9932723,11.1166211 L12,11 L12,9 L12,7 L12,5.28571429 C12,4.62635392 11.5036626,4.08291936 10.8642272,4.00864994 L10.7142857,4 L9,4 L7,4 Z M8,5 C8.51283584,5 8.93550716,5.38604019 8.99327227,5.88337887 L9,6 L9,7 L10,7 C10.5522847,7 11,7.44771525 11,8 C11,8.51283584 10.6139598,8.93550716 10.1166211,8.99327227 L10,9 L9,9 L9,10 C9,10.5522847 8.55228475,11 8,11 C7.48716416,11 7.06449284,10.6139598 7.00672773,10.1166211 L7,10 L7,9 L6,9 C5.44771525,9 5,8.55228475 5,8 C5,7.48716416 5.38604019,7.06449284 5.88337887,7.00672773 L6,7 L7,7 L7,6 C7,5.44771525 7.44771525,5 8,5 Z"/>
</svg>
