<svg xmlns="http://www.w3.org/2000/svg" width="16" height="16" viewBox="0 0 16 16">
  <path fill-rule="evenodd" d="M3,11 C3.55228475,11 4,11.4477153 4,12 C4,12.5522847 3.55228475,13 3,13 C2.44771525,13 2,12.5522847 2,12 C2,11.4477153 2.44771525,11 3,11 Z M13,11 C13.5522847,11 14,11.4477153 14,12 C14,12.5522847 13.5522847,13 13,13 L7,13 C6.44771525,13 6,12.5522847 6,12 C6,11.4477153 6.44771525,11 7,11 L13,11 Z M3,7 C3.55228475,7 4,7.44771525 4,8 C4,8.55228475 3.55228475,9 3,9 C2.44771525,9 2,8.55228475 2,8 C2,7.44771525 2.44771525,7 3,7 Z M13,7 C13.5522847,7 14,7.44771525 14,8 C14,8.55228475 13.5522847,9 13,9 L7,9 C6.44771525,9 6,8.55228475 6,8 C6,7.44771525 6.44771525,7 7,7 L13,7 Z M3,3 C3.55228475,3 4,3.44771525 4,4 C4,4.55228475 3.55228475,5 3,5 C2.44771525,5 2,4.55228475 2,4 C2,3.44771525 2.44771525,3 3,3 Z M13,3 C13.5522847,3 14,3.44771525 14,4 C14,4.55228475 13.5522847,5 13,5 L7,5 C6.44771525,5 6,4.55228475 6,4 C6,3.44771525 6.44771525,3 7,3 L13,3 Z"/>
</svg>
