<svg xmlns="http://www.w3.org/2000/svg" width="16" height="16" viewBox="0 0 16 16">
  <path fill-rule="evenodd" d="M8.61289944,10.2097046 L8.70710678,10.2928932 L10.7071068,12.2928932 C11.0976311,12.6834175 11.0976311,13.3165825 10.7071068,13.7071068 C10.3466228,14.0675907 9.77939176,14.0953203 9.38710056,13.7902954 L9.29289322,13.7071068 L8,12.4142136 L6.70710678,13.7071068 C6.31658249,14.0976311 5.68341751,14.0976311 5.29289322,13.7071068 C4.93240926,13.3466228 4.90467972,12.7793918 5.20970461,12.3871006 L5.29289322,12.2928932 L7.29289322,10.2928932 C7.62333685,9.96244959 8.12750547,9.91161211 8.51140295,10.1403808 L8.61289944,10.2097046 Z M13,7 C13.5522847,7 14,7.44771525 14,8 C14,8.51283584 13.6139598,8.93550716 13.1166211,8.99327227 L13,9 L3,9 C2.44771525,9 2,8.55228475 2,8 C2,7.48716416 2.38604019,7.06449284 2.88337887,7.00672773 L3,7 L13,7 Z M6.70710678,2.29289322 L8,3.58578644 L9.29289322,2.29289322 C9.68341751,1.90236893 10.3165825,1.90236893 10.7071068,2.29289322 C11.0976311,2.68341751 11.0976311,3.31658249 10.7071068,3.70710678 L8.70710678,5.70710678 C8.31658249,6.09763107 7.68341751,6.09763107 7.29289322,5.70710678 L5.29289322,3.70710678 C4.90236893,3.31658249 4.90236893,2.68341751 5.29289322,2.29289322 C5.68341751,1.90236893 6.31658249,1.90236893 6.70710678,2.29289322 Z"/>
</svg>
