<svg xmlns="http://www.w3.org/2000/svg" width="16" height="16" viewBox="0 0 16 16">
  <path fill-rule="evenodd" d="M13,10 C13.4733869,10 13.8699473,10.3289337 13.9735893,10.7707092 L13.9932723,10.8833789 L14,11 L14,13 L13.9932723,13.1166211 L13.9735893,13.2292908 C13.8880846,13.5937556 13.6032124,13.8814174 13.2403116,13.9709373 L13.1166211,13.9932723 L13,14 L11,14 L10.8833789,13.9932723 L10.7707092,13.9735893 C10.4062444,13.8880846 10.1185826,13.6032124 10.0290627,13.2403116 L10.0067277,13.1166211 L10,13 L10.0067277,12.8833789 L10.0264107,12.7707092 C10.1119154,12.4062444 10.3967876,12.1185826 10.7596884,12.0290627 L10.8833789,12.0067277 L11,12 L12,12 L12,11 L12.0067277,10.8833789 L12.0264107,10.7707092 C12.1300527,10.3289337 12.5266131,10 13,10 Z M13,2 C13.5522847,2 14,2.44771525 14,3 C14,3.51283584 13.6139598,3.93550716 13.1166211,3.99327227 L13,4 L5,4 C4.48716416,4 4.06449284,4.38604019 4.00672773,4.88337887 L4,5 L4,13 C4,13.5522847 3.55228475,14 3,14 C2.48716416,14 2.06449284,13.6139598 2.00672773,13.1166211 L2,13 L2,5 C2,3.40231912 3.24891996,2.09633912 4.82372721,2.00509269 L5,2 L13,2 Z"/>
</svg>
