<svg xmlns="http://www.w3.org/2000/svg" width="16" height="16" viewBox="0 0 16 16">
  <path fill-rule="evenodd" d="M3,2 L5,2 C6.0543618,2 6.91816512,2.81587779 6.99451426,3.85073766 L7,4 L7,6 C7,6.51283584 6.61395981,6.93550716 6.11662113,6.99327227 L6,7 L5.06216699,7 L5.23607743,7.30515351 C6.07451139,8.71522392 7.28477608,9.92548861 8.69484649,10.7639226 L9,10.937833 L9,10 C9,9.48716416 9.38604019,9.06449284 9.88337887,9.00672773 L10,9 L12,9 C13.0543618,9 13.9181651,9.81587779 13.9945143,10.8507377 L14,11 L14,13 C14,13.5522847 13.5522847,14 13,14 C7.23169261,14 2,8.76830739 2,3 C2,2.48716416 2.38604019,2.06449284 2.88337887,2.00672773 L3,2 L5,2 L3,2 Z M12.6939806,2 L14,3.30601937 L12.8067456,4.5 L14,5.69398063 L12.6939806,7 L11.5,5.80674565 L10.3060194,7 L9,5.69398063 L10.1932544,4.5 L9,3.30601937 L10.3060194,2 L11.5,3.19325435 L12.6939806,2 Z"/>
</svg>
