<svg xmlns="http://www.w3.org/2000/svg" width="16" height="16" viewBox="0 0 16 16">
  <path fill-rule="evenodd" d="M12,3 C13.1045695,3 14,3.8954305 14,5 L14,11 C14,12.1045695 13.1045695,13 12,13 L4,13 C2.8954305,13 2,12.1045695 2,11 L2,5 C2,3.8954305 2.8954305,3 4,3 L12,3 Z M12,7 L10,7 L10,9 L8,9 L8,11 L11,11 L11.1166211,10.9932723 C11.575703,10.9399506 11.9399506,10.575703 11.9932723,10.1166211 L12,10 L12,7 Z M8,5 L5,5 L4.88337887,5.00672773 C4.42429701,5.06004937 4.06004937,5.42429701 4.00672773,5.88337887 L4,6 L4,9 L6,9 L6,7 L8,7 L8,5 Z"/>
</svg>
