<svg xmlns="http://www.w3.org/2000/svg" width="16" height="16" viewBox="0 0 16 16">
  <path fill-rule="evenodd" d="M12,2 C12.5522847,2 13,2.44771525 13,3 L13,13 C13,13.5522847 12.5522847,14 12,14 C11.4477153,14 11,13.5522847 11,13 L11,3 C11,2.44771525 11.4477153,2 12,2 Z M4,3 C4.55228475,3 5,3.44771525 5,4 L5,12 C5,12.5522847 4.55228475,13 4,13 C3.44771525,13 3,12.5522847 3,12 L3,4 C3,3.44771525 3.44771525,3 4,3 Z M8,6 C8.55228475,6 9,6.44771525 9,7 L9,9 C9,9.55228475 8.55228475,10 8,10 C7.44771525,10 7,9.55228475 7,9 L7,7 C7,6.44771525 7.44771525,6 8,6 Z"/>
</svg>
