<svg xmlns="http://www.w3.org/2000/svg" width="16" height="16" viewBox="0 0 16 16">
  <path fill-rule="evenodd" d="M8,2 C9.59768088,2 10.9036609,3.24891996 10.9949073,4.82372721 L11,5 L11,7 C11.5522847,7 12,7.44771525 12,8 L12,13 C12,13.5522847 11.5522847,14 11,14 L5,14 C4.44771525,14 4,13.5522847 4,13 L4,8 C4,7.44771525 4.44771525,7 5,7 L5,5 C5,3.34314575 6.34314575,2 8,2 Z M8,4 C7.48716416,4 7.06449284,4.38604019 7.00672773,4.88337887 L7,5 L7,7 L9,7 L9,5 C9,4.44771525 8.55228475,4 8,4 Z"/>
</svg>
