<svg xmlns="http://www.w3.org/2000/svg" width="16" height="16" viewBox="0 0 16 16">
  <path fill-rule="evenodd" d="M2,8 C2,4.6862915 4.6862915,2 8,2 C11.3137085,2 14,4.6862915 14,8 C14,11.3137085 11.3137085,14 8,14 C4.6862915,14 2,11.3137085 2,8 Z M4,8 C4,8.51283584 4.38604019,8.93550716 4.88337887,8.99327227 L5,9 L8.584,9 L8.29289322,9.29289322 L8.20970461,9.38710056 C7.90467972,9.77939176 7.93240926,10.3466228 8.29289322,10.7071068 C8.65337718,11.0675907 9.22060824,11.0953203 9.61289944,10.7902954 L9.70710678,10.7071068 L11.7071068,8.70710678 L11.7803112,8.62544899 L11.8540045,8.52070875 L11.9063266,8.42322155 L11.9502619,8.31214252 L11.9797599,8.20072576 L11.9972121,8.07523854 L12,8 L11.9930928,7.8819045 L11.9641549,7.73400703 L11.9287745,7.62866398 L11.8753288,7.5159379 L11.8036654,7.40469339 L11.7485042,7.336853 L11.7071068,7.29289322 L9.70710678,5.29289322 L9.61289944,5.20970461 C9.25329917,4.93009846 8.74670083,4.93009846 8.38710056,5.20970461 L8.29289322,5.29289322 L8.20970461,5.38710056 L8.14038077,5.48859705 C7.93448897,5.83410478 7.95507815,6.27703214 8.20214831,6.60305594 L8.29289322,6.70710678 L8.586,7 L5,7 C4.44771525,7 4,7.44771525 4,8 Z"/>
</svg>
