<svg xmlns="http://www.w3.org/2000/svg" width="16" height="16" viewBox="0 0 16 16">
  <path fill-rule="evenodd" d="M5,2 L11,2 C11.5128358,2 11.9355072,2.38604019 11.9932723,2.88337887 L12,3 L12,13 C12,13.5128358 11.6139598,13.9355072 11.1166211,13.9932723 L11,14 L5,14 C4.48716416,14 4.06449284,13.6139598 4.00672773,13.1166211 L4,13 L4,3 C4,2.48716416 4.38604019,2.06449284 4.88337887,2.00672773 L5,2 L11,2 L5,2 Z M8,10 C7.44771525,10 7,10.4477153 7,11 C7,11.5522847 7.44771525,12 8,12 C8.55228475,12 9,11.5522847 9,11 C9,10.4477153 8.55228475,10 8,10 Z"/>
</svg>
