<svg xmlns="http://www.w3.org/2000/svg" width="16" height="16" viewBox="0 0 16 16">
  <path fill-rule="evenodd" d="M8,2 C9.1045695,2 10,2.8954305 10,4 L10,7.172 L10.8291885,8.00033117 C10.9178213,7.74964333 10.9740864,7.4836354 10.9929465,7.20734913 L11.0067277,6.88337887 C11.0644928,6.38604019 11.4871642,6 12,6 C12.5522847,6 13,6.44771525 13,7 C13,7.91154525 12.7560717,8.76611798 12.3299291,9.50200413 L12.7068543,9.87842716 C13.0973786,10.2689514 13.0973786,10.9021164 12.7068543,11.2926407 C12.31633,11.683165 11.683165,11.683165 11.2926407,11.2926407 L11.0001449,11.0002573 C10.4190135,11.4367949 9.73966661,11.7496502 9.0011864,11.8997409 L9,13 C9,13.5522847 8.55228475,14 8,14 C7.44771525,14 7,13.5522847 7,13 L6.99981203,11.8999437 C4.71766536,11.4366008 3,9.4188915 3,7 C3,6.44771525 3.44771525,6 4,6 C4.55228475,6 5,6.44771525 5,7 C5,7.90606258 5.40167141,8.71830978 6.03666096,9.26838832 C6.01263472,9.18260499 6,9.09277799 6,9 L6,6 L3.75735931,3.75735931 C3.36683502,3.36683502 3.36683502,2.73367004 3.75735931,2.34314575 C4.1478836,1.95262146 4.78104858,1.95262146 5.17157288,2.34314575 L6.12660011,3.29818676 C6.41083446,2.53980585 7.14237802,2 8,2 Z"/>
</svg>
