<svg xmlns="http://www.w3.org/2000/svg" width="16" height="16" viewBox="0 0 16 16">
  <path d="M13,9 C13.5128358,9 13.9355072,9.38604019 13.9932723,9.88337887 L14,10 L14,13 C14,13.5128358 13.6139598,13.9355072 13.1166211,13.9932723 L13,14 L10,14 C9.44771525,14 9,13.5522847 9,13 C9,12.4871642 9.38604019,12.0644928 9.88337887,12.0067277 L10,12 L12,12 L12,10 C12,9.48716416 12.3860402,9.06449284 12.8833789,9.00672773 L13,9 Z M3,9 L3.11662113,9.00672773 C3.57570299,9.06004937 3.93995063,9.42429701 3.99327227,9.88337887 L4,10 L4,12 L6,12 L6.11662113,12.0067277 C6.61395981,12.0644928 7,12.4871642 7,13 C7,13.5128358 6.61395981,13.9355072 6.11662113,13.9932723 L6,14 L3,14 L2.88337887,13.9932723 C2.42429701,13.9399506 2.06004937,13.575703 2.00672773,13.1166211 L2,13 L2,10 L2.00672773,9.88337887 C2.06004937,9.42429701 2.42429701,9.06004937 2.88337887,9.00672773 L3,9 Z M6,2 C6.55228475,2 7,2.44771525 7,3 C7,3.51283584 6.61395981,3.93550716 6.11662113,3.99327227 L6,4 L4,4 L4,6 C4,6.51283584 3.61395981,6.93550716 3.11662113,6.99327227 L3,7 C2.48716416,7 2.06449284,6.61395981 2.00672773,6.11662113 L2,6 L2,3 C2,2.48716416 2.38604019,2.06449284 2.88337887,2.00672773 L3,2 L6,2 Z M13,2 L13.1166211,2.00672773 C13.575703,2.06004937 13.9399506,2.42429701 13.9932723,2.88337887 L14,3 L14,6 L13.9932723,6.11662113 C13.9399506,6.57570299 13.575703,6.93995063 13.1166211,6.99327227 L13,7 L12.8833789,6.99327227 C12.424297,6.93995063 12.0600494,6.57570299 12.0067277,6.11662113 L12,6 L12,4 L10,4 L9.88337887,3.99327227 C9.38604019,3.93550716 9,3.51283584 9,3 C9,2.48716416 9.38604019,2.06449284 9.88337887,2.00672773 L10,2 L13,2 Z"/>
</svg>
