<svg xmlns="http://www.w3.org/2000/svg" width="16" height="16" viewBox="0 0 16 16">
  <path fill-rule="evenodd" d="M7.29289322,6.29289322 C7.65337718,5.93240926 8.22060824,5.90467972 8.61289944,6.20970461 L8.70710678,6.29289322 L11.7071068,9.29289322 C12.3096819,9.8954683 11.9276677,10.9071808 11.1136309,10.9940167 L11,11 L10,11 L10,13 C10,13.4733869 9.67106635,13.8699473 9.22929083,13.9735893 L9.11662113,13.9932723 L9,14 L7,14 C6.48716416,14 6.06449284,13.6139598 6.00672773,13.1166211 L6,13 L6,11 L5,11 C4.18656514,11 3.74388544,10.1020424 4.15255071,9.46637352 L4.21677482,9.37747324 L4.29289322,9.29289322 L7.29289322,6.29289322 Z M13,2 C13.5522847,2 14,2.44771525 14,3 C14,3.55228475 13.5522847,4 13,4 L3,4 C2.44771525,4 2,3.55228475 2,3 C2,2.44771525 2.44771525,2 3,2 L13,2 Z"/>
</svg>
