<svg xmlns="http://www.w3.org/2000/svg" width="16" height="16" viewBox="0 0 16 16">
  <path fill-rule="evenodd" d="M4.49982888,11 C5.3282245,11 5.99977184,11.6715729 5.99977184,12.5 C5.99977184,13.3284271 5.3282245,14 4.49982888,14 C3.67143326,14 2.99988592,13.3284271 2.99988592,12.5 C2.99988592,11.6715729 3.67143326,11 4.49982888,11 Z M11.4995627,11 C12.3279583,11 12.9995056,11.6715729 12.9995056,12.5 C12.9995056,13.3284271 12.3279583,14 11.4995627,14 C10.6711671,14 9.99961973,13.3284271 9.99961973,12.5 C9.99961973,11.6715729 10.6711671,11 11.4995627,11 Z M2.99996197,2 L4.99988592,2 C5.51270226,2 5.9353575,2.38604019 5.99312042,2.88337887 L5.99984789,3 L5.99984789,4 L12.9994296,4 C13.6247036,4 14.0863609,4.56329294 13.9863485,5.16214792 L13.960917,5.27472113 L12.3754223,8.82416338 C12.024189,10.0535269 10.9356888,10.9184525 9.6725377,10.9945421 L9.49096019,11 L6.99980986,11 C5.40218974,11 4.0962594,9.75108004 4.00501645,8.17627279 L3.99992395,8 L3.99992395,4 L2.99996197,4 C2.44769822,4 2,3.55228475 2,3 C2,2.48716416 2.38602551,2.06449284 2.88334528,2.00672773 L2.99996197,2 L4.99988592,2 L2.99996197,2 Z"/>
</svg>
