<svg xmlns="http://www.w3.org/2000/svg" width="16" height="16" viewBox="0 0 16 16">
  <path fill-rule="evenodd" d="M8,2 C11.3137085,2 14,4.6862915 14,8 C14,11.3137085 11.3137085,14 8,14 C4.6862915,14 2,11.3137085 2,8 C2,4.6862915 4.6862915,2 8,2 Z M8,4 L7.96118226,4.00594718 C7.81354587,4.0496878 7.6096289,4.33611348 7.41777349,4.91167969 C7.15612128,5.69663632 7,6.80397283 7,8 C7,9.19602717 7.15612128,10.3033637 7.41777349,11.0883203 C7.6270703,11.7162107 7.85072137,12 8,12 C8.14927863,12 8.3729297,11.7162107 8.58222651,11.0883203 C8.84387872,10.3033637 9,9.19602717 9,8 C9,6.80397283 8.84387872,5.69663632 8.58222651,4.91167969 C8.3903711,4.33611348 8.18645413,4.0496878 8.03881774,4.00594718 L8,4 Z M5.41674858,4.94736857 L5.37570619,4.98113257 C4.53281815,5.71447653 4,6.79501509 4,8 C4,9.22404524 4.54980759,10.319676 5.41593621,11.0534058 C5.15197668,10.1583217 5,9.11465689 5,8 C5,6.88534311 5.15197668,5.84167833 5.41674858,4.94736857 Z M10.5840638,4.94659417 L10.5904121,4.97168511 C10.8507616,5.860574 11,6.8954305 11,8 C11,9.11465689 10.8480233,10.1583217 10.5832514,11.0526314 C11.4501924,10.319676 12,9.22404524 12,8 C12,6.77595476 11.4501924,5.68032396 10.5840638,4.94659417 Z"/>
</svg>
