<svg xmlns="http://www.w3.org/2000/svg" width="16" height="16" viewBox="0 0 16 16">
  <path fill-rule="evenodd" d="M11.75,2 C12.9926407,2 14,3.00735931 14,4.25 L14,11.75 C14,12.9926407 12.9926407,14 11.75,14 L4.25,14 C3.00735931,14 2,12.9926407 2,11.75 L2,4.25 C2,3.00735931 3.00735931,2 4.25,2 L11.75,2 Z M8,4 C7.48716416,4 7.06449284,4.38604019 7.00672773,4.88337887 L7,5 L7,11 C7,11.5522847 7.44771525,12 8,12 C8.51283584,12 8.93550716,11.6139598 8.99327227,11.1166211 L9,11 L9,5 C9,4.44771525 8.55228475,4 8,4 Z M11,6 C10.4871642,6 10.0644928,6.38604019 10.0067277,6.88337887 L10,7 L10,11 C10,11.5522847 10.4477153,12 11,12 C11.5128358,12 11.9355072,11.6139598 11.9932723,11.1166211 L12,11 L12,7 C12,6.44771525 11.5522847,6 11,6 Z M5,8 C4.48716416,8 4.06449284,8.38604019 4.00672773,8.88337887 L4,9 L4,11 C4,11.5522847 4.44771525,12 5,12 C5.51283584,12 5.93550716,11.6139598 5.99327227,11.1166211 L6,11 L6,9 C6,8.44771525 5.55228475,8 5,8 Z"/>
</svg>
