<svg xmlns="http://www.w3.org/2000/svg" width="16" height="16" viewBox="0 0 16 16">
  <path fill-rule="evenodd" d="M9,12 C9.55228475,12 10,12.4477153 10,13 C10,13.5522847 9.55228475,14 9,14 L7,14 C6.44771525,14 6,13.5522847 6,13 C6,12.4477153 6.44771525,12 7,12 L9,12 Z M7.99983869,2 C10.3436161,2 12,3.61049104 12,6.16710366 C12,7.27587031 11.617579,8.1759483 10.8991167,9.17841104 L10.3043993,9.97901855 L10.2252661,10.0930076 L10.1579572,10.1987668 L10.0928214,10.3138033 C10.0633693,10.7018724 9.77477684,11 9.42857143,11 L6.57142857,11 C6.22522316,11 5.93663069,10.7018724 5.90717864,10.3138033 L5.84203924,10.1987474 L5.77472785,10.09298 L5.77472785,10.09298 L5.69559409,9.97898594 L5.10087457,9.17834359 C4.38246776,8.17591524 4,7.27586502 4,6.16714756 C4,3.61055104 5.65633342,2 7.99983869,2 Z"/>
</svg>
