<svg xmlns="http://www.w3.org/2000/svg" width="16" height="16" viewBox="0 0 16 16">
  <path fill-rule="evenodd" d="M3.75735931,3.75735931 L12.2426407,12.2426407 C12.633165,12.633165 12.633165,13.26633 12.2426407,13.6568542 C11.8521164,14.0473785 11.2189514,14.0473785 10.8284271,13.6568542 L9.82680927,12.6557666 C9.56188692,12.7597967 9.28593248,12.8418683 9.0011864,12.8997409 L9,13 C9,13.5522847 8.55228475,14 8,14 C7.44771525,14 7,13.5522847 7,13 L6.99981203,12.8999437 C5.04059178,12.5021643 3.49740568,10.9587855 3.09990906,8.99946258 L3,9 C2.44771525,9 2,8.55228475 2,8 C2,7.44771525 2.44771525,7 3,7 L3.100112,6.99953763 C3.15802046,6.71439797 3.24019423,6.43807145 3.3443839,6.17280747 L2.34314575,5.17157288 C1.95262146,4.78104858 1.95262146,4.1478836 2.34314575,3.75735931 C2.73367004,3.36683502 3.36683502,3.36683502 3.75735931,3.75735931 Z M5,8 C5,9.65685425 6.34314575,11 8,11 L8.166,10.994 L5.00455781,7.83321623 L5,8 L5,8 Z M8,2 C8.55228475,2 9,2.44771525 9,3 L9.0011864,3.10025909 C10.9596464,3.4983019 12.5022112,5.04109656 12.8999167,6.99967905 L13,7 C13.5522847,7 14,7.44771525 14,8 C14,8.55228475 13.5522847,9 13,9 L12.8997136,9.00132053 C12.8418161,9.28614919 12.7597054,9.56218059 12.6556241,9.82717225 L10.9954127,8.16732152 L11,8 L11,8 C11,6.34314575 9.65685425,5 8,5 L7.832,5.005 L6.1724221,3.34453529 C6.43788891,3.24024039 6.71443716,3.15799578 6.99981203,3.10005628 L7,3 C7,2.44771525 7.44771525,2 8,2 Z"/>
</svg>
