<svg xmlns="http://www.w3.org/2000/svg" width="16" height="16" viewBox="0 0 16 16">
  <path fill-rule="evenodd" d="M3,4 L6,4 C6.51283584,4 6.93550716,4.38604019 6.99327227,4.88337887 L7,5 L7,7 C7,7.07165473 6.99229872,7.14299706 6.97709377,7.21280927 L6.9486833,7.31622777 L5.9486833,11.3162278 C5.81256925,11.7245699 5.43043041,12 5,12 C4.35759273,12 3.89286934,11.4076597 4.02036916,10.7981217 L4.0513167,10.6837722 L4.61257411,8 L3,8 C2.48716416,8 2.06449284,7.61395981 2.00672773,7.11662113 L2,7 L2,5 C2,4.48716416 2.38604019,4.06449284 2.88337887,4.00672773 L3,4 L6,4 L3,4 Z M10,4 L13,4 C13.5128358,4 13.9355072,4.38604019 13.9932723,4.88337887 L14,5 L14,7 C14,7.07165473 13.9922987,7.14299706 13.9770938,7.21280927 L13.9486833,7.31622777 L12.9486833,11.3162278 C12.8125693,11.7245699 12.4304304,12 12,12 C11.3575927,12 10.8928693,11.4076597 11.0203692,10.7981217 L11.0513167,10.6837722 L11.6125741,8 L10,8 C9.48716416,8 9.06449284,7.61395981 9.00672773,7.11662113 L9,7 L9,5 C9,4.48716416 9.38604019,4.06449284 9.88337887,4.00672773 L10,4 L13,4 L10,4 Z"/>
</svg>
