<svg xmlns="http://www.w3.org/2000/svg" width="16" height="16" viewBox="0 0 16 16">
  <path fill-rule="evenodd" d="M4,12 L4,14 L3,14 C2.48716416,14 2.06449284,13.6139598 2.00672773,13.1166211 L2,13 L2,12 L4,12 Z M10,9 L10,14 L6,14 L6,9 L10,9 Z M14,12 L14,13 C14,13.5128358 13.6139598,13.9355072 13.1166211,13.9932723 L13,14 L12,14 L12,12 L14,12 Z M14,6 L14,10 L12,10 L12,6 L14,6 Z M10,2 L10,7 L6,7 L6,2 L10,2 Z M13,2 C13.5128358,2 13.9355072,2.38604019 13.9932723,2.88337887 L14,3 L14,4 L12,4 L12,2 L13,2 Z M4,2 L4,4 L2,4 L2,3 C2,2.48716416 2.38604019,2.06449284 2.88337887,2.00672773 L3,2 L4,2 Z M2,6 L4,6 L4,10 L2,10 L2,6 Z"/>
</svg>
