<svg xmlns="http://www.w3.org/2000/svg" width="16" height="16" viewBox="0 0 16 16">
  <path fill-rule="evenodd" d="M13.2,2 C12.6877686,2 12.1965169,2.20348313 11.8343146,2.56568542 L10.5202856,3.87971435 C10.3215814,4.07841863 10.0331917,4.15829793 9.76057172,4.09014293 L4.12952584,2.91089296 C3.799135,2.84170272 3.45613571,2.94386429 3.21744617,3.18255383 L2.7848466,3.6151534 C2.47242717,3.92757283 2.47242717,4.43410481 2.7848466,4.74652425 C2.84564766,4.8073253 2.91585322,4.85792661 2.99276115,4.89638058 L8,6.4 L4.8,9.6 L3.29442719,9.6 C2.99140954,9.6 2.71439905,9.7712019 2.57888544,10.0422291 L2,11.2 L4.2,11.8 L4.8,14 L5.95777088,13.4211146 C6.2287981,13.285601 6.4,13.0085905 6.4,12.7055728 L6.4,11.2 L9.6,8 L11.1036194,13.0072388 C11.3012108,13.4024216 11.7817493,13.5626011 12.1769321,13.3650097 C12.25384,13.3265558 12.3240455,13.2759545 12.3848466,13.2151534 L12.8174462,12.7825538 C13.0561357,12.5438643 13.1582973,12.200865 13.089107,11.8704742 L11.9098571,6.23942828 C11.8417021,5.96680826 11.9215814,5.67841863 12.1202856,5.47971435 L13.4343146,4.16568542 C13.7965169,3.80348313 14,3.3122314 14,2.8 C14,2.3581722 13.6418278,2 13.2,2 Z"/>
</svg>
