<svg xmlns="http://www.w3.org/2000/svg" width="16" height="16" viewBox="0 0 16 16">
  <path fill-rule="evenodd" d="M8,14 C11.3137085,14 14,11.3137085 14,8 C14,4.6862915 11.3137085,2 8,2 C4.6862915,2 2,4.6862915 2,8 C2,11.3137085 4.6862915,14 8,14 Z M8,12 C7.48716416,12 7.06449284,11.6139598 7.00672773,11.1166211 L7,11 L7,7.416 L6.70710678,7.70710678 L6.61289944,7.79029539 C6.22060824,8.09532028 5.65337718,8.06759074 5.29289322,7.70710678 C4.93240926,7.34662282 4.90467972,6.77939176 5.20970461,6.38710056 L5.29289322,6.29289322 L7.29289322,4.29289322 L7.37455101,4.21968877 L7.47929125,4.14599545 L7.57677845,4.09367336 L7.68785748,4.04973809 L7.79927424,4.02024007 L7.92476146,4.00278786 L8,4 L8.1180955,4.00690716 L8.26599297,4.03584514 L8.37133602,4.07122549 L8.4840621,4.12467117 L8.59530661,4.19633458 L8.663147,4.2514958 L8.70710678,4.29289322 L10.7071068,6.29289322 L10.7902954,6.38710056 C11.0699015,6.74670083 11.0699015,7.25329917 10.7902954,7.61289944 L10.7071068,7.70710678 L10.6128994,7.79029539 L10.5114029,7.85961923 C10.1658952,8.06551103 9.72296786,8.04492185 9.39694406,7.79785169 L9.29289322,7.70710678 L9,7.414 L9,11 C9,11.5522847 8.55228475,12 8,12 Z"/>
</svg>
