<svg xmlns="http://www.w3.org/2000/svg" width="16" height="16" viewBox="0 0 16 16">
  <path d="M12,2 C13.0543618,2 13.9181651,2.81587779 13.9945143,3.85073766 L14,4 L14,10 C14,11.0543618 13.1841222,11.9181651 12.1492623,11.9945143 L12,12 L11,12 L11,10 L12,10 L12,4 L4,4 L4,10 L5,10 L5,12 L4,12 C2.9456382,12 2.08183488,11.1841222 2.00548574,10.1492623 L2,10 L2,4 C2,2.9456382 2.81587779,2.08183488 3.85073766,2.00548574 L4,2 L12,2 Z M7.96675322,5.00054939 L8.082,5.003 L8.20072576,5.02024007 L8.20072576,5.02024007 L8.31214252,5.04973809 L8.31214252,5.04973809 L8.42322155,5.09367336 L8.52070875,5.14599545 L8.52070875,5.14599545 L8.5951593,5.19631351 L8.5951593,5.19631351 L8.70710678,5.29289322 L10.7071068,7.29289322 C11.0976311,7.68341751 11.0976311,8.31658249 10.7071068,8.70710678 C10.3466228,9.06759074 9.77939176,9.09532028 9.38710056,8.79029539 L9.29289322,8.70710678 L9,8.415 L9,13 C9,13.5522847 8.55228475,14 8,14 C7.44771525,14 7,13.5522847 7,13 L7,8.416 L6.70710678,8.70710678 C6.34662282,9.06759074 5.77939176,9.09532028 5.38710056,8.79029539 L5.29289322,8.70710678 C4.93240926,8.34662282 4.90467972,7.77939176 5.20970461,7.38710056 L5.29289322,7.29289322 L7.29289322,5.29289322 L7.336853,5.2514958 L7.336853,5.2514958 L7.40469339,5.19633458 L7.40469339,5.19633458 L7.5159379,5.12467117 L7.57690085,5.09365378 L7.57690085,5.09365378 L7.65834962,5.05988586 L7.65834962,5.05988586 L7.73400703,5.03584514 L7.73400703,5.03584514 L7.88252582,5.00683422 L7.88252582,5.00683422 L7.96675322,5.00054939 L7.96675322,5.00054939 Z"/>
</svg>
