<svg xmlns="http://www.w3.org/2000/svg" width="16" height="16" viewBox="0 0 16 16">
  <path d="M3.61289944,4.20970461 L3.70710678,4.29289322 L6,6.585 L7.29289322,5.29289322 C7.65337718,4.93240926 8.22060824,4.90467972 8.61289944,5.20970461 L8.70710678,5.29289322 L11.5,8.085 L12.2928932,7.29289322 C12.8954683,6.69031813 13.9071808,7.07233231 13.9940167,7.88636906 L14,8 L13.9982503,11.0593845 L13.9982503,11.0593845 L13.989279,11.1469496 L13.989279,11.1469496 L13.964279,11.2658396 L13.964279,11.2658396 L13.9401054,11.3416665 L13.9401054,11.3416665 L13.9063266,11.4232215 L13.9063266,11.4232215 L13.8540045,11.5207088 L13.8540045,11.5207088 L13.7870723,11.6170223 L13.7870723,11.6170223 L13.7070891,11.7071408 L13.7070891,11.7071408 C13.6717127,11.7425008 13.6343256,11.774687 13.5953066,11.8036654 L13.4840621,11.8753288 L13.4840621,11.8753288 L13.371336,11.9287745 L13.371336,11.9287745 L13.265993,11.9641549 L13.265993,11.9641549 L13.1484669,11.9889822 L13.1484669,11.9889822 L13.0892501,11.9960336 L13,12 L10,12 C9.14783014,12 8.70256618,11.0144864 9.21677482,10.3774732 L9.29289322,10.2928932 L10.085,9.5 L8,7.415 L6.70710678,8.70710678 C6.34662282,9.06759074 5.77939176,9.09532028 5.38710056,8.79029539 L5.29289322,8.70710678 L2.29289322,5.70710678 C1.90236893,5.31658249 1.90236893,4.68341751 2.29289322,4.29289322 C2.65337718,3.93240926 3.22060824,3.90467972 3.61289944,4.20970461 Z"/>
</svg>
