<svg xmlns="http://www.w3.org/2000/svg" width="16" height="16" viewBox="0 0 16 16">
  <path fill-rule="evenodd" d="M12.0002909,8 L12.0002909,2 L13.0002182,2 C13.5130913,2 13.9357934,2.38604019 13.9935627,2.88337887 L14.0002909,3 L14.0002909,7 C14.0002909,7.51283584 13.6142226,7.93550716 13.1168478,7.99327227 L13.0002182,8 L12.0002909,8 Z M7.51813339,14 C7.24399397,14 7.02176007,13.7761424 7.02176007,13.5 L7.02176007,10 C7.02176007,8.8954305 6.13282444,8 5.03626678,8 L2.99293809,8 C2.92756375,8 2.86234926,7.99349531 2.79824445,7.98058068 C2.32286154,7.88480943 1.99521685,7.46182813 2,6.99077512 L2.00829541,6.87217191 L3.16558719,2.98634737 L3.21076588,2.80388386 C3.30357264,2.33645967 3.71101058,2 4.18423406,2 L10,2 L10,8.52786405 C10,8.68310914 9.96411708,8.83622221 9.89519295,8.97507764 C9.83773176,9.09083968 9.79156164,9.21194683 9.75733206,9.33669543 L8.59569376,13.5702498 C8.41195722,13.8369759 8.10834673,14 7.78015102,14 L7.51813339,14 Z"/>
</svg>
