<svg xmlns="http://www.w3.org/2000/svg" width="16" height="16" viewBox="0 0 16 16">
  <path fill-rule="evenodd" d="M9,2 C9.51283584,2 9.93550716,2.38604019 9.99327227,2.88337887 L10,3 L10,5 C10,4.48716416 10.3860402,4.06449284 10.8833789,4.00672773 L11,4 L13,4 C13.5128358,4 13.9355072,4.38604019 13.9932723,4.88337887 L14,5 L14,13 C14,13.5128358 13.6139598,13.9355072 13.1166211,13.9932723 L13,14 L3,14 C2.48716416,14 2.06449284,13.6139598 2.00672773,13.1166211 L2,13 L2,3 C2,2.48716416 2.38604019,2.06449284 2.88337887,2.00672773 L3,2 L9,2 Z M7,10 L5,10 C4.44771525,10 4,10.4477153 4,11 C4,11.5128358 4.38604019,11.9355072 4.88337887,11.9932723 L5,12 L7,12 C7.55228475,12 8,11.5522847 8,11 C8,10.4871642 7.61395981,10.0644928 7.11662113,10.0067277 L7,10 Z M7,7 L5,7 C4.44771525,7 4,7.44771525 4,8 C4,8.51283584 4.38604019,8.93550716 4.88337887,8.99327227 L5,9 L7,9 C7.55228475,9 8,8.55228475 8,8 C8,7.44771525 7.55228475,7 7,7 Z M7,4 L5,4 C4.44771525,4 4,4.44771525 4,5 C4,5.51283584 4.38604019,5.93550716 4.88337887,5.99327227 L5,6 L7,6 C7.55228475,6 8,5.55228475 8,5 C8,4.44771525 7.55228475,4 7,4 Z"/>
</svg>
