<svg xmlns="http://www.w3.org/2000/svg" width="16" height="16" viewBox="0 0 16 16">
  <path fill-rule="evenodd" d="M9.52845771,10.6 C9.92997545,11 10.1307343,11.5 10.1307343,12 C10.1307343,12.5 9.92997545,13.1 9.52845771,13.4 C9.12693996,13.8 8.52466335,14 8.02276617,14 C7.52086899,14 6.91859237,13.8 6.61745406,13.4 C6.21593632,13 6.01517744,12.5 6.01517744,12 C6.01517744,11.5 6.21593632,10.9 6.61745406,10.6 C7.42048955,9.8 8.72542222,9.8 9.52845771,10.6 Z M7.92246413,6 C9.22246413,6 10.5224641,6.6 11.4224641,7.6 C11.8224641,8 11.7224641,8.6 11.3224641,9 C10.9224641,9.4 10.3224641,9.3 9.92246413,8.9 C9.46413079,8.35 8.75371413,8.05208333 8.09931598,8.00625 L7.92246413,8 C7.12246413,8 6.42246413,8.3 5.92246413,8.9 C5.82246413,9.2 5.52246413,9.3 5.22246413,9.3 C5.02246413,9.3 4.72246413,9.2 4.52246413,9 C4.12246413,8.6 4.12246413,8 4.42246413,7.6 C5.26621413,6.6625 6.46152663,6.0765625 7.67881178,6.00698242 L7.92246413,6 Z M8.02268011,2 C10.1226801,2 12.0404487,2.82004132 13.5150637,4.37314989 L13.7226801,4.6 C14.1226801,5 14.0226801,5.6 13.6226801,6 C13.5226801,6.2 13.2226801,6.3 13.0226801,6.3 C12.7226801,6.3 12.5226801,6.2 12.3226801,6 C11.2226801,4.7 9.62268011,4 8.02268011,4 C6.42268011,4 4.92268011,4.7 3.72268011,6 C3.32268011,6.4 2.72268011,6.4 2.32268011,6.1 C1.92268011,5.7 1.92268011,5 2.32268011,4.6 C3.75449829,2.97727273 5.64189499,2.08347107 7.72394795,2.00556912 L8.02268011,2 Z"/>
</svg>
