<svg xmlns="http://www.w3.org/2000/svg" width="16" height="16" viewBox="0 0 16 16">
  <path fill-rule="evenodd" d="M8,10 C8.55228475,10 9,10.4477153 9,11 C9,11.5522847 8.55228475,12 8,12 C7.44771525,12 7,11.5522847 7,11 C7,10.4477153 7.44771525,10 8,10 Z M8,4 C8.55228475,4 9,4.44771525 9,5 L9,8 C9,8.55228475 8.55228475,9 8,9 C7.44771525,9 7,8.55228475 7,8 L7,5 C7,4.44771525 7.44771525,4 8,4 Z M8,2 C4.686,2 2,4.687 2,8 C2,11.314 4.686,14 8,14 C11.313,14 14,11.314 14,8 C14,4.687 11.313,2 8,2 L8,2 Z"/>
</svg>
