<svg xmlns="http://www.w3.org/2000/svg" width="16" height="16" viewBox="0 0 16 16">
  <path fill-rule="evenodd" d="M6.5,2.37318661 L8,3.1483075 L9.5,2.37318661 C10.462912,1.87560446 11.537088,1.87560446 12.5,2.37318661 L13.6228344,2.95340822 C13.8506294,3.07112067 14,3.35613941 14,3.6730899 L14,12.8551209 C14,13.2832083 13.7313708,13.6302418 13.4,13.6302418 C13.3236683,13.6302418 13.2480378,13.6114256 13.1771656,13.5748026 L12.5,13.2248791 C11.537088,12.727297 10.462912,12.727297 9.5,13.2248791 L8,14 L6.5,13.2248791 C5.53708798,12.727297 4.46291202,12.727297 3.5,13.2248791 L2.82283441,13.5748026 C2.5151643,13.7337903 2.16598203,13.5404628 2.04291399,13.1429936 C2.01456512,13.0514361 2,12.9537313 2,12.8551209 L2,3.6730899 C2,3.35613941 2.14937057,3.07112067 2.37716559,2.95340822 L3.5,2.37318661 C4.46291202,1.87560446 5.53708798,1.87560446 6.5,2.37318661 Z"/>
</svg>
