<svg xmlns="http://www.w3.org/2000/svg" width="16" height="16" viewBox="0 0 16 16">
  <path fill-rule="evenodd" d="M8.70705192,2.16729962 C9.01309682,2.32032207 9.26125459,2.56847984 9.41427704,2.87452475 L13.8327004,11.7113714 C14.22329,12.4925507 13.9066546,13.4424571 13.1254753,13.8330468 C12.9058888,13.94284 12.6637553,14 12.4182501,14 L3.58140345,14 C2.70801844,14 2,13.2919816 2,12.4185965 C2,12.1730914 2.05715997,11.9309579 2.1669532,11.7113714 L6.58537654,2.87452475 C6.97596619,2.09334544 7.92587261,1.77670997 8.70705192,2.16729962 Z M8,10 C7.44771525,10 7,10.4477153 7,11 C7,11.5522847 7.44771525,12 8,12 C8.55228475,12 9,11.5522847 9,11 C9,10.4477153 8.55228475,10 8,10 Z M8,5 C7.48716416,5 7.06449284,5.38604019 7.00672773,5.88337887 L7,6 L7,8 C7,8.55228475 7.44771525,9 8,9 C8.51283584,9 8.93550716,8.61395981 8.99327227,8.11662113 L9,8 L9,6 C9,5.44771525 8.55228475,5 8,5 Z"/>
</svg>
