<svg xmlns="http://www.w3.org/2000/svg" width="16" height="16" viewBox="0 0 16 16">
  <path fill-rule="evenodd" d="M3,13 C2.44771525,13 2,12.5522847 2,12 C2,9.790861 3.790861,8 6,8 C6.7290322,8 7.41251188,8.1950335 8.00110922,8.53577067 C8.58825351,8.19481516 9.271376,8 10,8 C12.209139,8 14,9.790861 14,12 C14,12.5128358 13.6139598,12.9355072 13.1166211,12.9932723 L13,13 L3,13 Z M6,3 C7.1045695,3 8,3.8954305 8,5 C8,6.1045695 7.1045695,7 6,7 C4.8954305,7 4,6.1045695 4,5 C4,3.8954305 4.8954305,3 6,3 Z M10.5,4 C11.3284271,4 12,4.67157288 12,5.5 C12,6.32842712 11.3284271,7 10.5,7 C9.67157288,7 9,6.32842712 9,5.5 C9,4.67157288 9.67157288,4 10.5,4 Z"/>
</svg>
