<svg xmlns="http://www.w3.org/2000/svg" width="16" height="16" viewBox="0 0 16 16">
  <path d="M10,11 C9.14783014,11 8.70256618,10.0144864 9.21677482,9.37747324 L9.29289322,9.29289322 L9.97396553,8.61036069 C9.35055039,8.24360082 8.48567783,8 7.5,8 C5.57311878,8 4.10790134,8.9309335 4.00570071,9.89301911 L4,10 C4,10.5522847 3.55228475,11 3,11 C2.44771525,11 2,10.5522847 2,10 C2,7.68512296 4.52768444,6 7.5,6 C9.01153902,6 10.408091,6.43579324 11.4157045,7.16858351 L12.2928932,6.29289322 C12.8954683,5.69031813 13.9071808,6.07233231 13.9940167,6.88636906 L14,7 L14,10 C14,10.5128358 13.6139598,10.9355072 13.1166211,10.9932723 L13,11 L10,11 Z"/>
</svg>
