<svg xmlns="http://www.w3.org/2000/svg" width="16" height="16" viewBox="0 0 16 16">
  <path fill-rule="evenodd" d="M5,6 C5,4.69374794 5.8348501,3.58248558 7.00008893,3.17067428 L7,2 L9,2 L9.00090072,3.17102423 C10.1656226,3.58311485 11,4.69411778 11,6 C11,6.55228475 10.5522847,7 10,7 C9.48716416,7 9.06449284,6.61395981 9.00672773,6.11662113 L9,6 C9,5.44771525 8.55228475,5 8,5 C7.44771525,5 7,5.44771525 7,6 C7,6.51283584 7.38604019,6.93550716 7.88337887,6.99327227 L8,7 C9.65685425,7 11,8.34314575 11,10 C11,11.3058822 10.1656226,12.4168852 9.00090072,12.8289758 L9,14 L7,14 L7.00008893,12.8293257 C5.8348501,12.4175144 5,11.3062521 5,10 C5,9.44771525 5.44771525,9 6,9 C6.51283584,9 6.93550716,9.38604019 6.99327227,9.88337887 L7,10 C7,10.5522847 7.44771525,11 8,11 C8.55228475,11 9,10.5522847 9,10 C9,9.48716416 8.61395981,9.06449284 8.11662113,9.00672773 L8,9 C6.34314575,9 5,7.65685425 5,6 Z"/>
</svg>
