<svg xmlns="http://www.w3.org/2000/svg" width="16" height="16" viewBox="0 0 16 16">
  <path fill-rule="evenodd" d="M5.06216699,7 L6,7 C6.55228475,7 7,6.55228475 7,6 L7,4 C7,2.8954305 6.1045695,2 5,2 L3,2 C2.44771525,2 2,2.44771525 2,3 C2,8.76830739 7.23169261,14 13,14 C13.5522847,14 14,13.5522847 14,13 L14,11 C14,9.8954305 13.1045695,9 12,9 L10,9 C9.44771525,9 9,9.44771525 9,10 L9,10.937833 C7.45956813,10.0973641 6.13439953,8.81594323 5.23607743,7.30515351 L5.06216699,7 Z M14,7 C14,4.23857625 11.7614237,2 9,2 C8.44771525,2 8,2.44771525 8,3 C8,3.55228475 8.44771525,4 9,4 C10.5976809,4 11.9036609,5.24891996 11.9949073,6.82372721 L12,7 C12,7.55228475 12.4477153,8 13,8 C13.5522847,8 14,7.55228475 14,7 Z"/>
</svg>
