<svg xmlns="http://www.w3.org/2000/svg" width="16" height="16" viewBox="0 0 16 16">
  <path d="M11,12 C11.5522847,12 12,12.4477153 12,13 C12,13.5522847 11.5522847,14 11,14 L5,14 C4.44771525,14 4,13.5522847 4,13 C4,12.4477153 4.44771525,12 5,12 L11,12 Z M11,2 C11.5128358,2 11.9355072,2.38604019 11.9932723,2.88337887 L12,3 L12,6 C12,8.209139 10.209139,10 8,10 C5.85780461,10 4.10892112,8.31603153 4.00489531,6.19964034 L4,6 L4,3 C4,2.44771525 4.44771525,2 5,2 C5.51283584,2 5.93550716,2.38604019 5.99327227,2.88337887 L6,3 L6,6 C6,7.1045695 6.8954305,8 8,8 C9.0543618,8 9.91816512,7.18412221 9.99451426,6.14926234 L10,6 L10,3 C10,2.44771525 10.4477153,2 11,2 Z"/>
</svg>
