<svg xmlns="http://www.w3.org/2000/svg" width="16" height="16" viewBox="0 0 16 16">
  <path fill-rule="evenodd" d="M8,2 L12,6 L12.0011864,6.10025909 C11.6777087,6.0345146 11.342885,6 11,6 C8.23857625,6 6,8.23857625 6,11 C6,12.1261445 6.37230087,13.1653335 7.00053506,14.0011995 L5,14 C4.44771525,14 4,13.5522847 4,13 L4,3 C4,2.44771525 4.44771525,2 5,2 L8,2 Z M9.70710678,8.29289322 L11,9.585 L12.2928932,8.29289322 C12.6533772,7.93240926 13.2206082,7.90467972 13.6128994,8.20970461 L13.7071068,8.29289322 C14.0675907,8.65337718 14.0953203,9.22060824 13.7902954,9.61289944 L13.7071068,9.70710678 L12.415,11 L13.7071068,12.2928932 C14.0976311,12.6834175 14.0976311,13.3165825 13.7071068,13.7071068 C13.3165825,14.0976311 12.6834175,14.0976311 12.2928932,13.7071068 L11,12.415 L9.70710678,13.7071068 C9.34662282,14.0675907 8.77939176,14.0953203 8.38710056,13.7902954 L8.29289322,13.7071068 C7.93240926,13.3466228 7.90467972,12.7793918 8.20970461,12.3871006 L8.29289322,12.2928932 L9.585,11 L8.29289322,9.70710678 C7.90236893,9.31658249 7.90236893,8.68341751 8.29289322,8.29289322 C8.68341751,7.90236893 9.31658249,7.90236893 9.70710678,8.29289322 Z"/>
</svg>
