<svg xmlns="http://www.w3.org/2000/svg" width="16" height="16" viewBox="0 0 16 16">
  <path d="M12.5038669,11.8640809 L8.4472136,13.8944272 C7.8173073,14.2093803 7.08202345,13.7920161 7.00637004,13.1151353 L7,13 L6.99994115,9.99970979 L4.6,11.8 C4.1581722,12.1313708 3.53137085,12.0418278 3.2,11.6 C2.89411922,11.192159 2.94688696,10.6267073 3.30432455,10.2814959 L3.4,10.2 L6.33294115,7.99970979 L3.4,5.8 C2.9581722,5.46862915 2.86862915,4.8418278 3.2,4.4 C3.50588078,3.99215895 4.06348933,3.88448953 4.49497485,4.13097041 L4.6,4.2 L6.99994115,5.99970979 L7,3 C7,2.29574335 7.70213089,1.82473646 8.34138467,2.05978026 L8.4472136,2.10557281 L12.4836097,4.12466714 L12.4836097,4.12466714 L12.5734226,4.18023849 L12.5734226,4.18023849 L12.6361372,4.22812496 L12.6361372,4.22812496 L12.6747218,4.26070718 L12.6747218,4.26070718 L12.7220921,4.30805888 L12.7220921,4.30805888 C12.8254691,4.41379191 12.9003288,4.54000401 12.9461811,4.67493422 L12.9657382,4.73949907 C13.0542331,5.07119615 12.9728318,5.4438314 12.7079555,5.70681514 L12.6,5.8 L9.66694115,7.99970979 L12.6,10.2 C12.8448788,10.3836591 12.9749218,10.6469929 12.9967606,10.9164575 C13.0079506,11.0536007 12.9915278,11.1925637 12.9460042,11.3249853 C12.9269044,11.3817918 12.9025007,11.436977 12.8730418,11.4898256 L12.7881741,11.6175525 L12.7225676,11.6929943 L12.7225676,11.6929943 L12.8,11.6 L12.7564364,11.654129 L12.7564364,11.654129 L12.6742011,11.7396892 L12.6742011,11.7396892 L12.606349,11.7955208 L12.606349,11.7955208 L12.5038669,11.8640809 L12.5038669,11.8640809 Z M9,10 L9,11.381 L10.105,10.829 L9,10 Z M9,4.618 L9,6 L10.106,5.171 L9,4.618 Z"/>
</svg>
