<svg xmlns="http://www.w3.org/2000/svg" width="16" height="16" viewBox="0 0 16 16">
  <path fill-rule="evenodd" d="M12,2 C13.1045695,2 14,2.8954305 14,4 L14,10 C14,11.1045695 13.1045695,12 12,12 L10,12 L8,14 L6,12 L4,12 C2.8954305,12 2,11.1045695 2,10 L2,4 C2,2.8954305 2.8954305,2 4,2 L12,2 Z M8,4 C7.48716416,4 7.06449284,4.38604019 7.00672773,4.88337887 L7,5 L7,6 L6,6 C5.44771525,6 5,6.44771525 5,7 C5,7.51283584 5.38604019,7.93550716 5.88337887,7.99327227 L6,8 L7,8 L7,9 C7,9.55228475 7.44771525,10 8,10 C8.51283584,10 8.93550716,9.61395981 8.99327227,9.11662113 L9,9 L9,8 L10,8 C10.5522847,8 11,7.55228475 11,7 C11,6.48716416 10.6139598,6.06449284 10.1166211,6.00672773 L10,6 L9,6 L9,5 C9,4.44771525 8.55228475,4 8,4 Z"/>
</svg>
