<svg xmlns="http://www.w3.org/2000/svg" width="16" height="16" viewBox="0 0 16 16">
  <path fill-rule="evenodd" d="M3.423,5.748656 C3.438,5.6159435 3.3815,5.48503048 3.2715,5.39595564 L2.1515,4.18129878 L2.1515,4 L5.6305,4 L8.3195,9.30625098 L10.6835,4 L14,4 L14,4.18129878 L13.042,5.00771532 C12.9595,5.06439931 12.9185,5.157523 12.9355,5.24974695 L12.9355,11.3221315 C12.9185,11.4139056 12.9595,11.5070293 13.042,11.5637133 L13.9775,12.3901298 L13.9775,12.5714286 L9.2715,12.5714286 L9.2715,12.3901298 L10.241,11.543469 C10.336,11.4579931 10.336,11.4328002 10.336,11.3018872 L10.336,6.39377376 L7.6415,12.5516342 L7.2775,12.5516342 L4.14,6.39377376 L4.14,10.5209078 C4.114,10.6941089 4.178,10.8691095 4.3135,10.9941741 L5.574,12.3698855 L5.574,12.5516342 L2,12.5516342 L2,12.3698855 L3.2605,10.9941741 C3.3955,10.8686596 3.4555,10.6927593 3.423,10.5209078 L3.423,5.748656 L3.423,5.748656 Z"/>
</svg>
