<svg xmlns="http://www.w3.org/2000/svg" width="16" height="16" viewBox="0 0 16 16">
  <path fill-rule="evenodd" d="M9,2 C9.55228475,2 10,2.44771525 10,3 L10.0010775,3.26818814 C10.3149103,3.44999174 10.5747579,3.71465429 10.7506935,4.03224911 C10.8036587,4.01802132 10.858494,4.00843098 10.9147075,4.00361828 L11,4 L11.2928932,4 L11.4041768,3.99119129 C11.5504819,3.9678762 11.6868066,3.89897981 11.7928932,3.79289322 C11.8989798,3.68680662 11.9678762,3.55048186 11.9911913,3.4041768 L12,3.29289322 L12,3 L12.0067277,2.88337887 C12.0644928,2.38604019 12.4871642,2 13,2 C13.5128358,2 13.9355072,2.38604019 13.9932723,2.88337887 L14,3 L14,3.29289322 L13.9929758,3.48786016 C13.9463046,4.13456099 13.668635,4.7455786 13.2071068,5.20710678 C12.7455786,5.66863496 12.134561,5.94630465 11.4878602,5.99297576 L11.2928932,6 L11,6 L11,7 L13,7 C13.5522847,7 14,7.44771525 14,8 C14,8.55228475 13.5522847,9 13,9 L11,9 L11,10 L11.2928932,10 C12.0108626,10 12.6994258,10.2852122 13.2071068,10.7928932 C13.668635,11.2544214 13.9463046,11.865439 13.9929758,12.5121398 L14,12.7071068 L14,13 C14,13.5522847 13.5522847,14 13,14 C12.4871642,14 12.0644928,13.6139598 12.0067277,13.1166211 L12,13 L12,12.7071068 C12,12.5195704 11.9255015,12.339715 11.7928932,12.2071068 C11.6868066,12.1010202 11.5504819,12.0321238 11.4041768,12.0088087 L11.2928932,12 L11,12 C10.9434449,12 10.8879864,11.9953052 10.8339928,11.986284 C10.4269497,13.1580438 9.31179956,14 8,14 C6.68820044,14 5.57305029,13.1580438 5.16546542,11.9850473 L5.11662113,11.9932723 L5,12 L4.70710678,12 L4.5958232,12.0088087 C4.44951814,12.0321238 4.31319338,12.1010202 4.20710678,12.2071068 C4.10102019,12.3131934 4.0321238,12.4495181 4.00880871,12.5958232 L4,12.7071068 L4,13 L3.99327227,13.1166211 C3.93550716,13.6139598 3.51283584,14 3,14 C2.48716416,14 2.06449284,13.6139598 2.00672773,13.1166211 L2,13 L2,12.7071068 L2.00702424,12.5121398 C2.05369535,11.865439 2.33136504,11.2544214 2.79289322,10.7928932 C3.2544214,10.331365 3.86543901,10.0536954 4.51213984,10.0070242 L4.70710678,10 L5,10 L5,9 L3,9 C2.44771525,9 2,8.55228475 2,8 C2,7.44771525 2.44771525,7 3,7 L5,7 L5,6 L4.70710678,6 C3.98913742,6 3.30057422,5.71478778 2.79289322,5.20710678 C2.33136504,4.7455786 2.05369535,4.13456099 2.00702424,3.48786016 L2,3.29289322 L2,3 C2,2.44771525 2.44771525,2 3,2 C3.51283584,2 3.93550716,2.38604019 3.99327227,2.88337887 L4,3 L4,3.29289322 C4,3.4804296 4.07449854,3.66028497 4.20710678,3.79289322 C4.31319338,3.89897981 4.44951814,3.9678762 4.5958232,3.99119129 L4.70710678,4 L5,4 C5.08620318,4 5.16985878,4.01090743 5.24966198,4.03141743 C5.42542985,3.71431533 5.68564441,3.44942686 5.99992752,3.26760632 L6,3 C6,2.44771525 6.44771525,2 7,2 L9,2 Z"/>
</svg>
