<svg xmlns="http://www.w3.org/2000/svg" width="16" height="16" viewBox="0 0 16 16">
  <path fill-rule="evenodd" d="M8,2 L12,6 L12.0011864,6.10025909 C11.6777087,6.0345146 11.342885,6 11,6 C8.23857625,6 6,8.23857625 6,11 C6,12.1261445 6.37230087,13.1653335 7.00053506,14.0011995 L5,14 C4.44771525,14 4,13.5522847 4,13 L4,3 C4,2.44771525 4.44771525,2 5,2 L8,2 Z M11,8 C11.5522847,8 12,8.44771525 12,9 L12,10 L13,10 C13.5522847,10 14,10.4477153 14,11 C14,11.5522847 13.5522847,12 13,12 L12,12 L12,13 C12,13.5522847 11.5522847,14 11,14 C10.4477153,14 10,13.5522847 10,13 L10,12 L9,12 C8.44771525,12 8,11.5522847 8,11 C8,10.4477153 8.44771525,10 9,10 L10,10 L10,9 C10,8.44771525 10.4477153,8 11,8 Z"/>
</svg>
