<svg xmlns="http://www.w3.org/2000/svg" width="16" height="16" viewBox="0 0 16 16">
  <path fill-rule="evenodd" d="M4,14 C3.44771525,14 3,13.5522847 3,13 C3,12.4477153 3.44771525,12 4,12 L5,12 L5,10 L4,10 C3.48716416,10 3.06449284,9.61395981 3.00672773,9.11662113 L3,9 C3,8.48716416 3.38604019,8.06449284 3.88337887,8.00672773 L4,8 L5,8 L5,5 C5,3.2879307 6.60991338,2 8.5,2 C10.3900866,2 12,3.2879307 12,5 C12,5.55228475 11.5522847,6 11,6 C10.4477153,6 10,5.55228475 10,5 C10,4.5029303 9.37133713,4 8.5,4 C7.68312144,4 7.07953081,4.44202858 7.00727291,4.90685497 L7,5 L7,8 L9,8 C9.51283584,8 9.93550716,8.38604019 9.99327227,8.88337887 L10,9 C10,9.51283584 9.61395981,9.93550716 9.11662113,9.99327227 L9,10 L7,10 L7,12 L12,12 C12.5522847,12 13,12.4477153 13,13 C13,13.5522847 12.5522847,14 12,14 L4,14 Z"/>
</svg>
