<svg xmlns="http://www.w3.org/2000/svg" width="16" height="16" viewBox="0 0 16 16">
  <path fill-rule="evenodd" d="M7,3 C7,2.44771525 7.44771525,2 8,2 C8.55228475,2 9,2.44771525 9,3 L9,13 C9,13.5522847 8.55228475,14 8,14 C7.44771525,14 7,13.5522847 7,13 L7,3 Z M2,3 L2.00672773,2.88337887 C2.06004937,2.42429701 2.42429701,2.06004937 2.88337887,2.00672773 L3,2 L5,2 L5.11662113,2.00672773 C5.57570299,2.06004937 5.93995063,2.42429701 5.99327227,2.88337887 L6,3 L5.99327227,3.11662113 C5.93995063,3.57570299 5.57570299,3.93995063 5.11662113,3.99327227 L5,4 L4,4 L4,5 L3.99327227,5.11662113 C3.93550716,5.61395981 3.51283584,6 3,6 C2.48716416,6 2.06449284,5.61395981 2.00672773,5.11662113 L2,5 L2,3 Z M14,3 L13.9932723,2.88337887 C13.9399506,2.42429701 13.575703,2.06004937 13.1166211,2.00672773 L13,2 L11,2 L10.8833789,2.00672773 C10.424297,2.06004937 10.0600494,2.42429701 10.0067277,2.88337887 L10,3 L10.0067277,3.11662113 C10.0600494,3.57570299 10.424297,3.93995063 10.8833789,3.99327227 L11,4 L12,4 L12,5 L12.0067277,5.11662113 C12.0644928,5.61395981 12.4871642,6 13,6 C13.5128358,6 13.9355072,5.61395981 13.9932723,5.11662113 L14,5 L14,3 Z M2,11 L2.00672773,10.8833789 C2.06449284,10.3860402 2.48716416,10 3,10 C3.47338693,10 3.86994729,10.3289337 3.97358929,10.7707092 L3.99327227,10.8833789 L4,11 L4,12 L5,12 L5.11662113,12.0067277 C5.53744617,12.0556059 5.87858412,12.3657483 5.97358929,12.7707092 L5.99327227,12.8833789 L6,13 L5.99327227,13.1166211 C5.9443941,13.5374462 5.63425172,13.8785841 5.22929083,13.9735893 L5.11662113,13.9932723 L5,14 L3,14 L2.88337887,13.9932723 C2.46255383,13.9443941 2.12141588,13.6342517 2.02641071,13.2292908 L2.00672773,13.1166211 L2,13 L2,11 Z M14,11 L13.9932723,10.8833789 C13.9355072,10.3860402 13.5128358,10 13,10 C12.5266131,10 12.1300527,10.3289337 12.0264107,10.7707092 L12.0067277,10.8833789 L12,11 L12,12 L11,12 L10.8833789,12.0067277 C10.4625538,12.0556059 10.1214159,12.3657483 10.0264107,12.7707092 L10.0067277,12.8833789 L10,13 L10.0067277,13.1166211 C10.0556059,13.5374462 10.3657483,13.8785841 10.7707092,13.9735893 L10.8833789,13.9932723 L11,14 L13,14 L13.1166211,13.9932723 C13.5374462,13.9443941 13.8785841,13.6342517 13.9735893,13.2292908 L13.9932723,13.1166211 L14,13 L14,11 Z"/>
</svg>
