<svg xmlns="http://www.w3.org/2000/svg" width="16" height="16" viewBox="0 0 16 16">
  <path fill-rule="evenodd" d="M9.5,2 C11.4329966,2 13,3.56700338 13,5.5 C13,7.3685634 11.5357224,8.89512645 9.6920352,8.99482114 L9.5,9 L7,9 L7,10 L8,10 C8.55228475,10 9,10.4477153 9,11 C9,11.5522847 8.55228475,12 8,12 L7,12 L7,13 C7,13.5522847 6.55228475,14 6,14 C5.44771525,14 5,13.5522847 5,13 L5,12 L4,12 C3.44771525,12 3,11.5522847 3,11 C3,10.4477153 3.44771525,10 4,10 L5,10 L5,9 L4,9 C3.44771525,9 3,8.55228475 3,8 C3,7.48716416 3.38604019,7.06449284 3.88337887,7.00672773 L4,7 L5,7 L5,3 C5,2.44771525 5.44771525,2 6,2 L9.5,2 Z M9.5,4 L7,4 L7,7 L9.5,7 C10.3284271,7 11,6.32842712 11,5.5 C11,4.72030388 10.4051119,4.07955132 9.64446001,4.00686658 L9.5,4 Z"/>
</svg>
