<svg xmlns="http://www.w3.org/2000/svg" width="16" height="16" viewBox="0 0 16 16">
  <path fill-rule="evenodd" d="M4.29289322,9.29289322 C4.65337718,8.93240926 5.22060824,8.90467972 5.61289944,9.20970461 L5.70710678,9.29289322 L8,11.5857864 L10.2928932,9.29289322 C10.6834175,8.90236893 11.3165825,8.90236893 11.7071068,9.29289322 C12.0675907,9.65337718 12.0953203,10.2206082 11.7902954,10.6128994 L11.7071068,10.7071068 L8.70710678,13.7071068 C8.34662282,14.0675907 7.77939176,14.0953203 7.38710056,13.7902954 L7.29289322,13.7071068 L4.29289322,10.7071068 C3.90236893,10.3165825 3.90236893,9.68341751 4.29289322,9.29289322 Z M8.70710678,2.29289322 L11.7071068,5.29289322 C12.0976311,5.68341751 12.0976311,6.31658249 11.7071068,6.70710678 C11.3165825,7.09763107 10.6834175,7.09763107 10.2928932,6.70710678 L8,4.41421356 L5.70710678,6.70710678 C5.31658249,7.09763107 4.68341751,7.09763107 4.29289322,6.70710678 C3.90236893,6.31658249 3.90236893,5.68341751 4.29289322,5.29289322 L7.29289322,2.29289322 C7.68341751,1.90236893 8.31658249,1.90236893 8.70710678,2.29289322 Z"/>
</svg>
