<svg xmlns="http://www.w3.org/2000/svg" width="16" height="16" viewBox="0 0 16 16">
  <path fill-rule="evenodd" d="M8,4 C10.7614237,4 13,6.23857625 13,9 C13,11.7614237 10.7614237,14 8,14 C5.23857625,14 3,11.7614237 3,9 C3,6.23857625 5.23857625,4 8,4 Z M8,6 C7.48716416,6 7.06449284,6.38604019 7.00672773,6.88337887 L7,7 L7,9 C7,9.55228475 7.44771525,10 8,10 C8.51283584,10 8.93550716,9.61395981 8.99327227,9.11662113 L9,9 L9,7 C9,6.44771525 8.55228475,6 8,6 Z M9,2 C9.55228475,2 10,2.44771525 10,3 C10,3.55228475 9.55228475,4 9,4 L7,4 C6.44771525,4 6,3.55228475 6,3 C6,2.44771525 6.44771525,2 7,2 L9,2 Z"/>
</svg>
