<svg xmlns="http://www.w3.org/2000/svg" width="16" height="16" viewBox="0 0 16 16">
  <path fill-rule="evenodd" d="M9,2 C10.1045695,2 11,2.8954305 11,4 L11,12 C11,13.1045695 10.1045695,14 9,14 L7,14 C5.8954305,14 5,13.1045695 5,12 L5,4 C5,2.8954305 5.8954305,2 7,2 L9,2 Z M3,2 C3.55228475,2 4,2.44771525 4,3 L4,13 C4,13.5522847 3.55228475,14 3,14 C2.44771525,14 2,13.5522847 2,13 L2,3 C2,2.44771525 2.44771525,2 3,2 Z M13,2 C13.5522847,2 14,2.44771525 14,3 L14,13 C14,13.5522847 13.5522847,14 13,14 C12.4477153,14 12,13.5522847 12,13 L12,3 C12,2.44771525 12.4477153,2 13,2 Z M9,4 L7,4 L7,12 L9,12 L9,4 Z"/>
</svg>
