<svg xmlns="http://www.w3.org/2000/svg" width="16" height="16" viewBox="0 0 16 16">
  <path fill-rule="evenodd" d="M10.707,9.293 C11.098,9.684 11.098,10.316 10.707,10.707 C10.512,10.902 10.256,11 10,11 C9.744,11 9.488,10.902 9.293,10.707 L8,9.414 L6.707,10.707 C6.512,10.902 6.256,11 6,11 C5.744,11 5.488,10.902 5.293,10.707 C4.902,10.316 4.902,9.684 5.293,9.293 L6.586,8 L5.293,6.707 C4.902,6.316 4.902,5.684 5.293,5.293 C5.684,4.902 6.316,4.902 6.707,5.293 L8,6.586 L9.293,5.293 C9.684,4.902 10.316,4.902 10.707,5.293 C11.098,5.684 11.098,6.316 10.707,6.707 L9.414,8 L10.707,9.293 Z M8,2 C4.686,2 2,4.687 2,8 C2,11.314 4.686,14 8,14 C11.313,14 14,11.314 14,8 C14,4.687 11.313,2 8,2 L8,2 Z"/>
</svg>
