<svg xmlns="http://www.w3.org/2000/svg" width="16" height="16" viewBox="0 0 16 16">
  <path fill-rule="evenodd" d="M3.75735931,3.75735931 L12.2426407,12.2426407 C12.633165,12.633165 12.633165,13.26633 12.2426407,13.6568542 C11.8521164,14.0473785 11.2189514,14.0473785 10.8284271,13.6568542 L9.08193191,11.911392 C8.7319044,11.970671 8.37132953,12 8,12 C5.63699231,12 3.70950442,10.8122964 2.16411748,8.2768225 L2,8 C2.41276845,7.28440789 2.85364173,6.66886893 3.32369347,6.15016601 L2.34314575,5.17157288 C1.95262146,4.78104858 1.95262146,4.1478836 2.34314575,3.75735931 C2.73367004,3.36683502 3.36683502,3.36683502 3.75735931,3.75735931 Z M8,4 C10.4474008,4 12.4276178,5.27405445 14,8 C13.5872957,8.71548085 13.1464954,9.33093967 12.6765258,9.84959205 L6.9172652,4.08874406 C7.2675442,4.02937383 7.62838655,4 8,4 Z"/>
</svg>
