<svg xmlns="http://www.w3.org/2000/svg" width="16" height="16" viewBox="0 0 16 16">
  <path fill-rule="evenodd" d="M9,2 C10.1045695,2 11,2.8954305 11,4 L11,12 C11,13.1045695 10.1045695,14 9,14 L7,14 C5.8954305,14 5,13.1045695 5,12 L5,4 C5,2.8954305 5.8954305,2 7,2 L9,2 Z M9,4 L7,4 L7,12 L9,12 L9,4 Z M3,4 C3.55228475,4 4,4.44771525 4,5 L4,11 C4,11.5522847 3.55228475,12 3,12 C2.44771525,12 2,11.5522847 2,11 L2,5 C2,4.44771525 2.44771525,4 3,4 Z M13,4 C13.5522847,4 14,4.44771525 14,5 L14,11 C14,11.5522847 13.5522847,12 13,12 C12.4477153,12 12,11.5522847 12,11 L12,5 C12,4.44771525 12.4477153,4 13,4 Z"/>
</svg>
