<svg xmlns="http://www.w3.org/2000/svg" width="16" height="16" viewBox="0 0 16 16">
  <path fill-rule="evenodd" d="M4,14 C3.44771525,14 3,13.5522847 3,13 L3,3 C3,2.44771525 3.44771525,2 4,2 L7,2 C8.7120693,2 10,3.60991338 10,5.5 C10,6.06628447 9.88438921,6.60741925 9.67639863,7.08764204 C11.0400712,7.44531045 12,8.86824497 12,10.5 C12,12.3249112 10.7993607,13.8886383 9.17556222,13.9943117 L9,14 L4,14 Z M9.09314503,9.00727291 L9,9 L5,9 L5,12 L9,12 C9.4970697,12 10,11.3713371 10,10.5 C10,9.68312144 9.55797142,9.07953081 9.09314503,9.00727291 Z M7,4 L5,4 L5,7 L7,7 C7.4970697,7 8,6.37133713 8,5.5 C8,4.68312144 7.55797142,4.07953081 7.09314503,4.00727291 L7,4 Z"/>
</svg>
