<svg xmlns="http://www.w3.org/2000/svg" width="16" height="16" viewBox="0 0 16 16">
  <path fill-rule="evenodd" d="M13,12 C13.5522847,12 14,12.4477153 14,13 C14,13.5522847 13.5522847,14 13,14 L3,14 C2.44771525,14 2,13.5522847 2,13 C2,12.4477153 2.44771525,12 3,12 L13,12 Z M8,10 L7.918,9.996 L7.79927424,9.97975993 L7.68785748,9.95026191 L7.57677845,9.90632664 L7.47929125,9.85400455 L7.4048407,9.80368649 L7.29289322,9.70710678 L5.29289322,7.70710678 C4.90236893,7.31658249 4.90236893,6.68341751 5.29289322,6.29289322 C5.65337718,5.93240926 6.22060824,5.90467972 6.61289944,6.20970461 L6.70710678,6.29289322 L7,6.585 L7,3 C7,2.44771525 7.44771525,2 8,2 C8.55228475,2 9,2.44771525 9,3 L9,6.585 L9.29289322,6.29289322 C9.65337718,5.93240926 10.2206082,5.90467972 10.6128994,6.20970461 L10.7071068,6.29289322 C11.0675907,6.65337718 11.0953203,7.22060824 10.7902954,7.61289944 L10.7071068,7.70710678 L8.70710678,9.70710678 L8.663147,9.7485042 L8.59530661,9.80366542 L8.4840621,9.87532883 L8.42309915,9.90634622 L8.34165038,9.94011414 L8.26599297,9.96415486 L8.11747418,9.99316578 L8,10 Z"/>
</svg>
