<svg xmlns="http://www.w3.org/2000/svg" width="16" height="16" viewBox="0 0 16 16">
  <path fill-rule="evenodd" d="M10,2 C10.5522847,2 11,2.44771525 11,3 L11,4 L14,4 C14.5522847,4 15,4.44771525 15,5 C15,5.55228475 14.5522847,6 14,6 L13,6 L13,11 C13,12.6568542 11.8807119,14 10.5,14 L5.5,14 C4.11928813,14 3,12.6568542 3,11 L3,6 L2,6 C1.44771525,6 1,5.55228475 1,5 C1,4.44771525 1.44771525,4 2,4 L5,4 L5,3 C5,2.44771525 5.44771525,2 6,2 L10,2 Z M6,6 C5.48716416,6 5.06449284,6.38604019 5.00672773,6.88337887 L5,7 L5,11 C5,11.5522847 5.44771525,12 6,12 C6.51283584,12 6.93550716,11.6139598 6.99327227,11.1166211 L7,11 L7,7 C7,6.44771525 6.55228475,6 6,6 Z M10,6 C9.48716416,6 9.06449284,6.38604019 9.00672773,6.88337887 L9,7 L9,11 C9,11.5522847 9.44771525,12 10,12 C10.5128358,12 10.9355072,11.6139598 10.9932723,11.1166211 L11,11 L11,7 C11,6.44771525 10.5522847,6 10,6 Z"/>
</svg>
