<svg xmlns="http://www.w3.org/2000/svg" width="16" height="16" viewBox="0 0 16 16">
  <path d="M9.82977588,2 C10.7561344,2 11.6532928,2.22329494 12.4624616,2.64534883 C12.952139,2.90075934 13.1420498,3.5047724 12.8866393,3.99444976 C12.6312288,4.48412712 12.0272157,4.67403792 11.5375384,4.41862741 C11.0117974,4.14440651 10.4315984,4 9.82977588,4 C8.86096277,4 7.97346196,4.37693934 7.29729011,4.99964409 L9,5 C9.55228475,5 10,5.44771525 10,6 C10,6.55228475 9.55228475,7 9,7 L6.12032765,7.00077078 C6.04179467,7.31992857 6,7.65470544 6,8 C6,8.34565164 6.04188116,8.68076382 6.12057141,9.00021932 L9,9 C9.55228475,9 10,9.44771525 10,10 C10,10.5522847 9.55228475,11 9,11 L7.2982822,11.0012692 C7.97432995,11.6234292 8.86143652,12 9.82977588,12 C10.431436,12 11.0114846,11.8556716 11.5371154,11.5815932 C12.0268253,11.3262449 12.6308142,11.5162326 12.8861624,12.0059424 C13.1415106,12.4956523 12.951523,13.0996412 12.4618131,13.3549894 C11.6528104,13.7768257 10.7558844,14 9.82977588,14 C7.66842535,14 5.78752808,12.791984 4.78068354,11.0010564 L3,11 C2.44771525,11 2,10.5522847 2,10 C2,9.44771525 2.44771525,9 3,9 L4.08083652,9.00091177 C4.02766793,8.67530546 4,8.34090744 4,8 C4,7.65944043 4.0276115,7.32537699 4.08067384,7.00008501 L3,7 C2.44771525,7 2,6.55228475 2,6 C2,5.44771525 2.44771525,5 3,5 L4.78012345,4.99994008 C5.78683043,3.20846408 7.66802451,2 9.82977588,2 Z"/>
</svg>
