<svg xmlns="http://www.w3.org/2000/svg" width="16" height="16" viewBox="0 0 16 16">
  <path fill-rule="evenodd" d="M4,8 L4,14 L3.00007273,14 C2.48719959,14 2.06449753,13.6139598 2.00672822,13.1166211 L2,13 L2,9 C2,8.48716416 2.38606827,8.06449284 2.88344312,8.00672773 L3.00007273,8 L4,8 Z M8.48215751,2 C8.75629693,2 8.97853083,2.22385763 8.97853083,2.5 L8.97853083,6 C8.97853083,7.1045695 9.86746646,8 10.9640241,8 L13.0073528,8 C13.0727272,8 13.1379416,8.00650469 13.2020465,8.01941932 C13.6774294,8.11519057 14.005074,8.53817187 14.0002909,9.00922488 L13.9919955,9.12782809 L12.8347037,13.0136526 L12.789525,13.1961161 C12.6967183,13.6635403 12.2892803,14 11.8160568,14 L6.0002909,14 L6.0002909,7.47213595 C6.0002909,7.35570213 6.02047504,7.24046758 6.05964448,7.13154778 L6.10509795,7.02492236 C6.16255914,6.90916032 6.20872927,6.78805317 6.24295884,6.66330457 L7.40459715,2.42975021 C7.58833369,2.16302405 7.89194417,2 8.22013988,2 L8.48215751,2 Z"/>
</svg>
