<svg xmlns="http://www.w3.org/2000/svg" width="16" height="16" viewBox="0 0 16 16">
  <path fill-rule="evenodd" d="M8,2 C11.3137085,2 14,4.6862915 14,8 C14,11.3137085 11.3137085,14 8,14 C4.6862915,14 2,11.3137085 2,8 C2,4.6862915 4.6862915,2 8,2 Z M11.4461664,5.96800804 L5.96800804,11.4461664 C6.56352677,11.798065 7.25818117,12 8,12 C10.209139,12 12,10.209139 12,8 C12,7.25818117 11.798065,6.56352677 11.4461664,5.96800804 Z M8,4 C5.790861,4 4,5.790861 4,8 C4,8.74181883 4.20193496,9.43647323 4.55383363,10.031992 L10.031992,4.55383363 C9.43647323,4.20193496 8.74181883,4 8,4 Z"/>
</svg>
