<svg xmlns="http://www.w3.org/2000/svg" width="16" height="16" viewBox="0 0 16 16">
  <path fill-rule="evenodd" d="M6.79029539,4.38710056 L6.70710678,4.29289322 C6.34662282,3.93240926 5.77939176,3.90467972 5.38710056,4.20970461 L5.29289322,4.29289322 L2.29289322,7.29289322 L2.2514958,7.336853 L2.2514958,7.336853 L2.19633458,7.40469339 L2.19633458,7.40469339 L2.12467117,7.5159379 L2.12467117,7.5159379 L2.07122549,7.62866398 L2.07122549,7.62866398 L2.03584514,7.73400703 L2.03584514,7.73400703 L2.00690716,7.8819045 L2.00690716,7.8819045 L2,8 L2.00278786,8.07523854 L2.00278786,8.07523854 L2.02024007,8.20072576 L2.02024007,8.20072576 L2.04973809,8.31214252 L2.04973809,8.31214252 L2.09367336,8.42322155 L2.09367336,8.42322155 L2.14599545,8.52070875 L2.14599545,8.52070875 L2.21968877,8.62544899 L2.21968877,8.62544899 L2.29289322,8.70710678 L5.29289322,11.7071068 C5.68341751,12.0976311 6.31658249,12.0976311 6.70710678,11.7071068 C7.06759074,11.3466228 7.09532028,10.7793918 6.79029539,10.3871006 L6.70710678,10.2928932 L5.415,9 L13,9 C13.5522847,9 14,8.55228475 14,8 C14,7.44771525 13.5522847,7 13,7 L5.415,7 L6.70710678,5.70710678 C7.06759074,5.34662282 7.09532028,4.77939176 6.79029539,4.38710056 L6.70710678,4.29289322 L6.79029539,4.38710056 Z"/>
</svg>
