<svg xmlns="http://www.w3.org/2000/svg" width="16" height="16" viewBox="0 0 16 16">
  <path fill-rule="evenodd" d="M8,2 C11.3137085,2 14,4.6862915 14,8 C14,11.3137085 11.3137085,14 8,14 C4.6862915,14 2,11.3137085 2,8 C2,4.6862915 4.6862915,2 8,2 Z M10.2928932,5.29289322 L7,8.58578644 L5.70710678,7.29289322 C5.31658249,6.90236893 4.68341751,6.90236893 4.29289322,7.29289322 C3.90236893,7.68341751 3.90236893,8.31658249 4.29289322,8.70710678 L6.29289322,10.7071068 C6.68341751,11.0976311 7.31658249,11.0976311 7.70710678,10.7071068 L11.7071068,6.70710678 C12.0976311,6.31658249 12.0976311,5.68341751 11.7071068,5.29289322 C11.3165825,4.90236893 10.6834175,4.90236893 10.2928932,5.29289322 Z"/>
</svg>
