<svg xmlns="http://www.w3.org/2000/svg" width="16" height="16" viewBox="0 0 16 16">
  <path fill-rule="evenodd" d="M8,2 C11.3137085,2 14,4.6862915 14,8 C14,11.3137085 11.3137085,14 8,14 C4.6862915,14 2,11.3137085 2,8 C2,4.6862915 4.6862915,2 8,2 Z M7.20309682,5.11475104 C6.70114359,4.80980215 6.07832452,5.14676545 6.00678855,5.72356831 L6,5.83443131 L6,10.1655687 C6,10.7707809 6.59329241,11.1612831 7.10772829,10.9350026 L7.20309682,10.885249 L10.6030968,8.71968026 C11.0970208,8.41960935 11.129949,7.70589405 10.7018816,7.35067055 L10.6030968,7.28031974 L7.20309682,5.11475104 Z"/>
</svg>
