<svg xmlns="http://www.w3.org/2000/svg" width="16" height="16" viewBox="0 0 16 16">
  <path d="M3,12 L3.11662113,11.9932723 C3.57570299,11.9399506 3.93995063,11.575703 3.99327227,11.1166211 L4,11 L4,4 L11,4 L11.1166211,3.99327227 C11.6139598,3.93550716 12,3.51283584 12,3 C12,2.48716416 11.6139598,2.06449284 11.1166211,2.00672773 L11,2 L3,2 L2.88337887,2.00672773 C2.42429701,2.06004937 2.06004937,2.42429701 2.00672773,2.88337887 L2,3 L2,11 L2.00672773,11.1166211 C2.06004937,11.575703 2.42429701,11.9399506 2.88337887,11.9932723 L3,12 Z M13,14 L13.1166211,13.9932723 C13.575703,13.9399506 13.9399506,13.575703 13.9932723,13.1166211 L14,13 L14,7 L13.9932723,6.88337887 C13.9443941,6.46255383 13.6342517,6.12141588 13.2292908,6.02641071 L13.1166211,6.00672773 L13,6 L7,6 L6.88337887,6.00672773 C6.42429701,6.06004937 6.06004937,6.42429701 6.00672773,6.88337887 L6,7 L6,13 L6.00672773,13.1166211 C6.0556059,13.5374462 6.36574828,13.8785841 6.77070917,13.9735893 L6.88337887,13.9932723 L7,14 L13,14 Z M8,12 L8,8 L12,8 L12,12 L8,12 Z"/>
</svg>
