<svg xmlns="http://www.w3.org/2000/svg" width="16" height="16" viewBox="0 0 16 16">
  <path fill-rule="evenodd" d="M5,2 C5.55228475,2 6,2.44771525 6,3 L6.00090072,5.17102423 C7.16562257,5.58311485 8,6.69411778 8,8 C8,9.30588222 7.16562257,10.4168852 6.00090072,10.8289758 L6,13 C6,13.5522847 5.55228475,14 5,14 C4.44771525,14 4,13.5522847 4,13 L4.00008893,10.8293257 C2.8348501,10.4175144 2,9.30625206 2,8 C2,6.69374794 2.8348501,5.58248558 4.00008893,5.17067428 L4,3 C4,2.44771525 4.44771525,2 5,2 Z M11,2 C11.5522847,2 12,2.44771525 12,3 L12.0009007,8.17102423 C13.1656226,8.58311485 14,9.69411778 14,11 C14,12.6568542 12.6568542,14 11,14 C9.34314575,14 8,12.6568542 8,11 C8,9.69374794 8.8348501,8.58248558 10.0000889,8.17067428 L10,3 C10,2.44771525 10.4477153,2 11,2 Z M11,10 C10.4477153,10 10,10.4477153 10,11 C10,11.5522847 10.4477153,12 11,12 C11.5522847,12 12,11.5522847 12,11 C12,10.4477153 11.5522847,10 11,10 Z M5,7 C4.44771525,7 4,7.44771525 4,8 C4,8.55228475 4.44771525,9 5,9 C5.55228475,9 6,8.55228475 6,8 C6,7.44771525 5.55228475,7 5,7 Z"/>
</svg>
