<svg xmlns="http://www.w3.org/2000/svg" width="16" height="16" viewBox="0 0 16 16">
  <path fill-rule="evenodd" d="M13,4 C13.5522847,4 14,3.55228475 14,3 C14,2.44771525 13.5522847,2 13,2 L3,2 C2.44771525,2 2,2.44771525 2,3 C2,3.55228475 2.44771525,4 3,4 L13,4 Z M8,6 L7.918,6.004 L7.79927424,6.02024007 L7.68785748,6.04973809 L7.57677845,6.09367336 L7.47929125,6.14599545 L7.4048407,6.19631351 L7.29289322,6.29289322 L5.29289322,8.29289322 C4.90236893,8.68341751 4.90236893,9.31658249 5.29289322,9.70710678 C5.65337718,10.0675907 6.22060824,10.0953203 6.61289944,9.79029539 L6.70710678,9.70710678 L7,9.415 L7,13 C7,13.5522847 7.44771525,14 8,14 C8.55228475,14 9,13.5522847 9,13 L9,9.415 L9.29289322,9.70710678 C9.65337718,10.0675907 10.2206082,10.0953203 10.6128994,9.79029539 L10.7071068,9.70710678 C11.0675907,9.34662282 11.0953203,8.77939176 10.7902954,8.38710056 L10.7071068,8.29289322 L8.70710678,6.29289322 L8.663147,6.2514958 L8.59530661,6.19633458 L8.4840621,6.12467117 L8.42309915,6.09365378 L8.34165038,6.05988586 L8.26599297,6.03584514 L8.11747418,6.00683422 L8,6 Z"/>
</svg>
