<svg xmlns="http://www.w3.org/2000/svg" width="16" height="16" viewBox="0 0 16 16">
  <path fill-rule="evenodd" d="M13,12 C13.5522847,12 14,12.4477153 14,13 C14,13.5522847 13.5522847,14 13,14 L3,14 C2.44771525,14 2,13.5522847 2,13 C2,12.4477153 2.44771525,12 3,12 L13,12 Z M3.70710678,5.29289322 L5.70710678,7.29289322 C6.09763107,7.68341751 6.09763107,8.31658249 5.70710678,8.70710678 L3.70710678,10.7071068 C3.07714192,11.3370716 2,10.8909049 2,10 L2,6 C2,5.10909515 3.07714192,4.66292836 3.70710678,5.29289322 Z M13,7 C13.5522847,7 14,7.44771525 14,8 C14,8.55228475 13.5522847,9 13,9 L9,9 C8.44771525,9 8,8.55228475 8,8 C8,7.44771525 8.44771525,7 9,7 L13,7 Z M13,2 C13.5522847,2 14,2.44771525 14,3 C14,3.55228475 13.5522847,4 13,4 L3,4 C2.44771525,4 2,3.55228475 2,3 C2,2.44771525 2.44771525,2 3,2 L13,2 Z"/>
</svg>
