<svg xmlns="http://www.w3.org/2000/svg" width="16" height="16" viewBox="0 0 16 16">
  <path fill-rule="evenodd" d="M5.79029539,8.61289944 L5.70710678,8.70710678 L3.70710678,10.7071068 C3.31658249,11.0976311 2.68341751,11.0976311 2.29289322,10.7071068 C1.93240926,10.3466228 1.90467972,9.77939176 2.20970461,9.38710056 L2.29289322,9.29289322 L3.58578644,8 L2.29289322,6.70710678 C1.90236893,6.31658249 1.90236893,5.68341751 2.29289322,5.29289322 C2.65337718,4.93240926 3.22060824,4.90467972 3.61289944,5.20970461 L3.70710678,5.29289322 L5.70710678,7.29289322 C6.03755041,7.62333685 6.08838789,8.12750547 5.85961923,8.51140295 L5.79029539,8.61289944 Z M9,13 C9,13.5522847 8.55228475,14 8,14 C7.48716416,14 7.06449284,13.6139598 7.00672773,13.1166211 L7,13 L7,3 C7,2.44771525 7.44771525,2 8,2 C8.51283584,2 8.93550716,2.38604019 8.99327227,2.88337887 L9,3 L9,13 Z M13.7071068,6.70710678 L12.4142136,8 L13.7071068,9.29289322 C14.0976311,9.68341751 14.0976311,10.3165825 13.7071068,10.7071068 C13.3165825,11.0976311 12.6834175,11.0976311 12.2928932,10.7071068 L10.2928932,8.70710678 C9.90236893,8.31658249 9.90236893,7.68341751 10.2928932,7.29289322 L12.2928932,5.29289322 C12.6834175,4.90236893 13.3165825,4.90236893 13.7071068,5.29289322 C14.0976311,5.68341751 14.0976311,6.31658249 13.7071068,6.70710678 Z"/>
</svg>
