<svg xmlns="http://www.w3.org/2000/svg" width="16" height="16" viewBox="0 0 16 16">
  <path fill-rule="evenodd" d="M6.88250464,3 L9.11749536,3 C9.44947793,3 9.75686737,3.1644436 9.94182209,3.43385104 L10.0052499,3.53968284 L10.4414633,4.38095149 C10.9268828,5.31711782 11.8652238,5.92526316 12.9080563,5.99357035 L13.1047269,6 L13.4444444,6 C13.7205868,6 13.9496729,6.20147186 13.9927287,6.46544156 L14,6.55555556 L14,12 C14,12.5128358 13.6139598,12.9355072 13.1166211,12.9932723 L13,13 L3,13 C2.48716416,13 2.06449284,12.6139598 2.00672773,12.1166211 L2,12 L2,6.55555556 C2,6.27941318 2.20147186,6.05032708 2.46544156,6.00727128 L2.55555556,6 L2.89527314,6 C3.949806,6 4.92162425,5.44692327 5.46229795,4.55258697 L5.55853673,4.38095149 L5.99475011,3.53968284 C6.14756738,3.24496381 6.43504957,3.04777365 6.75935508,3.00759212 L6.88250464,3 L9.11749536,3 L6.88250464,3 Z M8,7 C6.8954305,7 6,7.8954305 6,9 C6,10.1045695 6.8954305,11 8,11 C9.1045695,11 10,10.1045695 10,9 C10,7.8954305 9.1045695,7 8,7 Z"/>
</svg>
