<svg xmlns="http://www.w3.org/2000/svg" width="16" height="16" viewBox="0 0 16 16">
  <path fill-rule="evenodd" d="M3.20024244,4.39918929 C3.53195371,3.95761701 4.15882388,3.86855706 4.60039617,4.20026832 C5.04196845,4.53197959 5.1310284,5.15884976 4.79931713,5.60042205 C4.28304856,6.28767604 4,7.12106895 4,8 C4,10.209139 5.790861,12 8,12 C10.209139,12 12,10.209139 12,8 C12,7.12141726 11.717177,6.28833493 11.2012875,5.60122709 C10.8696868,5.15957173 10.9589038,4.53272388 11.4005592,4.20112324 C11.8422145,3.8695226 12.4690624,3.95873957 12.800663,4.40039494 C13.5744054,5.43093418 14,6.68456418 14,8 C14,11.3137085 11.3137085,14 8,14 C4.6862915,14 2,11.3137085 2,8 C2,6.68404141 2.42593384,5.42994481 3.20024244,4.39918929 Z M8,2 C8.55228475,2 9,2.44771525 9,3 L9,7 C9,7.55228475 8.55228475,8 8,8 C7.44771525,8 7,7.55228475 7,7 L7,3 C7,2.44771525 7.44771525,2 8,2 Z"/>
</svg>
