<svg xmlns="http://www.w3.org/2000/svg" width="16" height="16" viewBox="0 0 16 16">
  <path fill-rule="evenodd" d="M7,8 L6.94089693,8.07982774 C6.34880863,8.90139724 6,9.90996431 6,11 C6,12.1261445 6.37230087,13.1653335 7.00053506,14.0011995 L3,14 C2.44771525,14 2,13.5522847 2,13 C2,10.3112453 4.12230671,8.11818189 6.78311038,8.00461951 L7,8 Z M11,8 C11.5522847,8 12,8.44771525 12,9 L12,10 L13,10 C13.5522847,10 14,10.4477153 14,11 C14,11.5522847 13.5522847,12 13,12 L12,12 L12,13 C12,13.5522847 11.5522847,14 11,14 C10.4477153,14 10,13.5522847 10,13 L10,12 L9,12 C8.44771525,12 8,11.5522847 8,11 C8,10.4477153 8.44771525,10 9,10 L10,10 L10,9 C10,8.44771525 10.4477153,8 11,8 Z M8,2 C9.65685425,2 11,3.34314575 11,5 C11,5.35208153 10.9393486,5.68999716 10.8279239,6.00386871 L11,6 C9.4267383,6 8.02318793,6.72662063 7.10663598,7.86257481 C5.88571195,7.48403971 5,6.34545441 5,5 C5,3.34314575 6.34314575,2 8,2 Z"/>
</svg>
