<svg xmlns="http://www.w3.org/2000/svg" width="16" height="16" viewBox="0 0 16 16">
  <path fill-rule="evenodd" d="M10.4,2 C10.5591299,2 10.7117422,2.0632141 10.8242641,2.17573593 L13.8242641,5.17573593 C13.9367859,5.28825776 14,5.44087011 14,5.6 L14,9.8 C14,9.9403619 13.9507903,10.0762816 13.8609328,10.1841106 L10.8609328,13.7841106 C10.7469365,13.9209062 10.5780679,14 10.4,14 L5.6,14 C5.44087011,14 5.28825776,13.9367859 5.17573593,13.8242641 L2.17573593,10.8242641 C2.0632141,10.7117422 2,10.5591299 2,10.4 L2,5.6 C2,5.44087011 2.0632141,5.28825776 2.17573593,5.17573593 L5.17573593,2.17573593 C5.28825776,2.0632141 5.44087011,2 5.6,2 L10.4,2 Z M8,10 C7.44771525,10 7,10.4477153 7,11 C7,11.5522847 7.44771525,12 8,12 C8.55228475,12 9,11.5522847 9,11 C9,10.4477153 8.55228475,10 8,10 Z M8,4 C7.48716416,4 7.06449284,4.38604019 7.00672773,4.88337887 L7,5 L7,8 C7,8.55228475 7.44771525,9 8,9 C8.51283584,9 8.93550716,8.61395981 8.99327227,8.11662113 L9,8 L9,5 C9,4.44771525 8.55228475,4 8,4 Z"/>
</svg>
