<svg xmlns="http://www.w3.org/2000/svg" width="16" height="16" viewBox="0 0 16 16">
  <path fill-rule="evenodd" d="M8,10.8482489 L12.5037219,9.13175686 C12.9832291,8.85774689 13.5940707,9.02434362 13.8680748,9.50386106 C14.1225072,9.94912726 13.9970369,10.5076383 13.5938941,10.8045416 L13.4959786,10.8682431 L8.49612833,12.8682431 C8.2271305,13.0219595 7.90455547,13.041174 7.62216334,12.9258868 L7.50387167,12.8682431 L2.5040214,10.8682431 C2.02451421,10.5942332 1.85792105,9.98337851 2.13192516,9.50386106 C2.38635754,9.05859486 2.93122634,8.88314296 3.39168691,9.07973788 L3.49627805,9.13175686 L8,10.8482489 L12.5037219,9.13175686 L8,10.8482489 Z M2.5040214,5.13175686 L7.50387167,3.13175686 C7.7728695,2.97804052 8.09544453,2.95882598 8.37783666,3.07411323 L8.49612833,3.13175686 L13.4959786,5.13175686 C14.1282613,5.49306899 14.1654544,6.37240807 13.6075579,6.79466455 L13.4959786,6.86824314 L8.49612833,8.86824314 C8.2271305,9.02195948 7.90455547,9.04117402 7.62216334,8.92588677 L7.50387167,8.86824314 L2.5040214,6.86824314 C1.87173869,6.50693101 1.83454559,5.62759193 2.3924421,5.20533545 L2.5040214,5.13175686 L7.50387167,3.13175686 L2.5040214,5.13175686 Z"/>
</svg>
