<svg xmlns="http://www.w3.org/2000/svg" width="16" height="16" viewBox="0 0 16 16">
  <path fill-rule="evenodd" d="M10,2 C10.5522847,2 11,2.44771525 11,3 L11,4 C12.6568542,4 14,5.34314575 14,7 L14,11 C14,12.6568542 12.6568542,14 11,14 L5,14 C3.34314575,14 2,12.6568542 2,11 L2,7 C2,5.34314575 3.34314575,4 5,4 L5,3 C5,2.44771525 5.44771525,2 6,2 C6.55228475,2 7,2.44771525 7,3 L7,4 L9,4 L9,3 C9,2.44771525 9.44771525,2 10,2 Z M11,6 L5,6 C4.44771525,6 4,6.44771525 4,7 L4,11 C4,11.5522847 4.44771525,12 5,12 L8,12 L8,10 C8,8.8954305 8.8954305,8 10,8 L12,8 L12,7 C12,6.44771525 11.5522847,6 11,6 Z"/>
</svg>
