<svg xmlns="http://www.w3.org/2000/svg" width="16" height="16" viewBox="0 0 16 16">
  <path d="M5,2 C5.51283584,2 5.93550716,2.38604019 5.99327227,2.88337887 L6,3 L6,10 L13,10 C13.5128358,10 13.9355072,10.3860402 13.9932723,10.8833789 L14,11 C14,11.5128358 13.6139598,11.9355072 13.1166211,11.9932723 L13,12 L12,12 L12,13 C12,13.5522847 11.5522847,14 11,14 C10.4477153,14 10,13.5522847 10,13 L10,12 L5,12 C4.48716416,12 4.06449284,11.6139598 4.00672773,11.1166211 L4,11 L4,6 L3,6 C2.44771525,6 2,5.55228475 2,5 C2,4.44771525 2.44771525,4 3,4 L4,4 L4,3 C4,2.44771525 4.44771525,2 5,2 Z M11,4 C11.5522847,4 12,4.44771525 12,5 L12,7 C12,7.55228475 11.5522847,8 11,8 C10.4477153,8 10,7.55228475 10,7 L10,6 L9,6 C8.44771525,6 8,5.55228475 8,5 C8,4.44771525 8.44771525,4 9,4 L11,4 Z"/>
</svg>
