<svg xmlns="http://www.w3.org/2000/svg" width="16" height="16" viewBox="0 0 16 16">
  <path fill-rule="evenodd" d="M14,8 C14,4.6862915 11.3137085,2 8,2 C4.6862915,2 2,4.6862915 2,8 C2,11.3137085 4.6862915,14 8,14 C11.3137085,14 14,11.3137085 14,8 Z M12,8 C12,8.51283584 11.6139598,8.93550716 11.1166211,8.99327227 L11,9 L7.416,9 L7.70710678,9.29289322 L7.79029539,9.38710056 C8.09532028,9.77939176 8.06759074,10.3466228 7.70710678,10.7071068 C7.34662282,11.0675907 6.77939176,11.0953203 6.38710056,10.7902954 L6.29289322,10.7071068 L4.29289322,8.70710678 L4.21968877,8.62544899 L4.14599545,8.52070875 L4.09367336,8.42322155 L4.04973809,8.31214252 L4.02024007,8.20072576 L4.00278786,8.07523854 L4,8 L4.00690716,7.8819045 L4.03584514,7.73400703 L4.07122549,7.62866398 L4.12467117,7.5159379 L4.19633458,7.40469339 L4.2514958,7.336853 L4.29289322,7.29289322 L6.29289322,5.29289322 L6.38710056,5.20970461 C6.74670083,4.93009846 7.25329917,4.93009846 7.61289944,5.20970461 L7.70710678,5.29289322 L7.79029539,5.38710056 L7.85961923,5.48859705 C8.06551103,5.83410478 8.04492185,6.27703214 7.79785169,6.60305594 L7.70710678,6.70710678 L7.414,7 L11,7 C11.5522847,7 12,7.44771525 12,8 Z"/>
</svg>
