<svg xmlns="http://www.w3.org/2000/svg" width="16" height="16" viewBox="0 0 16 16">
  <path fill-rule="evenodd" d="M4.38710056,6.79029539 L4.29289322,6.70710678 C3.93240926,6.34662282 3.90467972,5.77939176 4.20970461,5.38710056 L4.29289322,5.29289322 L7.29289322,2.29289322 L7.336853,2.2514958 L7.336853,2.2514958 L7.40469339,2.19633458 L7.40469339,2.19633458 L7.5159379,2.12467117 L7.5159379,2.12467117 L7.62866398,2.07122549 L7.62866398,2.07122549 L7.73400703,2.03584514 L7.73400703,2.03584514 L7.8819045,2.00690716 L7.8819045,2.00690716 L8,2 L8.07523854,2.00278786 L8.07523854,2.00278786 L8.20072576,2.02024007 L8.20072576,2.02024007 L8.31214252,2.04973809 L8.31214252,2.04973809 L8.42322155,2.09367336 L8.42322155,2.09367336 L8.52070875,2.14599545 L8.52070875,2.14599545 L8.62544899,2.21968877 L8.62544899,2.21968877 L8.70710678,2.29289322 L11.7071068,5.29289322 C12.0976311,5.68341751 12.0976311,6.31658249 11.7071068,6.70710678 C11.3466228,7.06759074 10.7793918,7.09532028 10.3871006,6.79029539 L10.2928932,6.70710678 L9,5.415 L9,13 C9,13.5522847 8.55228475,14 8,14 C7.44771525,14 7,13.5522847 7,13 L7,5.415 L5.70710678,6.70710678 C5.34662282,7.06759074 4.77939176,7.09532028 4.38710056,6.79029539 L4.29289322,6.70710678 L4.38710056,6.79029539 Z"/>
</svg>
