<svg xmlns="http://www.w3.org/2000/svg" width="16" height="16" viewBox="0 0 16 16">
  <path fill-rule="evenodd" d="M13,10 L13.1166211,10.0067277 C13.5374462,10.0556059 13.8785841,10.3657483 13.9735893,10.7707092 L13.9932723,10.8833789 L14,11 L14,13 L13.9932723,13.1166211 C13.9443941,13.5374462 13.6342517,13.8785841 13.2292908,13.9735893 L13.1166211,13.9932723 L13,14 L11,14 L10.8833789,13.9932723 C10.3860402,13.9355072 10,13.5128358 10,13 C10,12.5266131 10.3289337,12.1300527 10.7707092,12.0264107 L10.8833789,12.0067277 L11,12 L12,12 L12,11 L12.0067277,10.8833789 C12.0556059,10.4625538 12.3657483,10.1214159 12.7707092,10.0264107 L12.8833789,10.0067277 L13,10 Z M3,10 L3.11662113,10.0067277 L3.22929083,10.0264107 C3.59375563,10.1119154 3.88141744,10.3967876 3.97093734,10.7596884 L3.99327227,10.8833789 L4,11 L4,12 L5,12 L5.11662113,12.0067277 L5.22929083,12.0264107 C5.67106635,12.1300527 6,12.5266131 6,13 C6,13.4733869 5.67106635,13.8699473 5.22929083,13.9735893 L5.11662113,13.9932723 L5,14 L3,14 L2.88337887,13.9932723 L2.77070917,13.9735893 C2.40624437,13.8880846 2.11858256,13.6032124 2.02906266,13.2403116 L2.00672773,13.1166211 L2,13 L2,11 L2.00672773,10.8833789 L2.02641071,10.7707092 C2.11191536,10.4062444 2.39678757,10.1185826 2.75968842,10.0290627 L2.88337887,10.0067277 L3,10 Z M8,2 C8.55228475,2 9,2.44771525 9,3 L9,7 L13,7 C13.5522847,7 14,7.44771525 14,8 C14,8.55228475 13.5522847,9 13,9 L9,9 L9,13 C9,13.5522847 8.55228475,14 8,14 C7.44771525,14 7,13.5522847 7,13 L7,9 L3,9 C2.44771525,9 2,8.55228475 2,8 C2,7.44771525 2.44771525,7 3,7 L7,7 L7,3 C7,2.44771525 7.44771525,2 8,2 Z M13,2 L13.1166211,2.00672773 C13.575703,2.06004937 13.9399506,2.42429701 13.9932723,2.88337887 L14,3 L14,5 L13.9932723,5.11662113 C13.9399506,5.57570299 13.575703,5.93995063 13.1166211,5.99327227 L13,6 L12.8833789,5.99327227 C12.424297,5.93995063 12.0600494,5.57570299 12.0067277,5.11662113 L12,5 L12,4 L11,4 L10.8833789,3.99327227 C10.3860402,3.93550716 10,3.51283584 10,3 C10,2.48716416 10.3860402,2.06449284 10.8833789,2.00672773 L11,2 L13,2 Z M5,2 L5.11662113,2.00672773 C5.61395981,2.06449284 6,2.48716416 6,3 C6,3.47338693 5.67106635,3.86994729 5.22929083,3.97358929 L5.11662113,3.99327227 L5,4 L4,4 L4,5 L3.99327227,5.11662113 C3.9443941,5.53744617 3.63425172,5.87858412 3.22929083,5.97358929 L3.11662113,5.99327227 L3,6 L2.88337887,5.99327227 C2.46255383,5.9443941 2.12141588,5.63425172 2.02641071,5.22929083 L2.00672773,5.11662113 L2,5 L2,3 L2.00672773,2.88337887 C2.0556059,2.46255383 2.36574828,2.12141588 2.77070917,2.02641071 L2.88337887,2.00672773 L3,2 L5,2 Z"/>
</svg>
