<svg xmlns="http://www.w3.org/2000/svg" width="16" height="16" viewBox="0 0 16 16">
  <path fill-rule="evenodd" d="M11.6129691,2.20957575 L11.7071724,2.29277093 L13.707032,4.29298473 L13.7833161,4.37849902 L13.7833161,4.37849902 L13.8204525,4.42821131 L13.8204525,4.42821131 L13.8497387,4.47274899 L13.9061954,4.57682965 L13.9487476,4.6834229 L13.9487476,4.6834229 L13.9672101,4.74581384 L13.9672101,4.74581384 L13.9931975,4.88347039 L13.9993831,4.96713971 L13.9993831,4.96713971 L13.9963283,5.08517964 L13.9889059,5.14921068 L13.9730081,5.23163401 L13.9501893,5.31233767 L13.9062559,5.42342546 L13.9062559,5.42342546 L13.8671295,5.49866304 L13.8671295,5.49866304 L13.8204896,5.57195652 L13.8204896,5.57195652 L13.774522,5.62985458 L13.7070445,5.70733312 L11.7071724,7.70757005 C11.3166647,8.09812518 10.6835268,8.09812518 10.2930191,7.70757005 C9.93255051,7.34705762 9.90482216,6.77978176 10.209834,6.38745957 L10.2930191,6.2932448 L10.585522,6.0004864 L3.00052197,6.00024947 C2.48768614,6.00024947 2.06501481,5.61420928 2.00724971,5.11687059 L2.00052197,5.00009151 C2.00052197,4.44780676 2.44823722,4.00009151 3.00052197,4.00009151 L10.585522,4.0004864 L10.2930191,3.70709618 C9.93255051,3.34658375 9.90482216,2.7793079 10.209834,2.38698571 L10.2930191,2.29277093 C10.6534877,1.9322585 11.2206946,1.90452677 11.6129691,2.20957575 Z M2.232665,11.641138 L2.17951038,11.5716155 L2.13287053,11.4983221 L2.13287053,11.4983221 L2.08362746,11.4006996 L2.08362746,11.4006996 L2.0498107,11.3119967 L2.0498107,11.3119967 L2.02699187,11.231293 L2.02699187,11.231293 L2.01109408,11.1488697 L2.00180776,11.0588656 L2.00180776,10.9406824 L2.00180776,10.9406824 L2.01139287,10.8493499 L2.03278991,10.7454729 L2.06131324,10.6543978 L2.06131324,10.6543978 L2.09380462,10.5764887 L2.13374474,10.4998267 L2.13374474,10.4998267 L2.19754771,10.402947 L2.19754771,10.402947 L2.25361865,10.3343006 L2.25361865,10.3343006 L2.29296796,10.2926438 L4.29282761,8.29242995 L4.38703093,8.20923477 C4.74661587,7.92960654 5.25319262,7.92960654 5.61277757,8.20923477 L5.70698089,8.29242995 L5.79016595,8.38664473 C6.06976018,8.7462734 6.06976018,9.25291175 5.79016595,9.61254043 L5.70698089,9.7067552 L5.41447803,10.0001454 L12.999478,9.99975053 C13.5123139,9.99975053 13.9349852,10.3857907 13.9927503,10.8831294 L13.999478,10.9997505 L13.9927503,11.1165296 C13.9394287,11.5756115 13.575181,11.9398591 13.1160992,11.9931808 L12.999478,11.9999085 L5.41447803,12.0001454 L5.70698089,12.2929038 L5.79016595,12.3871186 C6.09517784,12.7794408 6.06744949,13.3467166 5.70698089,13.7072291 C5.34651229,14.0677415 4.77930541,14.0954732 4.38703093,13.7904242 L4.29282761,13.7072291 L2.29296796,11.7070153 L2.25161143,11.6631016 L2.25161143,11.6631016 L2.24152197,11.6498546 L2.232665,11.641138 Z"/>
</svg>
